<svg width="22" height="19" viewBox="0 0 22 19" fill="none" xmlns="http://www.w3.org/2000/svg"><path d="M16.834 6.104a.929.929 0 0 1-.678-.276.926.926 0 0 1-.28-.686c0-.128.024-.25.073-.364a.957.957 0 0 1 .204-.3c.206-.208.653-.43 1.339-.666l1.029-.353c-.116.373-.238.72-.364 1.04a8.93 8.93 0 0 1-.323.786c-.12.26-.229.439-.325.536a.937.937 0 0 1-.675.284ZM2.704 18.146c-.481 0-.893-.172-1.234-.514a1.689 1.689 0 0 1-.511-1.236V3.478c0-.481.172-.893.515-1.236a1.686 1.686 0 0 1 1.236-.514h5.254c.482 0 .893.171 1.234.514.34.343.511.754.511 1.235v8.295c.176-.124.376-.232.598-.324.222-.09.48-.136.777-.136a2.37 2.37 0 0 1 1.74.716 2.37 2.37 0 0 1 .718 1.742v1.916c0 .39.132.717.395.98.264.263.59.395.98.395s.717-.132.98-.395a1.33 1.33 0 0 0 .396-.98v-5.208h-.96v-1.23a5.017 5.017 0 0 1-2.074-1.66 4.049 4.049 0 0 1-.8-2.443c0-1.221.426-2.255 1.279-3.103.853-.848 1.885-1.272 3.096-1.272 1.22 0 2.255.424 3.103 1.272.848.848 1.272 1.882 1.272 3.103 0 .897-.267 1.712-.8 2.444a5.018 5.018 0 0 1-2.075 1.657v1.232h-.958v5.208a2.37 2.37 0 0 1-.716 1.741 2.369 2.369 0 0 1-1.74.718 2.374 2.374 0 0 1-1.742-.718 2.364 2.364 0 0 1-.72-1.74v-1.918c0-.39-.131-.716-.395-.98a1.323 1.323 0 0 0-.98-.393c-.39 0-.716.132-.979.395-.262.263-.394.59-.394.98v2.625c0 .481-.171.893-.514 1.235a1.687 1.687 0 0 1-1.238.515H2.704Zm14.132-9.708c.915 0 1.693-.32 2.332-.961.638-.64.957-1.419.957-2.334s-.32-1.692-.96-2.33c-.641-.64-1.419-.959-2.334-.959s-1.692.32-2.33.961c-.64.641-.96 1.418-.96 2.333 0 .915.321 1.692.962 2.331.64.64 1.418.959 2.333.959ZM2.71 17.062h5.248a.65.65 0 0 0 .48-.187.649.649 0 0 0 .188-.479v-2.667l-1.918 1.917v-1.54l1.918-1.917V8.94l-1.918 1.917v-1.54L8.626 7.4V4.146L6.708 6.063V4.522l1.523-1.524a.445.445 0 0 0-.197-.145.82.82 0 0 0-.281-.042H2.915a.82.82 0 0 0-.281.042.444.444 0 0 0-.198.145l1.523 1.524V6.06L2.04 4.145v3.252l1.92 1.917v1.539L2.04 8.936v3.252l1.918 1.918v1.538L2.04 13.728v2.667c0 .195.063.355.189.479a.656.656 0 0 0 .479.187" fill="#435DFF"/></svg>