<svg width="28" height="22" viewBox="0 0 28 22" fill="none" xmlns="http://www.w3.org/2000/svg"><path d="M27.5 2.922v16.155c0 .69-.231 1.266-.693 1.728-.463.463-1.04.695-1.73.695H2.922c-.69 0-1.266-.231-1.728-.693-.462-.463-.694-1.04-.694-1.73V2.922c0-.69.232-1.266.694-1.728C1.657.732 2.232.5 2.922.5h22.155c.69 0 1.266.232 1.728.694.463.463.695 1.038.695 1.728ZM2 6.213h24v-3.29c0-.23-.096-.441-.288-.634-.193-.192-.404-.288-.634-.288H2.922c-.23 0-.442.096-.635.288-.192.193-.288.405-.288.635v3.289Zm0 3.576v9.29c0 .23.096.441.288.634.193.192.405.288.635.288h22.155c.23 0 .441-.096.634-.288.192-.193.288-.404.288-.634v-9.29H2Z" fill="#435DFF"/></svg>