<svg width="22" height="22" viewBox="0 0 22 22" fill="none" xmlns="http://www.w3.org/2000/svg"><path d="M1.283 12.168a2.708 2.708 0 0 1 0-2.337c.151-.318.411-.624.931-1.235.208-.244.312-.365.399-.495.2-.297.338-.631.407-.983a5.62 5.62 0 0 0 .068-.631c.064-.8.096-1.2.214-1.534a2.708 2.708 0 0 1 1.653-1.651c.334-.118.733-.15 1.534-.214.319-.026.477-.039.63-.069.352-.07.687-.208.984-.407.13-.087.252-.19.494-.398.611-.52.917-.78 1.235-.933a2.708 2.708 0 0 1 2.337 0c.32.152.625.412 1.235.933.244.208.365.311.495.398.298.2.632.338.984.407.153.03.312.043.63.07.8.062 1.2.095 1.534.213a2.709 2.709 0 0 1 1.652 1.65M3.302 17.047a2.709 2.709 0 0 0 1.652 1.651c.334.12.733.15 1.534.213.318.026.477.04.63.07.352.07.686.208.984.407.13.087.251.19.494.398.611.52.917.78 1.235.933a2.709 2.709 0 0 0 2.337 0c.32-.152.625-.412 1.235-.933a5.56 5.56 0 0 1 .495-.398c.298-.2.632-.338.984-.407.152-.03.312-.044.63-.07.8-.062 1.2-.095 1.534-.213a2.708 2.708 0 0 0 1.652-1.65c.118-.335.15-.735.214-1.535.025-.318.038-.478.068-.632.07-.35.208-.685.407-.982.087-.13.19-.251.398-.495.52-.611.78-.917.934-1.235a2.707 2.707 0 0 0 0-2.337M7.75 14.25l6.5-6.5" stroke="#435DFF" stroke-width="1.5" stroke-linecap="round"/><path d="M14.791 13.708a1.083 1.083 0 1 1-2.166 0 1.083 1.083 0 0 1 2.166 0ZM9.375 8.292a1.083 1.083 0 1 1-2.167 0 1.083 1.083 0 0 1 2.167 0Z" fill="#435DFF"/></svg>