<svg width="17" height="18" viewBox="0 0 17 18" fill="none" xmlns="http://www.w3.org/2000/svg"><path d="M4.215 1.07c1.052.768 1.849 1.847 2.527 2.837l.532.782a1.253 1.253 0 0 1-.149 1.594l-1.13 1.13.12.254c.291.59.795 1.441 1.552 2.2a8.225 8.225 0 0 0 1.753 1.316l.306.164.273.135.121.056 1.13-1.13a1.251 1.251 0 0 1 1.598-.142l.845.586c.96.675 1.962 1.444 2.742 2.442a1.225 1.225 0 0 1 .157 1.238c-.697 1.627-2.462 3.013-4.298 2.945l-.25-.014-.194-.016-.216-.025-.234-.032-.254-.043-.272-.053-.288-.064-.305-.078-.32-.092-.336-.108c-1.538-.522-3.49-1.547-5.494-3.55C2.13 11.399 1.104 9.447.582 7.908l-.108-.335-.092-.32-.078-.306-.065-.288a9.824 9.824 0 0 1-.053-.272l-.041-.254L.11 5.9l-.024-.215L.07 5.49l-.013-.25C-.01 3.41 1.39 1.632 3.01.938a1.225 1.225 0 0 1 1.205.133Zm-.773 1.507c-.893.467-1.758 1.534-1.72 2.601l.018.274.018.17.024.192.033.21.043.232.054.248.067.267.08.282.095.299c.035.101.071.205.111.312l.129.327.146.339c.524 1.152 1.377 2.5 2.771 3.893 1.394 1.394 2.742 2.248 3.894 2.771l.339.147.326.128c.107.04.211.077.313.112l.298.095.284.08.265.066.249.055.23.042.212.033.192.025.17.017.273.017c1.053.039 2.129-.821 2.594-1.703-.594-.696-1.33-1.266-2.143-1.841l-.623-.435-.159.166-.338.37-.18.188c-.487.497-1.057.92-1.74.644l-.19-.08-.23-.103-.127-.06-.282-.141-.31-.167a9.888 9.888 0 0 1-2.138-1.604 9.888 9.888 0 0 1-1.605-2.14l-.166-.308-.142-.282-.163-.358-.08-.19c-.26-.641.097-1.182.553-1.65l.187-.184.464-.427.167-.159-.395-.577c-.585-.85-1.158-1.617-1.869-2.193h.001Zm7.553 1.49.096.01a2.917 2.917 0 0 1 2.382 2.467.834.834 0 0 1-1.632.328l-.019-.096a1.25 1.25 0 0 0-.892-1.028l-.129-.029a.834.834 0 0 1 .194-1.652ZM11 1.533a5 5 0 0 1 5 5 .834.834 0 0 1-1.66.098l-.006-.098a3.332 3.332 0 0 0-3.115-3.326L11 3.2a.833.833 0 0 1 0-1.667Z" fill="#435DFF"/></svg>