<svg width="258" height="231" viewBox="0 0 258 231" fill="none" xmlns="http://www.w3.org/2000/svg"><path d="M67.809 197.191a16.202 16.202 0 0 1 5.12-26.646 16.186 16.186 0 0 1 12.528.109 16.202 16.202 0 0 1 5.259 3.63 81.004 81.004 0 0 0 41.476 22.175 81.005 81.005 0 0 0 83.161-34.449 81.002 81.002 0 0 0 13.646-45.009 16.2 16.2 0 1 1 32.4 0 113.394 113.394 0 0 1-70.003 104.775 113.4 113.4 0 0 1-123.587-24.585Z" fill="#EFEFEF"/><path d="M205.654 162.877a16.188 16.188 0 0 1-12.164 2.41 16.194 16.194 0 0 1-10.305-6.897 16.2 16.2 0 0 1 4.487-22.47l48.6-32.4a16.204 16.204 0 0 1 22.456 22.491 16.202 16.202 0 0 1-4.474 4.466l-48.6 32.4Z" fill="#EFEFEF"/><path d="M291.079 156.608a16.206 16.206 0 0 1-16.652 24.88 16.201 16.201 0 0 1-10.305-6.898l-32.4-48.6a16.206 16.206 0 0 1-2.41-12.164 16.203 16.203 0 0 1 29.367-5.818l32.4 48.6ZM226.684 33.585a16.202 16.202 0 0 1-5.12 26.646 16.199 16.199 0 0 1-17.787-3.739 80.999 80.999 0 0 0-138.283 57.283 16.203 16.203 0 0 1-16.2 16.2 16.2 16.2 0 0 1-16.2-16.2A113.398 113.398 0 0 1 168.619 2.547a113.402 113.402 0 0 1 58.065 31.038Z" fill="#EFEFEF"/><path d="M88.855 67.896a16.202 16.202 0 0 1 17.982 26.956l-48.617 32.4a16.189 16.189 0 0 1-12.164 2.41 16.196 16.196 0 0 1-10.305-6.897 16.202 16.202 0 0 1 4.487-22.469l48.617-32.4Z" fill="#EFEFEF"/><path d="M3.415 74.166a16.202 16.202 0 0 1 26.957-17.982l32.4 48.6a16.2 16.2 0 0 1-10.33 24.884 16.206 16.206 0 0 1-16.627-6.902l-32.4-48.6Z" fill="#EFEFEF"/></svg>