<svg width="143" height="43" viewBox="0 0 143 43" fill="none" xmlns="http://www.w3.org/2000/svg">
<g id="Group-23836" clip-path="url(#clip0_314_1085)">
<path id="Vector" d="M80.6103 38.8317C78.0004 38.8317 75.9457 36.827 75.9457 34.2175C75.9457 31.608 77.9981 29.6032 80.6103 29.6032C83.221 29.6032 85.3349 31.608 85.3349 34.2175C85.3349 36.827 83.221 38.8317 80.6103 38.8317ZM85.3326 29.4903H84.7747C83.7468 27.6849 81.842 26.6526 79.6404 26.6526C76.0319 26.6526 72.6868 29.9488 72.6868 34.2175C72.6868 38.4862 75.9435 41.7536 79.6404 41.7536C81.8398 41.7536 83.7468 40.7213 84.7747 38.9159H85.3326V41.3792H88.5599V26.9982H85.3326V29.4903ZM103.842 32.7001H96.3041V26.9982H93.0769V41.3814H96.3041V35.6795H103.842V41.3814H107.07V26.9982H103.842V32.7001ZM118.42 34.0469L126.047 26.9982H121.645L114.812 33.5884V26.9982H111.585V41.3814H114.812V34.7625L121.704 41.3814H126.428L118.42 34.0469ZM65.0328 38.5748H59.8417V34.964H65.0328C66.5001 34.964 67.2032 35.7083 67.2032 36.7694C67.2032 37.8305 66.5296 38.5748 65.0328 38.5748ZM65.4139 32.1552H59.8394V29.8048H69.2851V26.9982H56.6123V41.3814H65.4116C68.4324 41.3814 70.487 39.432 70.487 36.7672C70.487 34.1023 68.4074 32.1552 65.4139 32.1552ZM7.91482 17.8207C5.30677 17.8207 3.25437 15.8159 3.25437 13.2108C3.25437 10.6057 5.30677 8.60104 7.91482 8.60104C10.5228 8.60104 12.6319 10.6057 12.6319 13.2108C12.6319 15.8159 10.5228 17.8207 7.91482 17.8207ZM12.6319 8.48587H12.074C11.0489 6.68267 9.14399 5.65039 6.94415 5.65039C3.34054 5.6526 0 8.94437 0 13.2108C0 17.4773 3.25437 20.7403 6.94642 20.7403C9.14399 20.7403 11.0489 19.7102 12.0763 17.9048H12.6342V20.3659H15.8591V5.99596H12.6319V8.48587ZM103.056 17.7918C100.388 17.7918 98.4249 15.7871 98.4249 13.2108C98.4249 10.6057 100.388 8.60104 103.056 8.60104C105.634 8.60104 107.686 10.6057 107.686 13.2108C107.686 15.7871 105.693 17.7918 103.056 17.7918ZM103.056 5.6526C99.1865 5.6526 96.05 8.2577 95.3472 11.7222H92.6213V5.99596H89.3963V20.3681H92.6213V14.6419H95.3472C96.021 18.1352 99.1865 20.7403 103.056 20.7403C107.394 20.7403 110.911 17.3909 110.911 13.2108C110.911 9.00199 107.364 5.6526 103.056 5.6526ZM112.084 8.97315H117.477V20.3681H120.701V8.97315H126.095V5.99596H112.084V8.97315ZM76.5879 5.99596L70.2852 20.3681H73.6847L78.5789 8.88675L83.4729 20.3681H87.0199L80.7172 5.99596H76.5879ZM44.2593 8.60104C47.4253 8.60104 48.3052 10.9779 48.3052 10.9779H51.7047C51.7047 10.9779 50.3553 5.6526 44.2593 5.6526C39.8915 5.6526 36.4625 9.00199 36.4625 13.2108C36.4625 17.4485 39.8915 20.7691 44.2593 20.7691C50.3553 20.7691 51.7047 15.4438 51.7047 15.4438H48.3052C48.3052 15.4438 47.4253 17.8207 44.2593 17.8207C41.6808 17.8207 39.7463 15.8159 39.7463 13.2108C39.7463 10.6057 41.6785 8.60104 44.2593 8.60104ZM28.8425 17.5327H23.6242V13.9551H28.8425C30.3075 13.9551 31.0105 14.6995 31.0105 15.7583C31.0105 16.8172 30.337 17.5327 28.8425 17.5327ZM29.2235 11.1485H23.6242V8.82921H33.0924V5.99374H20.3993V20.3659H29.2212C32.2103 20.3659 34.2922 18.4188 34.2922 15.7561C34.2922 13.0934 32.183 11.1485 29.2235 11.1485ZM61.4928 17.7918C58.7668 17.7918 56.7733 15.7871 56.7733 13.2108C56.7733 10.6057 58.7668 8.60104 61.4928 8.60104C64.1302 8.60104 66.2121 10.6057 66.2121 13.2108C66.2121 15.7871 64.1892 17.7918 61.4928 17.7918ZM61.4928 5.6526C57.0364 5.6526 53.5212 9.00199 53.5212 13.2108C53.5212 17.3909 57.0387 20.7403 61.4928 20.7403C65.9196 20.7403 69.4937 17.3909 69.4937 13.2108C69.4959 9.00199 65.8606 5.6526 61.4928 5.6526Z" fill="#FF5000"/>
<path id="Vector_2" fill-rule="evenodd" clip-rule="evenodd" d="M142.708 5.96331C142.708 9.25675 139.975 11.9266 136.603 11.9266C133.231 11.9266 130.498 9.25675 130.498 5.96331C130.498 2.66986 133.231 0 136.603 0C139.975 0 142.708 2.66986 142.708 5.96331Z" fill="#00F500"/>
</g>
<defs>
<clipPath id="clip0_314_1085">
<rect width="142.706" height="42.4885" fill="white"/>
</clipPath>
</defs>
</svg>
