<svg width="129" height="35" viewBox="0 0 129 35" fill="none" xmlns="http://www.w3.org/2000/svg">
<g id="logo-alfa 1">
<path id="Vector" d="M122.967 9.34878L118.622 14.1905V9.34878H115.478V21.5719H118.622V16.4265L123.273 21.573H127.334L121.615 15.1686L126.92 9.34878H122.967ZM109.935 13.9084H105.589V9.3477H102.445V21.5709H105.589V16.7518H109.935V21.5719H113.079V9.34986H109.935V13.9084ZM18.6692 15.9672C18.5931 18.2476 18.2975 18.7037 17.0087 18.7037V21.573H17.489C20.7023 21.573 21.475 19.9238 21.5945 16.2547L21.7249 12.1922H24.7383V21.5784H27.8842V9.3477H18.8865L18.6692 15.9672ZM35.6974 13.0611H33.4263V9.34878H30.2803V21.5719H35.7398C39.1672 21.5719 40.3908 19.3586 40.3908 17.2749C40.3908 14.5817 38.6869 13.0611 35.6974 13.0611ZM35.4551 18.8809H33.4252V15.7759H35.4573C36.5483 15.7759 37.2047 16.2547 37.2047 17.2749C37.2047 18.3816 36.57 18.8809 35.4551 18.8809ZM50.6317 9.06563V4.52653H47.4857V9.06563C43.8856 9.36283 41.4612 11.9112 41.4612 15.4463C41.4612 18.9814 43.8845 21.5482 47.4868 21.8529V26.4569H50.6328V21.8562C54.2351 21.573 56.6595 19.0106 56.6595 15.4463C56.6595 11.881 54.2351 9.34554 50.6317 9.06239V9.06563ZM47.4857 18.9004C45.7384 18.6593 44.6473 17.3581 44.6473 15.4463C44.6473 13.5334 45.7394 12.2322 47.4857 11.9944V18.9004ZM50.6317 18.9004V11.9977C52.3791 12.2354 53.4788 13.5345 53.4788 15.4452C53.4788 17.3581 52.3878 18.6604 50.6404 18.8993M68.4489 17.8164V13.7085C68.4489 10.7116 66.5255 8.82246 63.2969 8.82246C59.9554 8.82246 58.1863 10.8197 58.0341 12.9055H61.2225C61.3311 12.4483 61.8114 11.6659 63.2969 11.6659C64.5205 11.6659 65.3051 12.2311 65.3051 13.7085H62.182C59.3849 13.7085 57.7288 15.1632 57.7288 17.5948C57.7288 20.1389 59.5435 21.8767 62.1603 21.8767C64.0837 21.8767 65.1454 20.9754 65.6105 20.2923C66.0245 21.118 66.9417 21.573 68.1424 21.573H69.2356V18.7491C68.6673 18.7491 68.4489 18.4886 68.4489 17.8164ZM65.3029 17.0123C65.3029 18.4237 64.2978 19.2267 62.9883 19.2267C61.8527 19.2267 60.9584 18.815 60.9584 17.5981C60.9584 16.3812 61.9408 16.2072 62.7916 16.2072H65.3029V17.0123ZM78.405 11.0855V7.63365H86.5497V4.52761H75.1081V21.573H81.9237C85.6999 21.573 87.8657 19.7066 87.8657 16.2752C87.8657 13.0406 85.7032 11.0855 81.9237 11.0855H78.405ZM81.7716 18.4886H78.404V14.0554H81.7662C83.5146 14.0554 84.4959 14.8584 84.4959 16.2709C84.4959 17.7245 83.5146 18.4843 81.7662 18.4843M99.8909 17.8164V13.7085C99.8909 10.7116 97.9675 8.82246 94.7368 8.82246C91.4028 8.82787 89.6294 10.8251 89.4805 12.9098H92.6677C92.7775 12.4527 93.2589 11.6713 94.7422 11.6713C95.9658 11.6713 96.7526 12.2354 96.7526 13.7139H93.6229C90.8269 13.7139 89.1686 15.1686 89.1686 17.5991C89.1686 20.1389 90.9845 21.8767 93.6023 21.8767C95.5257 21.8767 96.5863 20.9754 97.0514 20.2923C97.4665 21.118 98.3847 21.573 99.5844 21.573H100.675V18.7491C100.109 18.7491 99.8909 18.4886 99.8909 17.8164ZM96.7449 17.0123C96.7449 18.4237 95.7398 19.2267 94.4303 19.2267C93.2947 19.2267 92.3982 18.815 92.3982 17.5981C92.3982 16.3812 93.3828 16.2072 94.2336 16.2072H96.7449V17.0123ZM16.812 26.7854H0V30.26H16.812V26.7854ZM11.4634 6.86633C10.982 5.44623 10.431 4.32227 8.53696 4.32227C6.64505 4.32227 6.05607 5.44191 5.55293 6.86633L0.349911 21.573H3.79903L4.99981 18.0779H11.6416L12.7576 21.573H16.4284L11.4634 6.86633ZM6.00499 15.1243L8.36309 8.14592H8.45002L10.6766 15.1243H6.00499Z" fill="#EF3124"/>
</g>
</svg>
