<svg width="94" height="35" viewBox="0 0 94 35" fill="none" xmlns="http://www.w3.org/2000/svg">
<g id="logo-atb 1" clip-path="url(#clip0_314_957)">
<path id="Vector" d="M53.0427 7.89445C52.7483 7.12832 52.3952 6.95156 51.5122 6.95156H49.2166C48.3925 6.95156 48.0393 7.12832 47.745 7.95343L40.5637 27.0487C40.2693 27.8738 40.446 28.2274 41.3878 28.2274H43.448C44.9195 28.2274 45.3316 27.9917 45.6259 27.1076L46.5677 24.2787H53.9845L54.9263 27.1076C55.2206 27.9917 55.6328 28.2274 57.1633 28.2274H59.4C60.2829 28.2274 60.5183 27.8148 60.2241 27.0487L53.0427 7.89445ZM47.8627 20.33L49.4521 15.674C50.1584 13.5523 50.1584 12.02 50.1584 12.02H50.4527C50.4527 12.02 50.5116 13.5523 51.218 15.733L52.7483 20.3889H47.8627V20.33ZM73.4683 6.89258H59.2233C58.2815 6.89258 57.9872 7.18731 57.9872 8.13019V10.134C57.9872 11.0181 58.2815 11.3128 59.2233 11.3128H63.9324V26.9308C63.9324 27.8738 64.2267 28.1684 65.1097 28.1684H67.5231C68.4649 28.1684 68.7594 27.8738 68.7594 26.9308V11.3717H73.4094C74.3513 11.3717 74.6455 11.077 74.6455 10.193V8.18918C74.6455 7.2462 74.3513 6.89258 73.4683 6.89258ZM86.2414 14.7311H81.4153V11.2539H90.4209C91.3036 11.2539 91.6568 10.9002 91.6568 10.0162V8.13019C91.6568 7.18731 91.3036 6.89258 90.4209 6.89258H77.7069C76.8232 6.89258 76.4703 7.18731 76.4703 8.13019V27.0487C76.4703 27.9327 76.8232 28.2274 77.6474 28.2274H86.1829C90.3029 28.2274 93.0105 25.6342 93.0105 21.5087C93.07 17.3243 90.3624 14.7311 86.2414 14.7311ZM85.5353 23.8661H81.3559V19.0923H85.5353C87.1241 19.0923 88.0078 20.0353 88.0078 21.5087C88.0663 22.9232 87.1241 23.8661 85.5353 23.8661Z" fill="#373A36"/>
<path id="Vector_2" d="M28.378 0H5.65677C2.53695 0 0.00585938 2.53425 0.00585938 5.65788V28.4071C0.00585938 31.5308 2.53695 34.065 5.65677 34.065H28.3191C31.4388 34.065 33.97 31.5308 33.97 28.4071V5.65788C34.0288 2.53425 31.4977 0 28.378 0ZM32.2629 27.8178C32.2041 27.8767 32.0864 27.9356 32.0275 27.8767C27.6716 25.2246 22.4916 23.6923 17.0174 23.6923C11.543 23.6923 6.36314 25.2246 2.00723 27.8767C1.94831 27.9356 1.83059 27.8767 1.77177 27.8178C1.71286 27.7 1.77177 27.641 1.83059 27.5821C5.83332 24.5174 9.24741 20.6276 11.8962 16.0306C14.5451 11.4335 16.1933 6.48299 16.8407 1.53233C16.8407 1.4734 16.8996 1.35553 17.0174 1.35553C17.1351 1.35553 17.1939 1.41446 17.1939 1.53233C17.8415 6.48299 19.4895 11.4335 22.1385 16.0306C24.7873 20.6276 28.2603 24.5174 32.2041 27.5231C32.3218 27.641 32.3218 27.7 32.2629 27.8178Z" fill="#FE5000"/>
</g>
<defs>
<clipPath id="clip0_314_957">
<rect width="93.0689" height="34.5836" fill="white"/>
</clipPath>
</defs>
</svg>
