<svg width="165" height="46" viewBox="0 0 165 46" fill="none" xmlns="http://www.w3.org/2000/svg">
<g id="bank-avangard">
<g id="Page-1">
<g id="logo_avangardrus">
<path id="Fill-1" d="M3.81641 29.2543V15.8223H13.1637V17.4783H7.99091V21.5263H10.0782C11.0764 21.5263 14.0712 21.4343 14.0712 23.3663V27.5063C14.0712 29.0703 11.7117 29.3463 10.0782 29.3463L3.81641 29.2543ZM7.99091 22.9983V27.5983H9.53366C9.71516 27.5983 9.89666 27.5063 9.89666 27.1383V23.4583C9.89666 23.1823 9.80591 22.9983 9.53366 22.9983H7.99091Z" fill="#003A23"/>
<path id="Fill-2" d="M15.7949 29.2543L18.7897 15.8223H24.9607L28.0462 29.2543H23.9624L23.3272 25.8503H20.4232L19.8787 29.2543H15.7949ZM21.8752 17.7543L20.7862 24.0103H23.2364L22.1474 17.7543H21.8752Z" fill="#003A23"/>
<path id="Fill-3" d="M30.1328 15.8223H34.2166V21.2503L36.1223 21.1583V15.8223H40.2061V29.2543H36.1223V23.0903H34.2166V29.2543H30.1328V15.8223Z" fill="#003A23"/>
<path id="Fill-4" d="M43.291 15.8223H47.284V21.2503L49.9158 15.8223H53.818L50.8233 22.0783L54.2718 29.2543H50.4603L47.284 23.1823V29.2543H43.291V15.8223Z" fill="#003A23"/>
<path id="Fill-5" d="M63.2559 29.2543L66.2506 15.8223H72.5124L75.5071 29.2543H71.4234L70.7881 25.8503H67.9749L67.3396 29.2543H63.2559ZM69.3361 17.6623L68.1564 23.9183H70.6066L69.5176 17.6623H69.3361Z" fill="#003A23"/>
<path id="Fill-6" d="M88.8494 29.2543L91.8441 15.8223H98.0151L101.01 29.2543H97.0169L96.3816 25.8503H93.4776L92.8424 29.2543H88.8494ZM94.8389 17.7543L93.7499 24.0103H96.2001L95.1111 17.7543H94.8389Z" fill="#003A23"/>
<path id="Fill-7" d="M123.969 29.2543L126.964 15.8223H133.135L136.22 29.2543H132.136L131.501 25.8503H128.597L127.962 29.2543H123.969ZM129.958 17.7543L128.869 24.0103H131.32L130.231 17.8463H129.958V17.7543Z" fill="#003A23"/>
<path id="Fill-8" d="M107.361 15.8223V21.2503H109.267V15.8223H113.351V29.2543H109.267V23.0903H107.361V29.2543H103.277V15.8223H107.361Z" fill="#003A23"/>
<path id="Fill-9" d="M81.4999 17.3863V21.2503H82.8612C83.2242 21.2503 83.3149 21.1583 83.3149 20.9743V17.7543C83.3149 17.5703 83.2242 17.3863 82.8612 17.3863H81.4999ZM77.5977 29.2543V15.8223H83.4964C87.4894 15.8223 87.3079 17.2023 87.3079 17.7543V20.5143C87.3079 20.8823 87.2172 22.1703 85.0392 22.0783V22.1703C86.7634 22.1703 87.3987 22.7223 87.3987 23.5503V27.2303C87.3987 27.8743 87.1264 29.0703 83.4964 29.0703H77.5977V29.2543ZM81.4999 23.0903V27.5983H82.9519C83.2242 27.5983 83.4057 27.4143 83.4057 27.2303V23.6423C83.4057 23.3663 83.3149 23.1823 82.9519 23.1823H81.4999V23.0903Z" fill="#003A23"/>
<path id="Fill-10" d="M116.799 15.8223H124.876V17.3863H120.792V29.2543H116.799V15.8223Z" fill="#003A23"/>
<g id="Group-14">
<g id="Mask group">
<mask id="mask0_314_960" style="mask-type:luminance" maskUnits="userSpaceOnUse" x="138" y="15" width="24" height="16">
<g id="Group">
<g id="Group_2">
<path id="path-1_1_" d="M138.039 15.8223H161.18V30.9103H138.039V15.8223Z" fill="white"/>
</g>
</g>
</mask>
<g mask="url(#mask0_314_960)">
<path id="Fill-11" d="M138.037 29.2543V15.8223H144.208C145.569 15.8223 147.838 15.8223 147.838 17.7543V22.3543C147.838 24.3783 145.66 24.3783 144.208 24.4703H142.03V29.2543H138.037ZM142.03 17.3863V22.8143H143.754C144.48 22.9063 144.48 22.5383 144.48 22.2623V17.8463C144.48 17.3863 144.027 17.2943 143.754 17.3863H142.03Z" fill="#003A23"/>
</g>
</g>
<g id="Mask group_2">
<mask id="mask1_314_960" style="mask-type:luminance" maskUnits="userSpaceOnUse" x="138" y="15" width="24" height="16">
<g id="Group_3">
<g id="Group_4">
<path id="path-1_2_" d="M138.039 15.8223H161.18V30.9103H138.039V15.8223Z" fill="white"/>
</g>
</g>
</mask>
<g mask="url(#mask1_314_960)">
<path id="Fill-13" d="M148.199 30.9103V27.7823H148.471C150.196 27.7823 150.377 26.8623 150.377 26.4023V15.8223H160.087V27.6903H161.086V30.9103H157.093V29.2543H152.101V30.9103H148.199ZM156.73 17.3863H154.37V26.2183C154.37 26.8623 154.189 27.5063 153.553 27.6903H156.73V17.3863Z" fill="#003A23"/>
</g>
</g>
</g>
</g>
</g>
</g>
</svg>
