<svg width="150" height="32" viewBox="0 0 150 32" fill="none" xmlns="http://www.w3.org/2000/svg">
<g id="centr-invest 1" clip-path="url(#clip0_314_1034)">
<path id="XMLID_34_" fill-rule="evenodd" clip-rule="evenodd" d="M13.3438 0.0488281V7.17572L19.0916 0.0488281H13.3438Z" fill="#50B748"/>
<path id="XMLID_33_" fill-rule="evenodd" clip-rule="evenodd" d="M0.899666 3.46171C1.29952 2.80925 1.74935 2.30735 2.34913 1.80546L2.79896 1.50432C3.24879 1.25337 3.59866 1.10281 4.09848 1.00243C4.39837 0.952238 4.64827 0.902048 4.94816 0.902048C5.34801 0.902048 5.69788 0.952238 6.09773 1.05262C6.34764 1.153 6.59755 1.25337 6.89744 1.35375C7.49721 1.70508 7.94705 2.0564 8.39688 2.5583L8.69677 3.01C9.19658 3.76285 9.49647 4.4655 9.74638 5.31872L9.89632 5.8708C9.89632 5.97118 9.9463 6.07156 9.9463 6.12175V0.0488281H0V6.12175C0.0999629 5.46929 0.299889 4.56588 0.599777 3.91341L0.899666 3.46171Z" fill="#50B748"/>
<path id="XMLID_32_" fill-rule="evenodd" clip-rule="evenodd" d="M23.2401 1.05273L13.3438 13.2488V16.0594C13.3438 15.959 13.3937 15.8586 13.3937 15.8084L13.5437 15.2563C13.7936 14.4031 14.0935 13.7005 14.5933 12.9476L14.9432 12.4959C15.343 12.0944 15.6929 11.7431 16.1927 11.4419C16.4426 11.2914 16.6925 11.191 16.9424 11.0906C17.5422 10.8899 18.042 10.8397 18.6418 10.8397L19.1916 10.94C19.6914 11.0404 20.0413 11.2412 20.4911 11.4419C20.741 11.5925 20.9409 11.7431 21.1409 11.9438C21.7906 12.5461 22.2404 13.1484 22.6403 13.9012L22.8402 14.4031C23.0401 14.905 23.1401 15.6077 23.2401 16.1096V1.05273Z" fill="#50B748"/>
<path id="Vector" fill-rule="evenodd" clip-rule="evenodd" d="M18.292 21.2802C16.8925 21.2802 15.743 19.4734 15.743 17.265C15.743 15.0567 16.8925 13.2499 18.292 13.2499C19.6915 13.2499 20.8411 15.0567 20.8411 17.265C20.8411 19.4734 19.6915 21.2802 18.292 21.2802ZM18.292 12.2461C16.2928 12.2461 14.6934 14.5046 14.6934 17.265C14.6934 20.0255 16.2928 22.284 18.292 22.284C20.2913 22.284 21.8907 20.0255 21.8907 17.265C21.8907 14.5046 20.2913 12.2461 18.292 12.2461Z" fill="#50B748"/>
<path id="XMLID_29_" fill-rule="evenodd" clip-rule="evenodd" d="M13.4929 19.3708L13.343 18.7685C13.343 18.6681 13.293 18.5678 13.293 18.5176V24.5905H23.1893V18.5678C23.0393 19.2202 22.8894 20.0734 22.5895 20.7259L22.3396 21.2278C21.9398 21.8803 21.4899 22.3822 20.8901 22.8841L20.4403 23.1852C19.9905 23.4361 19.6406 23.5867 19.1408 23.6871C18.8409 23.7373 18.591 23.7875 18.2911 23.7875C17.8913 23.7875 17.5414 23.7373 17.1415 23.6369C16.8916 23.5365 16.6417 23.4361 16.3418 23.3358C15.7421 22.9844 15.2922 22.6331 14.8424 22.1312L14.4925 21.6795C14.0427 20.9769 13.7428 20.224 13.4929 19.3708Z" fill="#50B748"/>
<path id="XMLID_28_" fill-rule="evenodd" clip-rule="evenodd" d="M9.89632 8.63281C9.89632 8.73319 9.84634 8.83357 9.84634 8.88376L9.6964 9.43584C9.44649 10.2891 9.1466 10.9917 8.64679 11.7446L8.29692 12.1963C7.89707 12.5978 7.5472 12.9491 7.04738 13.2502C6.79747 13.4008 6.54757 13.5012 6.29766 13.6016C5.69788 13.8023 5.19807 13.8525 4.59829 13.8525L4.0485 13.7521C3.54868 13.6518 3.19881 13.451 2.74898 13.2502C2.49907 13.0997 2.29915 12.9491 2.09922 12.7483C1.44946 12.1461 0.999629 11.5438 0.599777 10.791C0.299889 10.0883 0.0999629 9.38565 0 8.63281V23.6394L9.89632 11.3932V8.63281Z" fill="#50B748"/>
<path id="Vector_2" fill-rule="evenodd" clip-rule="evenodd" d="M4.94632 11.3915C3.54684 11.3915 2.39727 9.5847 2.39727 7.42655C2.39727 5.21822 3.54684 3.4114 4.94632 3.4114C6.3458 3.4114 7.49537 5.21822 7.49537 7.42655C7.44539 9.5847 6.3458 11.3915 4.94632 11.3915ZM4.94632 2.35742C2.94706 2.35742 1.34766 4.61595 1.34766 7.37636C1.34766 10.1368 2.94706 12.3953 4.94632 12.3953C6.94558 12.3953 8.54498 10.1368 8.54498 7.37636C8.54498 4.61595 6.89559 2.35742 4.94632 2.35742Z" fill="#50B748"/>
<path id="XMLID_25_" fill-rule="evenodd" clip-rule="evenodd" d="M9.89435 17.4648L4.14648 24.6419H9.89435V17.4648Z" fill="#50B748"/>
<path id="XMLID_24_" fill-rule="evenodd" clip-rule="evenodd" d="M22.9385 0.0488281H20.1395L0.296875 24.6416H3.04585L22.9385 0.0488281Z" fill="#50B748"/>
<path id="XMLID_23_" fill-rule="evenodd" clip-rule="evenodd" d="M12.4943 24.642H10.7949V22.9355H12.4943V24.642Z" fill="#50B748"/>
<path id="XMLID_22_" fill-rule="evenodd" clip-rule="evenodd" d="M24.091 22.9355V24.642C25.2406 24.642 26.1903 25.5956 26.1903 26.7499C26.1903 27.9043 25.2406 28.8579 24.091 28.8579C23.2414 28.8579 22.4417 28.6571 20.8423 28.2556C17.6934 27.5028 13.8449 26.5492 10.746 25.7462C5.14809 24.3408 0 25.8967 0 29.5104H1.69937C1.69937 28.1552 4.2984 27.2518 9.89632 28.6571C14.7445 29.8617 16.5439 30.3134 20.1925 31.1666C22.5916 31.7689 24.5409 31.6183 25.9903 30.9157C27.3898 30.213 28.3895 28.7575 28.3895 27.1013C28.3395 24.8427 26.4402 22.9355 24.091 22.9355Z" fill="#50B748"/>
<path id="XMLID_21_" d="M82.666 20.8765H87.6142V18.5176H82.666V20.8765Z" fill="#50B748"/>
<path id="Vector_3" d="M109.208 16.9627H104.51V12.3452H101.861V24.5915H104.51V19.3216H109.208V24.6416H111.857V12.3452H109.208V16.9627ZM91.6145 20.0744V12.3452H88.9655V24.5915H91.0148L97.1625 16.8121V24.5915H99.8115V12.3452H97.7623L91.6145 20.0744ZM138.097 12.0943C136.398 12.0943 134.848 12.546 133.599 13.7003C132.549 14.6539 131.65 16.26 131.65 18.4683C131.65 20.2752 132.199 21.7808 133.599 23.136C134.599 24.0896 135.948 24.8424 138.047 24.8424C139.347 24.8424 140.346 24.4911 141.046 24.1397L141.146 24.0896V20.8272L140.846 21.1786C140.196 21.9816 139.247 22.4333 138.197 22.4333C137.248 22.4333 136.248 22.082 135.548 21.4295C134.799 20.7771 134.349 19.7733 134.349 18.5185C134.349 17.4646 134.749 16.4608 135.398 15.7079C136.048 14.9551 136.998 14.5034 138.147 14.5034C138.547 14.5034 139.847 14.6038 140.896 15.8083L141.196 16.1094V12.8471L141.096 12.7969C139.997 12.2449 138.947 12.0943 138.097 12.0943ZM78.7193 17.5147C78.2695 17.8661 77.7697 17.8661 77.3199 17.8661H76.5202V14.6539H77.1699C77.7197 14.6539 78.2695 14.7041 78.7193 15.0053C79.0192 15.2562 79.3191 15.6075 79.3191 16.26C79.3191 16.7117 79.1192 17.2136 78.7193 17.5147ZM80.7686 13.2988C80.3187 12.8973 79.8189 12.6464 79.3191 12.4958C78.7693 12.3452 78.2195 12.3452 77.5198 12.3452H73.9211V24.5915H76.5701V20.1748H77.9196C79.3191 20.1748 80.3687 19.7733 81.0685 19.0706C82.0181 18.117 82.1181 16.7619 82.1181 16.3102C82.0181 15.4068 81.7682 14.2022 80.7686 13.2988ZM141.946 12.3452V14.6539H144.645V24.5915H147.294V14.6539H149.993V12.3452H141.946ZM45.1818 24.6416H52.0792V22.3329H47.7808V19.3718H51.8793V17.063H47.7808V14.7041H52.0792V12.3954H45.1818V24.6416ZM119.454 21.5299C119.354 21.7307 119.204 21.9314 118.954 22.082C118.505 22.3831 117.855 22.3831 117.455 22.3831H116.605V19.4219H117.305C117.805 19.4219 118.355 19.4219 118.804 19.6227C119.154 19.7733 119.354 19.974 119.454 20.225C119.554 20.4257 119.604 20.6767 119.604 20.8272C119.554 21.0782 119.554 21.3291 119.454 21.5299ZM116.555 14.5536H117.055C117.505 14.5536 117.905 14.6539 118.205 14.8547C118.505 15.0555 118.654 15.3566 118.654 15.9087C118.654 16.26 118.555 16.511 118.455 16.7117C118.255 17.0128 118.005 17.1634 117.705 17.2136C117.405 17.314 117.155 17.314 117.005 17.314H116.505V14.5536H116.555ZM120.104 18.0166C120.254 17.9163 120.454 17.7657 120.604 17.5147C120.904 17.1132 121.204 16.5611 121.204 15.7079C121.204 14.6539 120.754 13.7003 120.054 13.0981C119.054 12.295 117.705 12.295 117.055 12.295H113.956V24.5413H118.105C119.154 24.5413 120.304 24.3405 121.204 23.5375C122.053 22.7846 122.253 21.7307 122.253 20.9778C122.253 20.3254 122.103 19.3718 121.354 18.6189C121.104 18.4683 120.704 18.1672 120.104 18.0166ZM123.703 24.6416H130.6V22.3329H126.302V19.3718H130.4V17.063H126.302V14.7041H130.6V12.3954H123.703V24.6416ZM42.6827 12.3452H40.0337V22.2827H35.6353V12.3452H32.9863V24.5915H41.6331V27.3017H44.0822V22.2827H42.6327V12.3452H42.6827ZM61.1759 16.9627H56.4776V12.3452H53.8286V24.5915H56.4776V19.3216H61.1759V24.6416H63.8249V12.3452H61.1759V16.9627ZM64.8745 14.6539H67.5735V24.5915H70.2225V14.6539H72.9215V12.3452H64.9245V14.6539H64.8745ZM56.1777 3.76284H52.5291V0.0990175H50.3799V9.88595H52.5291V5.67004H56.1777V9.88595H58.3269V0.0990175H56.1777V3.76284ZM43.6324 6.07156L44.732 3.26095L45.8316 6.07156H43.6324ZM43.8823 0.0990175L39.7338 9.88595H42.0829L42.9326 7.87838H46.4813L47.331 9.88595H49.6801L45.6316 0.0990175H43.8823ZM63.9748 4.61606L68.1233 0.0488281H65.3743L62.1255 3.76284V0.0990175H59.9763V9.88595H62.1255V5.77042L62.1755 5.72023L65.4743 9.88595H68.3232L63.9748 4.61606ZM37.1848 7.57724C36.9848 7.778 36.585 7.92857 35.8853 7.92857H35.1855V5.72023H35.9352C36.635 5.72023 36.9848 5.8708 37.2347 6.12175C37.4347 6.3225 37.5346 6.62364 37.5346 6.87459C37.4847 7.12554 37.4347 7.37648 37.1848 7.57724ZM38.7342 4.66625C37.9845 3.9636 36.9848 3.86322 36.2851 3.86322H35.1855V2.00622H38.7842V0.0990175H32.9863V9.88595H36.2851C36.685 9.88595 37.2347 9.83576 37.7346 9.68519C38.2344 9.53463 38.7342 9.23349 39.134 8.68141C39.4839 8.17951 39.6838 7.57724 39.6838 6.87459C39.6838 5.92099 39.334 5.16815 38.7342 4.66625Z" fill="#50B748"/>
</g>
<defs>
<clipPath id="clip0_314_1034">
<rect width="149.944" height="31.6193" fill="white"/>
</clipPath>
</defs>
</svg>
