<svg width="145" height="26" viewBox="0 0 145 26" fill="none" xmlns="http://www.w3.org/2000/svg">
<g id="drive-click 1" clip-path="url(#clip0_314_1078)">
<path id="Vector" d="M135.753 17.8953H132.197V5.89693H135.753V10.3719H137.236L140.359 5.89693H144.349L140.128 11.8215L144.707 17.8953H140.716L137.186 13.1465H135.753V17.8953ZM119.861 17.8953H116.769V5.89693H120.322V12.6468L125.793 5.89693H128.861V17.8953H125.333V11.1454L119.861 17.8953ZM87.2395 0.103676V7.17023H90.1271L94.6508 0.103516H98.9194L93.1171 8.77092L99.2522 17.8951H95.0087L90.1271 10.6251H87.2395V17.8951H83.4062V0.103676H87.2395ZM113.847 5.89693V18.0559H110.175V8.68293H106.926C106.568 13.9675 105.645 18.0218 102.443 18.2954L100.084 15.1772V15.1705C100.348 15.2721 100.613 15.3219 100.85 15.3219C102.858 15.3219 103.306 11.3443 103.544 5.89918H113.845L113.847 5.89693Z" fill="#3CAE61"/>
<path id="Vector_2" d="M54.6301 0H67.5566L56.3462 3.72435L56.2982 2.27716L54.6301 0.00224794V0ZM71.9369 8.27626V10.7591L74.5987 10.7342C75.4283 10.7342 76.105 10.4176 76.105 9.5176C76.105 8.54296 75.3758 8.25137 74.5736 8.25137L71.9369 8.27626ZM71.9369 12.8282V15.311H75.0842C75.9867 15.311 76.7342 15.0011 76.7342 14.0944C76.7342 13.1153 75.9616 12.8304 75.0842 12.8304H71.9369V12.8282ZM75.9365 17.7939H68.3907V5.79566H74.9473C77.8736 5.79566 79.1225 7.37404 79.1225 8.99753C79.1225 9.87262 78.7442 11.2045 77.6663 11.6907C79.1247 12.1181 80.0683 13.095 80.0683 14.5445C80.0683 16.2449 79.0428 17.7939 75.9365 17.7939ZM56.0568 17.8934H52.9641V5.89505H56.517V12.645L61.9889 5.89505H65.0566V17.8934H61.5285V11.1435L56.0568 17.8934ZM43.8184 12.4144C42.5399 12.4144 41.2864 12.8643 41.2864 14.1623C41.2864 15.1166 42.1138 15.7248 43.1666 15.7248C44.1444 15.7248 45.0719 15.4331 45.874 14.6914V12.706C45.3477 12.5727 44.5455 12.4144 43.8184 12.4144ZM43.3398 5.37947C47.0068 5.37947 49.3496 6.8697 49.3496 10.8585V14.7208C49.3496 15.3518 49.7575 15.5281 50.2156 15.5281C50.4184 15.5281 50.6487 15.5032 50.8788 15.4263V17.7237C50.3181 17.9251 49.6048 18.0765 48.9188 18.0765C47.6699 18.0765 46.7287 17.6221 46.2206 16.7129C45.024 17.6469 43.6224 18.2031 41.8152 18.2031C39.5224 18.2031 37.5376 16.8894 37.5376 14.4924C37.5376 11.4126 40.4661 10.4516 42.9114 10.4516C43.8799 10.4516 44.9489 10.5781 45.8149 10.7795V10.3498C45.8149 9.1377 44.8462 8.30565 42.9365 8.30565C42.0021 8.30565 41.1224 8.44582 40.327 8.64926L38.743 6.13928C39.7641 5.81365 41.5417 5.37498 43.3444 5.37498L43.3398 5.37947ZM32.1111 11.7925C32.1111 9.86812 30.8622 8.2761 28.7611 8.2761C27.1407 8.2761 25.9442 9.25074 25.4383 10.3294C25.2993 10.7524 25.2308 11.2406 25.2308 11.7925C25.2308 12.3442 25.3016 12.8327 25.4383 13.2556C25.9442 14.3341 27.1407 15.3088 28.7611 15.3088C30.86 15.3088 32.1111 13.7169 32.1111 11.7925ZM29.8002 5.37947C33.7385 5.37947 35.8647 8.51583 35.8647 11.8558C35.8647 15.1956 33.7407 18.3321 29.8002 18.3321C27.8312 18.3321 26.5093 17.5407 25.705 16.6746V24.4579L22.1018 25.5635V5.73674H25.2901V7.52095C26.0672 6.42428 27.4939 5.37947 29.8002 5.37947ZM7.0353 2.50533L5.08231 0H17.3V14.619H19.6018V21.9297H16.1878V18.0177H3.41401V21.9297H0V14.6191H2.25387L7.03303 2.50324L7.0353 2.50549V2.50533ZM6.05524 14.8974H13.3457V3.72676H10.4629L6.05524 14.8974Z" fill="#435861"/>
</g>
<defs>
<clipPath id="clip0_314_1078">
<rect width="144.774" height="25.6907" fill="white"/>
</clipPath>
</defs>
</svg>
