<svg width="144" height="16" viewBox="0 0 144 16" fill="none" xmlns="http://www.w3.org/2000/svg">
<g id="logo-expo" clip-path="url(#clip0_314_1081)">
<path id="Vector" d="M8.49141 5.64252C8.49141 3.06561 10.6594 0.976229 13.3333 0.976229C16.0072 0.976229 18.1752 3.06561 18.1752 5.64252C18.1752 8.21942 16.0072 10.3088 13.3333 10.3088C10.6594 10.3088 8.49141 8.21942 8.49141 5.64252ZM0 12.05H26.7028V15.5671H0V12.05ZM1.80668 0.941406C1.19241 0.941406 0.578139 1.04588 0 1.28964V9.96058C2.49322 10.9356 5.31165 9.75164 6.32339 7.34885C7.33513 4.94606 6.10659 2.22986 3.61337 1.28964C3.03523 1.0807 2.42096 0.941406 1.80668 0.941406ZM24.86 0.941406C25.4742 0.941406 26.0885 1.04588 26.6666 1.28964V9.96058C24.1734 10.9356 21.355 9.78646 20.3433 7.38367C19.3315 4.98088 20.5239 2.26468 23.0171 1.28964C23.6314 1.0807 24.2457 0.941406 24.86 0.941406Z" fill="#FDA329"/>
<path id="Vector_2" d="M46.6848 3.20133C48.1302 4.59425 48.8529 6.33541 48.8529 8.42479C48.8529 10.5142 48.1302 12.2553 46.6848 13.6482C45.2395 15.076 43.4328 15.7725 41.2287 15.7725C38.5548 15.7725 36.2061 14.484 34.9414 12.4294L37.4346 11.0365C38.1212 12.2553 39.5665 13.0214 41.2287 13.0214C43.6135 13.0214 45.3118 11.733 45.8176 9.67842H39.2774V7.06669H45.8176C45.3118 5.01213 43.6135 3.72368 41.2287 3.72368C39.5665 3.72368 38.1573 4.45496 37.4346 5.74341L34.9414 4.35049C36.2061 2.29593 38.5909 1.00748 41.2287 1.00748C43.4328 1.07713 45.2395 1.77359 46.6848 3.20133ZM60.4156 15.4939H57.272L53.478 10.8972V15.4939H50.768V5.39518H53.478V9.85253L57.0913 5.39518H60.3072L56.0796 10.3749L60.4156 15.4939ZM62.0417 14.2402C60.9938 13.1955 60.4879 11.9419 60.4879 10.4445C60.4879 8.94713 60.9938 7.6935 62.0417 6.64881C63.1257 5.60412 64.4265 5.1166 66.0164 5.1166C68.0398 5.1166 69.8465 6.12647 70.7137 7.72833L68.4012 9.0516C67.9676 8.21585 67.0642 7.6935 66.0164 7.6935C64.3903 7.6935 63.1979 8.84267 63.1979 10.4445C63.1979 11.2455 63.487 11.9071 63.9929 12.4294C64.5349 12.917 65.1853 13.1955 66.0164 13.1955C67.1004 13.1955 68.0037 12.708 68.4373 11.8723L70.786 13.1607C69.8465 14.7626 68.076 15.7725 66.0525 15.7725C64.4265 15.7725 63.1257 15.2849 62.0417 14.2402ZM81.8429 5.39518V15.4939H79.1329V7.8328H74.9775V15.4939H72.2675V5.39518H81.8429ZM89.2864 15.7725C87.7327 15.7725 86.4319 15.2849 85.3479 14.2402C84.2639 13.1955 83.758 11.9419 83.758 10.4445C83.758 8.94713 84.2639 7.69351 85.3479 6.68364C86.4319 5.63895 87.7327 5.1166 89.2864 5.1166C90.8402 5.1166 92.141 5.63895 93.225 6.68364C94.309 7.72833 94.851 8.98196 94.851 10.4445C94.851 11.9071 94.309 13.1955 93.225 14.2402C92.141 15.2849 90.8402 15.7725 89.2864 15.7725ZM89.2864 13.2304C90.1175 13.2304 90.7679 12.9518 91.3099 12.4294C91.8519 11.9071 92.141 11.2455 92.141 10.4445C92.141 9.6436 91.8519 8.98196 91.3099 8.45961C90.7679 7.93727 90.0814 7.65868 89.2864 7.65868C88.4554 7.65868 87.805 7.93727 87.263 8.45961C86.7571 8.98196 86.468 9.6436 86.468 10.4445C86.468 11.2455 86.7571 11.9071 87.263 12.4294C87.805 12.9518 88.4554 13.2304 89.2864 13.2304ZM97.7056 14.2402C96.6938 13.1955 96.188 11.9071 96.188 10.3401C96.188 8.63373 96.477 7.27563 96.9829 6.37023C97.5249 5.43001 98.5728 4.55943 100.199 3.79332C100.416 3.68885 100.777 3.51474 101.211 3.34062L102.078 2.92275C102.258 2.8531 102.475 2.71381 102.764 2.57452C103.523 2.12182 103.74 1.77359 104.101 0.972656L106.305 2.19146C106.125 3.02722 105.727 3.65403 105.077 4.10673C104.463 4.55943 103.523 5.01213 102.222 5.46483C100.452 6.12647 99.7652 6.75328 99.4039 7.6935C100.163 6.9274 101.211 6.54434 102.547 6.54434C103.704 6.54434 104.752 6.96222 105.655 7.76315C106.558 8.56408 107.028 9.6436 107.028 11.0017C107.028 12.3946 106.558 13.509 105.547 14.4144C104.571 15.3198 103.306 15.7376 101.716 15.7376C100.054 15.7725 98.7535 15.2849 97.7056 14.2402ZM99.8375 9.26054C99.2955 9.67842 99.0425 10.2356 99.0425 10.932C99.0425 11.6285 99.2955 12.2205 99.8013 12.6732C100.343 13.1259 100.958 13.3697 101.716 13.3697C102.475 13.3697 103.09 13.1607 103.595 12.708C104.065 12.2553 104.318 11.6982 104.318 11.0017C104.318 9.6436 103.234 8.63373 101.716 8.63373C100.994 8.63373 100.379 8.84267 99.8375 9.26054ZM116.603 5.39518H119.314V15.4939H116.603V14.3099C115.772 15.2849 114.652 15.7725 113.171 15.7725C111.762 15.7725 110.569 15.2849 109.557 14.2402C108.582 13.1955 108.076 11.9419 108.076 10.4445C108.076 8.94713 108.582 7.69351 109.557 6.68364C110.569 5.63895 111.762 5.1166 113.171 5.1166C114.652 5.1166 115.772 5.60412 116.603 6.57917V5.39518ZM113.677 13.3C114.508 13.3 115.194 13.0214 115.736 12.4991C116.314 11.9419 116.567 11.2803 116.567 10.4445C116.567 9.60877 116.278 8.94713 115.736 8.38997C115.194 7.8328 114.508 7.58904 113.677 7.58904C112.846 7.58904 112.159 7.86762 111.617 8.38997C111.075 8.91231 110.786 9.60877 110.786 10.4445C110.786 11.2803 111.075 11.9767 111.617 12.4991C112.159 13.0214 112.846 13.3 113.677 13.3ZM128.636 5.39518H131.346V15.4939H128.636V11.6633H124.481V15.4939H121.771V5.39518H124.481V9.22572H128.636V5.39518ZM143.451 15.4939H140.307L136.477 10.8972V15.4939H133.767V5.39518H136.477V9.85253L140.09 5.39518H143.306L139.115 10.3749L143.451 15.4939Z" fill="#004259"/>
</g>
<defs>
<clipPath id="clip0_314_1081">
<rect width="143.74" height="15.8097" fill="white"/>
</clipPath>
</defs>
</svg>
