<svg width="151" height="35" viewBox="0 0 151 35" fill="none" xmlns="http://www.w3.org/2000/svg">
<g id="gazprom-lizing 1" clip-path="url(#clip0_314_929)">
<path id="Vector" fill-rule="evenodd" clip-rule="evenodd" d="M125.365 6.82244L125.951 10.917H124.753L125.365 6.82244ZM120.705 16.2158H123.901L124.273 13.8876H126.483L126.857 16.2158H130.052L127.362 2.7279H123.421L120.705 16.2158ZM102.625 2.7279L104.968 5.91258L107.338 2.7279H110.001V16.2158H106.859V7.97329L104.968 10.3281L103.078 7.97329V16.1891H99.9358V2.7279H102.625ZM44.1243 2.75462H50.5682V6.0998H47.3196V16.1622H44.1243V2.75462ZM141.794 2.7279H144.856V7.57196H145.522L147.28 2.72805H150.635L148.238 9.09742L150.981 16.1622H147.36L145.602 10.7565H144.856V16.1622H141.794V2.7279ZM131.383 2.7279H134.445V7.57196H136.628V2.7279H139.717V16.1891H136.628V10.7831H134.445V16.1622H131.383V2.7279ZM115.193 13.4594V10.4086H115.646C116.019 10.4086 117.004 10.4086 117.004 11.8001C117.004 13.1918 116.019 13.4861 115.646 13.4861L115.193 13.4594ZM112.131 16.1355H115.886C116.445 16.1622 117.031 16.0552 117.563 15.8412C118.096 15.6271 118.575 15.306 118.974 14.8776C119.374 14.4763 119.667 13.9679 119.88 13.4326C120.066 12.8974 120.146 12.3087 120.093 11.7467C120.093 8.32117 117.457 7.73231 115.752 7.73231H115.22V5.96603H119.401V2.75462H112.158V16.1622H112.131V16.1355ZM93.4652 13.0579C92.3469 13.0579 91.7878 11.8003 91.7878 9.47186C91.7878 7.1436 92.3469 5.88585 93.4652 5.88585C94.5835 5.88585 95.1428 7.1436 95.1428 9.47186C95.1428 11.8001 94.5835 13.0579 93.4652 13.0579ZM93.4652 16.2426C97.193 16.2426 98.4445 12.8707 98.4445 9.49874C98.4445 6.12668 97.193 2.75462 93.4652 2.75462C89.7641 2.75462 88.4859 6.12653 88.4859 9.49859C88.4859 12.8705 89.7374 16.2426 93.4652 16.2426ZM82.4946 5.69847H83.2402C83.9592 5.69847 84.4118 6.12668 84.4118 7.22393C84.4118 8.69578 83.6663 8.7761 83.2402 8.7761H82.4946V5.69847ZM79.4058 16.1891H82.5216V11.7467H83.5867C86.7017 11.7467 87.6603 8.96348 87.6603 7.1972C87.6603 5.43092 86.5687 2.70117 83.5867 2.70117H79.4058V16.1891ZM69.0211 2.7279H77.5955V16.2158H74.4532V5.96603H72.1632V16.2158H69.0211V2.7279ZM62.6039 8.00002C62.7902 8.02674 62.9766 8.00002 63.1363 7.94657C63.2962 7.89296 63.4559 7.78591 63.6158 7.67886C63.7488 7.57181 63.8554 7.41115 63.9352 7.25065C64.0151 7.08999 64.0684 6.90277 64.0684 6.74211C64.0684 6.58161 64.0151 6.39423 63.9619 6.23373C63.8858 6.07792 63.7768 5.94086 63.6423 5.83225C63.5093 5.72535 63.3494 5.64503 63.1897 5.59142C63.03 5.53797 62.8436 5.53797 62.6837 5.53797C62.0979 5.53797 61.5121 5.67159 60.9529 5.91258V3.04905C61.8583 2.80822 62.7636 2.70117 63.6956 2.70117C66.2518 2.70117 67.4235 4.44073 67.4235 6.0998C67.4501 6.74211 67.2638 7.38443 66.8908 7.94641C66.5447 8.48167 66.0123 8.90988 65.3998 9.15071V9.28448C66.0654 9.47186 66.6246 9.90007 67.024 10.4621C67.4235 11.024 67.6099 11.7198 67.5567 12.4157C67.5567 14.8778 65.7725 16.2158 63.4826 16.2158C62.4441 16.2693 61.4322 16.0285 60.527 15.5468L60.5802 12.8438C61.2458 13.1382 61.9382 13.272 62.657 13.2453C62.8436 13.272 63.0033 13.2453 63.163 13.1918C63.3229 13.1384 63.4826 13.0579 63.6158 12.9241C63.7488 12.8172 63.8554 12.6565 63.9352 12.4959C64.0151 12.3354 64.0417 12.1747 64.0417 11.9875C64.0417 11.2649 63.5624 10.7565 62.4707 10.7565H61.2458V8.00002H62.6039ZM54.9085 6.79572L55.521 10.8903H54.3227L54.9085 6.79572ZM50.2486 16.1891H53.4439L53.8167 13.8608H56.0003L56.373 16.1891H59.5684L56.879 2.70117H52.9381L50.2486 16.1891ZM48.0918 26.6797H49.237L48.6511 22.6385L48.0918 26.6797ZM50.5948 18.6513L53.2044 31.8983H50.089L49.7163 29.6236H47.586L47.2133 31.8983H44.0978L46.7073 18.6513H50.5948ZM77.1425 21.7821C76.0774 21.7821 75.5183 23.0398 75.5183 25.3684C75.5183 27.6967 76.0774 28.9546 77.1425 28.9546C78.2343 28.9546 78.767 27.6967 78.767 25.3684C78.767 23.0398 78.2077 21.7821 77.1425 21.7821ZM77.1425 18.5707C80.764 18.5707 81.9888 21.9695 81.9888 25.3684C81.9888 28.7672 80.764 32.1658 77.1425 32.1658C73.5212 32.1658 72.2964 28.7672 72.2964 25.3684C72.2964 21.9695 73.5212 18.5707 77.1425 18.5707ZM63.0033 18.6513V21.9429H65.5596V31.8712H68.6485V21.9429H71.2046V18.6513H63.0033ZM57.385 26.3852H57.9174C58.1838 26.3852 58.3967 26.4924 58.5831 26.733C58.7695 26.9473 58.8495 27.2953 58.8495 27.7232C58.8495 28.1516 58.7695 28.4724 58.5831 28.7136C58.3967 28.9275 58.1838 29.0613 57.9174 29.0613H57.385V26.3852ZM57.385 21.4612H57.8376C58.0773 21.4612 58.2637 21.568 58.3967 21.7557C58.5299 21.9429 58.6098 22.237 58.6098 22.6385C58.6098 23.0398 58.5299 23.3346 58.3967 23.5487C58.2637 23.7359 58.0773 23.8428 57.8376 23.8428H57.385V21.4612ZM54.376 31.8712H57.9973C58.6098 31.8712 59.1689 31.7645 59.6482 31.5771C60.1275 31.3897 60.5536 31.1222 60.8732 30.8007C61.2193 30.4531 61.4589 30.0782 61.6454 29.6236C61.8318 29.1685 61.9117 28.6869 61.9117 28.1516C61.9117 27.8034 61.885 27.4555 61.8051 27.108C61.7253 26.7601 61.6188 26.4389 61.4856 26.1445C61.3258 25.8499 61.1395 25.5822 60.9264 25.3684C60.6868 25.1543 60.4204 24.9671 60.0743 24.8597C60.1275 24.8597 60.2075 24.7794 60.3673 24.6994C60.527 24.592 60.6868 24.4318 60.8732 24.2441C61.0596 24.0303 61.1926 23.7628 61.3525 23.4149C61.4856 23.0669 61.5654 22.6385 61.5654 22.157C61.5654 21.6753 61.4856 21.1935 61.2992 20.7652C61.1429 20.3426 60.8976 19.9592 60.5803 19.6412C60.2607 19.3203 59.888 19.0794 59.4353 18.8918C58.9826 18.7044 58.4768 18.6243 57.9174 18.6243H54.376V31.8712ZM123.581 32.0853H126.643V26.733H128.827V32.1124H131.916V18.6513H128.827V23.4951H126.643V18.6513H123.581V32.0853ZM134.072 32.0853H137.268V22.0232H140.516V18.6513H134.072V32.0853ZM104.915 23.8965V26.733H106.193C107.258 26.733 107.738 27.215 107.738 27.9644C107.738 28.1516 107.684 28.3123 107.605 28.4724C107.525 28.6334 107.418 28.7672 107.285 28.901C107.152 29.0077 106.992 29.1151 106.832 29.1685C106.673 29.2221 106.486 29.2488 106.326 29.2221C105.607 29.2488 104.889 29.1151 104.25 28.8206L104.196 31.5237C105.102 32.005 106.14 32.2461 107.179 32.1927C109.442 32.1927 111.253 30.8277 111.253 28.3657C111.306 27.6696 111.119 27.0006 110.72 26.4389C110.321 25.8769 109.761 25.4484 109.096 25.261V25.1273C109.708 24.8867 110.214 24.4318 110.56 23.8965C110.906 23.3346 111.066 22.6922 111.04 22.0232C111.04 20.3373 109.895 18.5977 107.312 18.5977C106.38 18.5977 105.474 18.7044 104.569 18.9456V21.7557C105.128 21.5145 105.714 21.4076 106.3 21.4342C106.46 21.4076 106.646 21.4342 106.806 21.488C106.965 21.5416 107.125 21.6217 107.258 21.7288C107.392 21.8357 107.498 21.9965 107.578 22.1303C107.658 22.2908 107.684 22.4511 107.684 22.6385C107.658 22.9864 107.498 23.3346 107.232 23.5751C106.965 23.8162 106.619 23.923 106.247 23.923H104.915V23.8965ZM84.5185 18.5707V25.9571C84.5185 28.3387 84.1989 28.901 83.5332 28.901C83.2935 28.8739 83.0539 28.8475 82.8142 28.7936V31.9515C83.2136 32.1124 83.6398 32.1927 84.0924 32.1927C87.4474 32.1927 87.4474 28.9546 87.4474 27.1344V21.8091H88.6724V32.005H91.6014V18.5707H84.5185ZM93.8913 18.678V32.1124H96.7406L99.5897 24.8597V32.1124H102.439V18.678H99.5897L96.7671 25.9302V18.678H93.8913ZM115.646 18.678V25.9302L118.469 18.678H121.344V32.1124H118.495V24.8597L115.646 32.1124H112.797V18.678H115.646Z" fill="#476BF0"/>
<path id="Vector_2" d="M0 17.2521C0 26.7685 7.64874 34.5039 17.0379 34.5039C26.4273 34.5039 34.0759 26.7685 34.0759 17.2521C34.0759 7.73542 26.4273 0 17.0379 0C7.64858 0 0 7.73542 0 17.2521ZM0.580206 17.2521C0.580206 8.05437 7.96504 0.584778 17.0381 0.584778C26.111 0.584778 33.4958 8.0811 33.4958 17.2521C33.4958 26.4496 26.111 33.9192 17.0381 33.9192C7.96536 33.9192 0.580206 26.4496 0.580206 17.2521ZM5.3014 12.5204C9.65295 9.6229 14.4796 7.94811 22.6556 9.35708C23.1041 9.09125 23.3414 8.852 23.4734 8.29379C21.4425 7.54945 19.227 7.28363 16.3521 7.33676C13.7939 7.41646 9.15197 8.37349 6.6992 9.86215L7.46407 8.90513C9.20469 7.89497 13.6883 6.51257 17.0643 6.4596C19.438 6.40631 20.6776 6.5393 23.4998 7.31004C23.2624 6.80512 22.6556 6.56586 21.8117 6.19362C19.0688 4.94436 13.9521 4.83794 9.75854 6.69885C10.286 6.35317 10.8135 6.00765 11.473 5.71526C12.8444 5.07719 15.1127 4.46585 17.9346 4.49242C20.2029 4.51914 22.8667 5.31645 24.5284 6.96452C24.7921 7.28363 24.9503 7.62915 25.0295 7.92154C26.3217 8.58618 27.0866 9.22409 27.5086 9.94185C27.6933 10.3139 27.746 10.7393 27.6669 11.1913C28.2208 11.5102 28.4582 11.8026 28.7219 12.1481C28.9064 12.4405 29.0647 12.7862 29.0911 13.1052C29.1438 13.5304 29.1965 13.9823 28.7746 14.514C29.223 14.7267 29.5659 15.3646 29.6186 15.6304C29.8296 16.614 29.1965 17.5976 28.3526 18.3419C27.4032 19.1925 25.2932 20.2027 23.5788 20.6546C20.1502 21.5318 17.1434 21.9039 14.7433 22.3292C15.8247 22.5951 17.2753 22.9406 19.6754 22.9406C24.7658 22.9406 29.2758 20.4951 29.2758 20.4951C29.2758 20.4951 29.1702 20.814 29.0647 21.1064C25.8207 23.0736 20.6776 23.9242 18.4886 23.8179C16.2467 23.7115 14.3741 23.366 12.5279 22.8078C11.9741 22.9672 11.4202 23.1267 10.8664 23.366C13.7147 24.7216 15.8247 25.014 18.2249 25.2002C20.6513 25.3863 24.6865 24.7748 28.1152 23.5254C27.957 23.6849 27.8778 23.9242 27.7197 24.0837C25.9789 25.014 22.2865 25.9445 20.4403 26.0242C18.594 26.1039 16.3521 26.0242 14.4005 25.6521C12.7126 25.333 11.341 24.7748 9.91685 24.1369C9.6531 24.3228 9.52115 24.5887 9.46843 24.8545C15.0334 27.8318 20.3085 27.9115 26.269 26.0242L25.7151 26.5558C19.1215 29.2672 13.9784 28.2039 9.99592 26.2634C9.86413 26.2103 9.70582 26.1305 9.60038 26.0773C9.96956 26.742 13.0027 28.9748 16.405 29.2672C18.7524 29.4533 21.6007 29.0545 23.3151 28.3635L22.3128 28.8951C21.4952 29.2938 19.3062 30.2242 16.2731 30.0381C12.2115 29.7723 9.9432 27.9381 8.91459 26.9812C8.43982 26.5293 8.20243 26.0242 8.07064 25.3863C7.14745 24.9078 6.56725 24.4027 6.09248 23.6318C5.80237 23.1798 5.85509 22.7013 5.93432 22.2761C5.96068 22.1431 5.98704 22.0103 6.03976 21.9039C5.59135 21.5849 5.14293 21.2394 4.95842 20.8937C4.56273 20.1495 4.80011 19.538 5.09022 19.033C4.85283 18.7671 4.6156 18.4747 4.53653 18.2089C4.43093 17.8634 4.40458 17.5444 4.43093 17.1988C4.51001 16.5874 4.82647 16.0292 5.24853 15.5241C6.14535 14.4874 7.51679 13.6899 9.91669 12.8925C12.264 12.1216 13.1874 11.9886 14.9545 11.5899C17.0116 11.1114 19.4644 10.952 21.548 10.2342C15.8247 9.14439 9.83777 10.0747 4.98478 13.4772L5.3014 12.5204ZM24.8712 8.9317C24.7921 9.22409 24.502 9.5432 24.291 9.7823C24.9239 9.94185 25.557 10.1811 26.1636 10.4204C26.0845 9.86215 25.425 9.30379 24.8712 8.9317ZM7.17381 20.5748C6.80463 20.3621 6.54089 20.2292 6.25079 19.99C6.09248 20.3621 6.40909 20.7609 6.72556 20.947C6.88371 20.814 7.04202 20.7077 7.17381 20.5748ZM26.5327 12.9722C26.9548 13.1849 27.324 13.3444 27.6669 13.5837C27.9307 13.0786 27.7724 12.7595 27.2185 12.2811C27.0339 12.5468 26.7965 12.7595 26.5327 12.9722ZM25.3196 13.7165C24.4755 14.1153 23.2887 14.514 21.548 14.9659C20.1502 15.3114 16.6951 15.8165 13.0027 16.6406C11.8158 16.9064 8.65084 17.6507 7.09474 19.0064C7.51679 19.3521 7.80689 19.4583 8.28166 19.7242C8.94095 19.2988 9.81141 18.9001 11.1036 18.5546C13.3719 17.9431 15.0598 17.6773 17.117 17.3583C19.1479 17.0128 22.9459 16.2153 25.0559 15.4444C25.7415 15.2052 26.3746 14.8596 26.8494 14.4874C26.7174 14.328 25.3723 13.6634 25.3196 13.7165ZM9.33664 22.6748C9.6531 22.4886 10.0223 22.3027 10.4443 22.1166C9.86413 21.8773 9.25741 21.5849 8.62448 21.3191C8.33438 21.5052 8.097 21.6912 7.91233 21.8773L9.33664 22.6748ZM7.38484 22.8609C7.38484 23.233 7.59587 23.5787 8.12335 24.0039C8.17607 23.7912 8.28166 23.6318 8.43997 23.4457C8.07064 23.2863 7.7013 23.0736 7.38484 22.8609ZM10.2597 15.7634C14.4269 14.5405 18.7787 14.1419 23.2097 12.9722C21.4689 12.4938 20.5193 12.2811 18.6995 12.4938C16.0357 12.8128 13.1345 13.3975 10.629 14.1419C9.6531 14.4343 4.51001 15.9229 5.98704 17.9962C5.98704 18.023 6.85735 16.7735 10.2597 15.7634ZM25.8471 11.4569C25.1613 11.138 24.3173 10.8456 23.4205 10.6065C23.025 10.9254 22.5502 11.2178 21.8909 11.4837C23.025 11.6962 23.8426 11.9887 24.7921 12.2811C24.9503 12.3608 25.7151 11.6165 25.8471 11.4569ZM27.9043 15.4976C27.7724 15.6038 27.6406 15.7102 27.4823 15.8431C26.5327 16.5874 25.0559 17.1722 22.9986 17.7304C18.7258 18.9001 15.6138 19.0595 12.0795 19.9368C11.3939 20.0962 10.6817 20.3355 9.99592 20.6279C10.6554 20.9736 11.3674 21.266 12.1059 21.5583C13.5302 21.133 14.2422 20.947 16.2994 20.6013C17.0907 20.4685 19.5436 20.0431 21.2842 19.6445C24.4755 18.9533 29.1438 17.4646 27.9043 15.4976Z" fill="#476BF0"/>
</g>
<defs>
<clipPath id="clip0_314_929">
<rect width="150.978" height="34.5836" fill="white"/>
</clipPath>
</defs>
</svg>
