<svg width="149" height="32" viewBox="0 0 149 32" fill="none" xmlns="http://www.w3.org/2000/svg">
<g id="Asset-1 1" clip-path="url(#clip0_314_894)">
<g id="Layer 2">
<g id="Layer 1">
<path id="Vector" d="M62.1169 15.4888V15.3623C62.7352 15.0925 63.2539 14.6507 63.6053 14.0946C63.9567 13.5386 64.1243 12.8943 64.0864 12.2458C64.1094 11.7696 64.0269 11.2941 63.8443 10.8505C63.6616 10.4068 63.3829 10.0051 63.0265 9.67153C62.6701 9.33797 62.2439 9.08013 61.7759 8.91489C61.3079 8.74965 60.8087 8.68074 60.3109 8.71268C59.3725 8.70448 58.4374 8.81961 57.5318 9.05484V11.978C58.078 11.7264 58.6769 11.5967 59.2833 11.5987C59.4658 11.5759 59.6512 11.5914 59.8268 11.6439C60.0024 11.6965 60.164 11.7849 60.3002 11.9031C60.4365 12.0213 60.5442 12.1664 60.616 12.3283C60.6877 12.4902 60.7217 12.6651 60.7157 12.8408C60.7014 13.1953 60.5414 13.5301 60.2703 13.7725C59.9991 14.0148 59.6389 14.1451 59.2677 14.1351H57.9054V17.021H59.1588C60.2486 17.021 60.7157 17.5194 60.7157 18.2781C60.715 18.4542 60.6766 18.6283 60.6027 18.7897C60.5287 18.9511 60.4209 19.0962 60.2859 19.2161C60.1509 19.3361 59.9916 19.4282 59.8178 19.487C59.644 19.5457 59.4594 19.5696 59.2755 19.5574C58.5452 19.5807 57.8195 19.4379 57.1581 19.1409L57.1036 21.9376C58.0222 22.4365 59.0681 22.6812 60.124 22.6442C60.6754 22.677 61.2278 22.5972 61.7444 22.4102C62.261 22.2232 62.7301 21.9332 63.1204 21.5596C63.5106 21.186 63.8132 20.7373 64.008 20.2433C64.2027 19.7493 64.2851 19.2214 64.2498 18.6946C64.3138 18.0103 64.1394 17.325 63.7536 16.7453C63.3679 16.1655 62.7925 15.7238 62.1169 15.4888Z" fill="#466BF1"/>
<path id="Vector_2" d="M47.1173 8.94336H40.5861V22.3914H43.8244V12.2979H47.1173V8.94336Z" fill="#466BF1"/>
<path id="Vector_3" d="M80.5648 8.92773H76.2833V22.3907H79.4672V17.9278H80.5337C83.6475 17.9278 84.6595 15.1534 84.6595 13.3832C84.6595 11.6129 83.5619 8.92773 80.5648 8.92773ZM80.2534 14.9898H79.475V11.903H80.2534C80.9696 11.903 81.4289 12.3344 81.4289 13.4501C81.4289 14.8782 80.6582 15.0047 80.2534 15.0047V14.9898Z" fill="#466BF1"/>
<path id="Vector_4" d="M49.4728 8.92773L46.7482 22.3907H49.971L50.3758 20.0849H52.6021L52.9836 22.4056H56.2064L53.4818 8.92773H49.4728ZM50.8662 17.1096L51.4734 13.0038L52.0806 17.1096H50.8662Z" fill="#466BF1"/>
<path id="Vector_5" d="M65.799 22.3914H68.9828V12.1938H71.3026V22.3914H74.4865V8.94336H65.799V22.3914Z" fill="#466BF1"/>
<path id="Vector_6" d="M120.938 8.9668L118.197 22.4149H121.436L121.825 20.0867H124.051L124.441 22.4149H127.663L124.939 8.9668H120.938ZM122.339 17.1487L122.946 13.0577L123.538 17.1487H122.339Z" fill="#466BF1"/>
<path id="Vector_7" d="M90.5738 8.75C86.8061 8.75 85.5372 12.2087 85.5372 15.6526C85.5372 19.0964 86.8061 22.5551 90.5738 22.5551C94.3415 22.5551 95.6182 19.0964 95.6182 15.6526C95.6182 12.2087 94.3493 8.75 90.5738 8.75ZM90.5738 19.2898C89.4528 19.2898 88.8846 18.0179 88.8846 15.6526C88.8846 13.2872 89.4528 12.0153 90.5738 12.0153C91.6948 12.0153 92.2708 13.2872 92.2708 15.6526C92.2708 18.0179 91.7026 19.2898 90.5738 19.2898Z" fill="#466BF1"/>
<path id="Vector_8" d="M146.121 15.3327L148.558 8.94336H145.164L143.381 13.7781H142.696L142.719 8.94336H139.59V22.3914H142.719L142.696 16.9839H143.435L145.241 22.3914H148.9L146.121 15.3327Z" fill="#466BF1"/>
<path id="Vector_9" d="M134.379 13.8004H132.153V8.94336H129.039V22.3914H132.153V17.0063H134.379V22.3914H137.485V8.9508H134.379V13.8004Z" fill="#466BF1"/>
<path id="Vector_10" d="M102.251 12.1194L99.8616 8.94336H97.1525V22.3914H100.336V14.1947L102.251 16.5377L104.166 14.1947V22.3914H107.35V8.94336H104.665L102.251 12.1194Z" fill="#466BF1"/>
<path id="Vector_11" d="M113.19 13.9559H112.614V12.1707H116.833V8.92773H109.508V22.3907H113.299C114.124 22.3907 117.565 22.0485 117.588 17.9725C117.588 14.5584 114.918 13.9559 113.19 13.9559ZM113.073 19.6907H112.614V16.641H113.073C113.462 16.641 114.459 16.641 114.459 18.0468C114.459 19.4526 113.462 19.6907 113.073 19.6907Z" fill="#466BF1"/>
<path id="Vector_12" d="M0.774079 15.8228C0.736704 19.7619 2.33598 23.5543 5.22111 26.3682C8.10624 29.1821 12.0416 30.7877 16.1641 30.8328C20.277 30.7741 24.1985 29.1624 27.0719 26.35C29.9453 23.5376 31.5371 19.753 31.4996 15.8228C31.4996 7.53674 24.6181 0.790391 16.1641 0.790391C12.0376 0.835517 8.09859 2.44421 5.21279 5.26295C2.327 8.08169 0.730477 11.8799 0.774079 15.8228ZM-0.00437353 15.8228C-0.0321382 13.769 0.364285 11.7302 1.1622 9.82298C1.96012 7.91578 3.14387 6.17768 4.64568 4.70816C6.1475 3.23863 7.93789 2.06655 9.91437 1.259C11.8909 0.451442 14.0146 0.0242773 16.1641 0.00195312C25.0618 0.00195312 32.3092 7.09046 32.3092 15.8228C32.3092 24.5551 25.054 31.6213 16.1641 31.6213C14.0166 31.5989 11.8948 31.1725 9.91983 30.3664C7.94488 29.5602 6.15554 28.3901 4.65403 26.923C3.15252 25.4558 1.96828 23.7203 1.16897 21.8157C0.369664 19.9111 -0.0290449 17.8747 -0.00437353 15.8228Z" fill="#466BF1"/>
<path id="Vector_13" d="M11.3364 5.83319C10.7876 6.0745 10.266 6.36858 9.77951 6.71089C13.6251 5.03732 18.3425 5.14889 20.8413 6.24229C21.6198 6.60675 22.1647 6.82246 22.3982 7.25387C20.4854 6.67187 18.4794 6.42001 16.4742 6.51006C13.3953 6.63722 10.378 7.37696 7.61542 8.68198L6.92259 9.52992C9.20346 8.20594 13.4538 7.34312 15.8125 7.2985C18.0349 7.18578 20.2594 7.47861 22.3671 8.16131C22.3201 8.36366 22.2256 8.55315 22.0907 8.7155C21.9559 8.87785 21.7842 9.00882 21.5886 9.09851C14.0766 7.81916 9.63939 9.32909 5.62258 11.8878L5.33455 12.7357C7.54495 11.306 10.0306 10.31 12.6471 9.80566C15.2637 9.3013 17.959 9.29859 20.5767 9.79769C18.6772 10.4522 16.4119 10.5936 14.5203 11.025C12.9371 11.3143 11.3765 11.7069 9.84957 12.2002C7.66212 12.8994 6.36989 13.6209 5.5603 14.5432C5.15251 14.9546 4.88159 15.4723 4.78185 16.0308C4.73336 16.336 4.76547 16.6479 4.87526 16.9383C4.99712 17.2143 5.1713 17.4665 5.38904 17.6821C5.21393 17.9184 5.11101 18.1965 5.09176 18.4855C5.07252 18.7745 5.13771 19.0628 5.28006 19.3185C5.5472 19.68 5.88568 19.9883 6.27648 20.2259L6.22199 20.5234C6.1163 20.9289 6.16888 21.3573 6.36989 21.7284C6.80771 22.4071 7.43984 22.9517 8.19147 23.2978C8.28651 23.8341 8.55941 24.3269 8.96992 24.7036C10.8181 26.3544 13.2227 27.3199 15.7502 27.426C17.6643 27.569 19.5834 27.2197 21.3084 26.4144L22.227 25.9532C20.196 26.6497 18.0345 26.931 15.8826 26.7789C12.7688 26.526 9.95856 24.5474 9.60825 23.9524C9.71724 24.0193 9.86514 24.0714 9.9897 24.1309C13.6562 25.8565 18.3892 26.8012 24.4456 24.3838L24.9438 23.9152C19.4557 25.5516 14.6137 25.4995 9.437 22.8515C9.48539 22.5961 9.62924 22.3661 9.84179 22.2044C11.1713 22.8046 12.5687 23.2564 14.0065 23.5507C15.8408 23.8564 17.705 23.9662 19.5647 23.878C21.8862 23.6712 24.1533 23.085 26.2671 22.1449C26.415 22.0185 26.4851 21.8028 26.633 21.6615C23.7299 22.7092 20.6432 23.2142 17.5407 23.1491C15.2081 23.061 12.918 22.5247 10.8071 21.5722C11.2975 21.3788 11.8191 21.2152 12.364 21.0664C14.1315 21.5934 15.9633 21.8985 17.8131 21.9739C21.2184 21.9484 24.564 21.1179 27.5516 19.5565C27.645 19.3036 27.7384 19.0358 27.7384 19.0358C24.9977 20.3744 21.9797 21.1138 18.903 21.2003C17.3743 21.2112 15.8509 21.0286 14.3724 20.6573C16.5832 20.2631 19.3623 19.9135 22.4916 19.1697C24.085 18.7653 25.5795 18.0652 26.8899 17.1093C27.2801 16.8317 27.5888 16.4628 27.7865 16.0381C27.9842 15.6134 28.0642 15.1473 28.0187 14.6845C27.8978 14.2714 27.6203 13.9161 27.2402 13.6878C27.385 13.5129 27.4867 13.3091 27.5379 13.0915C27.5891 12.8739 27.5885 12.6481 27.536 12.4308C27.4933 12.1331 27.3929 11.8455 27.2402 11.5828C26.9725 11.2264 26.6273 10.9296 26.2282 10.7126C26.3043 10.3351 26.2525 9.94428 26.0803 9.59687C25.5194 8.79765 24.7268 8.17209 23.7994 7.79685C23.7171 7.48553 23.5628 7.19578 23.3479 6.9489C21.6852 5.51844 19.5289 4.72396 17.2916 4.71748H16.9413C15.0106 4.69844 13.0985 5.07907 11.3364 5.83319ZM23.1222 9.44067C23.3482 9.22846 23.5281 8.97569 23.6515 8.69686C24.2078 8.97482 24.6313 9.44602 24.8348 10.0134C24.2746 9.79865 23.703 9.61244 23.1222 9.45554V9.44067ZM23.5815 11.6721C22.6976 11.3926 21.7984 11.1592 20.888 10.9729C21.4012 10.7988 21.8821 10.5477 22.3126 10.2291C23.0729 10.4241 23.8171 10.6728 24.539 10.9729C24.43 11.1291 23.7605 11.7167 23.6048 11.7167L23.5815 11.6721ZM25.1851 12.3043C25.4282 12.1218 25.65 11.9148 25.8468 11.687C26.345 12.1035 26.4851 12.3936 26.2516 12.8473C25.9165 12.6214 25.5594 12.4271 25.1851 12.2671V12.3043ZM6.27648 16.7672C4.91419 14.8779 9.64718 13.5837 10.5502 13.3159C12.9761 12.6263 15.4574 12.1288 17.9688 11.8283C19.3632 11.6549 20.7807 11.7924 22.1102 12.23C18.0389 13.3159 14.0065 13.6506 10.1999 14.7515C7.10942 15.6217 6.29205 16.7374 6.27648 16.7374V16.7672ZM7.28847 17.6523C8.72082 16.4622 11.6556 15.7928 12.7376 15.5622C16.1395 14.8184 19.3078 14.387 20.6156 14.0746C21.8018 13.8138 22.9592 13.4452 24.0719 12.9738C24.5754 13.1339 25.0525 13.3618 25.4887 13.6506C24.9999 14.0308 24.4398 14.3185 23.8384 14.4986C21.4533 15.2465 19.0087 15.8086 16.5287 16.1796C14.668 16.447 12.8231 16.807 11.0017 17.2581C10.0818 17.4653 9.20534 17.8199 8.40944 18.3069C8.01391 18.1133 7.63856 17.8841 7.28847 17.6226V17.6523ZM9.95856 19.0953C10.5799 18.8441 11.22 18.6377 11.8736 18.4779C15.1119 17.7341 17.9688 17.5631 21.9078 16.5143C23.3844 16.213 24.7891 15.6505 26.0492 14.8556C26.1737 14.744 26.3061 14.6548 26.4306 14.5506C27.5749 16.2763 23.3168 17.6151 20.3587 18.2325C18.8018 18.5251 17.2682 18.8052 15.758 19.073C14.439 19.256 13.1374 19.5396 11.8658 19.9209C11.2153 19.6669 10.5787 19.3814 9.95856 19.0656V19.0953ZM6.51001 18.5226C6.80583 18.7011 7.03158 18.8499 7.38188 19.0284C7.24954 19.1325 7.08607 19.2441 6.95373 19.3705C6.6657 19.2069 6.36989 18.8499 6.51001 18.5226ZM8.06692 20.1813C8.27781 20.0019 8.50439 19.8402 8.74417 19.6978C9.29687 19.9507 9.87293 20.1813 10.4023 20.4416C10.0326 20.5635 9.67562 20.7179 9.3358 20.9028C8.89208 20.6647 8.45614 20.4267 8.028 20.159L8.06692 20.1813ZM7.58428 21.059C7.90344 21.2598 8.21482 21.4234 8.52621 21.5871C8.40673 21.7401 8.31466 21.911 8.25375 22.0929C7.77889 21.7135 7.54536 21.4086 7.56092 21.059H7.58428Z" fill="#466BF1"/>
</g>
</g>
</g>
<defs>
<clipPath id="clip0_314_894">
<rect width="148.91" height="31.6193" fill="white"/>
</clipPath>
</defs>
</svg>
