<svg width="165" height="16" viewBox="0 0 165 16" fill="none" xmlns="http://www.w3.org/2000/svg">
<g id="home-bank" clip-path="url(#clip0_314_1069)">
<path id="Vector" d="M100.781 6.48761C99.9219 6.09441 98.9354 5.89782 97.8118 5.89782H92.2215V3.33387H102.233V0.212891H87.9922V15.5474H97.7844C98.9445 15.5474 99.9402 15.3345 100.79 14.9331C101.639 14.5317 102.297 13.9665 102.781 13.2456C103.265 12.5248 103.503 11.6729 103.503 10.6899C103.503 9.71507 103.265 8.86315 102.781 8.15049C102.297 7.43783 101.63 6.8808 100.781 6.48761ZM98.7161 12.0497C98.3782 12.3527 97.8849 12.5084 97.2546 12.5084H92.2215V8.89592H97.2546C97.6657 8.89592 98.0128 8.96964 98.3142 9.11709C98.6157 9.26454 98.844 9.46933 98.9993 9.73146C99.1546 9.99359 99.2277 10.3212 99.2277 10.7144C99.2277 11.3042 99.0541 11.7466 98.7161 12.0497Z" fill="#E1192F"/>
<path id="Vector_2" d="M111.769 0.212891L104.361 15.5474H108.737L110.134 12.4674H117.652L119.041 15.5474H123.608L116.191 0.212891H111.769ZM111.523 9.44475L113.916 4.20217L116.291 9.44475H111.523Z" fill="#E1192F"/>
<path id="Vector_3" d="M138.617 6.07803H130.459V0.212891H126.111V15.5474H130.459V9.23177H138.617V15.5474H142.946V0.212891H138.617V6.07803Z" fill="#E1192F"/>
<path id="Vector_4" d="M164.422 15.5474L156.027 7.38049L164.111 0.212891H158.877L151.77 6.7825V0.212891H147.541V15.5474H151.77V8.63379L158.877 15.5474H164.422Z" fill="#E1192F"/>
<path id="Vector_5" d="M17.1729 0.212891H12.3864L8.79656 5.15239L5.01486 0.212891H0.0274036L5.99226 7.64262L0 15.5474H4.8139L8.45858 10.4605L12.3134 15.5474H17.2917L11.2355 7.86379L17.1729 0.212891Z" fill="#E1192F"/>
<path id="Vector_6" d="M31.9408 0.974793C30.5432 0.327661 28.9081 0 27.0173 0C25.1264 0 23.4822 0.327661 22.0846 0.974793C20.687 1.62192 19.6092 2.53938 18.8601 3.71077C18.1111 4.88216 17.7366 6.27472 17.7366 7.88026C17.7366 9.46942 18.1111 10.862 18.8601 12.0416C19.6092 13.2211 20.687 14.1386 22.0846 14.7939C23.4822 15.441 25.1264 15.7687 27.0173 15.7687C28.9081 15.7687 30.5432 15.441 31.9408 14.7939C33.3292 14.1468 34.4071 13.2293 35.1653 12.0416C35.9234 10.862 36.298 9.46942 36.298 7.88026C36.298 6.27472 35.9234 4.88216 35.1653 3.71077C34.4071 2.53938 33.3292 1.62192 31.9408 0.974793ZM31.3105 10.4852C30.9542 11.1896 30.4062 11.7303 29.6845 12.0989C28.9629 12.4675 28.0677 12.6477 27.0081 12.6477C25.9485 12.6477 25.0625 12.4675 24.3591 12.0989C23.6466 11.7303 23.1168 11.1978 22.7514 10.4852C22.3861 9.78069 22.2034 8.91239 22.2034 7.88845C22.2034 6.86451 22.3861 6.0044 22.7514 5.29173C23.1168 4.58726 23.6558 4.04662 24.3682 3.678C25.0807 3.30938 25.9577 3.12917 27.0173 3.12917C28.0769 3.12917 28.9629 3.31757 29.6937 3.68619C30.4153 4.05481 30.9634 4.59545 31.3196 5.29992C31.6759 6.0044 31.8586 6.86451 31.8586 7.88845C31.8494 8.91239 31.6667 9.7725 31.3105 10.4852Z" fill="#E1192F"/>
<path id="Vector_7" d="M45.5178 7.52793L41.3525 0.212891H36.4746L43.1885 11.4107L40.8409 15.5474H45.5087L54.1591 0.212891H49.537L45.5178 7.52793Z" fill="#E1192F"/>
<path id="Vector_8" d="M71.925 0.212891L66.4717 9.29731L60.9088 0.212891H56.168V15.5474H60.105V5.61111L64.5443 12.836H68.3078L72.6558 5.56196V15.5474H76.5928V0.212891H71.925Z" fill="#E1192F"/>
</g>
<defs>
<clipPath id="clip0_314_1069">
<rect width="164.422" height="15.8097" fill="white"/>
</clipPath>
</defs>
</svg>
