<svg width="150" height="34" viewBox="0 0 150 34" fill="none" xmlns="http://www.w3.org/2000/svg">
<g id="logo (1) 1" clip-path="url(#clip0_314_998)">
<g id="Clip path group">
<mask id="mask0_314_998" style="mask-type:luminance" maskUnits="userSpaceOnUse" x="0" y="-1" width="150" height="35">
<g id="clip0_2886_25155">
<path id="Vector" d="M149.882 -0.00195312H0.0644531V33.544H149.882V-0.00195312Z" fill="white"/>
</g>
</mask>
<g mask="url(#mask0_314_998)">
<g id="Group">
<path id="Vector_2" d="M19.0286 9.14501C19.0286 14.1865 14.7948 18.292 9.54649 18.292C4.29831 18.292 0.0644531 14.1865 0.0644531 9.14501C0.0644531 4.08228 4.29831 -0.00195312 9.54649 -0.00195312C14.7727 -0.00195312 19.0286 4.08228 19.0286 9.14501Z" fill="#F56E28"/>
<path id="Vector_3" d="M19.0286 23.0984C19.0286 24.4598 14.7948 25.566 9.54649 25.566C4.32037 25.566 0.0644531 24.4598 0.0644531 23.0984C0.0644531 21.7369 4.29831 20.6309 9.54649 20.6309C14.7727 20.6309 19.0286 21.7369 19.0286 23.0984Z" fill="#F56E28"/>
<path id="Vector_4" d="M19.0286 29.1169C19.0286 29.9253 14.7948 30.5634 9.54649 30.5634C4.32037 30.5634 0.0644531 29.9253 0.0644531 29.1169C0.0644531 28.3086 4.29831 27.6704 9.54649 27.6704C14.7727 27.6491 19.0286 28.3086 19.0286 29.1169Z" fill="#F56E28"/>
<path id="Vector_5" d="M19.0286 33.1402C19.0286 33.3741 14.7948 33.5443 9.54649 33.5443C4.32037 33.5443 0.0644531 33.3529 0.0644531 33.1402C0.0644531 32.9061 4.29831 32.736 9.54649 32.736C14.7727 32.7147 19.0286 32.9061 19.0286 33.1402Z" fill="#F56E28"/>
<path id="Vector_6" d="M39.869 15.1865H37.1346V7.16695L31.1587 15.1865H28.5566V2.95508H31.291V10.9746L37.289 2.95508H39.869V15.1865Z" fill="#0047BB"/>
<path id="Vector_7" d="M41.873 2.95508H44.6295V7.78383H50.2084V2.95508H52.987V15.1865H50.2084V10.2726H44.6295V15.1865H41.873V2.95508Z" fill="#0047BB"/>
<path id="Vector_8" d="M57.7505 15.1865H54.9941V2.95508H63.5721V5.38009H57.7505V15.1865Z" fill="#0047BB"/>
<path id="Vector_9" d="M76.9373 9.05803C76.9373 5.33542 74.1368 2.76151 70.2999 2.74023H70.2337C66.3527 2.78278 63.5742 5.33542 63.5742 9.05803C63.5742 12.7806 66.3747 15.3333 70.2117 15.3758H70.2778C74.1368 15.3546 76.9373 12.7806 76.9373 9.05803ZM70.2557 12.9083C68.0286 12.9083 66.4629 11.4405 66.4629 9.05803C66.4629 6.67556 68.0065 5.20779 70.2557 5.20779C72.4829 5.20779 74.0265 6.67556 74.0485 9.05803C74.0265 11.4405 72.4829 12.9083 70.2557 12.9083Z" fill="#0047BB"/>
<path id="Vector_10" d="M105.978 5.44391H101.92V2.95508H112.813V5.44391H108.756V15.1865H105.978V5.44391Z" fill="#0047BB"/>
<path id="Vector_11" d="M114.488 2.95508H120.156C123.155 2.95508 124.985 4.67812 124.985 7.20949C124.985 10.0387 122.714 11.5065 119.891 11.5065H117.267V15.1652H114.488V2.95508ZM119.979 9.12398C121.369 9.12398 122.184 8.3156 122.184 7.23076C122.184 6.01825 121.325 5.38009 119.935 5.38009H117.267V9.12398H119.979Z" fill="#0047BB"/>
<path id="Vector_12" d="M149.88 15.1865L145.382 8.91126L149.704 2.95508H146.506L143.794 6.69896L141.126 2.95508H137.84L142.162 8.97509L137.664 15.1865H140.861L143.75 11.1873L146.594 15.1865H149.88Z" fill="#0047BB"/>
<path id="Vector_13" d="M134.534 15.1856H137.357L131.954 2.86914H129.397L123.994 15.1856H126.817L128.007 12.3777H133.366L134.534 15.1856ZM128.999 9.974L130.675 6.14503L132.352 9.974H128.999Z" fill="#0047BB"/>
<path id="Vector_14" d="M84.8089 12.9083C82.5813 12.9083 81.0157 11.4405 81.0157 9.05803C81.0157 6.67556 82.5593 5.20779 84.8089 5.20779C85.9775 5.20779 86.9475 5.52688 87.7637 6.20758L89.4834 4.54836C88.3148 3.46348 86.7488 2.76151 84.8529 2.74023H84.7864C80.9054 2.78278 78.127 5.33542 78.127 9.05803C78.127 12.7806 80.9275 15.3333 84.7648 15.3758H84.8305C86.7272 15.3546 88.2923 14.6526 89.461 13.5677L87.7413 11.9085C86.925 12.5892 85.9775 12.9083 84.8089 12.9083Z" fill="#0047BB"/>
<path id="Vector_15" d="M96.384 12.9083C94.1564 12.9083 92.5913 11.4405 92.5913 9.05803C92.5913 6.67556 94.1348 5.20779 96.384 5.20779C97.5526 5.20779 98.5226 5.52688 99.3388 6.20758L101.059 4.54836C99.8899 3.46348 98.3248 2.76151 96.4281 2.74023H96.3616C92.5032 2.78278 89.7246 5.33542 89.7246 9.05803C89.7246 12.7806 92.5248 15.3333 96.3616 15.3758H96.4281C98.3248 15.3546 99.8899 14.6526 101.059 13.5677L99.3388 11.9085C98.5226 12.5892 97.5526 12.9083 96.384 12.9083Z" fill="#0047BB"/>
<path id="Vector_16" d="M37.51 22.7372H30.167V26.2259H33.8937C36.8926 26.2259 38.4362 27.4809 38.4362 29.6932C38.4362 32.2459 36.5398 33.3946 33.4085 33.3946H28.5352V21.2695H37.51V22.7372ZM30.189 27.6724V31.9055H33.5629C35.6357 31.9055 36.7823 31.2248 36.7823 29.6932C36.7823 28.3531 35.7901 27.6937 33.6732 27.6937H30.189V27.6724Z" fill="#0047BB"/>
<path id="Vector_17" d="M44.565 21.2266H45.866L51.3789 33.3729H49.6809L48.2916 30.3097H42.1394L40.7501 33.3729H39.0742L44.565 21.2266ZM42.7347 28.9271H47.6742L45.9542 25.0981L45.2045 23.2474L44.4547 25.0981L42.7347 28.9271Z" fill="#0047BB"/>
<path id="Vector_18" d="M61.8522 27.9507H54.3767V33.3751H52.7228V21.25H54.3767V26.483H61.8522V21.25H63.4839V33.3751H61.8522V27.9507Z" fill="#0047BB"/>
<path id="Vector_19" d="M66.459 21.25H68.1128V27.3764L74.4635 21.25H76.5805L70.7149 27.0147L77.0215 33.3751H74.8385L69.1713 27.7805L68.1128 28.7165V33.3751H66.459V21.25Z" fill="#0047BB"/>
</g>
</g>
</g>
</g>
<defs>
<clipPath id="clip0_314_998">
<rect width="149.944" height="33.5955" fill="white"/>
</clipPath>
</defs>
</svg>
