<svg width="151" height="36" viewBox="0 0 151 36" fill="none" xmlns="http://www.w3.org/2000/svg">
<g id="loko-bank 1" clip-path="url(#clip0_314_1048)">
<g id="Clip path group">
<mask id="mask0_314_1048" style="mask-type:luminance" maskUnits="userSpaceOnUse" x="-1" y="0" width="152" height="36">
<g id="clip0">
<path id="Vector" d="M150.974 0.00195312H-0.00390625V35.3668H150.974V0.00195312Z" fill="white"/>
</g>
</mask>
<g mask="url(#mask0_314_1048)">
<g id="Group">
<path id="Vector_2" d="M49.0794 10.3393C49.108 9.78028 49.2416 9.38472 49.4769 9.1428C49.709 8.90416 50.0588 8.7832 50.5262 8.7832H57.9348C58.8984 8.7832 59.3816 9.30299 59.3816 10.3393V24.648C59.3816 24.818 59.353 24.9291 59.2926 24.975C59.2322 25.0207 59.1177 25.0436 58.9524 25.0436H57.0318C56.8824 25.0436 56.7743 25.0207 56.7044 24.975C56.6376 24.9291 56.6025 24.818 56.6025 24.648V11.2677H51.6104L51.4737 13.2913C51.3529 15.0239 51.232 16.5734 51.1048 17.9366C50.9777 19.2999 50.7583 20.4832 50.4435 21.4901C50.1319 22.5002 49.674 23.3273 49.0763 23.9746C48.4784 24.6252 47.6486 25.1155 46.596 25.4425C46.4466 25.4719 46.3226 25.4685 46.224 25.4293C46.1286 25.3901 46.0492 25.2855 45.9888 25.1155L45.5118 23.7424C45.4832 23.6019 45.4768 23.4875 45.5023 23.396C45.5245 23.3011 45.6167 23.2162 45.7853 23.141C46.4149 22.8598 46.9109 22.5035 47.2638 22.0687C47.6167 21.6372 47.8934 21.0553 48.0874 20.3296C48.2845 19.6006 48.4307 18.6885 48.5293 17.5999C48.6278 16.508 48.736 15.1579 48.8568 13.5463L49.0794 10.3393Z" fill="#0039A6"/>
<path id="Vector_3" d="M72.5685 18.8881C72.5685 20.9476 72.1044 22.5299 71.179 23.6381C70.2506 24.743 68.8706 25.2988 67.0327 25.2988C65.2107 25.2988 63.8531 24.7594 62.9532 23.6838C62.0565 22.6083 61.6114 21.0326 61.6114 18.9567C61.6114 17.9368 61.7449 17.028 62.0184 16.2401C62.2887 15.4523 62.6671 14.7854 63.1471 14.2427C63.6305 13.7001 64.2028 13.2882 64.8769 13.0005C65.5447 12.7161 66.2886 12.5723 67.1027 12.5723C68.8928 12.5723 70.2537 13.1345 71.1822 14.2558C72.1075 15.3772 72.5685 16.9233 72.5685 18.8881ZM69.8817 18.9567C69.8817 18.3977 69.8436 17.8649 69.7577 17.368C69.6751 16.8678 69.532 16.4298 69.3285 16.0473C69.1249 15.6647 68.8484 15.3673 68.4922 15.1483C68.1393 14.9293 67.691 14.8214 67.1472 14.8214C66.667 14.8214 66.2442 14.926 65.8816 15.1352C65.5223 15.3444 65.2203 15.6288 64.9786 15.9884C64.737 16.348 64.5621 16.773 64.4477 17.2732C64.3363 17.7701 64.2792 18.3062 64.2792 18.8816C64.2792 20.1761 64.4826 21.1928 64.8864 21.9284C65.2934 22.6704 66.0152 23.0398 67.055 23.0398C67.5828 23.0398 68.0279 22.9287 68.3873 22.6999C68.7498 22.4776 69.0391 22.1767 69.2585 21.8009C69.4747 21.4281 69.6337 20.9966 69.7323 20.5063C69.8309 20.0192 69.8817 19.5027 69.8817 18.9567Z" fill="#0039A6"/>
<path id="Vector_4" d="M97.3148 18.8881C97.3148 20.9476 96.8538 22.5299 95.9252 23.6381C95 24.743 93.6167 25.2988 91.7789 25.2988C89.9569 25.2988 88.596 24.7594 87.6993 23.6838C86.8058 22.6083 86.3575 21.0326 86.3575 18.9567C86.3575 17.9368 86.4942 17.028 86.7645 16.2401C87.0348 15.4523 87.4132 14.7854 87.8933 14.2427C88.3734 13.7001 88.9521 13.2882 89.6231 13.0005C90.294 12.7161 91.0381 12.5723 91.8488 12.5723C93.6422 12.5723 95 13.1345 95.9284 14.2558C96.8538 15.3772 97.3148 16.9233 97.3148 18.8881ZM94.6311 18.9567C94.6311 18.3977 94.5866 17.8649 94.5071 17.368C94.4212 16.8678 94.2781 16.4298 94.0779 16.0473C93.8744 15.6647 93.5914 15.3673 93.2416 15.1483C92.8886 14.9293 92.4403 14.8214 91.8998 14.8214C91.4196 14.8214 90.9935 14.926 90.6342 15.1352C90.2749 15.3444 89.9728 15.6288 89.7312 15.9884C89.4895 16.348 89.3083 16.773 89.197 17.2732C89.0857 17.7701 89.0285 18.3062 89.0285 18.8816C89.0285 20.1761 89.232 21.1928 89.6357 21.9284C90.046 22.6704 90.7646 23.0398 91.8044 23.0398C92.3322 23.0398 92.7773 22.9287 93.1398 22.6999C93.4991 22.4776 93.7885 22.1767 94.0111 21.8009C94.2273 21.4281 94.3863 20.9966 94.4816 20.5063C94.5802 20.0192 94.6311 19.5027 94.6311 18.9567Z" fill="#0039A6"/>
<path id="Vector_5" d="M101.218 25.0436C100.735 25.0436 100.404 24.9423 100.223 24.7395C100.041 24.5401 99.9492 24.2067 99.9492 23.7424V10.3622C99.9492 9.30952 100.429 8.7832 101.396 8.7832H109.914C110.08 8.7832 110.185 8.81916 110.23 8.88782C110.277 8.95647 110.296 9.07742 110.296 9.24741V10.8263C110.296 10.9801 110.277 11.0879 110.23 11.1501C110.185 11.2121 110.08 11.2416 109.914 11.2416H102.728V14.8408H106.436C107.294 14.8408 108.023 14.9291 108.623 15.1089C109.227 15.2854 109.734 15.5241 110.15 15.8183C110.563 16.1125 110.893 16.4427 111.145 16.8055C111.393 17.1684 111.584 17.5443 111.711 17.9334C111.838 18.3191 111.921 18.6918 111.959 19.0481C111.994 19.4044 112.016 19.7215 112.016 19.9994C112.016 20.7251 111.877 21.4018 111.597 22.0197C111.32 22.6376 110.938 23.1736 110.458 23.6215C109.978 24.0694 109.412 24.4159 108.764 24.6676C108.118 24.9161 107.425 25.037 106.687 25.037H101.218V25.0436ZM109.148 19.8261C109.148 19.0873 108.919 18.4695 108.458 17.966C107.997 17.4659 107.333 17.2142 106.458 17.2142H102.728V22.4872H106.413C106.954 22.4872 107.399 22.3989 107.746 22.2191C108.093 22.0426 108.369 21.8235 108.582 21.5588C108.795 21.2973 108.938 21.0096 109.024 20.6924C109.107 20.3819 109.148 20.091 109.148 19.8261Z" fill="#0039A6"/>
<path id="Vector_6" d="M123.947 23.7166C123.947 24.0892 123.803 24.3475 123.517 24.4815C123.184 24.6384 122.827 24.7692 122.442 24.8771C122.058 24.9882 121.66 25.0699 121.257 25.132C120.853 25.1942 120.446 25.2399 120.046 25.2595C119.648 25.2857 119.267 25.2988 118.907 25.2988C117.912 25.2988 117.088 25.1909 116.434 24.985C115.775 24.7757 115.256 24.4945 114.871 24.1481C114.487 23.7983 114.22 23.3896 114.07 22.9156C113.918 22.4416 113.842 21.9447 113.842 21.4151C113.842 20.8757 113.931 20.3527 114.103 19.8492C114.274 19.3458 114.56 18.9045 114.948 18.5253C115.339 18.146 115.852 17.8387 116.474 17.6066C117.1 17.3746 117.864 17.2601 118.767 17.2601H121.298V16.8646C121.298 16.5703 121.269 16.299 121.209 16.0505C121.149 15.8054 121.031 15.5864 120.856 15.4C120.684 15.2136 120.446 15.0731 120.147 14.9717C119.848 14.8704 119.454 14.8214 118.974 14.8214C118.458 14.8214 117.902 14.8672 117.301 14.9587C116.697 15.0534 116.207 15.1613 115.832 15.2856C115.667 15.3313 115.546 15.3411 115.47 15.3085C115.394 15.2791 115.342 15.194 115.314 15.0534L114.999 13.7328C114.938 13.4843 115.006 13.3241 115.2 13.2456C115.832 13.0005 116.525 12.824 117.279 12.7226C118.032 12.6245 118.741 12.5723 119.403 12.5723C120.97 12.5723 122.118 12.9286 122.846 13.6413C123.581 14.3539 123.944 15.3902 123.944 16.7533V23.7166H123.947ZM121.279 19.3294H119.11C118.856 19.3294 118.577 19.3458 118.284 19.3752C117.992 19.4079 117.712 19.4929 117.447 19.6301C117.183 19.7675 116.964 19.9702 116.792 20.235C116.62 20.4998 116.532 20.8626 116.532 21.3268C116.532 21.9937 116.751 22.458 117.183 22.7195C117.623 22.9842 118.201 23.115 118.923 23.115C119.031 23.115 119.174 23.1117 119.362 23.1019C119.55 23.0921 119.75 23.0757 119.963 23.0431C120.172 23.0104 120.395 22.9744 120.627 22.9254C120.859 22.8797 121.075 22.8176 121.272 22.7423V19.3294H121.279Z" fill="#0039A6"/>
<path id="Vector_7" d="M129.392 24.9629C129.315 25.0151 129.188 25.0446 129.01 25.0446H127.376C127.21 25.0446 127.089 25.0119 127.007 24.9498C126.927 24.8877 126.883 24.7634 126.883 24.5804V13.2923C126.883 13.1223 126.924 13.0046 127.007 12.9425C127.089 12.8804 127.213 12.8477 127.376 12.8477H129.01C129.188 12.8477 129.315 12.8771 129.392 12.9294C129.468 12.9818 129.503 13.1027 129.503 13.289V17.4211H134.498V13.2923C134.498 13.1223 134.54 13.0046 134.623 12.9425C134.701 12.8804 134.826 12.8477 134.995 12.8477H136.641C136.838 12.8477 136.966 12.8771 137.026 12.9294C137.086 12.9818 137.118 13.1027 137.118 13.289V24.5772C137.118 24.7798 137.086 24.9073 137.026 24.9596C136.966 25.0119 136.838 25.0413 136.641 25.0413H134.995C134.826 25.0413 134.701 25.0087 134.623 24.9466C134.537 24.8844 134.498 24.7602 134.498 24.5772V19.631H129.503V24.5772C129.503 24.7831 129.468 24.9106 129.392 24.9629Z" fill="#0039A6"/>
<path id="Vector_8" d="M150.915 24.6163L147.087 18.5784L150.536 13.3119C150.6 13.2334 150.613 13.1255 150.575 13.034C150.536 12.9425 150.445 12.8804 150.349 12.8804H148.005C147.933 12.8804 147.866 12.9131 147.818 12.9719L144.787 17.4702H142.651V13.2204C142.651 13.0504 142.622 12.9425 142.561 12.9065C142.502 12.8673 142.397 12.8477 142.244 12.8477H140.435C140.298 12.8477 140.199 12.8673 140.129 12.9065C140.063 12.9425 140.027 13.0471 140.027 13.2204V24.6719C140.027 24.8419 140.063 24.9432 140.129 24.9857C140.196 25.0217 140.298 25.0446 140.435 25.0446H142.244C142.397 25.0446 142.502 25.0249 142.561 24.9857C142.622 24.9466 142.651 24.8419 142.651 24.6719V19.5853H144.642L148.12 24.9498C148.171 25.0087 148.238 25.0479 148.314 25.0479H150.724C150.822 25.0479 150.911 24.989 150.953 24.8975C150.991 24.8027 150.979 24.6948 150.915 24.6163Z" fill="#0039A6"/>
<path id="Vector_9" d="M85.6919 24.6163L81.8604 18.5784L85.3072 13.3119C85.374 13.2334 85.3898 13.1255 85.3454 13.034C85.3072 12.9425 85.2182 12.8804 85.1196 12.8804H82.7794C82.7062 12.8804 82.6363 12.9131 82.5917 12.9719L79.5583 17.4702H77.4248V13.2204C77.4248 13.0504 77.393 12.9425 77.3325 12.9065C77.2721 12.8673 77.1672 12.8477 77.0178 12.8477H75.2117C75.075 12.8477 74.9733 12.8673 74.9065 12.9065C74.8397 12.9425 74.8047 13.0471 74.8047 13.2204V24.6719C74.8047 24.8419 74.8397 24.9432 74.9065 24.9857C74.9733 25.0217 75.075 25.0446 75.2117 25.0446H77.0178C77.1704 25.0446 77.2753 25.0249 77.3325 24.9857C77.393 24.9466 77.4248 24.8419 77.4248 24.6719V19.5853H79.4153L82.897 24.9498C82.9447 25.0087 83.0147 25.0479 83.091 25.0479H85.5012C85.5966 25.0479 85.6856 24.989 85.7269 24.8975C85.7618 24.8027 85.7524 24.6948 85.6919 24.6163Z" fill="#0039A6"/>
<path id="Vector_10" d="M27.3351 35.3668H7.05502C3.16307 35.3668 -0.00390625 32.1108 -0.00390625 28.1095V7.2593C-0.00390625 3.25795 3.16307 0.00195312 7.05502 0.00195312H27.3351C31.2271 0.00195312 34.3909 3.25795 34.3909 7.2593V28.1095C34.3941 32.1108 31.2271 35.3668 27.3351 35.3668ZM7.05502 0.515197C3.43652 0.515197 0.495306 3.53909 0.495306 7.2593V28.1095C0.495306 31.8264 3.43652 34.8503 7.05502 34.8503H27.3351C30.9504 34.8503 33.8917 31.8231 33.8917 28.1095V7.2593C33.8917 3.53909 30.9504 0.515197 27.3351 0.515197H7.05502Z" fill="#0039A6"/>
<path id="Vector_11" d="M15.4201 5.15051C15.9448 4.83668 16.5171 4.67976 17.0862 4.66016C15.8938 4.69612 14.7492 5.34666 14.1101 6.48756L3.82055 24.8042C2.83802 26.5564 3.42309 28.7925 5.12423 29.8026C6.82536 30.8128 9.00346 30.2145 9.9828 28.4656L17.1943 15.6246L14.1196 10.1489C13.1371 8.3967 13.719 6.16066 15.4201 5.15051Z" fill="#00A1DE"/>
<path id="Vector_12" d="M30.5684 24.8028L20.2821 6.48952C19.6398 5.34861 18.4951 4.69807 17.3026 4.66211C17.8687 4.67845 18.4411 4.83863 18.9657 5.15247C20.6668 6.16261 21.2519 8.39866 20.2661 10.1476L17.1914 15.6233L24.4029 28.4642C25.3854 30.2132 27.5604 30.8114 29.2615 29.8013C30.969 28.7912 31.5509 26.5551 30.5684 24.8028Z" fill="#0039A6"/>
<path id="Vector_13" d="M18.9719 5.15051C18.4473 4.83668 17.8749 4.67976 17.309 4.66016H17.2867H17.1118H17.0928C16.5235 4.6765 15.9543 4.83668 15.4265 5.15051C13.7254 6.16066 13.1435 8.3967 14.126 10.1457L17.2009 15.6214L20.2756 10.1457C21.2549 8.3967 20.673 6.16066 18.9719 5.15051Z" fill="#002C77"/>
<path id="Vector_14" d="M20.858 26.6591C20.858 28.7416 19.2205 30.4218 17.1982 30.4218C15.1759 30.4218 13.5352 28.7382 13.5352 26.6591C13.5352 24.5832 15.1727 22.8965 17.195 22.8965C19.2173 22.8965 20.858 24.5832 20.858 26.6591Z" fill="#EEAF30"/>
</g>
</g>
</g>
</g>
<defs>
<clipPath id="clip0_314_1048">
<rect width="150.978" height="35.5717" fill="white"/>
</clipPath>
</defs>
</svg>
