<svg width="121" height="39" viewBox="0 0 121 39" fill="none" xmlns="http://www.w3.org/2000/svg">
<g id="mkb" clip-path="url(#clip0_314_1092)">
<path id="Vector" fill-rule="evenodd" clip-rule="evenodd" d="M61.897 21.2493H60.5983L54.0711 9.07031H49.0508V29.6126H53.5692V18.872H55.0458L59.4759 27.6176H63.0195L67.4496 18.872H68.9264V29.6126H73.4447V9.07031H68.4245L61.897 21.2493ZM113.358 16.8471H105.265V13.4725H118.953V9.07031H100.55V29.6126H113.358C117.922 29.6126 120.336 27.06 120.336 23.2155C120.336 19.3709 117.628 16.8471 113.358 16.8471ZM112.976 25.3557H105.265V21.1027H112.98C114.746 21.1027 115.57 21.689 115.57 23.2155C115.57 24.7418 114.743 25.3584 112.976 25.3584V25.3557ZM98.535 9.07031H92.7222L85.2971 16.9938H82.6745V9.07031H77.904V29.6126H82.6745V21.396H85.2971L92.7513 29.6126H98.7743L89.0686 19.0083L98.535 9.07031Z" fill="#DD0A34"/>
<path id="Vector_2" fill-rule="evenodd" clip-rule="evenodd" d="M19.429 38.5361C30.1593 38.5361 38.858 29.9095 38.858 19.268C38.858 8.62659 30.1593 0 19.429 0C8.69865 0 0 8.62659 0 19.268C0 29.9095 8.69865 38.5361 19.429 38.5361ZM15.0502 19.2671L21.9012 12.7644L33.3403 12.7842L29.2418 17.0994H23.6142L15.0502 25.7696L5.50752 16.1362L8.93309 12.7644H15.1691L11.8693 16.1362L15.0502 19.2671ZM24.1024 18.3037H33.6448L29.2406 22.3979H26.0596L22.6341 25.7696H16.5171L24.1024 18.3037Z" fill="#DD0A34"/>
</g>
<defs>
<clipPath id="clip0_314_1092">
<rect width="120.99" height="38.5361" fill="white"/>
</clipPath>
</defs>
</svg>
