<svg width="147" height="28" viewBox="0 0 147 28" fill="none" xmlns="http://www.w3.org/2000/svg">
<g id="Group-111 1" clip-path="url(#clip0_314_917)">
<path id="Vector" d="M14.2253 0.314453C6.35878 0.314453 0 6.41375 0 13.9593C0 21.5048 6.35878 27.6041 14.2253 27.6041C22.0919 27.6041 28.4506 21.5048 28.4506 13.9593C28.4506 6.41375 22.0919 0.314453 14.2253 0.314453ZM12.2587 19.7442L11.2098 22.6995C7.27654 21.4419 4.65437 17.8578 4.65437 13.8335C4.65437 9.80923 7.27654 6.28799 11.2754 4.96753L12.3242 7.92285C9.70206 8.74029 7.99764 11.1297 7.99764 13.7706C7.86653 16.5373 9.63651 18.9267 12.2587 19.7442ZM17.1097 22.7624L16.1264 19.7442C18.8141 18.9267 20.5841 16.5373 20.5841 13.8335C20.5841 11.1297 18.8141 8.80316 16.1919 7.98573L17.2408 4.96753C21.2396 6.22511 23.9274 9.80923 23.9274 13.8335C23.9274 17.9835 21.1741 21.5677 17.1097 22.7624Z" fill="#00BEF0"/>
<path id="Vector_2" d="M144.482 16.4086L146.055 18.2321C144.417 19.8669 142.384 20.3071 140.746 20.3071C139.172 20.3071 138.058 20.0556 137.075 19.6154C134.977 18.6094 133.928 16.5972 133.928 14.1449C133.928 10.435 136.55 7.66835 140.418 7.66835C144.744 7.66835 146.842 10.7494 146.514 14.7737H136.681C136.747 15.7798 137.337 16.723 138.189 17.226C138.91 17.6662 139.762 17.8548 140.877 17.8548C142.122 17.8548 143.368 17.4775 144.482 16.4086ZM136.747 12.5729H143.696C143.499 11.1267 142.253 9.86913 140.287 9.86913C138.254 9.86913 137.009 11.2525 136.747 12.5729ZM70.7334 19.9298H74.2733L68.7012 13.7048L74.2078 7.85699H70.7334L66.5379 12.5101H65.2921V7.85699H62.6044V19.8669H65.2921V15.0881H66.5379L70.7334 19.9298ZM82.271 10.0578C79.9766 10.0578 78.4688 11.7555 78.4688 13.8934C78.4688 16.0313 79.9766 17.729 82.271 17.729C84.5654 17.729 86.0076 16.0942 86.0076 13.8934C86.0731 11.8184 84.6309 10.0578 82.271 10.0578ZM82.7299 7.60547C86.2698 7.60547 88.892 10.2464 88.892 13.8934C88.892 17.4775 86.3354 20.2442 82.7299 20.2442C81.0254 20.2442 79.6488 19.6783 78.6655 18.6722V24.9602H75.9122V7.91987H78.5999V9.36609C79.6488 8.17138 81.0254 7.60547 82.7299 7.60547ZM118.457 7.91987H107.247V10.3093H111.508V19.9298H114.262V10.3093H118.523V7.91987H118.457ZM60.7033 7.91987H49.4279V10.3093H53.689V19.9298H56.4423V10.3093H60.7033V7.91987ZM46.1502 13.9563C46.1502 11.6926 44.5114 10.0578 42.2169 10.0578C39.9881 10.0578 38.2837 11.6926 38.2837 13.9563C38.2837 16.2199 39.9225 17.8548 42.2169 17.8548C44.4458 17.8548 46.1502 16.2199 46.1502 13.9563ZM35.4648 13.9563C35.4648 10.3722 38.3492 7.66835 42.2169 7.66835C46.0191 7.66835 48.9691 10.3722 48.9691 13.9563C48.9691 17.5404 46.0847 20.3071 42.2169 20.3071C38.4148 20.2442 35.4648 17.5404 35.4648 13.9563ZM131.765 7.91987V19.9298H129.077V12.1957L122.521 19.9298H120.358V7.91987H123.046V15.654L129.601 7.91987H131.765ZM105.346 19.9298H102.658V7.91987H105.346V19.9298ZM98.3974 15.8427C98.3974 14.7737 97.6107 14.0192 96.5619 14.0192H93.8086V17.729H96.5619C97.6107 17.729 98.3974 16.9116 98.3974 15.8427ZM101.085 15.8427C101.085 18.2321 99.2496 19.9298 96.6274 19.9298H91.1208V7.91987H93.8086V11.8184H96.8896C99.5118 11.8184 101.085 13.4532 101.085 15.8427Z" fill="black"/>
</g>
<defs>
<clipPath id="clip0_314_917">
<rect width="146.842" height="27.6669" fill="white"/>
</clipPath>
</defs>
</svg>
