<svg width="154" height="33" viewBox="0 0 154 33" fill="none" xmlns="http://www.w3.org/2000/svg">
<g id="Layer 2">
<g id="Layer 1">
<path id="Vector" d="M151.325 29.8554H112.186C111.735 29.8554 111.303 29.6846 110.985 29.3804C110.666 29.0762 110.487 28.6636 110.487 28.2334C110.487 27.8032 110.666 27.3906 110.985 27.0864C111.303 26.7822 111.735 26.6113 112.186 26.6113H151.325C151.776 26.6113 152.208 26.7822 152.526 27.0864C152.845 27.3906 153.024 27.8032 153.024 28.2334C153.024 28.6636 152.845 29.0762 152.526 29.3804C152.208 29.6846 151.776 29.8554 151.325 29.8554ZM40.8381 29.8554H1.69876C1.24822 29.8554 0.816133 29.6846 0.497554 29.3804C0.178976 29.0762 0 28.6636 0 28.2334C0 27.8032 0.178976 27.3906 0.497554 27.0864C0.816133 26.7822 1.24822 26.6113 1.69876 26.6113H40.8381C41.2886 26.6113 41.7207 26.7822 42.0393 27.0864C42.3579 27.3906 42.5369 27.8032 42.5369 28.2334C42.5369 28.6636 42.3579 29.0762 42.0393 29.3804C41.7207 29.6846 41.2886 29.8554 40.8381 29.8554Z" fill="#ED6F34"/>
<path id="Vector_2" d="M146.839 3.55014C147.664 3.55014 148.334 2.91106 148.334 2.12272C148.334 1.33439 147.664 0.695312 146.839 0.695312C146.013 0.695312 145.344 1.33439 145.344 2.12272C145.344 2.91106 146.013 3.55014 146.839 3.55014Z" fill="#595C62"/>
<path id="Vector_3" d="M153.047 5.43341V16.6605C153.047 16.9974 152.91 17.3211 152.665 17.5634C152.42 17.8056 152.085 17.9472 151.733 17.9585C151.379 17.9522 151.041 17.8121 150.795 17.5688C150.549 17.3255 150.414 16.9989 150.419 16.6605V8.95946L143.103 17.4177C142.983 17.5814 142.824 17.7158 142.639 17.8097C142.454 17.9037 142.248 17.9547 142.039 17.9585C141.686 17.9472 141.352 17.8056 141.107 17.5634C140.862 17.3211 140.725 16.9974 140.725 16.6605V5.43341C140.723 5.26707 140.755 5.10197 140.82 4.94763C140.885 4.79329 140.982 4.65276 141.104 4.53413C141.226 4.4155 141.371 4.32111 141.532 4.2564C141.692 4.1917 141.864 4.15795 142.039 4.15711C142.389 4.16222 142.724 4.29902 142.97 4.53788C143.216 4.77674 143.353 5.09846 143.352 5.43341V13.1345L150.714 4.61138C150.842 4.47277 150.998 4.36087 151.174 4.28271C151.349 4.20454 151.539 4.16178 151.733 4.15711C151.907 4.15795 152.079 4.1917 152.24 4.2564C152.4 4.32111 152.546 4.4155 152.668 4.53413C152.79 4.65276 152.886 4.79329 152.951 4.94763C153.016 5.10197 153.049 5.26707 153.047 5.43341ZM127.067 8.15907H123.669V5.43341C123.672 5.26707 123.639 5.10197 123.574 4.94763C123.509 4.79329 123.413 4.65276 123.291 4.53413C123.169 4.4155 123.023 4.32111 122.863 4.2564C122.702 4.1917 122.53 4.15795 122.356 4.15711C122.005 4.16222 121.671 4.29902 121.425 4.53788C121.179 4.77674 121.041 5.09846 121.042 5.43341V16.6605C121.037 16.9989 121.172 17.3255 121.418 17.5688C121.664 17.8121 122.002 17.9522 122.356 17.9585H127.067C129.808 17.9585 132.05 15.752 132.05 13.0696C132.05 10.3872 129.808 8.15907 127.067 8.15907ZM127.067 15.3626H123.669V10.7333H127.067C127.71 10.7333 128.326 10.9772 128.781 11.4113C129.235 11.8453 129.491 12.4341 129.491 13.048C129.491 13.6618 129.235 14.2506 128.781 14.6847C128.326 15.1187 127.71 15.3626 127.067 15.3626ZM134.428 4.15711C134.078 4.16222 133.743 4.29902 133.497 4.53788C133.251 4.77674 133.114 5.09846 133.115 5.43341V16.6605C133.114 16.9974 133.251 17.3211 133.496 17.5634C133.742 17.8056 134.076 17.9472 134.428 17.9585C134.782 17.9522 135.12 17.8121 135.366 17.5688C135.612 17.3255 135.747 16.9989 135.742 16.6605V5.43341C135.743 5.09846 135.605 4.77674 135.359 4.53788C135.113 4.29902 134.779 4.16222 134.428 4.15711ZM114.587 10.3439C115.062 9.68154 115.314 8.89693 115.312 8.09417C115.312 5.93095 113.5 4.15711 111.303 4.15711C111.303 4.15711 111.597 4.17874 105.595 4.17874C105.244 4.18386 104.91 4.32065 104.664 4.55951C104.418 4.79837 104.28 5.12009 104.281 5.45504V16.6605C104.276 16.9989 104.411 17.3255 104.657 17.5688C104.903 17.8121 105.24 17.9522 105.595 17.9585H111.959C113.117 17.9369 114.219 17.4791 115.025 16.6849C115.831 15.8908 116.276 14.8245 116.263 13.7186C116.268 13.0718 116.119 12.4324 115.829 11.8481C115.539 11.2637 115.114 10.7496 114.587 10.3439ZM106.908 6.75297H111.461C111.348 6.73134 111.348 6.75297 111.461 6.75297C111.803 6.79968 112.116 6.9637 112.341 7.21445C112.566 7.46521 112.688 7.78557 112.684 8.11581C112.688 8.29217 112.655 8.46752 112.588 8.63172C112.52 8.79592 112.419 8.94572 112.291 9.07245C112.162 9.19918 112.009 9.30033 111.839 9.37005C111.67 9.43977 111.487 9.47667 111.303 9.47864H106.908V6.75297ZM111.937 15.3626H106.908V12.0529H111.937C112.396 12.0529 112.837 12.2272 113.162 12.5376C113.487 12.8479 113.669 13.2688 113.669 13.7077C113.669 14.1466 113.487 14.5676 113.162 14.8779C112.837 15.1883 112.396 15.3626 111.937 15.3626ZM99.9095 16.6389C99.915 16.9773 99.7798 17.3039 99.5335 17.5472C99.2873 17.7905 98.9501 17.9306 98.5958 17.9368H90.9627C90.7868 17.9355 90.6129 17.9006 90.4512 17.8344C90.2895 17.7681 90.1432 17.6718 90.0209 17.5509C89.8986 17.4301 89.8028 17.2872 89.7389 17.1307C89.6751 16.9741 89.6445 16.8069 89.649 16.6389V5.45504C89.6469 5.2887 89.6793 5.1236 89.7443 4.96926C89.8093 4.81493 89.9056 4.67439 90.0278 4.55576C90.1499 4.43713 90.2953 4.34274 90.4558 4.27804C90.6163 4.21333 90.7886 4.17958 90.9627 4.17874H98.5958C98.9562 4.17874 99.3019 4.31548 99.5568 4.55889C99.8116 4.8023 99.9548 5.13244 99.9548 5.47667C99.9548 5.82091 99.8116 6.15104 99.5568 6.39445C99.3019 6.63786 98.9562 6.77461 98.5958 6.77461H92.2764V9.78149H97.4633C97.8237 9.78149 98.1694 9.91823 98.4243 10.1616C98.6791 10.4051 98.8223 10.7352 98.8223 11.0794C98.8223 11.4237 98.6791 11.7538 98.4243 11.9972C98.1694 12.2406 97.8237 12.3774 97.4633 12.3774H92.2764V15.4059H98.5958C98.7681 15.4 98.9398 15.4277 99.1005 15.4872C99.2612 15.5468 99.4074 15.6371 99.5304 15.7525C99.6533 15.8679 99.7504 16.006 99.8155 16.1584C99.8807 16.3108 99.9127 16.4743 99.9095 16.6389ZM85.0737 17.6556C84.8026 17.866 84.4555 17.9658 84.1078 17.9334C83.7601 17.9011 83.4398 17.739 83.2164 17.4826L78.7317 12.1178L76.6932 14.1728V16.6605C76.6986 16.9989 76.5634 17.3255 76.3172 17.5688C76.0709 17.8121 75.7337 17.9522 75.3795 17.9585C75.2035 17.9571 75.0296 17.9223 74.8679 17.856C74.7062 17.7897 74.56 17.6934 74.4377 17.5726C74.3154 17.4517 74.2195 17.3089 74.1557 17.1523C74.0918 16.9957 74.0612 16.8285 74.0658 16.6605V14.1728L72.0273 12.0961L67.5425 17.4609C67.4357 17.5897 67.3029 17.6966 67.1519 17.7754C67.0009 17.8541 66.8348 17.903 66.6637 17.9191C66.4925 17.9353 66.3196 17.9183 66.1554 17.8694C65.9912 17.8204 65.839 17.7403 65.7079 17.634C65.4333 17.4149 65.2603 17.1012 65.2263 16.761C65.1924 16.4208 65.3003 16.0816 65.5267 15.8169L70.2153 10.2141L66.41 6.32033C66.164 6.07489 66.0286 5.7471 66.0329 5.40736C66.0371 5.06761 66.1806 4.743 66.4327 4.50322C66.553 4.38671 66.6966 4.29458 66.8551 4.23237C67.0136 4.17015 67.1835 4.13912 67.3548 4.14114C67.5261 4.14316 67.6953 4.17819 67.8521 4.24412C68.0089 4.31006 68.1501 4.40554 68.2673 4.52485L74.0658 10.4305V5.45504C74.0637 5.2887 74.0961 5.1236 74.1611 4.96926C74.2261 4.81493 74.3224 4.67439 74.4445 4.55576C74.5666 4.43713 74.7121 4.34274 74.8726 4.27804C75.033 4.21333 75.2053 4.17958 75.3795 4.17874C75.7301 4.18386 76.0646 4.32065 76.3105 4.55951C76.5563 4.79837 76.6938 5.12009 76.6932 5.45504V10.4737L82.5142 4.54649C82.6336 4.42681 82.7769 4.33114 82.9355 4.26511C83.0942 4.19908 83.2651 4.16403 83.4381 4.16201C83.6112 4.16 83.7829 4.19106 83.9432 4.25337C84.1035 4.31568 84.2492 4.40799 84.3716 4.52485C84.623 4.76368 84.7682 5.08609 84.7766 5.42471C84.7851 5.76333 84.6562 6.09197 84.4169 6.34196L80.589 10.2358L85.2776 15.8385C85.4952 16.1082 85.5954 16.4476 85.5574 16.7861C85.5195 17.1246 85.3462 17.4361 85.0737 17.6556ZM61.6762 5.45504V16.6605C61.6816 16.9989 61.5464 17.3255 61.3002 17.5688C61.0539 17.8121 60.7167 17.9522 60.3625 17.9585C60.1865 17.9571 60.0126 17.9223 59.8509 17.856C59.6892 17.7897 59.543 17.6934 59.4207 17.5726C59.2984 17.4517 59.2025 17.3089 59.1387 17.1523C59.0748 16.9957 59.0443 16.8285 59.0488 16.6605V12.3341H52.4576V16.6389C52.463 16.9773 52.3278 17.3039 52.0816 17.5472C51.8353 17.7905 51.4981 17.9306 51.1439 17.9368C50.9679 17.9355 50.794 17.9006 50.6323 17.8344C50.4706 17.7681 50.3244 17.6718 50.2021 17.5509C50.0798 17.4301 49.9839 17.2872 49.9201 17.1307C49.8562 16.9741 49.8257 16.8069 49.8302 16.6389V5.45504C49.8302 5.12228 49.9686 4.80315 50.215 4.56785C50.4613 4.33256 50.7955 4.20037 51.1439 4.20037C51.4923 4.20037 51.8264 4.33256 52.0728 4.56785C52.3192 4.80315 52.4576 5.12228 52.4576 5.45504V9.75986H59.0488V5.45504C59.0488 5.12228 59.1872 4.80315 59.4335 4.56785C59.6799 4.33256 60.0141 4.20037 60.3625 4.20037C60.7109 4.20037 61.045 4.33256 61.2914 4.56785C61.5378 4.80315 61.6762 5.12228 61.6762 5.45504ZM45.7305 16.0765L39.9321 4.87097C39.8264 4.66254 39.6618 4.48643 39.457 4.36249C39.2521 4.23855 39.0151 4.17169 38.7726 4.16944C38.5302 4.16719 38.2918 4.22964 38.0845 4.34976C37.8772 4.46989 37.7091 4.64291 37.5991 4.84934C37.7124 4.61138 37.6444 4.71954 37.5765 4.87097L31.7781 16.0765C31.6173 16.3785 31.5865 16.7285 31.6923 17.0518C31.7981 17.3752 32.0321 17.6462 32.3443 17.807C32.4983 17.884 32.667 17.9305 32.8403 17.9438C33.0136 17.9571 33.1879 17.9369 33.3528 17.8844C33.5177 17.8319 33.6699 17.7482 33.8001 17.6382C33.9304 17.5283 34.0361 17.3944 34.111 17.2446L35.0397 15.4491H42.4463L43.3749 17.223C43.448 17.3717 43.5518 17.5047 43.68 17.6141C43.8083 17.7234 43.9584 17.8069 44.1213 17.8594C44.2843 17.912 44.4566 17.9325 44.6281 17.9198C44.7995 17.9071 44.9665 17.8614 45.119 17.7854C45.279 17.7141 45.4223 17.6127 45.5403 17.4873C45.6584 17.3618 45.7486 17.2149 45.8057 17.0553C45.8628 16.8957 45.8856 16.7268 45.8727 16.5586C45.8598 16.3904 45.8114 16.2264 45.7305 16.0765ZM36.3987 12.8749L38.7769 8.28886L41.1552 12.8749H36.3987ZM25.0736 4.15711H20.2718C20.0976 4.15795 19.9254 4.1917 19.7649 4.2564C19.6044 4.32111 19.459 4.4155 19.3368 4.53413C19.2147 4.65276 19.1184 4.79329 19.0534 4.94763C18.9884 5.10197 18.956 5.26707 18.9581 5.43341V16.6605C18.9579 16.9974 19.0949 17.3211 19.34 17.5634C19.5852 17.8056 19.9193 17.9472 20.2718 17.9585C20.6261 17.9522 20.9633 17.8121 21.2095 17.5688C21.4558 17.3255 21.591 16.9989 21.5855 16.6605V13.9349H24.983C27.7237 13.9349 29.9661 11.75 29.9661 9.06762C29.9661 6.38523 27.769 4.222 25.0736 4.15711ZM24.9604 11.3606H21.5629V6.75297H24.9604C25.5898 6.76829 26.1876 7.01979 26.6243 7.45303C27.0609 7.88626 27.3013 8.46633 27.2934 9.06762C27.3009 9.36526 27.2462 9.66133 27.1325 9.93853C27.0187 10.2157 26.8483 10.4685 26.631 10.682C26.4138 10.8955 26.1541 11.0655 25.8673 11.182C25.5804 11.2986 25.2721 11.3593 24.9604 11.3606ZM7.45188 3.74609C3.35221 3.74609 0 7.01256 0 11.0362C0 15.0598 3.35221 18.3479 7.45188 18.3479C11.5515 18.3479 14.8811 15.0814 14.8811 11.0362C14.8811 7.03419 11.5515 3.74609 7.45188 3.74609ZM7.45188 15.7736C4.80182 15.7736 2.62741 13.6537 2.62741 11.0578C2.61291 9.82156 3.11293 8.63041 4.01758 7.74613C4.92224 6.86185 6.15749 6.35679 7.45188 6.34196C10.1019 6.34196 12.2537 8.46192 12.2537 11.0578C12.2537 13.6537 10.1019 15.7736 7.45188 15.7736ZM72.4803 31.1325L69.1507 24.6861C69.0911 24.565 68.9966 24.4626 68.8782 24.3908C68.7599 24.3191 68.6227 24.281 68.4825 24.281C68.3424 24.281 68.2051 24.3191 68.0868 24.3908C67.9685 24.4626 67.874 24.565 67.8143 24.6861C67.8823 24.5563 67.837 24.6212 67.7917 24.6861L64.4621 31.1325C64.3702 31.3077 64.3543 31.5104 64.4179 31.6967C64.4815 31.883 64.6195 32.0379 64.8019 32.1276C64.8905 32.1731 64.9879 32.2008 65.0882 32.209C65.1884 32.2172 65.2894 32.2057 65.3848 32.1754C65.4803 32.145 65.5682 32.0963 65.6432 32.0323C65.7183 31.9683 65.7788 31.8903 65.8211 31.8031L66.3421 30.7648H70.6003L71.1213 31.7815C71.2125 31.9525 71.3706 32.0824 71.5613 32.1431C71.752 32.2039 71.96 32.1905 72.1405 32.106C72.2305 32.0641 72.3108 32.0055 72.3767 31.9337C72.4427 31.8618 72.4929 31.7781 72.5246 31.6874C72.5562 31.5968 72.5686 31.501 72.561 31.4057C72.5534 31.3104 72.5259 31.2175 72.4803 31.1325ZM67.1122 29.2938L68.4712 26.6546L69.8302 29.2938H67.1122ZM53.0465 28.8179H53.0691V30.7215H53.0465V28.8179Z" fill="#595C62"/>
<path id="Vector_4" d="M100.862 31.0896L98.1662 27.888L98.1436 27.8664L100.341 25.6383C100.479 25.4965 100.555 25.3086 100.55 25.1147C100.546 24.9207 100.463 24.736 100.318 24.5999C100.248 24.532 100.164 24.4785 100.072 24.4426C99.9796 24.4067 99.8805 24.3893 99.7808 24.3913C99.6811 24.3933 99.5829 24.4148 99.4922 24.4544C99.4015 24.494 99.3203 24.5509 99.2534 24.6215L95.9239 28.0178V25.1407C95.9239 24.9514 95.8451 24.7698 95.7049 24.6359C95.5648 24.5021 95.3747 24.4269 95.1764 24.4269C94.9782 24.4269 94.7881 24.5021 94.6479 24.6359C94.5077 24.7698 94.429 24.9514 94.429 25.1407V31.5871C94.4275 31.6823 94.4456 31.7768 94.4824 31.8653C94.5191 31.9538 94.5738 32.0344 94.6432 32.1027C94.7126 32.171 94.7954 32.2256 94.8869 32.2633C94.9784 32.3011 95.0768 32.3212 95.1764 32.3226C95.2766 32.323 95.3758 32.304 95.4682 32.2669C95.5605 32.2298 95.6441 32.1753 95.7138 32.1066C95.7836 32.0379 95.8382 31.9566 95.8743 31.8673C95.9104 31.778 95.9272 31.6828 95.9239 31.5871V30.1594L97.1017 28.9696L99.6838 32.063C99.756 32.1449 99.8462 32.2107 99.9479 32.2555C100.05 32.3004 100.161 32.3233 100.273 32.3226C100.447 32.3174 100.615 32.2565 100.748 32.1496C100.905 32.02 101.004 31.8381 101.025 31.641C101.046 31.444 100.988 31.2467 100.862 31.0896ZM85.2783 24.2971C85.1787 24.2985 85.0803 24.3186 84.9888 24.3563C84.8973 24.3941 84.8145 24.4486 84.7451 24.5169C84.6757 24.5852 84.621 24.6659 84.5843 24.7544C84.5475 24.8429 84.5294 24.9374 84.5309 25.0326V27.5203H80.7483V25.0326C80.7483 24.8432 80.6696 24.6617 80.5294 24.5278C80.3892 24.3939 80.1991 24.3187 80.0009 24.3187C79.8026 24.3187 79.6125 24.3939 79.4723 24.5278C79.3322 24.6617 79.2534 24.8432 79.2534 25.0326V31.479C79.2534 31.6683 79.3322 31.8499 79.4723 31.9837C79.6125 32.1176 79.8026 32.1928 80.0009 32.1928C80.1991 32.1928 80.3892 32.1176 80.5294 31.9837C80.6696 31.8499 80.7483 31.6683 80.7483 31.479V28.9913H84.5309V31.479C84.5294 31.5741 84.5475 31.6686 84.5843 31.7571C84.621 31.8456 84.6757 31.9263 84.7451 31.9946C84.8145 32.0629 84.8973 32.1175 84.9888 32.1552C85.0803 32.1929 85.1787 32.213 85.2783 32.2145C85.3785 32.2148 85.4777 32.1959 85.5701 32.1587C85.6624 32.1216 85.746 32.0671 85.8158 31.9984C85.8855 31.9298 85.9401 31.8484 85.9762 31.7591C86.0123 31.6699 86.0291 31.5746 86.0258 31.479V25.0326C86.0311 24.9365 86.0156 24.8404 85.9802 24.7503C85.9448 24.6602 85.8904 24.578 85.8202 24.509C85.75 24.4399 85.6657 24.3854 85.5724 24.349C85.4792 24.3125 85.3791 24.2948 85.2783 24.2971ZM58.4153 29.7916C58.4114 29.1634 58.1514 28.5613 57.6905 28.1131C57.2297 27.6648 56.6041 27.4056 55.9465 27.3905H53.0473V25.7897H57.1243C57.3285 25.7897 57.5244 25.7122 57.6688 25.5743C57.8132 25.4363 57.8944 25.2493 57.8944 25.0542C57.8944 24.8591 57.8132 24.672 57.6688 24.5341C57.5244 24.3962 57.3285 24.3187 57.1243 24.3187H52.2772C52.177 24.3183 52.0778 24.3373 51.9854 24.3744C51.8931 24.4115 51.8095 24.466 51.7398 24.5347C51.67 24.6034 51.6154 24.6848 51.5793 24.774C51.5432 24.8633 51.5264 24.9586 51.5297 25.0542V31.479C51.5282 31.5741 51.5464 31.6686 51.5831 31.7571C51.6199 31.8456 51.6745 31.9263 51.7439 31.9946C51.8133 32.0629 51.8961 32.1175 51.9876 32.1552C52.0791 32.1929 52.1775 32.213 52.2772 32.2145H55.9238C56.5827 32.2031 57.2107 31.9451 57.6724 31.4961C58.1341 31.047 58.3928 30.4427 58.3927 29.8133C58.3957 29.8133 58.3986 29.8127 58.4014 29.8116C58.4041 29.8105 58.4066 29.809 58.4087 29.8069C58.4108 29.8049 58.4125 29.8026 58.4136 29.7999C58.4148 29.7973 58.4153 29.7945 58.4153 29.7916ZM55.9465 30.7218H53.0473V28.8615H55.9465C56.2048 28.8615 56.4525 28.9595 56.6352 29.1339C56.8178 29.3084 56.9204 29.5449 56.9204 29.7916C56.9204 30.0383 56.8178 30.2749 56.6352 30.4494C56.4525 30.6238 56.2048 30.7218 55.9465 30.7218Z" fill="#595C62"/>
</g>
</g>
</svg>
