<svg width="146" height="35" viewBox="0 0 146 35" fill="none" xmlns="http://www.w3.org/2000/svg">
<g id="logo-otp" clip-path="url(#clip0_314_988)">
<path id="Vector" fill-rule="evenodd" clip-rule="evenodd" d="M0 13.2869C0 5.9367 6.21509 0 13.8606 0V4.8059C8.97735 4.8059 4.98193 8.62235 4.98193 13.2869C4.98193 17.9515 8.97735 21.7679 13.8606 21.7679C18.7439 21.7679 22.7393 17.9986 22.7393 13.2398H27.7706C27.7706 20.59 21.5555 26.5267 13.8606 26.5267C6.21509 26.5738 0 20.59 0 13.2869Z" fill="#006C3F"/>
<path id="Vector_2" d="M7.74414 13.2861C7.74414 10.035 10.5064 7.39648 13.9099 7.39648C17.3134 7.39648 20.0757 10.035 20.0757 13.2861C20.0757 16.5371 17.3134 19.1757 13.9099 19.1757C10.5064 19.1757 7.74414 16.5371 7.74414 13.2861Z" fill="#50B848"/>
<path id="Vector_3" d="M18.2012 5.79474C18.2012 3.91008 19.7796 2.40234 21.7526 2.40234C23.7257 2.40234 25.3041 3.91008 25.3041 5.79474C25.3041 7.67941 23.7257 9.18715 21.7526 9.18715C19.7796 9.18715 18.2012 7.67941 18.2012 5.79474Z" fill="#006C3F"/>
<path id="Vector_4" d="M130.715 8.95327L130.271 11.0264C129.235 15.5025 128.841 16.9631 127.953 21.4392L127.756 21.5805L124.895 21.6748L124.747 21.4863L125.881 16.8689L126.226 15.3611C124.993 15.314 123.76 15.314 122.527 15.314C121.59 15.314 120.85 15.314 120.11 15.3611C119.715 17.1516 119.321 18.7535 118.827 21.4392L118.63 21.5805L115.769 21.6748L115.621 21.4863L116.756 16.8689L117.2 14.8429C117.94 11.686 118.088 10.9793 118.532 8.05806L118.729 7.86959C120.061 7.72824 120.357 7.63401 121.688 7.39842L121.836 7.58689L121.54 8.90616L121.097 10.9793L120.653 12.9582C121.688 12.9582 122.724 13.0053 123.76 13.0053C124.845 13.0053 125.585 13.0053 126.769 12.9582C127.164 11.262 127.312 10.3197 127.657 8.10518L127.854 7.91671C129.186 7.77536 129.482 7.68112 130.814 7.44554L130.962 7.63401L130.715 8.95327ZM95.2003 14.9371C95.3976 14.1361 95.5456 13.3822 95.5456 12.6284C95.5456 9.89561 93.7205 9.47156 92.6847 9.47156C88.2453 9.47156 87.7027 16.0208 87.7027 17.0102C87.7027 19.1776 89.0346 20.1199 90.5637 20.1199C93.5726 20.1199 94.707 17.1516 95.2003 14.9371ZM98.1105 15.7852C97.4693 18.0939 95.7922 22.0988 90.465 22.0988C86.7162 22.0988 84.6445 20.2613 84.6445 16.5862C84.6445 16.115 84.6939 15.5967 84.7432 15.0313C84.7432 14.89 84.7925 14.7486 84.7925 14.6073C85.8777 8.57634 88.6399 2.82811 94.707 2.78099C95.4963 2.78099 97.124 2.68676 98.2585 2.45117L97.8639 4.85412C96.7294 5.13682 94.9537 5.27817 93.9672 5.27817C92.6847 5.27817 91.7968 5.74934 91.2049 6.31474C90.9089 6.59744 90.6623 6.88014 90.465 7.16284C90.2677 7.44554 90.1691 7.68112 90.0704 7.86959C90.8596 7.63401 91.7475 7.49266 92.734 7.49266C96.4335 7.49266 98.6038 9.47156 98.6038 12.9111C98.5545 13.8534 98.4065 14.8429 98.1105 15.7852Z" fill="#50B848"/>
<path id="Vector_5" fill-rule="evenodd" clip-rule="evenodd" d="M109.851 18.1391C109.555 18.3747 109.259 18.6574 108.914 18.8458C108.174 19.2699 107.237 19.4584 106.497 19.4584C103.932 19.4584 103.241 17.3852 103.241 16.1131C103.241 15.9717 103.291 12.5322 106.25 10.6004C107.927 9.51674 109.703 9.46962 110.64 9.46962C111.084 9.46962 111.479 9.51674 111.923 9.51674L109.851 18.1391ZM115.228 7.67918L115.08 7.4436L111.232 7.39648C108.667 7.39648 105.017 7.53783 102.452 10.4591C101.268 11.7783 100.232 14.0871 100.232 16.2073C100.232 19.5526 102.551 21.4844 105.412 21.4844C107.779 21.4844 109.012 20.4949 109.506 20.118L109.308 21.2017L109.456 21.3901L112.071 21.343L112.268 21.1546C112.811 17.9506 113.008 16.9612 113.994 12.8149L115.228 7.67918Z" fill="#50B848"/>
<path id="Vector_6" fill-rule="evenodd" clip-rule="evenodd" d="M45.4302 14.3216C44.8877 16.6775 44.2957 17.3842 43.9998 17.7611C43.5065 18.3265 42.816 18.7977 41.9774 18.7977C41.0402 18.7977 40.3003 18.3737 40.0044 17.5256C39.9057 17.3371 39.8564 17.0073 39.8564 16.3476C39.8564 15.1226 40.4483 12.1071 41.4842 10.7879C41.7801 10.4581 42.4707 9.7042 43.7532 9.7042C45.3809 9.7042 45.7262 11.0706 45.7262 12.06C45.7262 12.9081 45.5782 13.662 45.4302 14.3216ZM50.0176 15.3582C50.2642 14.463 50.3629 13.5678 50.3629 12.6725C50.3629 11.0706 50.0176 9.56285 48.5871 8.33781C47.2553 7.20701 45.4796 6.83008 43.7532 6.83008C36.5022 6.83008 35.1211 13.2379 35.1211 15.688C35.1211 17.6669 35.713 19.1275 36.9462 20.1641C38.278 21.2949 40.251 21.5305 41.6815 21.5305C43.8025 21.5305 45.6275 21.1064 47.206 19.8343C48.6858 18.7977 49.5736 17.1015 50.0176 15.3582Z" fill="#006C3F"/>
<path id="Vector_7" d="M61.3633 10.553H61.0674C60.8208 11.6367 60.5248 12.8618 60.0315 14.7935L59.5876 16.7724C59.0943 19.034 58.9957 19.5994 58.6997 21.4841L58.5024 21.6255L53.6685 21.7197L53.5205 21.5312C54.359 18.3744 54.507 17.7619 55.3456 14.3695L55.6415 13.0502C55.8881 11.9665 56.0361 11.2598 56.1841 10.6002H54.507L51.2515 10.6944L51.1035 10.4588L52.0407 7.30199L52.2873 7.16064H61.8073L66.6412 7.06641L66.7892 7.20776L65.9013 10.3646L65.6547 10.553L62.8924 10.4588H61.3633V10.553ZM77.9369 10.5059L72.6097 10.553C72.6097 10.553 71.9684 12.5791 71.3765 14.8407C70.7846 17.1023 70.1434 19.5994 69.7488 21.437L69.5515 21.5783L65.0135 21.6726L64.8655 21.4841C65.852 18.3273 66.0493 17.7148 66.9865 14.3224L67.3318 13.0031C67.6278 11.8723 67.8251 11.1656 67.973 10.4588L68.7622 7.30199L68.9596 7.16064H78.1342L82.9682 7.06641L83.1655 7.20776C83.1655 7.20776 82.2283 11.5896 81.6364 14.5108C81.0444 17.4792 80.4032 21.3428 80.4032 21.3428L80.2059 21.4841L75.4706 21.5783L75.3226 21.3899C76.0625 18.2802 76.6051 15.9715 76.9997 14.2281C77.493 12.5319 77.7396 11.2598 77.9369 10.5059Z" fill="#006C3F"/>
<path id="Vector_8" d="M136.387 13.2878C137.077 12.7224 137.423 12.3926 138.36 11.5445C139.346 10.6492 141.714 8.29341 142.158 7.82225L142.454 7.6809H145.66L145.759 7.91648C145.463 8.15206 145.315 8.2463 144.23 9.18863C143.786 9.51845 143.49 9.80115 142.947 10.2723L139.297 13.4762L143.638 21.3919L143.49 21.6274L140.382 21.7217L140.136 21.5803C139.396 19.9312 139.198 19.5543 138.212 17.5754L136.239 13.7589C135.647 16.3975 135.252 18.0466 134.562 21.4861L134.364 21.6274L131.503 21.7217L131.355 21.5332L132.49 16.9158L132.934 14.8897C133.674 11.7329 133.822 11.0262 134.266 8.10495L134.463 7.91648C135.795 7.77513 136.091 7.6809 137.423 7.44531L137.571 7.63378L137.275 8.95305L136.831 11.0262L136.387 13.2878Z" fill="#50B848"/>
<path id="Vector_9" d="M35.7629 24.5488H39.709L39.5611 25.444H36.7495L36.4535 27.1402H37.2427C37.9826 27.1402 38.5745 27.2816 38.9691 27.5643C39.3638 27.847 39.5611 28.271 39.5611 28.8364C39.5611 29.3547 39.4131 29.8259 39.1664 30.2028C38.9198 30.5798 38.5745 30.9096 38.0813 31.098C37.588 31.2865 37.0948 31.4279 36.4535 31.4279H34.4805L35.7629 24.5488ZM36.5522 30.5798C37.1441 30.5798 37.6373 30.4384 37.9333 30.1557C38.2293 29.873 38.4266 29.4961 38.4266 29.0249C38.4266 28.648 38.3279 28.4124 38.1306 28.271C37.9333 28.1297 37.588 28.0355 37.1441 28.0355H36.3055L35.8123 30.5798H36.5522ZM40.5969 31.098C40.3996 30.8153 40.3009 30.3913 40.3009 29.8259C40.3009 29.1663 40.4489 28.5537 40.6956 28.0355C40.9422 27.5172 41.3368 27.0931 41.7807 26.7633C42.2247 26.4335 42.7673 26.2921 43.3592 26.2921C43.6058 26.2921 43.9017 26.2921 44.1977 26.3393C44.543 26.3864 44.8389 26.4335 45.1349 26.5277L44.247 31.4279H43.3592L43.4085 30.6269H43.3592C42.8659 31.2394 42.2247 31.5221 41.4848 31.5221C41.0902 31.5221 40.7942 31.3807 40.5969 31.098ZM42.6193 30.4855C42.8659 30.2971 43.0632 30.1086 43.2605 29.8259C43.4578 29.5432 43.5565 29.2605 43.6058 28.9307L43.9017 27.2816C43.7044 27.2345 43.5071 27.2345 43.3098 27.2345C42.9152 27.2345 42.6193 27.3287 42.3233 27.5643C42.0274 27.7999 41.7807 28.0826 41.6328 28.5066C41.4848 28.9307 41.3861 29.3547 41.3861 29.8259C41.3861 30.4855 41.5834 30.8153 41.9287 30.8153C42.126 30.7211 42.3726 30.6269 42.6193 30.4855ZM50.8567 26.4335L49.9195 31.4279H48.8837L49.2783 29.2605H47.2559L46.8613 31.475H45.8255L46.7627 26.4806H47.7985L47.4039 28.4595H49.4263L49.8209 26.4335H50.8567ZM54.1616 28.8836L55.9866 31.4279H54.7535L53.7176 29.9201L53.0764 29.0249L52.9778 29.6374C52.9778 29.7317 52.9284 29.873 52.8791 30.1086L52.6325 31.475H51.5966L52.5338 26.4806H53.5697L53.323 27.7999C53.2737 27.9412 53.2737 28.1297 53.2244 28.4124L53.1751 28.6951L54.0136 27.8941L55.4934 26.4806H56.8252L54.1616 28.8836ZM59.2915 31.2394C58.9955 31.0038 58.8476 30.674 58.8476 30.2499C58.8476 29.7788 58.9955 29.3547 59.3408 29.1191C59.6861 28.8364 60.2287 28.6009 60.9686 28.4124C61.2645 28.3182 61.5112 28.2239 61.6591 28.0826C61.8071 27.9412 61.9058 27.7999 61.9058 27.6114C61.9058 27.4229 61.8564 27.3287 61.7085 27.2345C61.5605 27.1402 61.3632 27.0931 61.0672 27.0931C60.574 27.0931 60.13 27.1874 59.6861 27.4229L59.8341 26.5748C60.0314 26.4806 60.278 26.4335 60.5246 26.3864C60.7713 26.3393 61.0672 26.2921 61.3139 26.2921C61.8071 26.2921 62.2017 26.3864 62.4977 26.622C62.7936 26.8575 62.9416 27.1402 62.9416 27.5643C62.9416 27.9883 62.7936 28.3182 62.547 28.5537C62.2511 28.7893 61.8564 28.9778 61.2645 29.1191C60.8206 29.2605 60.4753 29.3547 60.2287 29.5432C60.0314 29.6845 59.9327 29.9201 59.9327 30.1557C59.9327 30.5326 60.2287 30.7682 60.8699 30.7682C61.3632 30.7682 61.8564 30.674 62.3004 30.4384L62.1524 31.2865C61.6591 31.475 61.1659 31.5692 60.574 31.5692C60.0314 31.5692 59.5874 31.475 59.2915 31.2394ZM64.0761 31.098C63.7802 30.7682 63.5829 30.2971 63.5829 29.6374C63.5829 28.9778 63.6815 28.4124 63.9281 27.8941C64.1748 27.3758 64.5201 26.9989 64.9147 26.7162C65.3586 26.4335 65.8519 26.2921 66.3944 26.2921C67.0357 26.2921 67.4796 26.4806 67.7756 26.8104C68.0715 27.1402 68.2688 27.6114 68.2688 28.271C68.2688 28.9307 68.1702 29.4961 67.9235 30.0144C67.6769 30.5326 67.3316 30.9096 66.937 31.1923C66.5424 31.475 65.9998 31.6163 65.4572 31.6163C64.816 31.5692 64.3721 31.4279 64.0761 31.098ZM66.3944 30.4384C66.6411 30.2028 66.8384 29.9201 66.9864 29.5432C67.1343 29.1663 67.1837 28.7422 67.1837 28.271C67.1837 27.8941 67.1343 27.5643 66.9864 27.4229C66.8384 27.2816 66.6411 27.1402 66.3451 27.1402C66.0492 27.1402 65.7532 27.2345 65.5066 27.4701C65.2599 27.7056 65.0626 27.9883 64.9147 28.3653C64.7667 28.7422 64.7174 29.1663 64.7174 29.6374C64.7174 30.0144 64.7667 30.2971 64.9147 30.4855C65.0626 30.674 65.2599 30.7682 65.5559 30.7682C65.8519 30.7682 66.1478 30.674 66.3944 30.4384ZM69.9952 26.4335H70.8831L70.8338 27.2345H70.8831C71.1297 26.9518 71.4257 26.7162 71.7217 26.5277C72.0176 26.3393 72.3629 26.2921 72.6589 26.2921C73.3001 26.2921 73.6454 26.622 73.6947 27.2345H73.744C73.9907 26.9047 74.2866 26.6691 74.6319 26.5277C74.9279 26.3864 75.2731 26.2921 75.5691 26.2921C75.9144 26.2921 76.161 26.3864 76.3583 26.5748C76.5556 26.7633 76.6543 27.0931 76.6543 27.4701C76.6543 27.6585 76.6543 27.847 76.6049 28.0355L75.9637 31.3807H74.9279L75.5198 28.271C75.5691 28.0355 75.5691 27.7999 75.5691 27.6114C75.5691 27.4229 75.5198 27.2816 75.4704 27.2345C75.4211 27.1874 75.3225 27.1402 75.1745 27.1402C74.9279 27.1402 74.6812 27.2345 74.4839 27.3758C74.2373 27.5643 74.04 27.7999 73.892 28.0826C73.6947 28.3653 73.5961 28.6951 73.5467 29.072L73.1028 31.4279H72.0669L72.6589 28.3182C72.7082 28.0826 72.7082 27.847 72.7082 27.6585C72.7082 27.4701 72.6589 27.3287 72.6095 27.2345C72.5602 27.1402 72.4616 27.1402 72.3136 27.1402C72.0669 27.1402 71.8203 27.2345 71.623 27.3758C71.3764 27.5643 71.1791 27.7999 71.0311 28.0826C70.8831 28.3653 70.7351 28.6951 70.6858 29.072L70.2419 31.4279H69.0581L69.9952 26.4335ZM78.0354 31.098C77.7394 30.7682 77.5421 30.2971 77.5421 29.6374C77.5421 28.9778 77.6408 28.4124 77.8874 27.8941C78.134 27.3758 78.4793 26.9989 78.8739 26.7162C79.3179 26.4335 79.8111 26.2921 80.3537 26.2921C80.995 26.2921 81.4389 26.4806 81.7349 26.8104C82.0308 27.1402 82.2281 27.6114 82.2281 28.271C82.2281 28.9307 82.1295 29.4961 81.8828 30.0144C81.6362 30.5326 81.2909 30.9096 80.8963 31.1923C80.4524 31.475 79.9591 31.6163 79.4165 31.6163C78.7753 31.5692 78.3314 31.4279 78.0354 31.098ZM80.3537 30.4384C80.6004 30.2028 80.7977 29.9201 80.9456 29.5432C81.0936 29.1663 81.1429 28.7422 81.1429 28.271C81.1429 27.8941 81.0936 27.5643 80.9456 27.4229C80.7977 27.2816 80.6004 27.1402 80.3044 27.1402C80.0084 27.1402 79.7125 27.2345 79.4659 27.4701C79.2192 27.7056 79.0219 27.9883 78.8739 28.3653C78.726 28.7422 78.6766 29.1663 78.6766 29.6374C78.6766 30.0144 78.726 30.2971 78.8739 30.4855C79.0219 30.674 79.2192 30.7682 79.5152 30.7682C79.8111 30.7682 80.1071 30.674 80.3537 30.4384ZM87.2101 29.072C87.358 29.2605 87.4074 29.4961 87.4074 29.7788C87.4074 30.1557 87.3087 30.4855 87.0621 30.7211C86.8648 31.0038 86.5688 31.1923 86.1742 31.3336C85.7796 31.475 85.385 31.5692 84.8917 31.5692C84.2012 31.5692 83.5599 31.475 82.968 31.2394L83.8065 26.6691C84.1025 26.5748 84.4478 26.4806 84.7931 26.3864C85.1384 26.3393 85.4836 26.2921 85.8289 26.2921C86.4208 26.2921 86.8648 26.3864 87.1607 26.5748C87.4567 26.7633 87.6047 27.046 87.6047 27.3758C87.6047 27.6585 87.506 27.9412 87.358 28.1768C87.2101 28.4124 86.9634 28.6009 86.7168 28.7422C86.9141 28.7893 87.0621 28.9307 87.2101 29.072ZM85.9276 30.5798C86.1742 30.4384 86.3222 30.2028 86.3222 29.873C86.3222 29.6374 86.2729 29.449 86.1249 29.3547C85.9769 29.2605 85.7303 29.1663 85.4343 29.1663C85.1877 29.1663 84.8424 29.2134 84.4478 29.2605L84.2012 30.674C84.3985 30.7682 84.6944 30.8153 85.0397 30.8153C85.385 30.8153 85.6809 30.7211 85.9276 30.5798ZM84.7931 27.2345L84.5464 28.6009L85.533 28.4595C85.8782 28.4124 86.1249 28.3182 86.2729 28.1768C86.4208 28.0355 86.5195 27.847 86.5195 27.6114C86.5195 27.4229 86.4702 27.2816 86.3222 27.2345C86.1742 27.1402 85.9769 27.0931 85.7303 27.0931C85.4343 27.0931 85.089 27.1402 84.7931 27.2345ZM89.2817 31.5221C89.0351 31.475 88.6898 31.3807 88.3446 31.2394L89.2324 26.4335H90.2683L89.9723 28.0355C89.9723 28.0826 89.923 28.2239 89.8737 28.4124C90.071 28.1768 90.3176 27.9412 90.6135 27.7999C90.9095 27.6585 91.2055 27.5643 91.5508 27.5643C91.9947 27.5643 92.2906 27.7056 92.5373 27.9412C92.7346 28.1768 92.8826 28.5066 92.8826 28.9778C92.8826 29.4961 92.7839 29.9201 92.5373 30.3442C92.2906 30.7211 91.9947 31.0509 91.5508 31.2865C91.1561 31.5221 90.6629 31.6163 90.1203 31.6163C89.8243 31.5692 89.5284 31.5692 89.2817 31.5221ZM91.0082 30.4855C91.2548 30.3442 91.4028 30.1086 91.5508 29.8259C91.6987 29.5432 91.7481 29.2605 91.7481 28.9778C91.7481 28.7893 91.6987 28.6009 91.6001 28.4595C91.5014 28.3182 91.3534 28.271 91.1561 28.271C90.9095 28.271 90.7122 28.3653 90.4656 28.5066C90.2189 28.648 90.071 28.8836 89.923 29.1191C89.775 29.3547 89.6764 29.6374 89.627 29.873L89.479 30.5798C89.627 30.6269 89.8737 30.674 90.1696 30.674C90.5149 30.7682 90.7615 30.674 91.0082 30.4855ZM94.4117 26.4335H95.4968L94.5596 31.4279H93.5238L94.4117 26.4335ZM97.5685 28.7422L96.5327 26.4335H97.6179L98.0618 27.4701C98.1604 27.6585 98.2098 27.847 98.3084 28.0826L98.4564 27.847C98.5551 27.7056 98.6537 27.5643 98.703 27.4701L99.4922 26.3864H100.725L98.8017 28.7422L99.9855 31.3807H98.9003L98.2591 29.873L98.0618 29.4018L97.7658 29.8259L96.5327 31.3807H95.2995L97.5685 28.7422ZM107.582 26.7162C107.779 26.9989 107.927 27.3758 107.927 27.8941C107.927 28.5537 107.779 29.2134 107.532 29.7317C107.286 30.2971 106.94 30.7211 106.497 31.0509C106.053 31.3807 105.559 31.5221 105.017 31.5221C104.721 31.5221 104.425 31.475 104.08 31.3807L103.685 33.501H102.649L103.932 26.4335H104.819L104.77 27.2345H104.819C105.362 26.622 105.954 26.2921 106.645 26.2921C107.088 26.3393 107.384 26.4335 107.582 26.7162ZM105.905 30.3913C106.201 30.1557 106.447 29.8259 106.595 29.449C106.743 29.0249 106.842 28.6009 106.842 28.1297C106.842 27.5172 106.645 27.1874 106.25 27.1874C106.003 27.1874 105.757 27.2816 105.51 27.4229C105.263 27.6114 105.066 27.7999 104.869 28.0826C104.671 28.3653 104.573 28.6951 104.524 29.0249L104.228 30.6269C104.425 30.7211 104.622 30.7211 104.869 30.7211C105.263 30.7682 105.609 30.6269 105.905 30.3913ZM112.169 29.1663C111.577 29.5432 110.739 29.6845 109.653 29.6845C109.653 30.0144 109.752 30.2971 109.949 30.4855C110.147 30.674 110.443 30.7682 110.788 30.7682C111.084 30.7682 111.331 30.7211 111.528 30.674C111.725 30.6269 111.972 30.5326 112.169 30.4384L112.021 31.2865C111.626 31.4279 111.133 31.5221 110.541 31.5221C109.9 31.5221 109.407 31.3336 109.062 31.0038C108.716 30.674 108.519 30.2028 108.519 29.5432C108.519 28.9307 108.667 28.3653 108.914 27.8941C109.16 27.3758 109.505 26.9989 109.949 26.7162C110.393 26.4335 110.887 26.2921 111.429 26.2921C111.922 26.2921 112.317 26.3864 112.564 26.622C112.81 26.8575 112.958 27.1874 112.958 27.6114C113.057 28.271 112.761 28.7893 112.169 29.1663ZM110.689 27.3758C110.443 27.5643 110.196 27.7528 110.048 28.0355C109.9 28.3182 109.752 28.648 109.703 28.9778C110.443 28.9778 111.035 28.8364 111.429 28.6009C111.824 28.3653 112.021 28.0826 112.021 27.6585C112.021 27.2816 111.824 27.0931 111.429 27.0931C111.232 27.1402 110.936 27.1874 110.689 27.3758ZM120.505 31.4279H119.617L119.667 30.6269H119.617C119.371 30.9096 119.075 31.1452 118.779 31.3336C118.483 31.5221 118.138 31.5692 117.842 31.5692C117.2 31.5692 116.855 31.2394 116.806 30.6269H116.756C116.51 30.9567 116.214 31.1923 115.869 31.3336C115.573 31.475 115.227 31.5692 114.931 31.5692C114.586 31.5692 114.29 31.475 114.093 31.2865C113.895 31.098 113.797 30.7682 113.797 30.3913C113.797 30.2028 113.797 30.0144 113.846 29.7788L114.487 26.4335H115.573L114.981 29.5432C114.931 29.7788 114.931 30.0144 114.931 30.2028C114.931 30.3913 114.981 30.5326 115.03 30.6269C115.079 30.7211 115.178 30.7211 115.326 30.7211C115.573 30.7211 115.819 30.6269 116.066 30.4855C116.312 30.2971 116.51 30.0615 116.658 29.7788C116.855 29.4961 116.954 29.1663 117.003 28.7893L117.447 26.4335H118.483L117.94 29.5432C117.891 29.7788 117.891 30.0144 117.891 30.2028C117.891 30.3913 117.94 30.5326 117.99 30.5798C118.039 30.674 118.138 30.674 118.285 30.674C118.532 30.674 118.779 30.5798 119.025 30.4384C119.272 30.2499 119.469 30.0144 119.617 29.7317C119.815 29.449 119.913 29.1191 119.963 28.7422L120.407 26.3864H121.492L120.505 31.4279ZM125.734 29.1663C125.142 29.5432 124.303 29.6845 123.218 29.6845C123.218 30.0144 123.317 30.2971 123.514 30.4855C123.711 30.674 124.007 30.7682 124.353 30.7682C124.649 30.7682 124.895 30.7211 125.092 30.674C125.29 30.6269 125.536 30.5326 125.734 30.4384L125.586 31.2865C125.191 31.4279 124.698 31.5221 124.106 31.5221C123.465 31.5221 122.971 31.3336 122.626 31.0038C122.281 30.674 122.084 30.2028 122.084 29.5432C122.084 28.9307 122.232 28.3653 122.478 27.8941C122.725 27.3758 123.07 26.9989 123.514 26.7162C123.958 26.4335 124.451 26.2921 124.994 26.2921C125.487 26.2921 125.882 26.3864 126.128 26.622C126.375 26.8575 126.523 27.1874 126.523 27.6114C126.622 28.271 126.326 28.7893 125.734 29.1663ZM124.254 27.3758C124.007 27.5643 123.761 27.7528 123.613 28.0355C123.465 28.3182 123.317 28.648 123.267 28.9778C124.007 28.9778 124.599 28.8364 124.994 28.6009C125.388 28.3653 125.586 28.0826 125.586 27.6585C125.586 27.2816 125.388 27.0931 124.994 27.0931C124.747 27.1402 124.501 27.1874 124.254 27.3758ZM132.195 26.4335L131.258 31.4279H130.222L130.617 29.2605H128.595L128.2 31.4279H127.164L128.101 26.4335H129.137L128.743 28.4124H130.765L131.16 26.3864H132.195V26.4335ZM133.379 31.2865C133.182 31.098 133.083 30.7682 133.083 30.3913C133.083 30.2028 133.083 30.0144 133.133 29.7788L133.774 26.4335H134.81L134.218 29.5903C134.168 29.8259 134.168 30.0144 134.168 30.2028C134.168 30.3913 134.218 30.5326 134.267 30.6269C134.366 30.7211 134.464 30.7682 134.612 30.7682C135.007 30.7682 135.402 30.5798 135.747 30.2028C136.092 29.8259 136.29 29.3547 136.388 28.7893L136.832 26.4335H137.868L136.931 31.4279H136.043L136.142 30.6269H136.092C135.846 30.9567 135.55 31.1452 135.254 31.3336C134.958 31.5221 134.612 31.5692 134.168 31.5692C133.823 31.5692 133.577 31.475 133.379 31.2865ZM139.002 31.2865C138.805 31.098 138.706 30.7682 138.706 30.3913C138.706 30.2028 138.706 30.0144 138.756 29.7788L139.397 26.4335H140.433L139.841 29.5903C139.792 29.8259 139.792 30.0144 139.792 30.2028C139.792 30.3913 139.841 30.5326 139.89 30.6269C139.989 30.7211 140.088 30.7682 140.236 30.7682C140.63 30.7682 141.025 30.5798 141.37 30.2028C141.715 29.8259 141.913 29.3547 142.011 28.7893L142.455 26.4335H143.491L142.554 31.4279H141.666L141.715 30.6269H141.666C141.419 30.9567 141.123 31.1452 140.828 31.3336C140.532 31.5221 140.186 31.5692 139.742 31.5692C139.496 31.5692 139.2 31.475 139.002 31.2865ZM140.482 25.3969L140.581 24.6902C140.926 24.8786 141.321 24.9258 141.765 24.9258C142.209 24.9258 142.603 24.8315 142.949 24.6902L142.85 25.3969C142.505 25.5383 142.11 25.6325 141.617 25.6325C141.173 25.6796 140.778 25.5854 140.482 25.3969Z" fill="#006C3F"/>
</g>
<defs>
<clipPath id="clip0_314_988">
<rect width="145.808" height="34.5836" fill="white"/>
</clipPath>
</defs>
</svg>
