<svg width="82" height="40" viewBox="0 0 82 40" fill="none" xmlns="http://www.w3.org/2000/svg">
<g id="pochta-bank" clip-path="url(#clip0_314_932)">
<g id="Group">
<path id="Vector" d="M20.4297 9.6875C20.4297 9.6875 20.7638 10.0353 21.094 10.1117C21.094 10.1117 20.9587 9.7626 20.4297 9.6875Z" fill="#001689"/>
<path id="Vector_2" d="M23.2927 10.822C23.2632 10.988 23.1956 11.1138 23.0757 11.1909C23.0476 10.8292 22.3083 10.8253 22.3083 10.8253V10.7891C22.761 10.8457 23.2927 10.822 23.2927 10.822Z" fill="#001689"/>
<path id="Vector_3" d="M24.707 11.2087C24.7334 11.2346 24.7483 11.2697 24.7485 11.3063C24.7485 11.3245 24.7448 11.3425 24.7377 11.3593C24.7306 11.3761 24.7203 11.3913 24.7072 11.4041C24.6941 11.417 24.6786 11.4272 24.6615 11.4341C24.6445 11.4411 24.6261 11.4446 24.6076 11.4446C24.5703 11.4446 24.5345 11.4301 24.508 11.4041C24.4816 11.3782 24.4668 11.343 24.4668 11.3063C24.4668 11.2696 24.4816 11.2344 24.508 11.2085C24.5345 11.1825 24.5703 11.168 24.6076 11.168C24.6449 11.1682 24.6807 11.1828 24.707 11.2087Z" fill="#001689"/>
<path id="Vector_4" d="M18.375 10.1117C18.7031 10.0353 19.0399 9.6875 19.0399 9.6875C18.5089 9.76325 18.375 10.1117 18.375 10.1117Z" fill="#001689"/>
<path id="Vector_5" d="M17.1561 10.7891V10.8253C17.1561 10.8253 16.4195 10.8286 16.3907 11.1909C16.2722 11.1138 16.2026 10.988 16.1758 10.8227C16.1758 10.8227 16.7061 10.8457 17.1561 10.7891Z" fill="#001689"/>
<path id="Vector_6" d="M14.9571 11.4022C14.9307 11.4281 14.8949 11.4427 14.8575 11.4427L14.8582 11.4433C14.7824 11.4433 14.7207 11.3821 14.7207 11.305C14.7203 11.2871 14.7236 11.2692 14.7303 11.2525C14.737 11.2358 14.747 11.2205 14.7597 11.2076C14.7724 11.1947 14.7876 11.1843 14.8044 11.1772C14.8212 11.1701 14.8392 11.1663 14.8575 11.166C14.8949 11.166 14.9307 11.1806 14.9571 11.2065C14.9835 11.2325 14.9984 11.2677 14.9984 11.3043C14.9984 11.341 14.9835 11.3762 14.9571 11.4022Z" fill="#001689"/>
<path id="Vector_7" fill-rule="evenodd" clip-rule="evenodd" d="M39.4709 0.00195312V39.0848H-0.00195312V0.00195312H39.4709ZM22.3266 11.8954C22.3266 11.8954 22.0433 11.9778 21.9489 12.0021C21.9489 12.0021 21.9442 11.8401 21.9536 11.7617L21.923 11.769C21.8436 11.7881 21.7521 11.8102 21.671 11.8184C21.671 11.8184 21.3871 12.4428 21.1675 12.6945C21.1675 12.6945 21.1541 12.8328 21.2773 13.0436C21.2773 13.0436 21.4373 12.6747 21.7232 12.3783C21.8866 12.2123 21.9897 12.1273 22.3266 11.8954ZM23.0698 11.7617C22.9821 11.7861 22.5288 11.9264 22.3085 12.0832C22.0353 12.2768 21.8471 12.5002 21.8759 12.8849C21.8759 12.8849 22.0982 12.5799 22.342 12.4428C22.5368 12.3328 22.8864 12.0298 23.0698 11.7617ZM23.0645 8.93639C22.9821 8.93639 22.8194 8.97591 22.8194 9.10832C22.8194 9.1962 22.9085 9.36312 22.986 9.50831C23.0276 9.58623 23.0658 9.65784 23.0852 9.70777H23.0906C23.11 9.65777 23.1485 9.58591 23.1903 9.50778C23.2679 9.36273 23.3571 9.19606 23.3571 9.10832C23.3571 8.97657 23.1951 8.93705 23.1107 8.93705H23.0645V8.93639ZM23.25 9.97456C23.2562 9.94452 23.2633 9.90684 23.2713 9.86429C23.3134 9.6413 23.3807 9.2842 23.4797 9.19462C23.5901 9.09119 23.7542 9.08131 23.8359 9.08592C23.8591 9.08737 23.8817 9.09409 23.9018 9.10555C23.9219 9.11702 23.9391 9.13289 23.9519 9.15199C23.9648 9.17103 23.973 9.19284 23.9758 9.2155C23.9787 9.23822 23.9762 9.26128 23.9685 9.28289C23.9363 9.39487 23.5727 9.93306 23.5238 10.0009C23.4675 9.99109 23.4566 9.9903 23.3923 9.98563C23.3611 9.98332 23.3175 9.98009 23.25 9.97456ZM22.9036 9.85539C22.8605 9.63195 22.7933 9.28302 22.6962 9.19462C22.585 9.09119 22.421 9.08131 22.34 9.08592C22.3169 9.08777 22.2946 9.09475 22.2747 9.10628C22.2547 9.11787 22.2377 9.13375 22.2249 9.15265C22.2121 9.17163 22.2038 9.19317 22.2006 9.2157C22.1975 9.23829 22.1995 9.26121 22.2067 9.28289C22.2395 9.39487 22.6018 9.93306 22.6507 10.0009C22.7077 9.99109 22.7182 9.9903 22.7839 9.98556C22.8153 9.98325 22.8594 9.98009 22.9272 9.97456C22.9204 9.94261 22.9126 9.90203 22.9037 9.85612L22.9036 9.85539ZM22.6955 8.28358H22.9768V7.97464H23.2044V8.28424H23.489V8.47923H23.2044V8.84219H22.9768V8.47989H22.6955V8.28358ZM19.3367 6.4503H19.6179V6.1407H19.849V6.4503H20.1322V6.64465H19.849V7.00959H19.6179V6.64465H19.3367V6.4503ZM26.1247 10.2842C26.1224 10.224 26.1177 10.1641 26.1106 10.1043C26.0901 9.97614 26.0874 9.84584 26.1026 9.71699L26.1085 9.71917C26.3101 9.79565 26.4474 9.84775 26.726 10.2921C26.726 10.2921 26.2787 10.0194 26.1247 10.2835V10.2842ZM17.7504 15.1877C17.8127 14.9414 17.7972 14.6805 17.7504 14.5106C17.3767 15.5421 16.5531 15.4809 16.5531 15.4809C16.7232 15.9025 17.1765 15.8748 17.3674 15.7562C17.589 15.6185 17.7035 15.3755 17.7504 15.1877ZM19.3536 18.7493C19.2515 18.613 19.1469 18.4731 19.0977 18.3477C18.7227 18.6757 18.6731 19.3404 18.7166 19.5617C18.8017 19.9926 19.2805 20.368 19.2805 20.368C19.2959 20.3192 19.324 20.2597 19.3575 20.1888C19.4576 19.9769 19.6062 19.6625 19.6113 19.2199C19.6116 19.0939 19.4848 18.9245 19.3536 18.7493ZM18.9972 18.0486C18.7943 18.1935 18.6169 18.6125 18.562 18.7666C18.49 18.6375 18.3909 18.5228 18.2943 18.4113C18.1039 18.1914 17.9239 17.9836 17.9847 17.6995C18.0751 17.2739 18.42 16.8214 18.42 16.8214C19.2577 17.2898 18.9972 18.0486 18.9972 18.0486ZM17.0412 17.3029C17.1886 17.2331 17.3801 17.0111 17.514 16.8484C17.6265 17.0711 17.8307 17.3991 17.8307 17.3991C17.8258 17.4455 17.8233 17.5033 17.8204 17.5704C17.8148 17.6975 17.8076 17.8586 17.7805 18.0414C17.7383 18.3194 17.372 18.793 17.372 18.793C17.3422 18.7137 17.3003 18.6251 17.2553 18.5306C17.1589 18.3273 17.0491 18.0958 17.0185 17.8675C16.991 17.6415 17.0412 17.3029 17.0412 17.3029ZM16.1044 17.3273C16.1091 17.7456 16.4426 18.3187 16.5464 18.4768C16.7151 18.3503 16.7861 18.2614 16.8424 18.1125C16.9073 17.9287 16.8631 17.3846 16.8631 17.3846C16.5169 17.5447 16.1044 17.3273 16.1044 17.3273ZM16.9442 18.3049C16.8745 18.3833 16.7098 18.5335 16.6428 18.5921C16.7441 18.697 16.8555 18.7912 16.9756 18.8747C17.127 18.9827 17.2642 18.9471 17.2642 18.9471C17.2174 18.8016 16.9442 18.3049 16.9442 18.3049ZM17.36 19.1105C17.4363 19.0354 17.8796 18.4254 17.9124 18.3003C17.9822 18.4263 18.0949 18.562 18.2027 18.6919C18.3151 18.8274 18.4223 18.9565 18.4702 19.0618C18.5084 19.1494 18.5184 19.3832 18.428 19.6217C18.347 19.8279 18.0718 20.3002 18.0718 20.3002C17.9499 20.1882 17.7216 19.9649 17.5582 19.6487C17.3928 19.3305 17.36 19.1105 17.36 19.1105ZM18.7348 20.1389C18.6713 20.0478 18.6129 19.964 18.5787 19.8957C18.5305 19.9933 18.4498 20.0933 18.37 20.1922C18.2969 20.2828 18.2244 20.3726 18.1783 20.4589C18.0777 20.6689 18.0581 20.9077 18.1234 21.1308C18.2117 21.4003 18.6169 21.779 18.6169 21.779C18.6551 21.7129 18.6994 21.64 18.7437 21.5671C18.8365 21.4143 18.9294 21.2613 18.9671 21.1704C19.0227 21.0301 19.0548 20.8667 19.018 20.6678C18.9879 20.5021 18.8526 20.308 18.7348 20.1389ZM17.6383 20.1524C17.5611 20.0505 17.4816 19.9457 17.4336 19.8404L17.4105 19.8876C17.3302 20.0508 17.2261 20.2623 17.1665 20.4313C17.0982 20.6131 17.1162 20.9016 17.1698 21.0768C17.2261 21.2521 17.5542 21.6736 17.5542 21.6736C17.5755 21.5974 17.6191 21.5229 17.6704 21.4351C17.7176 21.3546 17.7713 21.2628 17.82 21.1486C17.9345 20.8746 17.9124 20.727 17.8455 20.4919C17.8149 20.3852 17.7281 20.2708 17.6383 20.1524ZM18.499 22.4806C18.4856 22.1216 19.0521 21.4451 19.0521 21.4451C19.3481 21.7303 19.4231 21.9114 19.4592 22.196C19.4901 22.4806 19.3943 22.6934 19.2671 22.9437C19.1532 23.167 18.8573 23.499 18.8573 23.499C18.8404 23.3876 18.7809 23.2721 18.715 23.1444C18.6189 22.9579 18.5093 22.7453 18.499 22.4806ZM18.28 22.2125C18.351 21.951 18.0992 21.5083 18.0095 21.3792C17.5582 21.7962 17.512 22.1361 17.5615 22.3423C17.6131 22.5511 17.8361 23.0056 17.8361 23.0056C17.8587 22.9677 17.892 22.9175 17.9304 22.8596C18.0522 22.6759 18.2261 22.4137 18.28 22.2125ZM19.898 7.9915C19.8267 8.16903 19.7572 8.34201 19.7398 8.45611H19.7284C19.7118 8.34089 19.6409 8.16567 19.5684 7.98636C19.4809 7.76983 19.3909 7.54738 19.3909 7.41728C19.3889 7.37176 19.3962 7.32637 19.4125 7.28369C19.4288 7.24107 19.4537 7.20214 19.4857 7.1692C19.5177 7.13633 19.5561 7.11011 19.5987 7.09226C19.6413 7.07434 19.6871 7.06512 19.7335 7.06512C19.7797 7.06512 19.8255 7.07434 19.8681 7.09226C19.9107 7.11011 19.9491 7.13633 19.9812 7.1692C20.0132 7.20214 20.0381 7.24107 20.0543 7.28369C20.0707 7.32637 20.078 7.37176 20.076 7.41728C20.076 7.54837 19.9856 7.77339 19.898 7.9915ZM21.1829 7.60831C21.1902 7.78156 20.9927 8.3013 20.694 9.00418C20.5199 8.91393 20.4295 8.89482 20.2769 8.8665C20.3298 8.47257 20.4757 7.52334 20.6297 7.40542C20.7074 7.34548 20.8139 7.35272 20.9344 7.38961C21.0516 7.42584 21.1782 7.50423 21.1829 7.60831ZM19.921 8.8356C19.9976 8.8389 20.075 8.84219 20.1496 8.85201C20.1958 8.50466 20.2521 8.15869 20.3184 7.8145C20.388 7.45812 20.5166 7.11294 20.5166 7.11294C20.3498 7.15774 20.2521 7.3356 20.1757 7.58394C20.0981 7.83031 19.9668 8.45874 19.9199 8.83554L19.921 8.8356ZM21.0938 9.75382C20.8065 9.55093 20.3398 9.5002 20.155 9.52524C20.1972 9.66028 20.384 9.9521 20.601 10.0792C21.059 10.3427 21.5719 10.3032 21.5719 10.3032C21.4735 10.1227 21.3811 9.95605 21.0938 9.75382ZM22.8957 11.3967C22.8957 11.3967 22.9004 11.5673 22.8877 11.6642C22.8877 11.6642 23.7388 11.5785 23.8031 10.3467C23.8031 10.3467 23.2359 10.5562 22.6667 10.5298C22.571 10.5249 22.4619 10.5206 22.345 10.5159C21.7646 10.4926 20.991 10.4616 20.7074 10.3256C20.7074 10.3256 20.7637 10.5371 21.0355 10.6589C21.0355 10.6589 20.8942 10.6589 20.7536 10.7801C20.7536 10.7801 20.8347 10.9554 21.0757 11.0476C21.0757 11.0476 20.6425 11.4929 20.1784 11.4613C20.1784 11.4613 20.39 11.7254 20.8668 11.6233C21.2955 11.5322 21.4613 11.3105 21.5493 11.1927C21.5593 11.1793 21.5683 11.1673 21.5766 11.1569C21.5766 11.1569 21.5143 11.4092 21.5431 11.5107C21.5431 11.5107 21.752 11.4981 21.9161 11.2953C21.9161 11.2953 21.7969 11.4981 21.7728 11.6694C21.7728 11.6694 21.9034 11.6839 22.1357 11.5469C22.1357 11.5469 22.0889 11.6734 22.0808 11.8183C22.0808 11.8183 22.6286 11.6444 22.8957 11.3967ZM23.7522 11.1484C23.8569 10.9225 23.9193 10.68 23.9363 10.4323C24.2718 10.3309 24.2504 10.4764 24.1687 10.6872C24.0883 10.8994 23.7522 11.1484 23.7522 11.1484ZM25.2863 10.8658C25.1109 10.6095 24.7138 10.6543 24.5249 10.6991C24.4219 11.022 24.0962 11.1559 23.8804 11.2445C23.8466 11.2584 23.8155 11.2711 23.7883 11.2834C23.5627 11.3848 23.3618 11.6253 23.3618 11.6253C23.7013 11.7024 23.854 11.7985 23.854 11.7985C24.5042 11.3433 25.0419 11.8012 25.0419 11.8012C25.3948 11.6049 25.4644 11.1214 25.2863 10.8658ZM22.879 12.1595C23.0531 12.0218 23.2888 11.7083 23.2888 11.7083L23.3239 11.7163C23.6175 11.7835 23.8288 11.8319 24.0575 12.1424C24.2805 12.4421 23.9772 12.9032 23.9772 12.9032C23.7555 12.1516 22.879 12.1595 22.879 12.1595ZM29.3944 23.7276C29.5116 22.3172 28.2775 21.0175 27.6929 20.4379L27.6722 20.4365C27.4947 20.4398 27.3347 20.4115 27.1961 20.3608C27.2334 20.4238 27.2654 20.4896 27.2918 20.5577C28.8159 21.9674 28.6846 22.6624 28.6846 22.6624C28.1657 22.3627 27.5891 21.5057 27.2992 20.9807L27.194 20.9965C27.0688 21.0169 26.9416 21.0169 26.8157 21.0011C27.0005 21.1749 27.2638 21.6375 27.6799 22.3683L27.778 22.5405C28.248 23.3732 29.3944 23.7276 29.3944 23.7276ZM19.7345 8.99891C19.241 8.99891 18.8392 9.08454 18.8392 9.18862C18.8392 9.29138 19.2403 9.37702 19.7345 9.37702C20.2293 9.37702 20.6297 9.29204 20.6297 9.18862C20.6297 9.08454 20.23 8.99891 19.7345 8.99891ZM19.8965 9.67016C19.9051 9.64901 19.9095 9.62642 19.9092 9.60363L19.9086 9.60428C19.9089 9.58156 19.9047 9.55903 19.896 9.53795C19.8875 9.51687 19.8747 9.4977 19.8585 9.48149C19.8423 9.46529 19.823 9.45245 19.8017 9.44368C19.7804 9.43492 19.7575 9.43038 19.7345 9.43038C19.6374 9.43038 19.557 9.50811 19.557 9.60428C19.5573 9.65039 19.5762 9.69453 19.6094 9.72714C19.6426 9.75968 19.6875 9.77806 19.7345 9.77819C19.7576 9.77812 19.7805 9.77351 19.8018 9.76469C19.8232 9.75586 19.8425 9.74295 19.8587 9.72674C19.875 9.71047 19.8879 9.69124 19.8965 9.67016ZM18.2861 7.60831C18.278 7.78156 18.4783 8.3013 18.7749 9.00418C18.9503 8.91393 19.0414 8.89482 19.1914 8.8665C19.1372 8.47257 18.9945 7.52334 18.8385 7.40542C18.7595 7.34548 18.6544 7.35272 18.5372 7.38961C18.4173 7.42584 18.2908 7.50423 18.2861 7.60831ZM19.5503 8.83554C19.4719 8.83883 19.3936 8.84213 19.3193 8.85201C19.2744 8.5121 19.2209 8.17153 19.1512 7.8145C19.0802 7.45812 18.953 7.11294 18.953 7.11294C19.1177 7.15774 19.2162 7.3356 19.2945 7.58394C19.4069 7.99532 19.4923 8.41342 19.5503 8.83554ZM17.8977 10.3032C17.8977 10.3032 18.41 10.3427 18.8686 10.0792V10.0786C19.0863 9.9521 19.2731 9.66028 19.3139 9.52524C19.1305 9.5002 18.6631 9.55093 18.3765 9.75382C18.0899 9.95605 17.9968 10.1227 17.8977 10.3032ZM16.8042 10.5291C16.2337 10.5555 15.6645 10.3467 15.6645 10.3467C15.7301 11.5785 16.5826 11.6642 16.5826 11.6642C16.5692 11.568 16.5725 11.3967 16.5725 11.3967C16.839 11.6444 17.3888 11.8183 17.3888 11.8183C17.3794 11.6734 17.3305 11.5469 17.3305 11.5469C17.5656 11.6839 17.6968 11.6694 17.6968 11.6694C17.672 11.4981 17.5535 11.2953 17.5535 11.2953C17.7162 11.4981 17.9251 11.5107 17.9251 11.5107C17.9546 11.4092 17.893 11.1569 17.893 11.1569C17.9009 11.1669 17.9095 11.1785 17.9191 11.1913C18.0065 11.3087 18.1728 11.5319 18.6015 11.6233C19.0769 11.7248 19.2912 11.4613 19.2912 11.4613C18.8265 11.4929 18.3919 11.0476 18.3919 11.0476C18.6343 10.9547 18.7153 10.7801 18.7153 10.7801C18.5767 10.6589 18.4341 10.6589 18.4341 10.6589C18.7053 10.5371 18.7595 10.3249 18.7595 10.3249C18.4793 10.4612 17.7079 10.492 17.1291 10.5151C17.0108 10.5199 16.9006 10.5243 16.8042 10.5291ZM15.7174 11.1484C15.623 10.9619 15.554 10.6991 15.5326 10.4323C15.1964 10.3309 15.2165 10.4764 15.3002 10.6872C15.3819 10.8994 15.7174 11.1484 15.7174 11.1484ZM16.1058 11.6253C16.1058 11.6253 15.9056 11.3848 15.6812 11.2834C15.6543 11.2713 15.6234 11.2587 15.59 11.2451C15.3736 11.1565 15.0478 11.0232 14.944 10.6991C14.7558 10.655 14.3581 10.6089 14.182 10.8658C14.0059 11.1214 14.0735 11.6049 14.4264 11.8012C14.5956 11.6699 14.8047 11.5984 15.0202 11.5979C15.2357 11.5974 15.4451 11.6681 15.615 11.7985C15.615 11.7985 15.7656 11.7024 16.1058 11.6253ZM16.5906 12.1595C16.4165 12.0218 16.1801 11.7083 16.1801 11.7083L16.1447 11.7165C15.8519 11.7835 15.6406 11.832 15.4107 12.1424C15.1891 12.4421 15.4924 12.9032 15.4924 12.9032C15.7134 12.1516 16.5906 12.1595 16.5906 12.1595ZM9.96067 12.2235C9.9588 12.1319 9.95973 12.0403 9.96335 11.9488L9.96134 11.9238C9.56827 11.1036 8.92945 10.0964 8.43126 9.38631C8.0268 8.80596 7.09938 7.74144 6.45454 7.19996C6.30455 7.86792 6.06549 9.11557 6.63735 10.19C7.20853 11.265 8.61473 12.8098 10.0357 13.5554L10.195 13.6213C10.3691 13.6938 10.5406 13.7735 10.6906 13.8473C10.5037 13.647 10.345 13.4402 10.2258 13.23C10.1395 13.0812 10.0779 12.9224 10.0377 12.7683L9.98813 12.5996C9.6037 12.3462 9.21029 11.9715 8.88399 11.6607C8.77276 11.5548 8.66917 11.4561 8.57656 11.3724C8.21162 11.0411 7.69266 10.3777 7.40674 9.5477C7.74824 9.7664 8.05694 10.0378 8.42188 10.4857C8.83644 10.9963 9.26614 11.5397 9.65653 12.0336C9.76675 12.173 9.87402 12.3086 9.97674 12.4382L9.96067 12.2235ZM29.5605 16.386C29.6704 16.4256 29.7764 16.475 29.8772 16.5336C31.8118 15.9895 33.1878 16.2727 33.1878 16.2727C32.6247 16.4598 31.0457 16.7029 30.0962 16.697C30.1762 16.7743 30.2466 16.8608 30.3058 16.9545C30.5209 16.9526 30.7572 16.9643 31.0136 16.9769C31.7236 17.012 32.5887 17.0547 33.5923 16.8379C34.9596 16.5448 36.1542 15.7115 36.1542 15.7115C35.6648 15.5863 34.7166 15.5112 33.4041 15.5969C31.8033 15.6994 30.6823 16.043 29.8448 16.2995C29.7462 16.3298 29.6516 16.3588 29.5605 16.386ZM29.2096 16.3004C29.7754 16.033 29.8772 15.5501 29.8819 15.5257C29.9961 15.504 30.1015 15.4847 30.2016 15.4664C30.7 15.3749 31.0695 15.3072 31.7716 15.085C32.6213 14.8163 33.1363 14.479 33.1363 14.479L33.0531 14.4868C32.704 14.5194 32.2931 14.5577 31.7515 14.7082C31.0082 14.9138 30.6279 15.0455 29.8103 15.3564C29.606 15.2227 29.367 15.1588 29.146 15.1509C29.7326 14.892 31.4066 14.2728 32.5048 13.9402C33.4436 13.6543 34.661 13.2906 36.1676 13.3302C36.1676 13.3302 35.8496 14.2241 34.1086 14.9408C33.4742 15.202 32.57 15.408 31.6704 15.613C30.7457 15.8237 29.826 16.0333 29.2096 16.3004ZM29.7373 14.5625C29.8007 14.4731 29.9299 14.2908 29.9736 14.2115C30.5713 13.9246 30.7875 13.8054 31.0523 13.6593L31.1313 13.6158L31.1944 13.5811C31.6602 13.3207 32.1036 13.0233 32.5202 12.6918C32.9233 12.377 33.4215 11.734 33.4215 11.734C32.8798 11.9165 32.3354 12.3025 31.9725 12.5739C31.4984 12.9264 30.7397 13.4935 30.1009 14.0034L30.3332 13.3335C31.0805 12.7544 32.1579 11.7149 32.5149 11.3625C32.8718 11.0075 34.2492 9.8303 34.8846 9.70514C34.8846 9.70514 35.0715 11.0364 34.4152 11.9297C33.7624 12.8223 31.6477 14.2616 29.7245 14.5804L29.7373 14.5625ZM29.5076 12.2235C29.5116 12.1253 29.5096 12.0338 29.5069 11.9488V11.9238C29.902 11.1036 30.5388 10.0964 31.0363 9.38631C31.4415 8.80596 32.3695 7.74144 33.0144 7.19996C33.1664 7.86792 33.4008 9.11557 32.8316 10.19C32.2624 11.265 30.8542 12.8098 29.4333 13.5554L29.2739 13.6213C29.0998 13.6938 28.9284 13.7735 28.7784 13.8473C28.9672 13.647 29.1232 13.4402 29.2438 13.23C29.3308 13.0812 29.3911 12.9224 29.4312 12.7683L29.4821 12.5996C29.8659 12.3473 30.256 11.9748 30.5805 11.6649C30.6931 11.5573 30.7979 11.4572 30.8917 11.3724C31.2586 11.0411 31.7743 10.3777 32.0635 9.5477C31.722 9.7664 31.4127 10.0378 31.0477 10.4857C30.5858 11.0546 30.1036 11.6643 29.6794 12.2007L29.4915 12.4382L29.5076 12.2235ZM10.0725 23.7276C9.95799 22.3173 11.1914 21.0176 11.7767 20.4379L11.7961 20.4366C11.9742 20.4399 12.1336 20.4116 12.2729 20.3609C12.23 20.4333 12.1985 20.5005 12.1778 20.5578C10.6524 21.9675 10.7856 22.6625 10.7856 22.6625C11.3039 22.3628 11.8805 21.5057 12.1718 20.9807L12.2749 20.9965C12.3988 21.017 12.526 21.017 12.6532 21.0011C12.4676 21.177 12.1991 21.6484 11.7745 22.394L11.691 22.5406C11.2202 23.3733 10.0725 23.7276 10.0725 23.7276ZM25.4169 14.8018C26.7173 13.9197 27.1961 13.2663 27.4873 12.6293C27.642 13.8137 27.1961 14.6186 26.8271 14.9085C26.4595 15.197 26.3068 15.4849 26.3068 15.4849C27.1807 14.923 27.7331 15.2721 27.7331 15.2721C27.5643 16.1838 26.7983 16.3518 26.7983 16.3518C27.6266 16.2596 27.9648 16.6706 27.9648 16.6706C27.6574 17.3392 26.8566 17.3702 26.8566 17.3702C27.5643 17.9169 27.4418 18.3122 27.4418 18.3122C26.659 18.4947 26.2285 18.1146 26.2285 18.1146C26.8291 18.8892 26.3684 19.4656 26.3684 19.4656C25.5689 19.3609 25.3091 18.7357 25.3091 18.7357C25.3874 19.438 25.0332 19.6185 25.0332 19.6185C24.6019 19.4814 24.3863 19.102 24.3863 19.102C24.158 19.5895 23.6203 19.6804 23.6203 19.6804C23.3913 19.239 23.56 18.8286 23.56 18.8286C23.098 18.9676 22.9614 18.6923 22.9614 18.6923C23.2527 18.3721 23.4201 17.8728 23.4201 17.8728C24.2196 18.1903 25.2019 18.0237 25.4765 17.7048C25.7063 17.4395 25.43 16.833 25.1893 16.3047C25.1389 16.1943 25.0902 16.0872 25.0479 15.9875C24.8028 15.4098 25.1242 14.9994 25.4169 14.8018ZM24.5444 21.3424C24.4719 21.5024 24.3819 21.6541 24.2758 21.7949C24.1178 22.9082 23.8968 23.0636 23.8968 23.0636C23.8118 22.5887 23.9504 22.1164 23.9504 22.1164C23.8392 22.1895 23.7267 22.2376 23.6236 22.2666C23.3913 23.4299 23.7542 23.9088 23.7542 23.9088C24.3133 23.2445 24.397 22.5553 24.5157 21.5765L24.5159 21.5751C24.5251 21.4993 24.5345 21.4217 24.5444 21.3424ZM25.603 21.264C25.5314 21.3997 25.3914 21.5901 25.3191 21.6803C25.4932 22.8614 25.2093 23.0748 25.2093 23.0748C24.926 22.5228 25.0198 21.7409 25.0198 21.7409L25.0137 21.7339C25.0068 21.7261 24.9993 21.7177 24.9913 21.7088L24.9641 21.6788C24.8891 21.5962 24.7864 21.4831 24.7211 21.3753C24.8597 23.8403 25.2515 24.1242 25.2515 24.1242C25.7923 23.6233 25.6689 22.0858 25.612 21.3772C25.6088 21.3366 25.6057 21.2988 25.603 21.264ZM26.0564 20.6948C26.0564 20.6948 26.2003 22.4016 26.6825 22.9714C26.8002 22.4801 26.605 21.875 26.4214 21.3058C26.3679 21.14 26.3155 20.9773 26.272 20.8213C26.3386 20.856 26.4072 20.8868 26.4775 20.9135C27.0307 21.8127 27.6929 23.1051 27.1445 24.0689C27.1445 24.0689 26.5619 23.8014 26.2445 23.2843C25.9224 22.7573 25.8374 21.6994 25.7704 20.6718C25.7758 20.6072 25.7778 20.542 25.7778 20.4807C25.8653 20.5585 25.9585 20.6301 26.0564 20.6948ZM28.0056 20.2541C28.0305 20.1746 28.0412 20.0915 28.0371 20.0084C29.3375 21.3799 30.0908 21.6157 30.0908 21.6157C29.6503 20.7316 28.6102 20.1557 28.125 19.887L28.0805 19.8624C28.0543 19.8479 28.0302 19.8345 28.0083 19.822C27.9842 19.7351 27.9407 19.6409 27.869 19.546C27.8866 19.5503 27.9045 19.553 27.9226 19.5539C28.1094 19.5795 28.2997 19.5534 28.4723 19.4788C29.0147 19.8681 29.75 20.4577 30.3259 21.1019C30.9024 21.7468 31.1107 22.3443 31.2131 23.1012C31.2131 23.1012 30.137 23.0636 29.4574 22.1296C28.7784 21.1961 28.4375 20.7699 27.9815 20.3246C27.9904 20.3014 27.9984 20.2779 28.0056 20.2541ZM28.8467 18.9867L28.8922 19.0671C29.0156 19.1235 29.1348 19.1745 29.2527 19.225C29.6402 19.3909 30.0141 19.5509 30.4792 19.8767C30.9734 20.2265 31.2412 20.71 31.2412 20.71C29.987 20.2594 28.7991 19.2186 28.7991 19.2186C28.7737 19.2515 28.7409 19.2904 28.6967 19.3306C28.9164 19.4912 29.2862 19.8262 29.7115 20.2113C30.1287 20.5892 30.5993 21.0154 31.0337 21.3727C31.9122 22.0907 32.9735 21.9972 32.9735 21.9972C32.5731 20.7897 31.8365 20.1968 31.3269 19.9333C30.8827 19.7056 29.6251 19.228 29.0187 18.9976L29.0172 18.997L29.0139 18.9958C28.9278 18.9631 28.855 18.9354 28.7998 18.9143C28.8171 18.9374 28.8327 18.9616 28.8467 18.9867ZM29.7399 18.2358C29.7592 18.2742 29.7764 18.3135 29.7915 18.3537C30.3058 18.4933 30.8105 18.6657 31.3022 18.8695C31.7743 19.0684 32.2262 19.3833 32.2262 19.3833C31.3129 19.3589 30.3915 19.0006 29.7031 18.6962C29.606 18.7555 29.4199 18.8431 29.1587 18.8622C29.4882 18.9485 30.0265 19.1158 31.7528 19.9208C33.4804 20.7238 34.3945 20.4452 34.3945 20.4452C33.7717 19.2673 32.7204 18.8477 32.1419 18.6699C31.7617 18.5553 31.074 18.4494 30.498 18.3607C30.1933 18.3138 29.9199 18.2718 29.7399 18.2358ZM29.2304 17.6475C29.411 17.6337 29.5873 17.5863 29.75 17.5079C31.4127 17.9854 32.6749 17.8201 32.6749 17.8201C32.0791 17.5196 30.9976 17.4347 30.3163 17.3813L30.3152 17.3813C30.2144 17.3734 30.1224 17.3661 30.0419 17.359C30.1271 17.3092 30.2083 17.2533 30.285 17.1917C30.6246 17.2376 31.1633 17.2594 31.7092 17.2815C32.3539 17.3076 33.0092 17.3341 33.3579 17.4011C34.0007 17.5237 34.9496 17.8899 35.5449 18.2509C35.5449 18.2509 34.6335 18.5605 32.9233 18.44C31.2111 18.3175 30.1765 18.1284 29.5685 17.9545C29.4654 17.8227 29.3509 17.7252 29.2304 17.6475ZM11.9816 12.6293C12.2729 13.2663 12.7496 13.9197 14.0547 14.8018C14.344 14.9994 14.6661 15.4098 14.423 15.9875C14.382 16.083 14.3352 16.1852 14.2869 16.2907C14.0434 16.8222 13.7618 17.4371 13.9898 17.7048C14.2663 18.0237 15.2493 18.1903 16.0482 17.8728C16.0482 17.8728 16.2156 18.3721 16.5096 18.6923C16.5096 18.6923 16.371 18.9676 15.9109 18.8286C15.9109 18.8286 16.0783 19.239 15.8473 19.6804C15.8473 19.6804 15.3116 19.5895 15.0813 19.102C15.0813 19.102 14.865 19.4814 14.4358 19.6185C14.4358 19.6185 14.0829 19.438 14.1612 18.7357C14.1612 18.7357 13.8987 19.3609 13.1025 19.4656C13.1025 19.4656 12.6405 18.8892 13.2391 18.1146C13.2391 18.1146 12.8092 18.4947 12.0291 18.3122C12.0291 18.3122 11.9046 17.9169 12.6097 17.3702C12.6097 17.3702 11.8115 17.3392 11.5055 16.6706C11.5055 16.6706 11.843 16.2596 12.6706 16.3518C12.6706 16.3518 11.9046 16.1838 11.7352 15.2721C11.7352 15.2721 12.2876 14.923 13.1628 15.4849C13.1628 15.4849 13.0074 15.197 12.6405 14.9085C12.2729 14.6186 11.8276 13.8137 11.9816 12.6293ZM15.1938 21.7949C15.0858 21.6555 14.9958 21.5035 14.9259 21.3424C14.9365 21.4273 14.9466 21.5102 14.9564 21.5911C15.0744 22.5622 15.1578 23.2478 15.7147 23.9088C15.7147 23.9088 16.0783 23.4299 15.8446 22.2666C15.7291 22.2333 15.6196 22.1827 15.5199 22.1164C15.5199 22.1164 15.6571 22.5887 15.5701 23.0636C15.5701 23.0636 15.3545 22.9082 15.1938 21.7949ZM14.1505 21.6803C14.0458 21.5484 13.951 21.4092 13.8666 21.264C13.8638 21.2992 13.8607 21.3375 13.8575 21.3786L13.8573 21.3801C13.8002 22.0902 13.6767 23.624 14.2168 24.1242C14.2168 24.1242 14.6092 23.8403 14.7458 21.3753C14.6786 21.4881 14.5695 21.6067 14.4927 21.6901C14.4755 21.7088 14.4596 21.7262 14.4465 21.7409C14.4465 21.7409 14.5422 22.5228 14.259 23.0748C14.259 23.0748 13.9757 22.8614 14.1505 21.6803ZM12.7878 22.9714C13.2666 22.4016 13.4119 20.6948 13.4119 20.6948C13.4789 20.65 13.5445 20.6026 13.6135 20.5492C13.6237 20.5397 13.6347 20.5303 13.6459 20.5207C13.6609 20.5078 13.6763 20.4947 13.6905 20.4807C13.6905 20.542 13.6931 20.6072 13.6998 20.6718C13.6302 21.6994 13.5485 22.7573 13.2244 23.2843C12.907 23.8014 12.3224 24.0689 12.3224 24.0689C11.7767 23.1051 12.4363 21.8127 12.992 20.9135C13.059 20.8885 13.128 20.8562 13.199 20.8213C13.1555 20.976 13.1033 21.1374 13.05 21.3018C12.8653 21.8721 12.6688 22.479 12.7878 22.9714ZM11.4298 20.0084C11.4263 20.1167 11.4464 20.2246 11.4887 20.3246C11.0301 20.7699 10.6906 21.1961 10.0116 22.1296C9.3319 23.0636 8.25515 23.1012 8.25515 23.1012C8.35961 22.3443 8.56652 21.7468 9.14373 21.1019C9.71961 20.4577 10.4562 19.8681 10.9972 19.4788C11.1865 19.5609 11.3967 19.5843 11.5999 19.546C11.5356 19.6281 11.4885 19.7219 11.4613 19.822C11.4286 19.8405 11.3911 19.8612 11.3494 19.8843C10.8658 20.1517 9.8226 20.7286 9.37877 21.6157C9.37877 21.6157 10.1314 21.3799 11.4298 20.0084ZM10.5781 19.0671L10.6216 18.9867L10.6301 18.9736L10.6363 18.9638C10.6474 18.9463 10.6577 18.9299 10.6705 18.9143C10.6142 18.9358 10.5397 18.9641 10.4512 18.9977C9.84476 19.2281 8.58741 19.7057 8.14265 19.9333C7.6324 20.1968 6.89381 20.7897 6.49336 21.9972C6.49336 21.9972 7.55673 22.0907 8.43394 21.3727C8.86905 21.0154 9.3396 20.5892 9.75684 20.2113C10.182 19.8262 10.5519 19.4911 10.7723 19.3306C10.7346 19.2969 10.7007 19.2593 10.6711 19.2186C10.6711 19.2186 9.48256 20.2594 8.22702 20.71C8.22702 20.71 8.49487 20.2265 8.9924 19.8767C9.45538 19.551 9.82943 19.3909 10.2171 19.2251C10.3352 19.1746 10.4546 19.1235 10.5781 19.0671ZM9.67541 18.3537C9.69222 18.3139 9.71003 18.2746 9.72898 18.2358C9.54906 18.2717 9.27632 18.3137 8.97244 18.3605C8.39657 18.4492 7.7086 18.5552 7.32772 18.6699C6.74783 18.8477 5.69785 19.2673 5.07443 20.4452C5.07443 20.4452 5.98913 20.7238 7.71476 19.9208C9.44038 19.1158 9.9821 18.9485 10.3109 18.8622C10.1184 18.8509 9.93168 18.7939 9.76648 18.6962C9.07811 19.0006 8.15738 19.3589 7.24335 19.3833C7.24335 19.3833 7.69266 19.0684 8.16743 18.8695C8.68036 18.6587 9.24552 18.4643 9.67541 18.3537ZM9.72028 17.5079C9.88835 17.5863 10.0183 17.6251 10.2392 17.6475C10.1187 17.7252 10.0049 17.8227 9.90308 17.9545C9.2944 18.1284 8.25648 18.3175 6.54559 18.44C4.83672 18.5605 3.92335 18.2509 3.92335 18.2509C4.51932 17.8899 5.47018 17.5237 6.11301 17.4011C6.46106 17.3341 7.11532 17.3076 7.75963 17.2815C8.3053 17.2594 8.84394 17.2376 9.18324 17.1917C9.19128 17.2002 9.28101 17.272 9.42698 17.359C9.34623 17.3662 9.25369 17.3734 9.15224 17.3814C8.4713 17.4348 7.38986 17.5197 6.79537 17.8201C6.79537 17.8201 8.05694 17.9854 9.72028 17.5079ZM9.59104 16.5336C9.69235 16.4752 9.79882 16.4258 9.90911 16.386C9.81603 16.3582 9.71927 16.3286 9.61843 16.2978C8.78046 16.0413 7.6624 15.6992 6.06413 15.5969C4.75234 15.5112 3.80617 15.5863 3.31534 15.7115C3.31534 15.7115 4.51128 16.5448 5.87597 16.8379C6.88055 17.0547 7.74597 17.012 8.45603 16.9769C8.7125 16.9643 8.94867 16.9526 9.16382 16.9545C9.21605 16.8755 9.27766 16.7859 9.37274 16.697C8.42322 16.7029 6.84626 16.4598 6.28176 16.2727C6.28176 16.2727 7.65784 15.9895 9.59104 16.5336ZM9.58635 15.5257C9.59104 15.5501 9.69349 16.033 10.2587 16.3004C9.64193 16.0332 8.72221 15.8235 7.79726 15.6127C6.89843 15.4078 5.99468 15.2018 5.35969 14.9408C3.62001 14.2241 3.30128 13.3302 3.30128 13.3302C4.80792 13.2906 6.02529 13.6543 6.96412 13.9402C8.06296 14.2728 9.73635 14.892 10.3216 15.1509C10.0857 15.1588 9.85655 15.2298 9.65867 15.3564C8.84173 15.0455 8.46072 14.9138 7.71878 14.7082C7.17565 14.5578 6.76484 14.5194 6.41644 14.4868L6.33265 14.479C6.33265 14.479 6.84827 14.8163 7.69735 15.085C8.39798 15.3071 8.76781 15.3749 9.26607 15.4662L9.26715 15.4664C9.36712 15.4848 9.47232 15.5041 9.58635 15.5257ZM9.49528 14.2115C9.5435 14.2965 9.68747 14.5001 9.74438 14.5804C7.8219 14.2616 5.70722 12.8223 5.05367 11.9297C4.40012 11.0364 4.58494 9.70514 4.58494 9.70514C5.21907 9.8303 6.59715 11.0075 6.95407 11.3625C7.31165 11.7149 8.3884 12.7544 9.13503 13.3335L9.36739 14.0034C8.7514 13.5178 8.12812 13.0413 7.4978 12.5739C7.13353 12.3025 6.58912 11.9165 6.04672 11.734C6.04672 11.734 6.54626 12.377 6.94872 12.6918C7.41343 13.0555 7.88618 13.3703 8.27456 13.5811C8.32532 13.6089 8.3724 13.6348 8.41807 13.6599C8.68283 13.8057 8.89966 13.9251 9.49528 14.2115ZM14.9173 19.5394C14.9762 19.4887 15.0278 19.4393 15.0679 19.3945L15.0684 19.3951C15.158 19.5058 15.4545 19.8721 15.6016 20.2377C15.7108 20.5499 15.8293 20.9755 15.8882 21.2185C15.9472 21.4603 16.1206 21.9675 16.2277 22.1408C16.2277 22.1408 15.759 22.1987 15.4128 21.7976C15.072 21.4043 14.9575 21.0084 14.9039 20.6026C14.859 20.2844 14.8758 19.8424 14.9173 19.5394ZM14.1794 19.6C14.2601 19.7076 14.3381 19.7551 14.3553 19.7656L14.3581 19.7673L14.4224 19.7996L14.4867 19.7772C14.547 19.7594 14.5991 19.7383 14.6494 19.7133C14.7184 19.9011 14.7465 19.9913 14.7626 20.1501L14.7667 20.1904C14.7886 20.4029 14.8206 20.7135 14.7465 20.9689C14.6591 21.2675 14.4861 21.4623 14.3719 21.5909C14.3591 21.6053 14.3471 21.6188 14.336 21.6316C14.336 21.6316 14.0294 21.2976 13.9423 21.0229C13.8512 20.7344 13.8184 20.3991 13.9316 20.0552C13.9932 19.8688 14.091 19.6982 14.1794 19.6ZM13.124 19.6323C13.3877 19.6007 13.6388 19.5032 13.8532 19.349L13.86 19.3673C13.8999 19.4747 13.9526 19.6167 13.9102 19.8134C13.862 20.0223 13.7166 20.2522 13.5084 20.4195C13.1903 20.6685 12.7691 20.9037 12.3017 20.8325C12.3017 20.8325 12.1946 20.484 13.124 19.6323ZM12.7691 19.0519C12.8063 19.3429 12.9404 19.5322 12.9642 19.5659L12.9673 19.5704C12.956 19.5838 12.9416 19.603 12.924 19.6267C12.7723 19.8302 12.3797 20.3566 11.6442 20.2574C11.6442 20.2574 11.4205 19.8009 11.9683 19.438C12.3056 19.2137 12.4829 19.1519 12.7042 19.0747L12.7691 19.0519ZM12.8408 18.4788C12.5609 18.5458 12.2687 18.5442 11.9897 18.4742L11.8946 18.4518L11.8651 18.3609C11.6793 18.511 11.4778 18.6062 11.2958 18.6921C11.0647 18.8013 10.8652 18.8956 10.769 19.0684C10.769 19.0684 10.9799 19.4525 11.5277 19.3899C11.7724 19.3646 12.0094 19.2911 12.2246 19.1736C12.4398 19.0561 12.6286 18.8971 12.7798 18.7061C12.7958 18.6295 12.8161 18.5531 12.8408 18.4788ZM11.8946 17.9999C11.9198 17.9619 11.9427 17.9171 11.9678 17.8676C12.0186 17.7677 12.0791 17.6487 12.1892 17.5289C11.8204 17.4619 11.4418 17.4668 11.075 17.5434C10.5701 17.6363 10.0545 17.7542 9.79668 18.517C9.79668 18.517 10.1194 18.7898 10.7094 18.6719C11.2103 18.5691 11.6448 18.357 11.8946 17.9999ZM11.679 17.1752C11.5388 17.0554 11.4269 16.907 11.3509 16.7404L11.31 16.6449C10.8721 16.4684 10.4161 16.3781 9.96743 16.5415C9.53446 16.703 9.41105 16.8856 9.30143 17.0479L9.29112 17.0632C9.29112 17.0632 9.78664 17.4736 10.3545 17.4874C10.9237 17.5065 11.45 17.3425 11.679 17.1752ZM11.8116 16.2846C11.8866 16.2563 11.9709 16.2299 12.066 16.2108C11.8254 15.9954 11.6591 15.7114 11.5906 15.3986C11.387 15.4454 10.9103 15.4454 10.7 15.367C10.4891 15.2873 10.0759 15.2833 9.75383 15.4935C9.75383 15.4935 9.86096 16.054 10.5895 16.2451C11.2779 16.4242 11.531 16.3781 11.8116 16.2846ZM11.5484 15.1931L11.6448 15.1318L11.6457 15.1312C11.6644 15.1201 11.8262 15.024 12.0995 15.0027C12.0396 14.9586 11.9585 14.8954 11.8643 14.8221C11.5895 14.6084 11.2034 14.308 10.9103 14.1417C10.4763 13.9019 9.75851 13.5844 9.39357 13.5363C9.39357 13.5363 9.73641 14.4256 10.1335 14.786C10.5493 15.1588 10.8386 15.2965 11.5484 15.1931ZM12.2877 14.7833C12.1109 14.5587 11.9736 14.2484 11.8725 13.8815C11.86 13.8363 11.845 13.7809 11.8281 13.7188C11.7343 13.3722 11.5836 12.8156 11.4888 12.6536C11.377 12.4613 10.9732 11.792 10.1844 11.5825C10.1844 11.5825 9.97413 12.4573 10.3712 13.147C10.7127 13.7432 11.4152 14.371 12.2877 14.7833ZM16.665 18.8438C16.7621 18.9426 16.8371 18.9953 17.0132 19.0829C17.0132 19.0829 17.265 19.5585 16.9596 20.1336C16.6536 20.708 16.3971 21.293 16.2746 21.6204C16.2746 21.6204 16.1105 21.5953 15.9284 20.6968C15.8163 20.1397 15.6763 19.9642 15.5283 19.7786L15.5079 19.7531L15.4865 19.7258C15.6549 19.8093 15.7923 19.8374 15.8168 19.8424L15.8199 19.8431L15.9418 19.8635L15.9967 19.7561C16.115 19.5335 16.161 19.2806 16.1286 19.0315C16.4125 19.0388 16.5632 18.8971 16.6221 18.8253C16.624 18.8215 16.6263 18.8186 16.6284 18.8159C16.6306 18.813 16.6328 18.8103 16.6342 18.8069L16.665 18.8438ZM24.551 19.5394C24.4986 19.4926 24.4477 19.4444 24.3983 19.3945L24.3879 19.4077C24.2896 19.5316 24.0093 19.8849 23.8693 20.2377C23.7582 20.5499 23.6396 20.9755 23.582 21.2185C23.5218 21.4603 23.3463 21.9675 23.2405 22.1408C23.2405 22.1408 23.7093 22.1987 24.0561 21.7976C24.3976 21.4043 24.5115 21.0084 24.5671 20.6026C24.6041 20.249 24.5987 19.8917 24.551 19.5394ZM25.2876 19.6C25.2047 19.7113 25.1255 19.7582 25.1115 19.7665L25.1101 19.7673L25.0478 19.7996L24.9802 19.7772C24.925 19.7602 24.8713 19.7388 24.8195 19.7133C24.7618 19.8531 24.7239 20.0001 24.707 20.1501L24.7047 20.1713C24.681 20.384 24.6453 20.7057 24.7211 20.9689C24.8123 21.2745 24.9888 21.4713 25.104 21.5998L25.1322 21.6316C25.1322 21.6316 25.4389 21.2976 25.5273 21.0229C25.6177 20.7344 25.6505 20.3991 25.5393 20.0552C25.485 19.8893 25.3996 19.735 25.2876 19.6ZM26.3456 19.6323C26.0817 19.6005 25.8305 19.503 25.6157 19.349L25.6068 19.3738C25.5682 19.4803 25.5174 19.6206 25.5608 19.8134C25.6056 20.0223 25.7516 20.2522 25.9639 20.4195C26.2773 20.6685 26.7005 20.9037 27.1685 20.8325C27.1685 20.8325 27.2757 20.484 26.3456 19.6323ZM26.6978 19.0519C26.6777 19.2385 26.6095 19.4169 26.4996 19.5704C26.511 19.5839 26.5256 19.6034 26.5435 19.6272C26.6961 19.8312 27.0892 20.3564 27.8281 20.2574C27.8281 20.2574 28.0477 19.8009 27.5027 19.438C27.159 19.2119 26.983 19.1509 26.7579 19.0728L26.6978 19.0519ZM26.6261 18.4788C26.9071 18.5458 27.2004 18.5442 27.4806 18.4742L27.5757 18.4518L27.6024 18.3609C27.7888 18.5109 27.9904 18.606 28.1723 18.6919C28.4036 18.8012 28.6033 18.8955 28.7 19.0684C28.7 19.0684 28.489 19.4525 27.9419 19.3899C27.697 19.3647 27.4597 19.2912 27.2443 19.1737C27.0289 19.0562 26.8399 18.8971 26.6884 18.7061C26.6739 18.629 26.6531 18.5526 26.6261 18.4788ZM27.4978 17.8621C27.4466 17.7633 27.3861 17.6465 27.2797 17.5289C27.6485 17.462 28.0271 17.4669 28.3939 17.5434C28.8988 17.6363 29.4144 17.7542 29.6729 18.517C29.6729 18.517 29.3468 18.7898 28.7575 18.6719C28.2593 18.5691 27.8241 18.357 27.5757 17.9999C27.5488 17.9606 27.5245 17.9136 27.4978 17.8621ZM27.7899 17.1752C27.9297 17.055 28.0415 16.9067 28.1181 16.7404L28.1589 16.6449C28.5982 16.4684 29.0549 16.3781 29.4995 16.5415C29.9301 16.7014 30.0547 16.882 30.1659 17.0431L30.1798 17.0632C30.1798 17.0632 29.6843 17.4736 29.1138 17.4874C28.5446 17.5065 28.0189 17.3425 27.7899 17.1752ZM27.6574 16.2846C27.5741 16.2532 27.4883 16.2285 27.4009 16.2108C27.5958 16.0422 27.7866 15.7833 27.879 15.3986C28.0826 15.4454 28.56 15.4454 28.7703 15.367C28.9805 15.2873 29.393 15.2833 29.7158 15.4935C29.7158 15.4935 29.6106 16.054 28.8787 16.2451C28.189 16.4242 27.9366 16.3781 27.6574 16.2846ZM27.9192 15.1931L27.8241 15.1318L27.8233 15.1313C27.8051 15.1205 27.6426 15.024 27.3667 15.0027C27.4304 14.9564 27.5171 14.889 27.6176 14.8109C27.8917 14.598 28.2685 14.3051 28.56 14.1417C28.9926 13.9019 29.7091 13.5844 30.0774 13.5363C30.0774 13.5363 29.7332 14.4256 29.3341 14.786C28.9203 15.1588 28.6303 15.2965 27.9192 15.1931ZM27.1806 14.7833C27.3574 14.5587 27.4946 14.2484 27.5958 13.8815C27.6114 13.8268 27.6304 13.757 27.6519 13.6784C27.7471 13.3304 27.8897 12.8094 27.9815 12.6536C28.0946 12.4613 28.4971 11.792 29.2859 11.5825C29.2859 11.5825 29.4961 12.4573 29.0984 13.147C28.7555 13.7432 28.0551 14.371 27.1806 14.7833ZM22.8066 18.8438C22.7051 18.9434 22.5862 19.0243 22.4557 19.0829C22.4557 19.0829 22.2026 19.5585 22.5093 20.1336C22.8133 20.708 23.0704 21.293 23.195 21.6204C23.195 21.6204 23.3584 21.5953 23.5399 20.6968C23.6526 20.1423 23.792 19.9659 23.9377 19.7812C23.9521 19.763 23.9666 19.7446 23.9811 19.7258C23.8103 19.8108 23.673 19.8383 23.6517 19.8427L23.6497 19.8431L23.5285 19.8635L23.4722 19.7561C23.3781 19.5799 23.3298 19.3834 23.3316 19.1843C23.3316 19.1303 23.3343 19.079 23.3403 19.0322C23.0564 19.0388 22.9051 18.8971 22.8488 18.8253L22.8434 18.8191C22.8395 18.8148 22.8365 18.8115 22.8341 18.8069L22.8066 18.8438ZM17.1417 11.8954C17.1417 11.8954 17.4249 11.9777 17.52 12.0021C17.52 12.0021 17.5227 11.84 17.5173 11.7616L17.5432 11.7679C17.6232 11.7873 17.7172 11.81 17.7993 11.8183C17.7993 11.8183 18.0812 12.4428 18.3028 12.6944C18.3028 12.6944 18.3155 12.8327 18.1923 13.0435C18.1923 13.0435 18.0316 12.6747 17.7443 12.3782C17.5823 12.2122 17.4785 12.1272 17.1417 11.8954ZM16.3971 11.7616C16.4888 11.786 16.9415 11.9263 17.1584 12.0831C17.4336 12.2768 17.6225 12.5001 17.5923 12.8848C17.5923 12.8848 17.3714 12.5798 17.127 12.4428C16.9334 12.3328 16.5826 12.0297 16.3971 11.7616ZM16.4038 8.93633C16.4868 8.93633 16.6482 8.97585 16.6482 9.10826C16.6482 9.19732 16.5576 9.3674 16.4796 9.51397C16.4393 9.58966 16.4024 9.65902 16.383 9.70771H16.3777C16.3582 9.65758 16.3195 9.58551 16.2775 9.50725C16.1997 9.36226 16.1105 9.19593 16.1105 9.10826C16.1105 8.97651 16.2745 8.93698 16.3576 8.93698H16.4031L16.4038 8.93633ZM16.1989 9.86831C16.1565 9.64565 16.0878 9.28473 15.9899 9.19455C15.8795 9.09113 15.7154 9.08125 15.635 9.08586C15.6119 9.08757 15.5894 9.09436 15.5693 9.10588C15.5492 9.11735 15.532 9.13316 15.5191 9.15213C15.5061 9.1711 15.4977 9.19271 15.4944 9.21537C15.4912 9.23803 15.4933 9.26108 15.5004 9.28282C15.5326 9.3948 15.8955 9.93299 15.9431 10.0008C15.9997 9.99109 16.011 9.9903 16.0753 9.98563C16.1069 9.98332 16.1511 9.98016 16.2196 9.97449C16.2137 9.9461 16.207 9.91079 16.1994 9.87094L16.1993 9.87028L16.1991 9.86903L16.1989 9.86831ZM16.5676 9.84327C16.6112 9.61957 16.6772 9.28137 16.7721 9.19455C16.8819 9.09113 17.0466 9.08125 17.127 9.08586C17.1502 9.08751 17.1728 9.09436 17.193 9.10575C17.2132 9.11721 17.2305 9.13296 17.2437 9.15186C17.2569 9.17077 17.2656 9.19238 17.2692 9.21504C17.2727 9.2377 17.271 9.26088 17.2642 9.28282C17.2287 9.3948 16.8658 9.93299 16.8176 10.0008C16.7618 9.99109 16.7504 9.9903 16.6857 9.98563C16.6541 9.98332 16.6096 9.98009 16.541 9.97449C16.5487 9.93978 16.5576 9.89426 16.5676 9.84327ZM16.7761 8.28352H16.4922V7.97457H16.2645V8.28418H15.9786V8.47916H16.2638V8.84213H16.4915V8.47982H16.7754L16.7761 8.28352ZM13.3463 10.2828C13.3463 10.2215 13.349 10.1622 13.3583 10.1036C13.3794 9.97548 13.3816 9.84505 13.365 9.71627L13.3589 9.71864C13.158 9.79505 13.0207 9.84729 12.7423 10.2913C12.7423 10.2913 13.1903 10.0186 13.3463 10.2828ZM13.7367 10.9922C13.7427 10.8816 13.817 10.5291 13.9108 10.2834C14.0246 9.97713 13.9576 9.53643 13.8197 9.26767C13.6871 9.00945 13.6148 8.76703 13.6369 8.49892C13.6369 8.49892 13.3744 8.58654 13.2211 8.67942C13.1998 8.95431 13.3402 9.22927 13.4332 9.41127C13.4454 9.43512 13.4567 9.45739 13.4668 9.47781C13.5699 9.68663 13.5485 9.95868 13.5257 10.126C13.4856 10.4093 13.5445 10.7096 13.7367 10.9922ZM13.7661 8.6175C13.7541 8.56019 13.7571 8.50077 13.7748 8.44491C13.7748 8.44491 14.1927 8.04308 14.5436 7.97457C14.7645 7.92846 14.8998 8.02661 14.9668 8.07997C14.9668 8.07997 14.8442 8.06679 14.6567 8.2183C14.4692 8.36784 14.2362 8.54833 14.0621 8.59378C13.9074 8.63456 13.8613 8.62896 13.7939 8.62072C13.7851 8.61967 13.7759 8.61855 13.7661 8.6175ZM15.0016 8.11027C15.1569 8.26573 15.2909 8.43042 15.2868 8.5727C15.2848 8.72026 15.1114 9.09113 15.0217 9.23144L15.0016 9.26233C14.9123 9.39909 14.7984 9.57359 14.8121 9.78214C14.8208 9.89413 14.8991 10.0087 14.9929 10.1043C14.9929 10.1043 14.482 9.98437 14.4183 9.67213C14.3686 9.41206 14.469 9.22584 14.5496 9.07664L14.5677 9.04304C14.6003 8.97993 14.6626 8.88106 14.7278 8.77764C14.8136 8.64154 14.9044 8.49734 14.9386 8.41724C14.9922 8.28879 15.0217 8.18141 15.0016 8.11027ZM17.9847 11.6286C18.0852 11.9869 18.2593 12.3229 18.4307 12.5864C18.5847 12.8281 18.6825 13.2181 18.6684 13.3505C18.6684 13.3505 18.8988 12.8466 18.7823 12.4909C18.6885 12.2142 18.4414 11.8012 17.9847 11.6279V11.6286ZM18.5593 11.7458C18.5593 11.7458 18.9102 11.7524 19.0735 11.8591C19.2838 11.9962 19.4834 12.2972 19.5617 12.6575C19.5617 12.6575 19.2068 12.5963 19.0327 12.4243C18.8573 12.2511 18.6416 11.9922 18.5593 11.7458ZM16.7466 12.373C16.6797 12.3776 16.4995 12.4191 16.4118 12.4454C16.4118 12.4454 16.7098 12.531 16.8591 12.6536C16.987 12.757 17.0968 12.9171 17.147 13.1871C17.22 13.5646 17.443 13.971 17.51 14.0929L17.5374 14.0883C17.4973 13.8281 17.6593 13.2893 17.7035 13.2109C17.7035 13.2109 17.4658 13.0646 17.3566 12.9118C17.2763 12.7998 17.137 12.6127 16.7473 12.373H16.7466ZM18.2988 13.1832C18.3131 13.2159 18.3314 13.253 18.3515 13.2935C18.4526 13.4978 18.5989 13.7933 18.5084 14.0988C18.446 14.312 18.3376 14.4544 18.2286 14.5977C18.1503 14.7006 18.0717 14.8039 18.0095 14.9341C18.0095 14.9341 17.893 14.3722 17.9171 13.9394C17.9439 13.5066 18.1033 13.34 18.2988 13.1832ZM18.9711 13.1977C18.9711 13.1977 19.3193 13.8663 19.3822 14.1278C19.4425 14.3874 19.3863 14.5606 19.2671 14.7194C19.2304 14.7688 19.1852 14.8195 19.1346 14.8763C19.0253 14.999 18.891 15.1499 18.7642 15.3755C18.7642 15.3755 18.5492 15.0942 18.5238 14.9473C18.499 14.8004 18.5392 14.4493 18.5861 14.303C18.6045 14.2426 18.6454 14.1293 18.698 13.9839C18.7754 13.7695 18.8782 13.4854 18.9711 13.1977ZM19.1492 15.332C19.0735 15.4137 18.6671 15.8978 18.6122 16.0388C18.5573 16.1791 18.4629 16.4466 18.5881 16.633C18.7153 16.8194 19.0066 17.1139 19.2577 17.239C19.2577 17.239 18.9831 16.8148 19.0126 16.4663C19.0225 16.3287 19.0927 16.2006 19.1529 16.0907C19.1904 16.0222 19.2241 15.9607 19.2369 15.9084C19.2704 15.774 19.249 15.5448 19.1492 15.332ZM18.3524 15.0645C18.4153 15.1502 18.5238 15.359 18.5392 15.5619C18.5539 15.7615 18.5211 15.9222 18.4106 16.2154C18.2727 16.5856 18.0557 16.9973 17.9553 17.1837C17.9553 17.1837 17.7644 16.9123 17.6586 16.6705C17.6586 16.6705 17.9573 16.2648 18.0859 15.9789C18.219 15.6726 18.2815 15.3875 18.336 15.1389L18.3524 15.0645ZM18.2151 14.9084C18.2151 14.9084 18.0852 15.8603 17.52 16.5665C17.137 17.0447 16.8263 17.212 16.6194 17.212C16.3094 17.212 15.9966 16.9551 15.8935 16.6613C15.7877 16.3695 15.8219 15.9137 16.0234 15.7523C16.0234 15.7523 16.2082 16.3234 16.6067 16.3438C17.0573 16.3695 17.6352 15.8695 18.2151 14.9078V14.9084ZM25.5608 10.2835C25.6431 10.5131 25.7003 10.7507 25.7316 10.9923C25.9218 10.7097 25.9834 10.4093 25.9432 10.1261C25.9198 9.95875 25.899 9.68669 26.0035 9.47787C26.0133 9.45791 26.0243 9.43631 26.0361 9.41318C26.1289 9.23118 26.2698 8.95516 26.2472 8.67948C26.0952 8.5866 25.8307 8.49899 25.8307 8.49899C25.8555 8.7671 25.7811 9.00951 25.6479 9.26774C25.5106 9.5365 25.4457 9.97719 25.5608 10.2835ZM25.6934 8.44497C25.7106 8.5009 25.7144 8.55992 25.7048 8.61756L25.6926 8.61895L25.6788 8.62066C25.6116 8.62896 25.5636 8.63489 25.4075 8.59385C25.2314 8.5484 24.9997 8.3679 24.8129 8.21837C24.626 8.06686 24.5015 8.08003 24.5015 8.08003C24.5585 8.03017 24.627 7.99453 24.701 7.97622C24.775 7.95784 24.8524 7.95731 24.9267 7.97464C25.2783 8.04314 25.6934 8.44497 25.6934 8.44497ZM24.1828 8.57277C24.1794 8.43048 24.312 8.2658 24.4673 8.11034L24.468 8.111C24.4486 8.18214 24.4781 8.28885 24.5316 8.41731C24.5656 8.49873 24.6589 8.64602 24.7463 8.78416C24.8102 8.88521 24.871 8.98132 24.9033 9.04311L24.9191 9.07242C25.0005 9.22241 25.102 9.40963 25.0492 9.6722C24.9883 9.98444 24.4781 10.1043 24.4781 10.1043C24.5691 10.0088 24.6481 9.89419 24.6562 9.78221C24.6712 9.57286 24.557 9.39784 24.4677 9.26088L24.4486 9.2315C24.3575 9.09119 24.1848 8.72033 24.1828 8.57277ZM21.0389 12.5864C21.2331 12.2896 21.3835 11.9671 21.4855 11.6286C21.0268 11.8019 20.7797 12.2143 20.69 12.4909C20.5715 12.8466 20.8038 13.3506 20.8038 13.3506C20.7858 13.2182 20.8835 12.8282 21.0389 12.5864ZM20.3974 11.8592C20.5601 11.7525 20.9096 11.7459 20.9096 11.7459C20.828 11.9923 20.613 12.2512 20.4376 12.4244C20.2621 12.5963 19.9072 12.6576 19.9072 12.6576C19.9836 12.2973 20.1858 11.9962 20.3974 11.8592ZM23.0571 12.4455C22.9694 12.4191 22.7906 12.3776 22.7237 12.373C22.3339 12.6128 22.1913 12.7999 22.1123 12.9119C22.0051 13.0647 21.7681 13.2109 21.7681 13.2109C21.8096 13.2893 21.9737 13.8282 21.9335 14.0884L21.9583 14.093L21.9616 14.0869C22.0324 13.9581 22.252 13.5586 22.3219 13.1872C22.3714 12.9171 22.4839 12.7571 22.6112 12.6536C22.7585 12.5311 23.0571 12.4455 23.0571 12.4455ZM21.1166 13.2975C21.1374 13.2554 21.1563 13.2171 21.1708 13.1833C21.3683 13.34 21.525 13.5067 21.5518 13.9395C21.5779 14.3723 21.4594 14.9342 21.4594 14.9342C21.3974 14.803 21.3183 14.6991 21.2395 14.5954C21.1311 14.4529 21.0231 14.3109 20.9599 14.0989C20.8716 13.7953 21.0162 13.5016 21.1166 13.2975ZM19.9536 13.8001C19.8459 13.9639 19.7465 14.115 19.7392 14.2089H19.7291C19.7227 14.1147 19.6228 13.963 19.5147 13.7988C19.3755 13.5873 19.2225 13.3549 19.2376 13.1978C19.2644 12.9165 19.6407 12.7202 19.7325 12.6787H19.7371C19.8302 12.7202 20.2059 12.9165 20.232 13.1978C20.2463 13.3553 20.093 13.5883 19.9536 13.8001ZM20.0867 14.1279C20.1503 13.8664 20.4985 13.1978 20.4985 13.1978C20.5924 13.492 20.6979 13.7826 20.7763 13.9985C20.8266 14.1369 20.8658 14.2447 20.8835 14.3031C20.9304 14.4494 20.9726 14.8005 20.9471 14.9474C20.9197 15.0943 20.7061 15.3755 20.7061 15.3755C20.577 15.1484 20.4423 14.9971 20.3326 14.8739C20.2829 14.8181 20.2384 14.7681 20.2019 14.7194C20.0827 14.5607 20.0257 14.3874 20.0867 14.1279ZM20.0847 15.3255C20.0391 15.4454 19.8972 15.6476 19.7392 15.7833H19.7325C19.5731 15.6476 19.4305 15.4454 19.3869 15.3261C19.3407 15.2062 19.3293 15.0323 19.4351 14.898C19.4479 14.882 19.4609 14.8659 19.474 14.8495C19.5922 14.7029 19.7203 14.5441 19.7311 14.4131H19.7392C19.7481 14.5431 19.875 14.7003 19.9922 14.8455L20.0201 14.8801L20.0338 14.8973C20.1396 15.0323 20.1282 15.2069 20.0847 15.3255ZM20.8588 16.0389C20.8038 15.8979 20.3974 15.4137 20.3211 15.3314C20.2226 15.5442 20.2005 15.7741 20.232 15.9085C20.2447 15.9614 20.2788 16.0235 20.3168 16.093C20.3768 16.2024 20.4466 16.3297 20.4577 16.4664C20.4851 16.8149 20.2106 17.2391 20.2106 17.2391C20.465 17.1139 20.7536 16.8195 20.8809 16.6331C21.0067 16.4466 20.9137 16.1792 20.8588 16.0389ZM20.9291 15.562C20.9458 15.3591 21.0536 15.1502 21.1166 15.0646C21.1235 15.095 21.1304 15.1261 21.1375 15.1578L21.1377 15.1588C21.1918 15.4026 21.2537 15.681 21.3844 15.9789C21.5123 16.2648 21.8103 16.6706 21.8103 16.6706C21.7045 16.9124 21.513 17.1838 21.513 17.1838C21.4139 16.9973 21.1989 16.5856 21.0596 16.2154C20.9485 15.9223 20.9157 15.7616 20.9291 15.562ZM21.9496 16.5665C21.3844 15.8604 21.2558 14.9085 21.2558 14.9085C21.8351 15.8702 22.4143 16.3696 22.8629 16.3439C23.2614 16.3235 23.4475 15.7523 23.4475 15.7523C23.6484 15.9137 23.6805 16.3696 23.5774 16.6614C23.4723 16.9552 23.1596 17.2121 22.8495 17.2121C22.644 17.2121 22.3319 17.0448 21.9496 16.5665ZM21.7179 14.5106C21.671 14.6805 21.6569 14.9414 21.7179 15.1877C21.7654 15.3755 21.8813 15.6185 22.1022 15.7562C22.2938 15.8748 22.7431 15.9025 22.9158 15.4809C22.9158 15.4809 22.0922 15.5421 21.7179 14.5106ZM19.7345 17.3365L19.7489 17.3296C19.8591 17.2768 19.9544 17.2313 20.0847 17.0375C20.1871 16.8794 20.2869 16.5849 20.232 16.3754C20.1856 16.206 20.1096 16.1032 20.0386 16.0071C20.0011 15.9563 19.965 15.9075 19.9354 15.8517L19.9165 15.8697L19.8964 15.889C19.8475 15.9363 19.8064 15.976 19.7385 16.0144H19.7345C19.6678 15.9773 19.6266 15.9386 19.5786 15.8934C19.5644 15.8801 19.5497 15.8663 19.5336 15.8517C19.5038 15.9073 19.468 15.9559 19.4309 16.0061C19.3597 16.1026 19.284 16.2053 19.2369 16.3754C19.182 16.5849 19.2805 16.8787 19.3843 17.0375C19.513 17.2317 19.61 17.2777 19.7208 17.3301L19.7345 17.3365ZM19.7345 18.9419C19.7579 18.8354 19.8661 18.6874 19.9799 18.5319C20.1364 18.3181 20.3032 18.0901 20.2742 17.936C20.2249 17.6705 20.0928 17.6202 19.9497 17.5658C19.8791 17.539 19.8058 17.5111 19.7385 17.4558H19.7345C19.6664 17.511 19.5923 17.5389 19.521 17.5658C19.3761 17.6202 19.2426 17.6706 19.1927 17.9366C19.1657 18.0899 19.3311 18.317 19.4864 18.5303C19.6001 18.6863 19.7083 18.835 19.7318 18.9419H19.7345ZM20.3719 18.3477C20.3229 18.4727 20.2185 18.6119 20.1165 18.7477C19.9847 18.9235 19.8571 19.0936 19.859 19.2199C19.8641 19.665 20.0132 19.9804 20.1133 20.1923C20.1461 20.2616 20.1736 20.3199 20.1891 20.368C20.1891 20.368 20.6679 19.9926 20.7516 19.5617C20.7965 19.3404 20.7449 18.6757 20.3719 18.3477ZM20.9056 18.7666C20.8507 18.6125 20.6753 18.1935 20.4704 18.0486C20.4704 18.0486 20.2099 17.2898 21.0483 16.8214C21.0483 16.8214 21.3924 17.2739 21.4849 17.6995C21.5453 17.9833 21.3649 18.191 21.1743 18.4106C21.0773 18.5223 20.9777 18.6371 20.9056 18.7666ZM21.9569 16.8484C22.0902 17.0111 22.2784 17.2331 22.4284 17.3029C22.4284 17.3029 22.4766 17.6415 22.4504 17.8675C22.4203 18.0925 22.3126 18.3205 22.2176 18.5217C22.1713 18.6196 22.1281 18.7112 22.0982 18.793C22.0982 18.793 21.7306 18.3194 21.6871 18.0414C21.6583 17.8565 21.6529 17.694 21.6488 17.5662C21.6466 17.5008 21.6448 17.4446 21.6402 17.3991C21.6402 17.3991 21.8418 17.0711 21.9569 16.8484ZM22.9212 18.4768C23.025 18.3187 23.3618 17.7456 23.3658 17.3273C23.3658 17.3273 22.952 17.5447 22.6051 17.3846C22.6051 17.3846 22.5609 17.9287 22.6286 18.1125C22.6821 18.2614 22.7538 18.3503 22.9205 18.4768H22.9212ZM22.8254 18.5921C22.7205 18.5022 22.621 18.4062 22.5275 18.3049C22.5275 18.3049 22.2516 18.8016 22.206 18.9471C22.206 18.9471 22.342 18.9827 22.4926 18.8747C22.6433 18.766 22.6761 18.737 22.8254 18.5921ZM21.5558 18.3003C21.5893 18.4254 22.0319 19.0354 22.1083 19.1105C22.1083 19.1105 22.0728 19.3305 21.9087 19.6487C21.746 19.9649 21.519 20.1882 21.3958 20.3002C21.3958 20.3002 21.1226 19.8279 21.0409 19.6217C20.9478 19.3832 20.9592 19.1494 21.0007 19.0618C21.0474 18.9554 21.1557 18.8246 21.2692 18.6875C21.3758 18.559 21.4868 18.4249 21.5558 18.3003ZM19.7385 21.9075C19.7576 21.8307 19.8224 21.747 19.897 21.6507C19.9842 21.538 20.0849 21.408 20.1416 21.2514C20.2052 21.0801 20.2032 20.8805 20.1349 20.7435C20.0999 20.6735 20.0255 20.5597 19.95 20.4442C19.8522 20.2947 19.7526 20.1424 19.7345 20.0788C19.7141 20.1419 19.6155 20.2935 19.5185 20.4428C19.4431 20.5587 19.3687 20.6732 19.3327 20.7435C19.2637 20.8805 19.2624 21.0808 19.3247 21.2514C19.3823 21.4078 19.4832 21.5376 19.5707 21.6501C19.6458 21.7467 19.711 21.8306 19.7304 21.9075H19.7385ZM20.7323 20.1419C20.6152 20.3103 20.4812 20.5031 20.451 20.6678C20.4198 20.8365 20.4367 21.0105 20.4998 21.1704C20.5351 21.2557 20.6206 21.3954 20.7082 21.5385C20.7585 21.6208 20.8095 21.7042 20.8521 21.779C20.8521 21.779 21.2558 21.4003 21.3449 21.1308C21.4107 20.9077 21.3908 20.6687 21.2893 20.4589C21.2431 20.3724 21.1707 20.2823 21.0975 20.1914C21.0182 20.0927 20.938 19.9931 20.8896 19.8957C20.8555 19.9647 20.7963 20.0497 20.7323 20.1419ZM22.0373 19.8404C21.9889 19.9453 21.9095 20.0497 21.8323 20.151C21.7417 20.27 21.6542 20.3849 21.6235 20.4919C21.5558 20.727 21.5344 20.8746 21.6482 21.1486C21.6979 21.2627 21.7513 21.3544 21.7982 21.4349C21.8493 21.5227 21.8927 21.5974 21.9154 21.6736C21.9154 21.6736 22.2435 21.2521 22.2971 21.0768C22.3547 20.9016 22.3694 20.6131 22.3038 20.4313C22.2478 20.279 22.1581 20.0922 22.0836 19.9372C22.0673 19.9032 22.0517 19.8706 22.0373 19.8404ZM19.7345 25.1406C19.7414 25.0719 19.7941 24.955 19.8619 24.8046C19.997 24.5046 20.1923 24.0714 20.2052 23.6209C20.2159 23.2816 19.9119 22.7533 19.7385 22.5511H19.7284C19.557 22.7533 19.2523 23.2823 19.2624 23.6209C19.2762 24.0719 19.472 24.5062 19.6073 24.8063C19.6747 24.9559 19.7271 25.0722 19.7345 25.1406ZM20.4181 21.4451C20.4181 21.4451 20.984 22.1216 20.9713 22.4806C20.9613 22.7443 20.8515 22.9563 20.7552 23.1423C20.6886 23.2709 20.6285 23.387 20.6123 23.499C20.6123 23.499 20.315 23.167 20.2025 22.9437C20.0753 22.6934 19.9782 22.4806 20.0144 22.196C20.0458 21.9114 20.1202 21.7303 20.4181 21.4451ZM21.4587 21.3792C21.3683 21.5083 21.1186 21.951 21.1889 22.2125C21.2439 22.4104 21.4126 22.6671 21.5329 22.8502C21.5736 22.9121 21.6088 22.9656 21.6322 23.0056C21.6322 23.0056 21.8552 22.5511 21.9067 22.3423C21.9569 22.1361 21.9087 21.7962 21.4587 21.3792ZM20.3697 25.4506C20.2661 25.6549 20.1417 25.8999 20.1201 26.2255C20.0873 26.7525 20.6866 26.9521 20.6866 26.9521C20.485 27.0252 20.2527 27.0575 19.8897 26.715C19.8235 26.653 19.7732 26.5845 19.7344 26.5121C19.6963 26.5845 19.6467 26.653 19.5797 26.715C19.2141 27.0582 18.9838 27.0252 18.7829 26.9528C18.7829 26.9528 19.3808 26.7525 19.3474 26.2255C19.3265 25.8981 19.2015 25.6522 19.0973 25.4473C19.0344 25.3236 18.9792 25.2149 18.959 25.1122C18.9007 24.8112 18.9215 24.5233 19.1572 24.1762C19.3003 24.6733 19.489 25.1566 19.721 25.6201C19.7254 25.6252 19.7277 25.6313 19.7301 25.6376C19.731 25.6398 19.7319 25.6422 19.7329 25.6444L19.7344 25.6478C19.7356 25.645 19.7367 25.6422 19.7378 25.6393C19.7404 25.6325 19.7429 25.6257 19.7471 25.6201C19.9795 25.1568 20.1689 24.6737 20.3129 24.1768C20.5487 24.5233 20.5687 24.8112 20.5085 25.1122C20.4889 25.2158 20.4332 25.3256 20.3697 25.4506ZM18.3901 23.0999C18.3324 22.9694 18.2696 22.8274 18.2385 22.7276C18.1461 22.8889 17.9294 23.1346 17.8286 23.2488L17.82 23.2586C17.7249 23.3673 17.672 23.5181 17.763 23.7309C17.8621 23.9562 18.1106 24.1288 18.1106 24.1288C18.4943 23.8607 18.5552 23.6084 18.5103 23.3995C18.4984 23.3447 18.4467 23.2279 18.3901 23.0999ZM18.7956 24.5049C18.9657 24.2078 19.0447 23.6123 19.0447 23.5069C18.7996 23.9489 18.1943 24.4173 17.7992 24.5352C17.4778 24.6287 17.4061 24.9897 17.4061 24.9897C17.451 25.0113 17.4877 25.0433 17.5263 25.0767C17.6087 25.1483 17.6993 25.2269 17.8936 25.2269C18.2023 25.2269 18.5552 24.9199 18.7956 24.5049ZM18.0135 24.2658C17.9984 24.2539 17.9837 24.243 17.9689 24.2322C17.9199 24.1961 17.8714 24.1603 17.8106 24.0899C17.8106 24.0899 17.5066 24.2006 17.2555 24.3679C17.0197 24.5251 16.7879 24.7863 16.6513 24.9403L16.6261 24.9686C16.6261 24.9686 17.0011 25.0642 17.2401 24.9568C17.2401 24.9568 17.3258 24.6011 17.5944 24.4417C17.6191 24.4276 17.6665 24.4096 17.7259 24.3872C17.8081 24.3561 17.9133 24.3162 18.0135 24.2658ZM17.7035 23.9614L17.6969 23.9516C17.6349 23.8599 17.525 23.6972 17.5495 23.447C17.5495 23.447 17.0205 23.7803 16.8665 23.9035C16.7058 24.0332 16.375 24.3699 16.3013 24.4812C16.3013 24.4812 16.7017 24.3936 17.0091 24.2915C17.3008 24.1959 17.5145 24.0713 17.6485 23.9933C17.6687 23.9815 17.687 23.9709 17.7035 23.9614ZM16.8075 24.526C16.6446 24.5846 16.3638 24.6428 16.1037 24.6967C15.9108 24.7366 15.7292 24.7743 15.6156 24.8079C15.3478 24.887 15.1536 25.0233 14.8978 25.2993C14.8978 25.2993 15.2909 25.4087 15.5011 25.4732C15.5011 25.4732 15.8346 25.2493 16.2002 25.1096C16.3553 25.0507 16.4585 24.9263 16.5808 24.7789C16.647 24.6991 16.7189 24.6125 16.8075 24.526ZM16.2116 26.3968L16.2181 26.3896C16.2785 26.3235 16.3488 26.2464 16.2913 26.0951C16.2498 25.9785 16.0174 25.8533 15.8795 25.7868C15.6899 25.6971 15.2232 25.5662 14.9484 25.489C14.8902 25.4728 14.8406 25.4588 14.804 25.4482C14.804 25.4482 14.7003 25.5681 14.6467 25.6946C14.6226 25.7433 14.654 25.794 14.7444 25.8098C14.8201 25.8228 14.9408 25.8158 15.0626 25.8088C15.2264 25.7994 15.3922 25.7898 15.4529 25.8283C15.5392 25.8853 15.5329 25.9568 15.5262 26.0325C15.5244 26.0531 15.5225 26.0741 15.5225 26.0951C15.5225 26.0951 15.7181 25.9752 15.8399 26.0029C16.0114 26.0384 16.1145 26.1188 16.2116 26.3968ZM15.6451 25.5187L15.6636 25.5249C15.7384 25.5495 15.963 25.6235 16.1815 25.7604C16.1815 25.7604 16.2886 25.7196 16.3422 25.6221C16.3931 25.5286 16.61 25.2097 16.8116 25.1676C16.8116 25.1676 16.6408 25.1511 16.5424 25.1202C16.5424 25.1202 16.3361 25.1729 16.1895 25.2321C15.9994 25.3109 15.8172 25.4068 15.6451 25.5187ZM17.2877 25.1162L17.2859 25.1171C17.2474 25.135 17.1815 25.1657 17.0345 25.1722C17.0345 25.1722 16.4754 25.5556 16.4098 25.9403C16.3549 26.267 16.529 26.4245 16.6127 26.4646C16.6964 26.5081 17.0881 26.6669 17.3426 26.1471C17.3426 26.1471 16.9087 26.2881 16.7908 26.0826C16.6736 25.8751 16.8658 25.5753 16.9837 25.489C17.137 25.3731 17.4156 25.2974 17.583 25.3257C17.583 25.3257 17.4477 25.1979 17.2877 25.1162ZM13.8954 28.6649C13.7655 28.9376 13.6891 29.2327 13.6215 29.516C13.2499 29.4751 12.9787 29.4172 12.7188 29.238C12.4604 29.0588 11.9983 28.9587 11.7566 28.9587C11.5135 28.9587 11.4579 28.8579 11.4151 28.7749C11.5704 28.599 11.7707 28.4798 11.9508 28.4429C12.3037 28.3733 12.4989 28.5078 12.6815 28.6337C12.767 28.6925 12.8497 28.7496 12.9445 28.7828C13.2425 28.8875 13.434 28.6787 13.7166 28.0022C13.9985 27.3263 14.496 26.4173 14.7906 26.0787C14.8849 25.9742 15.1648 25.9695 15.2406 25.9682L15.2527 25.968C15.303 25.9674 15.3519 25.9838 15.3545 26.0405C15.3586 26.0951 15.3585 26.3969 15.3585 26.3969C15.4596 26.329 15.6899 26.1801 15.8071 26.1676C15.9216 26.1511 16.1835 26.4502 16.0616 26.4726C14.8188 26.7132 14.1978 28.026 13.9266 28.5991L13.8954 28.6649ZM19.0395 25.7743C18.9215 25.5622 18.8144 25.3574 18.7849 25.138C18.6631 25.194 18.4783 25.333 18.3029 25.6334C18.1274 25.9357 17.741 26.1861 17.4363 26.381C17.1323 26.5767 17.0292 26.9153 17.0292 26.9153C17.6304 26.9107 18.0451 26.3579 18.2753 26.0512C18.3087 26.0067 18.3382 25.9674 18.3637 25.9357C18.566 25.6848 18.6785 25.6617 18.6785 25.6617C18.7233 26.3303 18.0932 26.7723 17.6714 27.0556C17.2502 27.3402 17.2227 27.7123 17.2227 27.7123C18.6443 27.5727 19.0395 25.7743 19.0395 25.7743ZM18.9805 32.8933L18.114 31.6924L18.3585 31.3249L18.6043 31.6654L18.6049 31.6661C18.7683 31.8924 18.8893 32.0601 18.945 32.1358C19.0107 32.0227 19.1076 31.851 19.2133 31.6638C19.2756 31.5534 19.3412 31.4372 19.405 31.3249L19.6367 31.7366L18.9805 32.8933ZM16.282 28.4404L16.281 28.439C16.0761 28.1546 15.9341 27.9574 15.8982 27.9079L16.2256 27.6747L15.1938 27.2828L15.2118 28.398L15.5607 28.1484L17.6473 31.0435L17.893 30.6746C17.3325 29.8989 16.6856 29.0008 16.282 28.4404ZM10.7682 24.0971C11.022 23.8224 11.4533 24.0609 11.8892 24.4581C12.3278 24.856 12.6017 25.2631 12.3485 25.5378C12.1108 25.7927 11.6622 25.5747 11.2222 25.1788C10.785 24.7802 10.5104 24.3725 10.7682 24.0971ZM11.4298 28.954C11.443 28.9662 11.4569 28.9776 11.4713 28.9883C11.686 29.1481 12.0781 29.1463 12.2024 29.1458L12.2193 29.1457C12.3211 29.1457 12.4329 29.1773 12.4349 29.3025C12.4383 29.4257 12.236 29.4454 12.236 29.4454C12.0352 29.4257 11.1874 29.4257 11.1874 29.4257C11.172 29.3282 11.1272 29.1378 11.0046 29.01C10.4287 28.4382 10.0846 27.7393 10.0082 27.2689C9.89063 26.553 10.1457 25.9056 10.3162 25.4728C10.3497 25.3879 10.3798 25.3113 10.4033 25.244C10.5087 24.9478 10.5208 24.7416 10.4982 24.3818C10.519 24.641 10.721 24.9491 11.1084 25.2993C11.5249 25.6801 11.8979 25.8527 12.1811 25.8066C12.1811 25.8066 11.7506 25.883 11.4961 26.1195C11.2845 26.3171 10.9852 26.852 10.8921 27.4481C11.1392 26.9475 11.6582 26.603 12.2575 26.603C12.5896 26.6042 12.9122 26.7123 13.1761 26.9107C13.44 27.109 13.6307 27.3868 13.7193 27.7017C13.7063 27.7292 13.6765 27.7961 13.6405 27.8773C13.5666 28.0434 13.4664 28.2688 13.43 28.3361C13.43 28.3361 13.4467 28.1925 13.4467 28.1042C13.4467 27.4541 12.9144 26.9244 12.2581 26.9244C11.5992 26.9244 11.0662 27.4541 11.0662 28.1042C11.0662 28.4428 11.1981 28.7537 11.4298 28.954ZM10.497 24.3639C10.4973 24.3699 10.4977 24.3758 10.4982 24.3818L10.497 24.3639ZM14.5576 29.6523C15.0732 29.5739 15.6183 29.4685 16.1647 29.2748L16.3629 29.5488C15.7649 29.7728 15.173 29.8848 14.6065 29.9704C14.2677 30.0231 13.9349 30.0416 13.6155 30.0297C13.6155 29.9487 13.5512 29.8749 13.5512 29.8749C13.5768 29.822 13.5857 29.7629 13.5766 29.705C13.9046 29.7198 14.2333 29.7021 14.5576 29.6523ZM19.1271 27.2722C18.489 28.2373 17.7832 28.8427 17.058 29.2326L16.8658 28.9639C17.5374 28.6055 18.1957 28.0588 18.7903 27.1906C18.8037 27.1649 18.8305 27.1214 18.8439 27.1043C18.8439 27.1043 19.0662 27.1603 19.241 27.0832L19.1271 27.2722ZM11.6769 29.5607C11.8671 29.5337 12.1852 29.5245 12.2849 29.5409C12.4349 29.566 12.4028 29.6872 12.3224 29.7735C12.2454 29.8578 11.7553 30.118 11.6695 30.1489L11.6674 30.1497C11.5812 30.1816 11.4273 30.2383 11.3629 30.1377L11.3593 30.1322C11.2554 29.9712 11.1823 29.8579 11.2048 29.7504C11.2303 29.6358 11.4673 29.5943 11.6769 29.5607ZM12.6307 29.81C12.6847 29.8155 12.7368 29.8327 12.7831 29.8604C12.8333 29.894 12.8159 29.9823 12.7831 30.0416C12.7592 30.0908 12.6108 30.2712 12.5204 30.3812L12.5196 30.3821C12.4967 30.4099 12.4774 30.4333 12.4651 30.4487C12.4288 30.4922 12.3828 30.5271 12.3307 30.5504C12.2786 30.5739 12.2216 30.5852 12.1644 30.5837C12.0968 30.5771 12.0064 30.5488 11.932 30.5192C11.8577 30.4889 11.7907 30.4243 11.8242 30.2925C11.855 30.1588 12.3372 29.8775 12.4711 29.8288C12.5222 29.8109 12.5767 29.8046 12.6307 29.81ZM12.5541 30.508C12.6455 30.3871 12.7418 30.27 12.8427 30.1569C13.0624 29.9144 13.2666 29.8723 13.3978 29.9625C13.5298 30.0521 13.4019 30.3018 13.2117 30.4315C13.0266 30.5561 12.7073 30.5909 12.6339 30.5989L12.6278 30.5995C12.5662 30.6068 12.532 30.5462 12.5541 30.508ZM12.9409 29.438L12.9505 29.4401C13.3623 29.5469 13.4621 29.7148 13.3925 29.8169C13.3175 29.9158 12.9505 29.8413 12.7563 29.7504C12.5608 29.6562 12.5126 29.5469 12.5822 29.4454C12.6321 29.3674 12.8642 29.4204 12.9409 29.438ZM21.0775 23.1005C21.1354 22.9698 21.1986 22.8275 21.2304 22.7276C21.3268 22.8936 21.5511 23.1492 21.6476 23.2586C21.744 23.3673 21.7969 23.5181 21.7038 23.7309C21.6047 23.9562 21.357 24.1288 21.357 24.1288C20.9719 23.8607 20.913 23.6084 20.9565 23.3995C20.9691 23.3449 21.0209 23.2281 21.0775 23.1005ZM20.6726 24.5049C20.4998 24.2078 20.4215 23.6123 20.4215 23.5069C20.6679 23.9489 21.2739 24.4173 21.667 24.5352C21.9897 24.6287 22.0614 24.9897 22.0614 24.9897C22.0173 25.0112 21.981 25.0428 21.9429 25.076C21.8606 25.1478 21.7698 25.2269 21.5739 25.2269C21.2652 25.2269 20.913 24.9199 20.6726 24.5049ZM21.4547 24.2658C21.4678 24.2556 21.4806 24.2461 21.4932 24.2367C21.5438 24.199 21.5917 24.1633 21.6556 24.0899C21.6556 24.0899 21.9623 24.2006 22.2134 24.3679C22.4322 24.5148 22.6472 24.7527 22.7885 24.9089L22.8268 24.9511L22.8428 24.9686C22.8428 24.9686 22.4658 25.0642 22.2268 24.9568C22.2268 24.9568 22.1404 24.6011 21.8719 24.4417C21.8475 24.4273 21.7991 24.4089 21.7382 24.3857C21.657 24.3549 21.5534 24.3155 21.4547 24.2658ZM21.7654 23.9614L21.7744 23.9479C21.8356 23.8556 21.9429 23.694 21.9168 23.447C21.9168 23.447 22.4444 23.7803 22.6031 23.9035C22.7632 24.0332 23.0926 24.3699 23.1669 24.4812C23.1669 24.4812 22.7658 24.3936 22.4592 24.2915C22.1635 24.1948 21.9482 24.0684 21.8153 23.9906C21.7972 23.9799 21.7805 23.9701 21.7654 23.9614ZM23.3678 24.6975C23.5587 24.7372 23.7385 24.7745 23.8526 24.8079C24.1205 24.887 24.3153 25.0233 24.5711 25.2993C24.5711 25.2993 24.1761 25.4087 23.9685 25.4732C23.9685 25.4732 23.6337 25.2493 23.2667 25.1096C23.1124 25.0505 23.0086 24.9255 22.8858 24.7775C22.8198 24.6981 22.7484 24.6121 22.6607 24.526C22.8253 24.5849 23.1071 24.6434 23.3678 24.6975ZM23.256 26.3968L23.2488 26.3889C23.1892 26.3229 23.1197 26.2458 23.1756 26.0951C23.2178 25.9785 23.4502 25.8533 23.5908 25.7868C23.7778 25.6983 24.2345 25.5695 24.5093 25.4921C24.5719 25.4745 24.6251 25.4595 24.6635 25.4482C24.6635 25.4482 24.7667 25.5681 24.8222 25.6946C24.8457 25.7433 24.8122 25.794 24.7251 25.8098C24.6488 25.8228 24.5275 25.8158 24.4053 25.8088C24.2413 25.7994 24.0756 25.7898 24.0154 25.8283C23.9276 25.8855 23.9337 25.9575 23.9402 26.0336C23.942 26.0538 23.9437 26.0745 23.9437 26.0951C23.9437 26.0951 23.7509 25.9752 23.625 26.0029C23.4576 26.0384 23.3518 26.1188 23.256 26.3968ZM23.8225 25.5187L23.8077 25.5236C23.7365 25.5468 23.5088 25.6209 23.2868 25.7604C23.2868 25.7604 23.1797 25.7196 23.1261 25.6221C23.0752 25.5286 22.8569 25.2097 22.6567 25.1676C22.6567 25.1676 22.8268 25.1511 22.9239 25.1202C22.9239 25.1202 23.1315 25.1729 23.2801 25.2321C23.4268 25.2914 23.6096 25.381 23.8225 25.5187ZM22.1786 25.1162L22.1814 25.1175C22.2206 25.1355 22.2866 25.1658 22.431 25.1722C22.431 25.1722 22.9922 25.5556 23.0565 25.9403C23.1154 26.267 22.9399 26.4245 22.8549 26.4646C22.7699 26.5081 22.3795 26.6669 22.1257 26.1471C22.1257 26.1471 22.5583 26.2881 22.6768 26.0826C22.794 25.8751 22.6031 25.5753 22.4859 25.489C22.3313 25.3731 22.0534 25.2974 21.8833 25.3257C21.8833 25.3257 22.0185 25.1979 22.1786 25.1162ZM25.5729 28.6649C25.7041 28.9376 25.7778 29.2327 25.8461 29.516C26.2191 29.4751 26.4896 29.4172 26.7494 29.238C27.0059 29.0588 27.4686 28.9587 27.7137 28.9587C27.9541 28.9587 28.0103 28.8579 28.0552 28.7749C27.8965 28.599 27.6983 28.4798 27.5175 28.4429C27.1663 28.3734 26.9706 28.5076 26.7874 28.6333C26.7013 28.6923 26.6179 28.7495 26.5224 28.7828C26.2271 28.8875 26.0343 28.6787 25.7517 28.0022C25.4691 27.3263 24.9716 26.4173 24.6749 26.0787C24.5832 25.9742 24.3023 25.9695 24.2264 25.9682L24.2142 25.968C24.1647 25.9674 24.1171 25.9838 24.1138 26.0405C24.1118 26.0951 24.1118 26.3969 24.1118 26.3969C24.0087 26.329 23.7783 26.1801 23.6631 26.1676C23.5439 26.1511 23.2841 26.4502 23.4047 26.4726C24.6537 26.7139 25.2755 28.0337 25.5442 28.6041L25.5729 28.6649ZM20.4295 25.7743C20.546 25.5622 20.6539 25.3574 20.6806 25.138C20.8065 25.194 20.9907 25.333 21.1648 25.6334C21.3395 25.9357 21.7279 26.1861 22.0319 26.381C22.3373 26.5767 22.4377 26.9153 22.4377 26.9153C21.8423 26.9107 21.4291 26.3642 21.1965 26.0565C21.1612 26.0098 21.1302 25.9687 21.1032 25.9357C20.9016 25.6848 20.7891 25.6617 20.7891 25.6617C20.7436 26.3303 21.3737 26.7723 21.7969 27.0556C22.2174 27.3402 22.2476 27.7123 22.2476 27.7123C20.8233 27.5727 20.4295 25.7743 20.4295 25.7743ZM20.5936 28.0891C20.3579 27.8757 19.8208 27.1215 19.7365 26.8837L19.7318 26.883C19.6494 27.1215 19.1104 27.8757 18.8727 28.0898C18.751 28.2006 18.5392 28.4059 18.3207 28.6177C18.1159 28.8163 17.9051 29.0206 17.7571 29.1583C17.7571 29.1583 18.6303 28.9429 19.1218 28.5015C19.1218 28.5015 19.472 28.7024 19.7278 28.7024H19.7398C19.9949 28.7024 20.3452 28.5015 20.3452 28.5015C20.8373 28.9435 21.7119 29.1583 21.7119 29.1583C21.5614 29.0189 21.347 28.8114 21.1396 28.6105C20.9234 28.4013 20.7145 28.199 20.5936 28.0891ZM19.7385 28.8803C19.932 28.8803 20.1148 28.8039 20.2186 28.7597C20.1148 28.9751 19.9206 29.3098 19.7345 29.4481H19.7318C19.545 29.3098 19.3508 28.9751 19.2497 28.7597C19.3508 28.8039 19.5336 28.8796 19.7278 28.8796L19.7385 28.8803ZM23.9069 28.149L20.4878 32.8932L18.9376 30.1588C18.7478 30.4456 18.2681 31.1624 17.9665 31.6131L17.7504 31.9361L18.1013 32.1667L17.0553 32.577L17.0593 31.4803L17.4049 31.7088L18.7829 29.647L18.9744 29.3571L20.5226 32.1357L23.5687 27.9086L23.2399 27.6747L24.2758 27.2828L24.2551 28.398L23.9069 28.149ZM21.1113 31.0297C20.9171 30.7397 20.7233 30.4494 20.53 30.1588C20.3796 30.4331 20.2266 30.706 20.0714 30.9776L19.8269 30.5442L20.4925 29.3571L20.6854 29.647L21.3697 30.6713L21.1113 31.0297ZM21.8177 31.338L22.0635 31.7088L22.4077 31.4803L22.4144 32.577L21.3671 32.1667L21.7166 31.9361C21.709 31.9248 21.7008 31.9123 21.6918 31.8985L21.6707 31.8661C21.6399 31.8188 21.6021 31.7605 21.5579 31.6957L21.8177 31.338ZM28.7014 24.0978C28.4456 23.8231 28.0144 24.0616 27.5765 24.4588C27.1399 24.8567 26.8653 25.2638 27.1198 25.5385C27.3562 25.7934 27.8095 25.5753 28.2461 25.1794C28.6813 24.7809 28.9572 24.3731 28.7014 24.0978ZM28.0303 28.9601C28.0197 28.9695 28.0096 28.9784 27.9969 28.9883C27.7829 29.1481 27.3888 29.1463 27.2662 29.1458L27.2496 29.1457C27.1472 29.1457 27.0374 29.1773 27.0333 29.3025C27.03 29.4257 27.2302 29.4454 27.2302 29.4454C27.4324 29.4257 28.2822 29.4257 28.2822 29.4257C28.2956 29.3282 28.3418 29.1378 28.4657 29.01C29.0395 28.4382 29.3844 27.7393 29.4614 27.2689C29.578 26.552 29.321 25.9038 29.1493 25.4709C29.116 25.3869 29.0858 25.3108 29.0623 25.244C28.9598 24.9504 28.947 24.7451 28.9688 24.3912C28.9696 24.382 28.9702 24.3729 28.9705 24.3639L28.9688 24.3912C28.9462 24.6484 28.7414 24.9533 28.3599 25.2993C27.942 25.6801 27.569 25.8527 27.2871 25.8066C27.2871 25.8066 27.7184 25.883 27.9721 26.1195C28.1851 26.3171 28.4811 26.852 28.5748 27.4481C28.3291 26.9475 27.8101 26.603 27.2108 26.603C26.8784 26.6034 26.5553 26.7112 26.2911 26.9097C26.027 27.1082 25.8363 27.3864 25.7483 27.7017C25.7596 27.726 25.7843 27.7812 25.8149 27.8498L25.8154 27.8511C25.8903 28.0187 26.0004 28.2652 26.0383 28.3361C26.0383 28.3361 26.0209 28.1925 26.0209 28.1042C26.0209 27.4541 26.5539 26.9244 27.2115 26.9244C27.8684 26.9244 28.4034 27.4541 28.4034 28.1042C28.4034 28.4428 28.2688 28.7537 28.0371 28.954L28.0303 28.9601ZM20.3405 27.2722C20.9786 28.2373 21.6844 28.8394 22.4076 29.232L22.6011 28.9639C21.9295 28.6062 21.2712 28.0575 20.6766 27.1906C20.6639 27.1649 20.6378 27.1214 20.6244 27.1049C20.6244 27.1049 20.4014 27.1596 20.226 27.0825L20.3405 27.2722ZM24.9093 29.6523C24.3937 29.5739 23.8493 29.4685 23.3022 29.2735L23.106 29.5475C23.7013 29.7728 24.2986 29.8848 24.8597 29.9704C25.1887 30.0217 25.5219 30.0416 25.8548 30.0297C25.8548 29.9487 25.9171 29.8749 25.9171 29.8749C25.8912 29.8221 25.8819 29.763 25.8903 29.705C25.5623 29.7196 25.2337 29.702 24.9093 29.6523ZM27.792 29.5607C27.6025 29.5337 27.2838 29.5245 27.1827 29.5409C27.0333 29.566 27.0668 29.6872 27.1432 29.7735C27.2228 29.8578 27.713 30.118 27.8001 30.1489C27.8838 30.1806 28.0391 30.2392 28.1067 30.1377L28.1133 30.1275C28.2143 29.9689 28.2857 29.8568 28.2634 29.7504C28.238 29.6358 28.0003 29.5943 27.792 29.5607ZM26.8363 29.8102C26.7818 29.8156 26.7293 29.8328 26.6825 29.8604C26.6356 29.894 26.6516 29.9823 26.6825 30.0416C26.7179 30.1035 26.9409 30.3729 27.0039 30.4487C27.04 30.4921 27.0858 30.5269 27.1377 30.5502C27.1896 30.5736 27.2461 30.5851 27.3032 30.5837C27.3702 30.5771 27.4612 30.5488 27.5349 30.5192C27.6099 30.4889 27.6762 30.4243 27.6447 30.2925C27.6112 30.1588 27.1298 29.8775 26.9972 29.8288C26.9455 29.8111 26.8906 29.8047 26.8363 29.8102ZM26.9135 30.508C26.8914 30.4684 26.6952 30.2352 26.6262 30.1569C26.4052 29.9144 26.1997 29.8723 26.0718 29.9625C25.9398 30.0521 26.0664 30.3018 26.2572 30.4315C26.4443 30.5574 26.7658 30.5916 26.8365 30.5991L26.8405 30.5995C26.9014 30.6068 26.9376 30.5462 26.9135 30.508ZM26.5258 29.4384L26.5184 29.4401C26.1066 29.5469 26.0055 29.7148 26.0771 29.8169C26.1501 29.9158 26.5184 29.8413 26.7106 29.7504C26.9054 29.6562 26.9536 29.5469 26.8867 29.4454C26.835 29.3666 26.5989 29.4214 26.5258 29.4384Z" fill="#001689"/>
</g>
<path id="Vector_8" d="M73.8187 11.9273C73.8127 12.1511 73.808 12.337 73.8066 12.397L75.5979 12.3977C75.4907 11.0492 75.2972 10.8477 74.1441 10.8477H73.8455C73.8435 10.9542 73.8294 11.5075 73.8187 11.9273Z" fill="#CC003D"/>
<path id="Vector_9" d="M54.8216 23.4185C54.8137 23.7313 54.8062 24.0257 54.8047 24.1042L56.5953 24.1049C56.4881 22.7565 56.2772 22.5371 55.1241 22.5371L54.8429 22.5542C54.8414 22.6436 54.8312 23.0443 54.8216 23.4185Z" fill="#CC003D"/>
<path id="Vector_10" d="M47.916 28.3064C47.916 28.3064 48.3024 28.342 48.4564 28.342C48.8856 28.342 49.9282 28.2537 49.9282 26.8084C49.9282 25.2748 49.0309 25.2762 48.2431 25.2774C48.2208 25.2775 48.1986 25.2775 48.1765 25.2775C48.0399 25.2775 47.916 25.3065 47.916 25.3065V28.3064Z" fill="#CC003D"/>
<path id="Vector_11" d="M55.7252 10.6289C55.1186 10.6401 54.5427 11.399 54.5293 13.7065C54.5427 15.9594 55.1186 16.7288 55.7259 16.7407C56.3326 16.7288 56.9085 15.9594 56.9219 13.7065C56.9085 11.4003 56.3326 10.6401 55.7252 10.6289Z" fill="#CC003D"/>
<path id="Vector_12" fill-rule="evenodd" clip-rule="evenodd" d="M81.4825 39.0828H42.0098V0H81.4825V39.0828ZM74.5017 9.42981C76.1919 9.42981 76.907 10.215 77.0878 11.7235C77.1327 12.0977 77.6891 17.9532 77.6891 17.9532H76.0727C76.0727 17.9532 75.776 13.9869 75.7579 13.815L73.7792 13.813C73.7712 14.0001 73.6265 17.9539 73.6265 17.9539H72.0603L72.3522 9.42981H74.5017ZM55.4992 21.1355C57.1887 21.1355 57.9052 21.9214 58.086 23.4299C58.1315 23.8041 58.6866 29.6596 58.6866 29.6596H57.0701C57.0701 29.6596 56.7735 25.6933 56.7554 25.5208L54.7767 25.5188C54.768 25.7059 54.624 29.6596 54.624 29.6596H53.0578L53.3497 21.1355H55.4992ZM46.3341 17.9512V9.42981H51.4634V17.9512H49.8784V10.8467H47.9171V17.9512H46.3341ZM62.2162 12.3974H63.078V9.42981H64.6623V17.9512H63.078V13.8361H61.9195C61.3001 13.8361 60.7658 13.6477 60.3299 13.2748C59.8879 12.8981 59.6629 12.4238 59.6629 11.8625V9.42981H61.2499V11.7038C61.2499 11.8988 61.3082 12.0489 61.4274 12.1596C61.5954 12.3184 61.86 12.3974 62.2162 12.3974ZM66.416 10.8467V9.42981H70.6494V10.8467H69.3336V17.9512H67.7312V10.8467H66.416ZM64.0925 23.8594V21.1355H65.6721V29.6609H64.0918V25.2764H61.9189V29.6609H60.3386V21.1355H61.9189V23.8594H64.0925ZM47.9164 23.9411C48.1334 23.9312 48.3758 23.9246 48.649 23.9246C51.134 23.9246 51.5023 25.8455 51.5023 26.7691C51.5023 27.5497 51.1313 29.6576 48.736 29.6576H46.3334V21.1362H50.757V22.5531H47.9164V23.9411ZM57.9333 10.6768C58.2607 11.2973 58.4723 12.1708 58.4998 13.3895L58.5031 13.6655C58.5025 14.425 58.4174 15.1615 58.25 15.7543C57.8148 17.5006 56.8103 18.1179 55.7624 18.137L55.7403 18.1376H55.7128L55.6907 18.137C54.6428 18.1179 53.6383 17.5 53.2031 15.7543C53.037 15.1608 52.9513 14.4257 52.95 13.6661L52.9533 13.3895C52.9808 12.1708 53.1917 11.2973 53.5198 10.6768C54.0361 9.61623 54.8584 9.22033 55.7075 9.20979H55.7403L55.7456 9.21045C56.5947 9.22099 57.4177 9.61623 57.9333 10.6768ZM71.6525 24.6631L73.5582 29.6583H71.8574L70.3012 25.3324C70.1827 25.3337 69.345 25.3324 69.345 25.3324V29.6609H67.7607V21.1355H69.345C69.345 21.1355 69.3436 23.8851 69.345 23.953H69.9945C70.8356 23.953 71.0786 23.2013 71.1503 22.3871C71.1864 21.9704 71.2172 21.5531 71.2427 21.1355H72.8009C72.8009 21.1355 72.6261 22.7159 72.4929 23.256C72.3556 23.8127 72.0482 24.3713 71.6525 24.6631Z" fill="#CC003D"/>
</g>
<defs>
<clipPath id="clip0_314_932">
<rect width="81.6938" height="39.5242" fill="white"/>
</clipPath>
</defs>
</svg>
