<svg width="154" height="23" viewBox="0 0 154 23" fill="none" xmlns="http://www.w3.org/2000/svg">
<g id="primsoc-logo" clip-path="url(#clip0_314_984)">
<g id="Layer 1">
<path id="Vector" d="M17.8525 -0.00390625H2.55459C1.15086 -0.00390625 0.00195312 1.12788 0.00195312 2.51021V17.6079C0.00195312 18.9902 1.15086 20.122 2.55459 20.122H17.8525C19.2563 20.122 20.4007 18.9902 20.4007 17.6079V2.51021C20.4007 1.12788 19.2518 -0.00390625 17.8525 -0.00390625ZM10.8384 7.53412C10.8384 6.83864 11.4061 6.27706 12.1125 6.27706C12.8188 6.27706 13.3865 6.83864 13.3865 7.53412C13.3865 8.22961 12.8188 8.7955 12.1125 8.7955C11.4061 8.7955 10.8384 8.23393 10.8384 7.53412ZM11.4777 10.0526C11.4777 10.748 10.9099 11.3096 10.2036 11.3096C9.49723 11.3096 8.92501 10.748 8.92501 10.0526C8.92501 9.35707 9.49276 8.7955 10.2036 8.7955C10.9144 8.7955 11.4777 9.36571 11.4777 10.0526ZM10.2036 3.75863C10.9099 3.75863 11.4777 4.3202 11.4777 5.01569C11.4777 5.71117 10.9099 6.27274 10.2036 6.27274C9.49723 6.27274 8.92501 5.71549 8.92501 5.01569C8.92501 4.31588 9.49276 3.75863 10.2036 3.75863ZM9.56429 7.53412C9.56429 8.23393 8.99654 8.7955 8.29021 8.7955C7.58387 8.7955 7.01612 8.23393 7.01612 7.53412C7.01612 6.83432 7.5794 6.27706 8.29021 6.27706C9.00101 6.27706 9.56429 6.83864 9.56429 7.53412ZM6.37684 3.75863C7.08765 3.75863 7.65093 4.3202 7.65093 5.01569C7.65093 5.71117 7.08765 6.27274 6.37684 6.27274C5.66604 6.27274 5.10276 5.71549 5.10276 5.01569C5.10276 4.31588 5.67051 3.75863 6.37684 3.75863ZM6.37684 16.3551C5.67051 16.3551 5.10276 15.7806 5.10276 15.0937C5.10276 14.4069 5.67051 13.8324 6.37684 13.8324C7.08318 13.8324 7.65093 14.3939 7.65093 15.0937C7.65093 15.7936 7.08765 16.3551 6.37684 16.3551ZM7.01612 12.5667C7.01612 11.8798 7.5794 11.3096 8.29021 11.3096C9.00101 11.3096 9.56429 11.8798 9.56429 12.5667C9.56429 13.2535 8.99654 13.8367 8.29021 13.8367C7.58387 13.8367 7.01612 13.2665 7.01612 12.5667ZM10.2036 16.3551C9.49276 16.3551 8.92501 15.7806 8.92501 15.0937C8.92501 14.4069 9.49276 13.8324 10.2036 13.8324C10.9144 13.8324 11.4777 14.3939 11.4777 15.0937C11.4777 15.7936 10.9099 16.3551 10.2036 16.3551ZM10.8384 12.5667C10.8384 11.8798 11.4061 11.3096 12.1125 11.3096C12.8188 11.3096 13.3865 11.8798 13.3865 12.5667C13.3865 13.2535 12.8188 13.8367 12.1125 13.8367C11.4061 13.8367 10.8384 13.2665 10.8384 12.5667ZM14.0258 16.3551C13.315 16.3551 12.7517 15.7806 12.7517 15.0937C12.7517 14.4069 13.3195 13.8324 14.0258 13.8324C14.7322 13.8324 15.2999 14.3939 15.2999 15.0937C15.2999 15.7936 14.7322 16.3551 14.0258 16.3551ZM14.0258 6.27274C13.315 6.27274 12.7517 5.71549 12.7517 5.01569C12.7517 4.31588 13.3195 3.75863 14.0258 3.75863C14.7322 3.75863 15.2999 4.3202 15.2999 5.01569C15.2999 5.71117 14.7322 6.27274 14.0258 6.27274Z" fill="#BAA25B"/>
<path id="Vector_2" d="M35.0529 18.8647V3.89665H30.9446V18.8647H28.0566V1.25294H37.9319V18.8647H35.0574H35.0529ZM57.6109 18.8647V11.7414H57.374L53.3774 18.8647H50.6236V6.28549H53.5026V13.8019H53.7261L57.7361 6.28117H60.4854V18.8604H57.6109V18.8647ZM71.5454 18.8647V12.3677H71.2101L69.2789 15.8193H67.6471L65.7025 12.3677H65.3806V18.8647H62.4927V6.28549H65.0811L68.3311 12.5535H68.5904L71.8315 6.28549H74.4199V18.8647H71.5454ZM138.719 18.8647V13.6939H135.428V18.8647H132.554V6.28549H135.428V11.0545H138.719V6.28549H141.593V18.8647H138.719ZM150.185 18.8647L149.51 15.2534C149.363 14.3937 148.5 13.6939 147.619 13.6939H146.274V18.8647H143.395V6.28549H146.274V11.2489H147.119C148.004 11.2489 148.876 10.5621 149.05 9.70244L149.761 6.28549H152.626L151.692 10.2554C151.518 10.9811 150.869 11.655 150.096 11.9401L149.957 11.9876V12.2684L150.118 12.303C151.053 12.4628 151.862 13.2231 152.05 14.0957L153.047 18.8604H150.181L150.185 18.8647ZM92.1498 8.61817C91.0903 8.61817 90.4912 9.24454 90.4912 10.3374V14.8084C90.4912 15.9013 91.0903 16.5277 92.1498 16.5277C93.2093 16.5277 93.7949 15.9013 93.7949 14.8084V10.3374C93.7949 9.24454 93.1959 8.61817 92.1498 8.61817ZM92.1498 19.0634C89.396 19.0634 87.6167 17.4781 87.6167 15.0071V10.1431C87.6167 7.67214 89.396 6.07382 92.1498 6.07382C94.9036 6.07382 96.6694 7.67214 96.6694 10.1431V15.0071C96.6694 17.4781 94.9036 19.0634 92.1498 19.0634ZM127.078 13.4866C125.075 13.4866 124.909 14.0913 124.909 15.0115C124.909 16.424 125.634 16.6227 126.242 16.6227C126.465 16.6227 126.702 16.5839 126.988 16.5104C127.923 16.2512 128.347 15.7631 128.37 15.7372L128.405 15.5903V13.4909H127.073L127.078 13.4866ZM125.111 19.0634C123.041 19.0634 122.035 17.7848 122.035 15.1583C122.035 12.5319 123.416 11.2532 126.143 11.2532H128.2V10.1474C128.2 8.54906 127.391 8.41514 126.555 8.41514C125.719 8.41514 125.061 8.95512 124.659 10.0135L122.133 9.35254C122.916 7.27472 124.512 6.08246 126.555 6.08246C128.598 6.08246 131.074 6.76931 131.074 10.0394V10.2467H131.088V18.869H128.584L128.334 17.504L128.048 17.7977C128.048 17.7977 126.827 19.0634 125.111 19.0634ZM106.446 21.3831V18.869H98.2162V6.28549H101.091V16.2253H104.39V6.28549H107.269V16.2253H108.914L108.717 21.3831H106.451H106.446ZM44.3336 8.49722C44.2353 8.49722 44.1459 8.51018 44.0475 8.52314C43.0506 8.65705 42.6661 9.52101 42.6527 9.55557L42.6393 9.59013V15.6853L42.6885 15.7329C42.9612 16.0655 43.6586 16.4327 44.2845 16.4327C45.344 16.4327 45.9296 15.8538 45.9296 14.8127V9.93571C45.9296 9.11063 45.2456 8.49722 44.3336 8.49722ZM39.9615 22.7266V6.28549H42.465L42.7287 7.69806L43.0014 7.34384C43.0014 7.34384 44.0207 6.07814 45.7284 6.07814C47.7982 6.07814 48.8041 7.3568 48.8041 9.98755V15.6292C48.8041 17.5947 47.5971 18.8733 45.7284 18.8733C44.3962 18.8733 43.1758 18.0526 43.1624 18.0396L42.836 17.8193V22.7352H39.9615V22.7266ZM86.4946 14.2512C86.4946 16.8776 85.0283 19.0634 81.376 19.0634C78.269 19.0634 76.2617 17.275 76.2617 14.4888V5.72824C76.2617 2.94198 78.269 1.14062 81.376 1.14062C85.0551 1.14062 86.3382 3.57266 86.3382 6.15158L83.4055 6.46692C83.3296 5.39561 83.0881 3.68498 81.2865 3.68498C79.9275 3.68498 79.1541 4.50142 79.1541 5.92263V14.2037C79.1541 15.6897 79.9678 16.5407 81.3849 16.5407C83.2759 16.5407 83.5397 15.1281 83.6291 13.9445L86.4991 14.2598L86.4946 14.2512ZM115.995 7.54687H113.317V3.89665H119.858V1.25294H110.43V18.8647H115.995C119.652 18.8647 120.913 16.5882 120.913 13.2058C120.913 9.82339 119.652 7.54687 115.995 7.54687ZM115.428 16.2253H113.317V10.1863H115.428C117.672 10.1863 117.851 11.0848 117.851 13.2058C117.851 15.3268 117.672 16.2253 115.428 16.2253Z" fill="#4A892C"/>
</g>
</g>
<defs>
<clipPath id="clip0_314_984">
<rect width="153.047" height="22.7264" fill="white"/>
</clipPath>
</defs>
</svg>
