<svg width="95" height="37" viewBox="0 0 95 37" fill="none" xmlns="http://www.w3.org/2000/svg">
<g id="bank-promsviaz 1">
<path id="Vector" d="M19.1033 4.57031L9.55078 13.8493H19.1033V32.4064L28.6568 23.1498V4.57031H19.1033Z" fill="#EA5616"/>
<path id="Vector_2" d="M9.55344 32.4064L19.1069 23.1274H9.55344V4.57031L0 13.827V32.4064H9.55344Z" fill="#2C2D84"/>
<path id="Vector_3" fill-rule="evenodd" clip-rule="evenodd" d="M62.9327 18.4829C62.9327 21.4297 64.8143 23.8135 68.1623 23.8135V23.811C70.29 23.811 71.872 22.7455 72.8428 21.2684L75.9132 24.2515C74.0249 26.7522 71.0219 28.2284 67.8287 28.2256C62.2887 28.2256 57.9171 23.8638 57.9171 18.4829C57.9171 12.7226 62.2887 8.74024 67.8287 8.74024C70.7987 8.73775 73.6161 10.0166 75.519 12.2308L72.4701 15.1924C71.9321 14.5427 70.4165 13.1483 68.0671 13.1483C64.303 13.1483 62.9327 16.1173 62.9327 18.4829ZM43.2278 27.7677H38.2129V9.21059H55.885V27.7677H50.8699V13.3855H43.2278V27.7677ZM82.6468 16.1636H86.9316C90.9943 16.1636 93.8597 18.025 93.8597 21.9653C93.8597 25.9054 90.9943 27.7677 87.17 27.7677H77.6311V9.21059H92.1883V13.3855H82.6468V16.1636ZM86.4533 23.825H82.6463V20.1171H86.4533C87.6358 20.1171 88.8356 20.57 88.8356 21.9653C88.8356 23.3605 87.6379 23.825 86.4533 23.825Z" fill="#2C2D84"/>
</g>
</svg>
