<svg width="141" height="38" viewBox="0 0 141 38" fill="none" xmlns="http://www.w3.org/2000/svg">
<g id="logo-reif 1" clip-path="url(#clip0_314_910)">
<g id="Mask group">
<mask id="mask0_314_910" style="mask-type:luminance" maskUnits="userSpaceOnUse" x="1" y="-1" width="139" height="39">
<g id="Group">
<path id="Vector" d="M1.20312 -0.00195312H139.59V37.546H1.20312V-0.00195312Z" fill="white"/>
</g>
</mask>
<g mask="url(#mask0_314_910)">
<g id="Group_2">
<path id="Vector_2" d="M25.935 16.9431V13.3667L27.2621 12.0713V15.1784L28.416 16.3048L33.0607 11.7709L34.205 12.8973C34.1868 10.8924 33.3572 8.97572 31.8971 7.56554C31.1978 6.79607 30.2157 6.32699 29.1643 6.2602C28.1127 6.19341 27.0767 6.53431 26.2812 7.20884L21.6462 11.7334L22.829 12.8879L20.4345 15.2253L18.0401 12.8879L19.2229 11.7334L14.5879 7.20884C13.7924 6.53431 12.7562 6.19341 11.7048 6.2602C10.6533 6.32699 9.67123 6.79607 8.97196 7.56554C7.51176 8.97572 6.68212 10.8924 6.66406 12.8973L7.80839 11.7709L12.4531 16.3048L13.607 15.1784V12.0713L14.9341 13.3667V16.9431L16.7996 18.7736L7.61607 27.7475L11.2414 31.2864L20.4345 22.3219L29.6277 31.2864L33.253 27.7475L24.0695 18.7736L25.935 16.9431ZM46.081 20.3412H53.0047V22.4721H48.6678V24.6592H50.1102C50.6801 24.6149 51.2533 24.6816 51.7964 24.8558C52.3396 25.0298 52.8419 25.3076 53.274 25.673C53.5843 25.9698 53.8296 26.3249 53.9948 26.7171C54.1602 27.1092 54.2421 27.5301 54.2356 27.9541C54.2446 28.3882 54.1642 28.8197 53.9989 29.2228C53.8338 29.626 53.5872 29.9926 53.274 30.3008C52.8036 30.6687 52.2628 30.9411 51.6832 31.1023C51.1036 31.2634 50.4969 31.3101 49.8987 31.2395H46.0522L46.081 20.3412ZM49.6967 29.2495C50.186 29.2788 50.6728 29.1615 51.0911 28.9115C51.2335 28.7835 51.3459 28.627 51.4208 28.4527C51.4956 28.2784 51.531 28.0904 51.5247 27.9015C51.5182 27.7126 51.4702 27.5273 51.3838 27.3581C51.2972 27.189 51.1745 27.0401 51.0238 26.9215C50.618 26.7052 50.1582 26.6044 49.6967 26.6305H48.6678V29.2495H49.6967ZM61.1689 23.9646H63.5922V31.2864H61.1689V30.4041C60.9325 30.7663 60.603 31.0616 60.2133 31.261C59.8235 31.4602 59.3871 31.5564 58.9476 31.5399C58.424 31.5686 57.9004 31.4832 57.4147 31.2901C56.929 31.0968 56.4935 30.8007 56.1396 30.4228C55.421 29.6849 55.0305 28.6997 55.053 27.6818C55.0239 26.5846 55.4424 25.5211 56.2165 24.7249C56.5592 24.395 56.9667 24.1359 57.4145 23.9633C57.8624 23.7907 58.3413 23.7081 58.8225 23.7205C59.2743 23.702 59.7239 23.7895 60.134 23.9757C60.5439 24.162 60.9021 24.4415 61.1785 24.7906L61.1689 23.9646ZM58.0917 26.2832C57.9098 26.456 57.7664 26.6636 57.6705 26.893C57.5746 27.1223 57.5281 27.3684 57.534 27.6161C57.5219 28.0972 57.7023 28.5642 58.034 28.9209C58.2203 29.1071 58.4433 29.2547 58.6895 29.3547C58.9358 29.4547 59.2001 29.5051 59.4668 29.5029C59.7015 29.5034 59.9338 29.4579 60.1502 29.3692C60.3666 29.2806 60.5625 29.1504 60.7266 28.9866C60.9147 28.8092 61.0637 28.5961 61.1646 28.3604C61.2654 28.1248 61.3159 27.8716 61.3132 27.6161C61.3187 27.1185 61.1214 26.6391 60.765 26.2832C60.395 25.959 59.9159 25.7785 59.4188 25.7763C58.9262 25.7731 58.4512 25.9546 58.0917 26.2832ZM65.0539 23.9646H67.4772V26.5085H70.1793V23.9646H72.6026V31.2864H70.1793V28.414H67.4772V31.2864H65.0539V23.9646ZM74.0643 23.9646H76.4876V26.8746L78.9397 23.9646H81.9784L78.757 27.3627L82.19 31.2864H79.0936L76.5357 28.0385V31.2864H74.0643V23.9646ZM50.0333 6.26075C51.1004 6.19958 52.1516 6.53495 52.9759 7.19945C53.3467 7.52978 53.6388 7.9355 53.8315 8.38802C54.0243 8.84053 54.113 9.32881 54.0914 9.81842C54.116 10.2896 54.0436 10.7608 53.8784 11.2042C53.7132 11.6476 53.4586 12.0541 53.1297 12.3998C52.7394 12.7395 52.2823 12.9979 51.7864 13.1593C51.2903 13.3207 50.7658 13.3817 50.2449 13.3385H48.6678V17.1778H46.081V6.26075H50.0333ZM48.6678 11.264H49.6294C50.1316 11.3102 50.6324 11.1619 51.0238 10.851C51.1641 10.7055 51.2737 10.5345 51.3463 10.3477C51.4189 10.1608 51.453 9.96184 51.4469 9.7621C51.4558 9.56629 51.4229 9.37079 51.35 9.18814C51.2772 9.00548 51.166 8.8397 51.0238 8.70137C50.6168 8.38496 50.0989 8.2367 49.5813 8.28834H48.7063L48.6678 11.264ZM60.39 9.88413H62.8133V17.206H60.39V16.3236C60.155 16.6871 59.8258 16.9836 59.4357 17.1831C59.0456 17.3824 58.6086 17.4778 58.1686 17.4594C57.6452 17.4866 57.122 17.4006 56.6367 17.2075C56.1513 17.0143 55.7155 16.719 55.3607 16.3424C54.6423 15.6037 54.2487 14.6198 54.2645 13.6014C54.2354 12.5041 54.6539 11.4406 55.428 10.6445C55.7711 10.3149 56.1786 10.0561 56.6263 9.88353C57.0741 9.71096 57.5527 9.62817 58.034 9.64007C58.4859 9.62075 58.9358 9.70791 59.3459 9.89417C59.7559 10.0804 60.1141 10.3603 60.39 10.7102V9.88413ZM57.3128 12.2027C57.1344 12.3781 56.9934 12.5862 56.8977 12.8148C56.8019 13.0436 56.7535 13.2885 56.7551 13.5356C56.7468 14.0184 56.9292 14.4857 57.2647 14.8404C57.45 15.0255 57.6714 15.1724 57.9159 15.2724C58.1602 15.3723 58.4229 15.4234 58.6879 15.4224C59.1639 15.4224 59.6207 15.2347 59.9573 14.9061C60.3248 14.544 60.5311 14.0549 60.5311 13.545C60.5311 13.0352 60.3248 12.546 59.9573 12.1839C59.5887 11.8574 59.1086 11.6766 58.611 11.677C58.1257 11.6861 57.6621 11.8739 57.3128 12.2027ZM66.6982 9.88413V14.0801L69.8908 9.89352H72.1506V17.2153H69.7274V12.9537L66.5348 17.206H64.275V9.88413H66.6982ZM71.2563 6.92723C71.0675 7.49782 70.6883 7.99023 70.1793 8.32589C69.5701 8.62843 68.8963 8.78613 68.2128 8.78613C67.5292 8.78613 66.8555 8.62843 66.2463 8.32589C65.7373 7.99016 65.3581 7.49778 65.1693 6.92723L66.8521 6.28891C66.8997 6.59915 67.0662 6.88019 67.3179 7.07532C67.5695 7.27044 67.8876 7.36512 68.208 7.34026C68.5542 7.36372 68.898 7.26047 69.1696 7.04926C69.3968 6.84979 69.5483 6.58226 69.6023 6.28891L71.2563 6.92723ZM77.4973 20.8575V17.328H77.3915C76.8243 17.3549 76.2573 17.2707 75.7238 17.0805C75.1903 16.8902 74.7014 16.5978 74.2854 16.2203C73.9257 15.8658 73.6444 15.443 73.4591 14.9778C73.2738 14.5128 73.1885 14.0156 73.2084 13.5169C73.1882 12.9748 73.2946 12.4354 73.5195 11.9394C73.7444 11.4433 74.0819 11.0037 74.5066 10.6539C75.346 10.0646 76.3576 9.75518 77.3915 9.77149H77.5069V6.26075H79.9302V9.77149H80.0552C81.0889 9.75518 82.1006 10.0646 82.9401 10.6539C83.3613 11.006 83.6959 11.4462 83.9189 11.9419C84.142 12.4375 84.2479 12.9758 84.2286 13.5169C84.2483 14.0156 84.163 14.5127 83.9776 14.9778C83.7924 15.4428 83.5113 15.8657 83.1516 16.2203C82.738 16.5984 82.2507 16.8913 81.7188 17.0816C81.1868 17.2719 80.621 17.3557 80.0552 17.328H79.959V20.8575H77.4973ZM77.6127 11.677C77.3387 11.6552 77.0632 11.689 76.8035 11.7763C76.5436 11.8635 76.3051 12.0023 76.1029 12.1839C75.7674 12.5487 75.5913 13.0271 75.6125 13.5169C75.5945 14.0097 75.77 14.4896 76.1029 14.8592C76.3009 15.05 76.5373 15.1984 76.7972 15.2955C77.0571 15.3924 77.3348 15.4356 77.6127 15.4224V11.677ZM79.8052 15.4318C80.083 15.4445 80.3605 15.4011 80.6203 15.3042C80.88 15.2072 81.1166 15.0589 81.3149 14.8686C81.6479 14.4978 81.8234 14.0179 81.8053 13.5263C81.8239 13.0397 81.648 12.5651 81.3149 12.2027C81.1124 12.0215 80.8739 11.8829 80.6141 11.7958C80.3544 11.7085 80.079 11.6745 79.8052 11.6958V15.4318ZM89.1521 20.8575V17.328H89.0464C88.4839 17.351 87.9223 17.2649 87.3942 17.0748C86.866 16.8847 86.3817 16.5943 85.9692 16.2203C85.6042 15.8682 85.3178 15.4464 85.1275 14.9811C84.9372 14.516 84.8472 14.0175 84.8633 13.5169C84.8431 12.9748 84.9495 12.4354 85.1744 11.9394C85.3993 11.4433 85.7368 11.0037 86.1615 10.6539C87.0009 10.0646 88.0125 9.75518 89.0464 9.77149H89.1618V6.26075H91.5947V9.77149H91.7101C92.7438 9.75518 93.7554 10.0646 94.5949 10.6539C95.0058 11.0113 95.3296 11.4539 95.5426 11.9492C95.7555 12.4446 95.8523 12.9803 95.8258 13.5169C95.8455 14.0156 95.7602 14.5127 95.5748 14.9778C95.3896 15.4428 95.1084 15.8657 94.7488 16.2203C94.3376 16.5962 93.8534 16.8876 93.3249 17.0779C92.7965 17.2681 92.2343 17.3532 91.6716 17.328H91.5947V20.8575H89.1521ZM89.2675 11.677C88.9907 11.6569 88.7127 11.6932 88.4511 11.7838C88.1896 11.8743 87.9501 12.0169 87.7482 12.2027C87.4127 12.5675 87.2366 13.0459 87.2578 13.5356C87.2457 14.0214 87.42 14.4931 87.7482 14.8592C87.9463 15.0499 88.1827 15.1984 88.4426 15.2954C88.7023 15.3923 88.98 15.4356 89.2579 15.4224L89.2675 11.677ZM91.46 15.4318C91.7378 15.4445 92.0154 15.4011 92.2751 15.3042C92.5349 15.2072 92.7715 15.0589 92.9698 14.8686C93.3028 14.4978 93.4782 14.0179 93.4602 13.5263C93.4787 13.0397 93.3029 12.5651 92.9698 12.2027C92.7673 12.0215 92.5288 11.8829 92.269 11.7958C92.0093 11.7085 91.7339 11.6745 91.46 11.6958V15.4318ZM102.673 9.88413H105.057V17.206H102.634V16.3236C102.399 16.6872 102.07 16.9837 101.68 17.1832C101.29 17.3827 100.853 17.4779 100.413 17.4594C99.8893 17.4866 99.3661 17.4006 98.8808 17.2075C98.3954 17.0143 97.9596 16.719 97.6048 16.3424C96.8864 15.6037 96.4928 14.6198 96.5086 13.6014C96.4796 12.5041 96.8981 11.4406 97.6721 10.6445C98.0152 10.3149 98.4228 10.0562 98.8704 9.88363C99.3182 9.71106 99.797 9.62823 100.278 9.64007C100.73 9.62075 101.18 9.70791 101.59 9.89417C102 10.0804 102.358 10.3603 102.634 10.7102L102.673 9.88413ZM99.5954 12.2027C99.4171 12.3781 99.2761 12.5862 99.1803 12.815C99.0846 13.0437 99.0361 13.2887 99.0376 13.5356C99.0293 14.0184 99.2118 14.4857 99.5473 14.8404C99.7336 15.0267 99.9566 15.1743 100.203 15.2742C100.449 15.3742 100.713 15.4247 100.98 15.4224C101.454 15.4201 101.906 15.2347 102.24 14.9061C102.607 14.544 102.814 14.0549 102.814 13.545C102.814 13.0352 102.607 12.546 102.24 12.1839C101.871 11.8574 101.391 11.6766 100.894 11.677C100.408 11.6861 99.9447 11.8739 99.5954 12.2027ZM108.981 9.88413V14.0801L112.173 9.89352H114.433V17.2153H112.01V12.9537L108.817 17.206H106.558V9.88413H108.981ZM113.539 6.92723C113.35 7.49778 112.971 7.99016 112.462 8.32589C111.853 8.62843 111.179 8.78613 110.495 8.78613C109.812 8.78613 109.138 8.62843 108.529 8.32589C108.02 7.99016 107.641 7.49778 107.452 6.92723L109.135 6.28891C109.182 6.59915 109.349 6.88019 109.6 7.07532C109.852 7.27044 110.17 7.36512 110.491 7.34026C110.837 7.36372 111.181 7.26047 111.452 7.04926C111.679 6.84979 111.831 6.58226 111.885 6.28891L113.539 6.92723ZM115.635 10.5131C116.03 10.2744 116.445 10.0702 116.876 9.9029C117.446 9.71956 118.044 9.63073 118.645 9.64007C119.555 9.59269 120.454 9.85843 121.184 10.391C121.37 10.5644 121.517 10.7747 121.613 11.0079C121.709 11.2411 121.752 11.4916 121.742 11.7427C121.758 11.9708 121.726 12.1998 121.647 12.4147C121.567 12.6298 121.442 12.8262 121.28 12.9912C121.101 13.171 120.885 13.3116 120.645 13.4042C121.006 13.4981 121.338 13.6776 121.607 13.9299C121.775 14.0847 121.906 14.273 121.993 14.482C122.079 14.6909 122.118 14.9158 122.107 15.1408C122.109 15.4257 122.053 15.7081 121.94 15.971C121.828 16.2339 121.662 16.472 121.453 16.6709C121.07 16.9748 120.628 17.2011 120.154 17.3364C119.681 17.4718 119.184 17.5136 118.693 17.4594C117.996 17.4696 117.302 17.3584 116.645 17.1309C116.157 16.9412 115.703 16.6783 115.299 16.3517L116.328 14.7935C116.616 15.0376 116.941 15.237 117.289 15.3849C117.656 15.5316 118.047 15.6113 118.443 15.6196C118.746 15.6251 119.046 15.5608 119.318 15.4318C119.422 15.3802 119.509 15.3008 119.569 15.2027C119.629 15.1046 119.658 14.992 119.655 14.878C119.656 14.7704 119.624 14.665 119.562 14.576C119.5 14.487 119.412 14.4187 119.309 14.3805C119.025 14.2953 118.73 14.2509 118.434 14.2491H117.472V12.6439H118.164C118.471 12.6497 118.777 12.6063 119.068 12.5125C119.164 12.4744 119.246 12.4094 119.303 12.3259C119.361 12.2424 119.391 12.1439 119.391 12.0431C119.391 11.9424 119.361 11.844 119.303 11.7604C119.246 11.6768 119.164 11.6118 119.068 11.5738C118.827 11.4804 118.568 11.4356 118.309 11.4424C117.978 11.4424 117.65 11.5093 117.347 11.6395C117.053 11.7547 116.78 11.9164 116.539 12.1182L115.635 10.5131ZM130.944 13.9581H125.348C125.351 14.4122 125.51 14.8522 125.8 15.2065C125.963 15.3647 126.159 15.4874 126.374 15.5666C126.589 15.646 126.82 15.68 127.05 15.6665C127.384 15.6774 127.716 15.603 128.011 15.4506C128.237 15.2969 128.416 15.0868 128.531 14.8404L130.819 15.0751C130.59 15.852 130.076 16.5199 129.377 16.9525C128.651 17.3423 127.83 17.5306 127.002 17.497C126.455 17.5399 125.905 17.4683 125.39 17.2869C124.874 17.1056 124.404 16.8187 124.011 16.4456C123.641 16.0726 123.35 15.6318 123.155 15.1483C122.96 14.665 122.865 14.1488 122.876 13.6295C122.865 12.5586 123.275 11.5242 124.021 10.7383C124.404 10.3824 124.857 10.1058 125.352 9.92514C125.849 9.74447 126.377 9.66348 126.905 9.687C127.451 9.6602 127.997 9.74394 128.509 9.93294C129.02 10.1219 129.486 10.4121 129.877 10.7853C130.614 11.6044 130.994 12.6723 130.935 13.7609L130.944 13.9581ZM128.713 12.55C128.63 12.2279 128.461 11.9332 128.223 11.6958C127.915 11.4098 127.503 11.2546 127.079 11.264C126.85 11.2553 126.623 11.2934 126.411 11.3759C126.199 11.4584 126.008 11.5833 125.848 11.7427C125.64 11.9644 125.497 12.2368 125.434 12.5312L128.713 12.55ZM132.041 9.88413H134.464V12.428H137.166V9.88413H139.589V17.206H137.166V14.3335H134.464V17.206H132.041V9.88413Z" fill="#2B2D34"/>
</g>
</g>
</g>
<path id="Vector_3" d="M25.9311 13.3667V16.9431L24.0656 18.7736L33.2491 27.7475L29.6238 31.2864L20.4306 22.3219L11.2375 31.2864L7.61216 27.7475L16.7957 18.7736L14.9302 16.9431V13.3667L13.6031 12.0713V15.1784L12.4492 16.3048L7.80449 11.7709L6.66016 12.8973C6.67821 10.8924 7.50785 8.97572 8.96805 7.56554C9.66732 6.79607 10.6494 6.32699 11.7009 6.2602C12.7523 6.19341 13.7885 6.53431 14.584 7.20884L19.219 11.7334L18.0362 12.8879L20.4306 15.2253L22.8251 12.8879L21.6423 11.7334L26.2773 7.20884C27.0728 6.53431 28.1088 6.19341 29.1604 6.2602C30.2118 6.32699 31.1938 6.79607 31.8932 7.56554C33.3533 8.97572 34.1829 10.8924 34.2011 12.8973L33.0568 11.7709L28.4121 16.3048L27.2582 15.1784V12.0713L25.9311 13.3667Z" fill="#2B2D34"/>
</g>
<defs>
<clipPath id="clip0_314_910">
<rect width="140.637" height="37.548" fill="white"/>
</clipPath>
</defs>
</svg>
