<svg width="154" height="36" viewBox="0 0 154 36" fill="none" xmlns="http://www.w3.org/2000/svg">
<g id="logo-renessans 1">
<path id="Vector" d="M36.9102 6.12305H43.6912C47.1247 6.12305 49.4423 8.85297 49.4423 11.5002C49.4423 14.2301 47.1247 16.96 43.6912 16.96H39.4853V21.3444H36.9102V6.12305ZM43.4337 14.6437C45.6655 14.6437 46.8672 12.9892 46.8672 11.5002C46.8672 9.9284 45.6655 8.35662 43.4337 8.35662H39.4853V14.6437H43.4337ZM50.2148 15.8019C50.2148 12.5756 52.5324 10.0111 56.1375 10.0111C59.8285 10.0111 61.6311 12.9892 61.6311 15.9673V16.5464H52.7899C53.1333 18.4491 54.85 19.5245 57.1676 19.5245C58.6268 19.5245 59.8285 19.1109 60.8586 18.5318V20.5999C59.9144 21.2617 58.3693 21.6753 56.6526 21.6753C53.0474 21.6753 50.2148 19.359 50.2148 15.8019ZM59.056 14.6437C59.056 13.4856 58.1118 11.9965 56.0517 11.9965C54.0775 11.9965 52.9616 13.3201 52.8758 14.6437H59.056ZM63.8628 10.2593H66.4379V14.561H72.2748V10.2593H74.8499V21.3444H72.2748V16.7118H66.4379V21.3444H63.8628V10.2593ZM76.9958 15.8019C76.9958 12.5756 79.3134 10.0111 82.9185 10.0111C86.6095 10.0111 88.4121 12.9892 88.4121 15.9673V16.5464H79.5709C79.9143 18.4491 81.631 19.5245 83.9486 19.5245C85.4078 19.5245 86.6095 19.1109 87.6396 18.5318V20.5999C86.6954 21.2617 85.1503 21.6753 83.4336 21.6753C79.8284 21.6753 76.9958 19.359 76.9958 15.8019ZM85.837 14.6437C85.837 13.4856 84.8928 11.9965 82.8327 11.9965C80.8585 11.9965 79.7426 13.3201 79.6568 14.6437H85.837ZM89.8713 15.8019C89.8713 12.3274 92.7039 10.0111 96.1374 10.0111C97.5108 10.0111 98.5408 10.2593 99.5708 10.7556V12.8238C98.5408 12.3274 97.5966 12.0792 96.4807 12.0792C94.249 12.0792 92.3606 13.5683 92.3606 15.8019C92.3606 18.0354 94.1631 19.5245 96.4807 19.5245C97.7683 19.5245 98.7983 19.2763 99.7425 18.6972V20.7654C98.6266 21.3444 97.5108 21.6753 96.0515 21.6753C92.7039 21.6753 89.8713 19.2763 89.8713 15.8019ZM101.03 15.8019C101.03 12.3274 103.863 10.0111 107.296 10.0111C108.67 10.0111 109.7 10.2593 110.73 10.7556V12.8238C109.7 12.3274 108.755 12.0792 107.639 12.0792C105.408 12.0792 103.519 13.5683 103.519 15.8019C103.519 18.0354 105.322 19.5245 107.639 19.5245C108.927 19.5245 109.957 19.2763 110.901 18.6972V20.7654C109.785 21.3444 108.67 21.6753 107.21 21.6753C103.949 21.6753 101.03 19.2763 101.03 15.8019ZM124.978 19.2763V21.0963C124.635 21.3444 124.034 21.4272 123.519 21.4272C122.403 21.4272 121.459 20.9308 121.116 19.8554C120.257 20.7654 118.884 21.5926 116.91 21.5926C114.506 21.5926 112.618 20.269 112.618 17.87C112.618 15.3882 114.506 14.6437 116.996 14.6437H120.944V14.4783C120.944 12.5756 119.313 12.0792 117.597 12.0792C116.223 12.0792 114.85 12.5756 113.991 13.0719V10.9211C114.85 10.5075 116.137 10.0111 118.197 10.0111C121.287 10.0111 123.519 11.4174 123.519 14.2301V18.3663C123.519 19.0281 123.948 19.4418 124.463 19.4418C124.463 19.4418 124.721 19.4418 124.978 19.2763ZM120.772 16.5464H117.768C116.137 16.5464 115.021 16.8773 115.021 17.9527C115.021 19.1936 116.137 19.6072 117.511 19.6072C118.884 19.6072 120.172 18.9454 120.772 18.2836V16.5464ZM126.781 10.2593H129.356V14.561H135.193V10.2593H137.768V21.3444H135.193V16.7118H129.356V21.3444H126.781V10.2593ZM139.914 15.8019C139.914 12.3274 142.747 10.0111 146.18 10.0111C147.553 10.0111 148.584 10.2593 149.614 10.7556V12.8238C148.584 12.3274 147.639 12.0792 146.523 12.0792C144.292 12.0792 142.403 13.5683 142.403 15.8019C142.403 18.0354 144.206 19.5245 146.523 19.5245C147.811 19.5245 148.841 19.2763 149.785 18.6972V20.7654C148.669 21.3444 147.553 21.6753 146.094 21.6753C142.747 21.6753 139.914 19.2763 139.914 15.8019ZM36.9102 27.3006H38.1119V29.4515L40.1719 27.3006H41.6312L39.2277 29.7824L42.0603 32.7605H40.6011L38.1977 30.2787V32.7605H36.9102V27.3006ZM43.6054 27.3006H46.0947C47.2964 27.3006 48.0689 27.9624 48.0689 28.9551C48.0689 29.9478 47.2964 30.6096 46.0947 30.6096H44.8071V32.7605H43.6054V27.3006ZM46.0088 29.6169C46.5238 29.6169 46.8672 29.3688 46.8672 28.9551C46.8672 28.5415 46.5238 28.2933 46.0088 28.2933H44.8071V29.6169H46.0088ZM49.7856 27.3006H53.9058V28.2933H50.9015V29.3688H53.3049V30.3615H50.9015V31.7678H54.0775V32.7605H49.7856V27.3006ZM55.6225 31.7678H56.1375C56.6526 31.0233 56.9101 30.0306 56.9101 28.2106V27.3834H60.8586V31.8505H61.6311V34.0014H60.5152V32.9259H56.6526V34.0014H55.5367V31.7678H55.6225ZM59.7427 31.7678V28.2933H58.1118C58.1118 29.4515 58.0259 30.6096 57.5109 31.7678H59.7427ZM63.4337 27.3006H64.6354V30.8578L67.3821 27.3006H68.4122V32.7605H67.2963V29.2033L64.3779 32.7605H63.4337V27.3006ZM74.7641 27.3006V28.2933H72.9615V32.7605H71.7598V28.2933H69.9572V27.3006H74.7641Z" fill="#323E48"/>
<path id="Vector_2" d="M7.12652 27.2999H3.43555V11.9958C3.43555 6.78412 7.89905 2.48242 13.3068 2.48242H25.4955V11.9131C25.4955 17.2075 21.032 21.4264 15.6243 21.4264H9.44411L10.8175 17.8693H15.5385C18.972 17.8693 21.7187 15.2221 21.7187 11.9131V6.0396H13.2209C9.78745 6.0396 7.04068 8.6868 7.04068 11.9958V27.2999H7.12652Z" fill="url(#paint0_radial_314_1066)"/>
</g>
<defs>
<radialGradient id="paint0_radial_314_1066" cx="0" cy="0" r="1" gradientUnits="userSpaceOnUse" gradientTransform="translate(4.17288 26.3014) scale(21.3621 20.5878)">
<stop stop-color="#D6005E"/>
<stop offset="1" stop-color="#E3448A"/>
</radialGradient>
</defs>
</svg>
