<svg width="163" height="39" viewBox="0 0 163 39" fill="none" xmlns="http://www.w3.org/2000/svg">
<g id="rshb" clip-path="url(#clip0_314_883)">
<g id="Clip path group">
<mask id="mask0_314_883" style="mask-type:luminance" maskUnits="userSpaceOnUse" x="5" y="-1" width="37" height="40">
<g id="a">
<path id="Vector" d="M5.02539 -0.00195312H41.8127V38.5341H5.02539V-0.00195312Z" fill="white"/>
</g>
</mask>
<g mask="url(#mask0_314_883)">
<g id="Group">
<path id="Vector_2" d="M17.645 21.8434L21.7091 18.1362V15.6098L17.645 19.3092V21.8434ZM17.645 12.4406L21.7091 8.71568V6.34339L17.645 10.0351V12.4406ZM17.645 15.5497L21.7091 11.8417V9.46019L17.645 13.1597V15.5581V15.5497ZM16.4862 6.3696L15.9341 5.88944V-0.00195312H15.3274V5.3245L14.7935 4.83663V-0.00195312H14.1777V4.28017L13.6347 3.78229V-0.00195312H13.028V5.61583L17.1111 9.32377V-0.00195312H16.4953V6.3696H16.4862ZM17.645 18.658L21.7091 14.95V12.5693L17.645 16.2687V18.6665V18.658ZM13.0181 18.1354L17.102 21.8434V19.3092L13.0189 15.6098L13.0181 18.1354ZM21.1024 3.78306L20.5603 4.28017V-0.00195312H19.9527V4.84511L19.4015 5.3245V-0.00195312H18.7939V5.88096L18.2608 6.3696V-0.00195312H17.645V9.33225L21.7091 5.61583V-0.00195312H21.1024V3.78306ZM13.0189 8.71568L17.102 12.4406V10.0436L13.0189 6.33492V8.71568ZM13.0189 11.8417L17.102 15.5489V13.1519L13.0189 9.46944V11.8417ZM13.0189 14.95L17.102 18.658V16.2687L13.0189 12.5778V14.9593V14.95ZM37.2712 16.9108H27.3749C27.559 16.6458 27.6704 16.3427 27.6993 16.0282C27.7281 15.7138 27.6736 15.3975 27.5405 15.1073C27.3504 14.6845 27.0091 14.3359 26.5746 14.1206C26.1401 13.9052 25.6389 13.8364 25.1561 13.9257C24.6733 14.0151 24.2386 14.2571 23.9255 14.6108C23.6124 14.9645 23.4403 15.4081 23.4383 15.8664C23.4383 16.2942 23.5856 16.6888 23.8339 17.014C23.7415 17.0715 23.6655 17.1492 23.6127 17.2403C23.5599 17.3313 23.5318 17.4331 23.531 17.5366C23.531 17.7585 23.6593 17.9559 23.8339 18.0668C23.6074 18.3626 23.4727 18.7107 23.4447 19.073C23.4166 19.4353 23.4963 19.7978 23.6749 20.1207C23.8535 20.4437 24.1242 20.7146 24.4573 20.9037C24.7903 21.0928 25.1729 21.1929 25.563 21.1929C25.8434 21.1942 26.1212 21.1441 26.3807 21.0453C26.6402 20.9466 26.8762 20.8012 27.0754 20.6174C27.2745 20.4337 27.4327 20.2152 27.5411 19.9745C27.6494 19.7337 27.7057 19.4755 27.7068 19.2144C27.7068 18.8291 27.5868 18.4699 27.3757 18.1701H34.7425V18.5894H34.0058V19.1721H34.7425V19.7717H34.0058V20.8846H34.7425V20.3882H35.8185V20.8846H36.5444V19.7717H35.8177V19.1721H36.5444V18.5894H35.8177V18.1616H37.2712C37.3389 18.1616 37.4059 18.1492 37.4684 18.1251C37.5309 18.1009 37.5877 18.0655 37.6355 18.021C37.6833 17.9764 37.7212 17.9234 37.7471 17.8652C37.7729 17.8069 37.7861 17.7445 37.786 17.6815V17.3909C37.7837 17.2644 37.7287 17.1436 37.6327 17.0541C37.5367 16.9645 37.4071 16.9131 37.2712 16.9108ZM26.6664 19.2229C26.6553 19.4885 26.5343 19.7398 26.3285 19.9241C26.1228 20.1083 25.8485 20.2113 25.563 20.2113C25.2776 20.2113 25.0032 20.1083 24.7975 19.9241C24.5918 19.7398 24.4707 19.4885 24.4597 19.2229C24.4597 19.0179 24.5333 18.8206 24.6434 18.658L24.9563 18.1786C24.8568 18.0995 24.7772 18.001 24.7231 17.89C24.669 17.7791 24.6418 17.6584 24.6434 17.5366C24.6434 17.2792 24.7626 17.0564 24.9472 16.9023L24.6525 16.4229C24.5296 16.257 24.4653 16.0595 24.4688 15.8579C24.4688 15.5854 24.5851 15.324 24.7921 15.1312C24.9991 14.9385 25.2798 14.8302 25.5725 14.8302C25.8653 14.8302 26.146 14.9385 26.353 15.1312C26.56 15.324 26.6763 15.5854 26.6763 15.8579C26.6763 16.2772 26.1606 17.2707 26.1606 17.2707V17.8017C26.1524 17.8102 26.6664 18.8036 26.6664 19.2229ZM9.32227 15.7038V18.1778C9.32227 20.5331 10.4256 22.0576 11.0696 22.6403L15.2819 26.4939C16.4589 27.5644 16.6617 27.9151 16.9282 28.5232V25.7833C16.9282 23.3509 15.6039 22.4091 14.9144 21.7833C13.3227 20.3451 12.2557 19.3863 11.4007 18.5894C10.4805 17.7878 9.76956 16.8007 9.32227 15.7038ZM14.9135 27.8982C13.3218 26.4423 12.2549 25.5004 11.3999 24.7043C10.544 23.982 9.84202 23.116 9.33054 22.1517V24.2842C9.30306 25.9273 9.92122 27.523 11.0688 28.7714L15.2819 32.5996C16.4589 33.6701 16.6617 34.1842 16.9282 34.783V31.8982C16.9282 29.4573 15.5948 28.5155 14.9144 27.8989L14.9135 27.8982Z" fill="#45AC45"/>
<path id="Vector_3" d="M23.309 4.57031C23.0143 4.57031 22.7205 4.57031 22.4258 4.58804V5.73487C24.7251 5.5724 27.0359 5.84683 29.2178 6.5415C31.3997 7.23616 33.4072 8.33657 35.1183 9.77587C36.8294 11.2152 38.2085 12.9633 39.1717 14.9142C40.1349 16.865 40.6622 18.9778 40.7215 21.1242C40.7808 23.2706 40.3709 25.4058 39.5167 27.4002C38.6625 29.3946 37.3818 31.2064 35.7524 32.7258C34.123 34.2451 32.179 35.4401 30.0383 36.2384C27.8977 37.0366 25.6051 37.4213 23.2999 37.3691C18.789 37.3736 14.4608 35.71 11.2668 32.7441C8.07284 29.7781 6.27444 25.7526 6.26698 21.5524C6.26698 16.6968 8.61192 12.3638 12.3185 9.45206V7.97921C10.053 9.55758 8.2142 11.6062 6.94816 13.9623C5.68211 16.3184 5.02375 18.917 5.02539 21.5516C5.02539 30.9297 13.2108 38.5337 23.309 38.5337C28.1491 38.5359 32.7921 36.7484 36.2173 33.564C39.6424 30.3797 41.5693 26.0592 41.5744 21.5524C41.5744 12.175 33.3882 4.57031 23.2999 4.57031H23.309Z" fill="#45AC45"/>
<path id="Vector_4" d="M36.2319 30.4233C36.5076 30.0718 36.784 29.695 37.0323 29.3096V27.0321H36.2319V30.4233ZM38.5678 26.2098C38.6787 25.8676 38.7888 25.5415 38.8807 25.2163H36.2319V25.8159H36.6276C37.3353 25.799 38.1266 25.7905 38.5678 26.2098ZM20.9191 25.123H20.2014V31.8961H20.9191V25.123Z" fill="#45AC45"/>
<path id="Vector_5" d="M18.5443 23.831H20.9174C21.5332 23.831 21.9661 23.9512 22.2053 24.174C22.4536 24.3875 22.5728 24.7905 22.5728 25.3555V31.6923C22.5728 32.2573 22.4627 32.6519 22.2053 32.8746C21.837 33.2253 21.1375 33.2253 20.5681 33.2253L20.1997 33.2168V36.2142L20.9174 36.3336V33.8673C22.0207 33.8673 22.7292 33.5251 23.0694 32.823V36.497H23.3087L23.7689 36.4878V25.4665C23.7689 24.8846 23.8881 24.4738 24.1364 24.2426C24.3665 24.0113 24.7986 23.8996 25.3962 23.8996C26.0128 23.8996 26.9142 23.814 27.3827 24.2426C27.6219 24.4738 27.732 24.893 27.732 25.4665V28.7212H26.1047V25.2437H25.3962V36.3691C25.6354 36.3436 25.8564 36.309 26.1047 36.2666V29.3709H27.732V35.9144C28.0631 35.8288 28.3942 35.7348 28.7253 35.623V29.6284C28.7253 28.9432 28.8999 28.4299 29.6449 28.1987L28.8172 24.0283H30.4726L30.7491 28.5755H30.951L31.2275 24.0283H32.9566L32.0271 28.1979C32.8002 28.4553 32.9566 28.8915 32.9566 29.6199V33.4997C33.4389 33.1628 33.8994 32.7997 34.3356 32.4122V23.9936H39.1645L39.2556 23.377H27.953L28.1094 24.14C27.7601 23.5235 27.0789 23.2152 26.0857 23.2152H25.378C24.1827 23.2152 23.4469 23.6599 23.1704 24.5416C22.9221 23.6167 22.1589 23.1543 20.9083 23.1543H17.8184V35.5891C18.0567 35.6662 18.296 35.7433 18.5352 35.8034V23.8395L18.5443 23.831ZM33.5261 28.6095L32.7447 27.9243L33.5261 24.1824V28.6095Z" fill="#45AC45"/>
<path id="Vector_6" d="M30.4629 34.9266C30.7112 34.8071 30.9686 34.6877 31.1996 34.5582V29.4375H30.4629V34.9266Z" fill="#45AC45"/>
</g>
</g>
</g>
<path id="Vector_7" d="M57.0227 20.4185H54.4187V19.1445H57.0227C57.4763 19.1445 57.8422 19.0759 58.122 18.9395C58.4009 18.8031 58.6053 18.6158 58.7336 18.3769C58.8661 18.1333 58.9323 17.8566 58.9323 17.5445C58.9323 17.2508 58.8661 16.9757 58.7336 16.7198C58.6034 16.4574 58.3899 16.2384 58.122 16.0924C57.8422 15.9352 57.4763 15.8558 57.0227 15.8558H54.9476V23.8921H53.2227V14.5772H57.0219C57.7967 14.5772 58.4539 14.7051 58.9944 14.961C59.5398 15.213 59.9545 15.5622 60.2384 16.01C60.5224 16.4539 60.6639 16.9618 60.6639 17.5329C60.6639 18.1341 60.5224 18.6505 60.2384 19.0813C59.9545 19.5121 59.5398 19.8428 58.9944 20.0724C58.4539 20.3037 57.7967 20.4185 57.0227 20.4185ZM61.6332 20.5079V20.3607C61.6332 19.8613 61.711 19.3988 61.8666 18.9726C62.0222 18.541 62.2473 18.1688 62.5395 17.8528C62.8373 17.5328 63.2084 17.2792 63.6255 17.1106C64.0559 16.9318 64.5418 16.8416 65.0823 16.8416C65.6269 16.8416 66.1128 16.9318 66.5391 17.1113C66.9695 17.2855 67.3337 17.5329 67.6317 17.8528C67.9288 18.1688 68.1556 18.5418 68.3112 18.9726C68.4705 19.4202 68.5494 19.8892 68.5446 20.3607V20.5071C68.5446 21.0066 68.4668 21.4698 68.3112 21.896C68.165 22.307 67.9339 22.6874 67.6308 23.0158C67.3329 23.3318 66.9711 23.5785 66.5457 23.758C66.1194 23.933 65.636 24.0201 65.0955 24.0201C64.5509 24.0201 64.0625 23.933 63.6321 23.758C63.2172 23.5863 62.847 23.3331 62.547 23.0158C62.244 22.6874 62.0128 22.307 61.8666 21.896C61.7073 21.4484 61.6284 20.9794 61.6332 20.5079ZM63.2886 20.3607V20.5071C63.2886 20.8193 63.3234 21.1137 63.3921 21.3904C63.4608 21.6678 63.5684 21.9106 63.7149 22.1202C63.8614 22.3283 64.0493 22.4933 64.2777 22.6127C64.507 22.7322 64.7793 22.7915 65.0955 22.7915C65.4026 22.7915 65.6683 22.7322 65.8926 22.6127C66.1208 22.4937 66.314 22.3243 66.4555 22.1195C66.6028 21.9114 66.7104 21.6678 66.7791 21.3904C66.8539 21.1014 66.8909 20.8051 66.8892 20.5079V20.3607C66.8892 20.0539 66.8528 19.7634 66.7791 19.4905C66.7175 19.2288 66.606 18.9795 66.4497 18.7545C66.3094 18.5471 66.1156 18.3757 65.886 18.2559C65.6617 18.1325 65.3935 18.0709 65.0823 18.0709C64.7702 18.0709 64.5004 18.1325 64.2711 18.2559C64.0468 18.3753 63.8614 18.541 63.7149 18.7545C63.5626 18.9807 63.4534 19.2297 63.3921 19.4905C63.3234 19.7634 63.2886 20.0532 63.2886 20.3607ZM72.9697 22.7915C73.2395 22.7915 73.4828 22.743 73.6981 22.6451C73.9174 22.5418 74.0945 22.4016 74.227 22.222C74.3644 22.0432 74.4397 21.8366 74.4538 21.6016H76.0132C76.0077 22.0397 75.8593 22.466 75.5878 22.8239C75.3069 23.1956 74.9315 23.4966 74.4952 23.7002C74.0279 23.9164 73.5121 24.0261 72.9904 24.0201C72.4225 24.0201 71.9276 23.9307 71.5062 23.7511C71.0985 23.5774 70.7389 23.319 70.455 22.9958C70.1708 22.6678 69.9562 22.2925 69.8227 21.8898C69.6825 21.4541 69.613 21.0013 69.6165 20.5464V20.3229C69.6165 19.8451 69.6852 19.3965 69.8235 18.9788C69.9642 18.5564 70.1753 18.1849 70.455 17.8659C70.734 17.546 71.0841 17.2955 71.5062 17.1167C71.9276 16.9333 72.42 16.8416 72.9837 16.8416C73.5789 16.8416 74.1012 16.9526 74.5498 17.1745C74.9984 17.3919 75.3519 17.6971 75.6076 18.0894C75.8692 18.4778 76.0041 18.9295 76.0132 19.4458H74.4538C74.4397 19.19 74.371 18.9603 74.2477 18.7545C74.1306 18.548 73.9548 18.3755 73.7394 18.2559C73.5242 18.1325 73.2652 18.0709 72.963 18.0709C72.6286 18.0709 72.3505 18.1341 72.1312 18.262C71.9118 18.3853 71.7397 18.5564 71.6163 18.7738C71.4922 18.9873 71.4028 19.2285 71.3481 19.4967C71.2985 19.7611 71.2728 20.0362 71.2728 20.3222V20.5457C71.2728 20.8316 71.2977 21.1091 71.3481 21.378C71.3978 21.6463 71.4856 21.8875 71.6089 22.101C71.7372 22.3091 71.9118 22.4786 72.1312 22.6058C72.3513 22.7299 72.6303 22.7915 72.9697 22.7915ZM80.3215 22.7915C80.5913 22.7915 80.8347 22.743 81.0499 22.6451C81.2692 22.5418 81.4455 22.4016 81.5788 22.222C81.7162 22.0432 81.7915 21.8366 81.8056 21.6016H83.365C83.3593 22.0398 83.2106 22.4661 82.9388 22.8239C82.658 23.1954 82.2829 23.4964 81.847 23.7002C81.3797 23.9164 80.8639 24.0261 80.3422 24.0201C79.7744 24.0201 79.2794 23.9307 78.8581 23.7511C78.4503 23.5775 78.0906 23.3191 77.8069 22.9958C77.5227 22.6678 77.3081 22.2925 77.1745 21.8898C77.0343 21.4541 76.9649 21.0013 76.9684 20.5464V20.3229C76.9684 19.8451 77.0371 19.3965 77.1745 18.9788C77.3169 18.5564 77.5271 18.1849 77.8069 17.8659C78.0896 17.5431 78.4497 17.2866 78.8581 17.1167C79.2794 16.9333 79.7719 16.8416 80.3347 16.8416C80.9307 16.8416 81.453 16.9526 81.9016 17.1745C82.3387 17.3821 82.705 17.6988 82.9595 18.0894C83.221 18.4778 83.3559 18.9295 83.365 19.4458H81.8056C81.7915 19.19 81.7228 18.9603 81.5995 18.7545C81.4824 18.5478 81.3063 18.3752 81.0905 18.2559C80.8752 18.1325 80.617 18.0709 80.3141 18.0709C79.9805 18.0709 79.7032 18.1341 79.483 18.262C79.2628 18.3853 79.0915 18.5564 78.9682 18.7738C78.844 18.9873 78.7546 19.2285 78.7 19.4967C78.6495 19.7611 78.6247 20.0362 78.6247 20.3222V20.5457C78.6247 20.8316 78.6495 21.1091 78.7 21.378C78.7505 21.6463 78.8374 21.8875 78.9607 22.101C79.089 22.3091 79.2628 22.4786 79.483 22.6058C79.7032 22.7299 79.9821 22.7915 80.3215 22.7915ZM87.9134 24.0201C87.3638 24.0201 86.8671 23.9368 86.4226 23.7704C85.9981 23.6094 85.6144 23.3676 85.2961 23.0605C84.9855 22.7524 84.7448 22.3891 84.5884 21.9923C84.4204 21.5683 84.3365 21.1194 84.3409 20.6674V20.4116C84.3409 19.8705 84.4254 19.3796 84.595 18.9403C84.7494 18.5256 84.9898 18.1432 85.3027 17.815C85.6049 17.499 85.9624 17.2578 86.3746 17.0913C86.7978 16.923 87.2538 16.8383 87.7139 16.8423C88.2453 16.8423 88.7105 16.9248 89.1086 17.0913C89.5076 17.2578 89.837 17.4921 90.0986 17.795C90.3643 18.094 90.5613 18.4501 90.6896 18.864C90.822 19.2771 90.8882 19.7341 90.8882 20.2328V20.8917H85.1446V19.7842H89.2535V19.6624C89.2465 19.3941 89.1858 19.1293 89.0747 18.8817C88.9756 18.6465 88.8064 18.4425 88.5872 18.2936C88.367 18.1441 88.074 18.0701 87.7073 18.0701C87.4325 18.0701 87.1875 18.1248 86.9723 18.2358C86.7612 18.3429 86.5849 18.4979 86.4433 18.7029C86.2901 18.9317 86.1785 19.1824 86.1131 19.4451C86.0402 19.7302 86.0038 20.0524 86.0038 20.4108V20.6667C86.0038 20.9696 86.0469 21.2516 86.1338 21.5114C86.2257 21.7673 86.3581 21.9915 86.5327 22.1834C86.7066 22.3754 86.9176 22.5264 87.1643 22.6374C87.4118 22.7438 87.694 22.7977 88.0094 22.7977C88.3787 22.8039 88.7442 22.727 89.0747 22.5734C89.3859 22.4239 89.6566 22.2127 89.885 21.9399L90.7583 22.7268C90.581 22.9613 90.3705 23.1723 90.1325 23.3542C89.8759 23.5499 89.5622 23.7102 89.1914 23.8336C88.8247 23.9569 88.3993 24.0201 87.9134 24.0201ZM97.1756 16.9703V18.198H93.5477V16.9711H97.1756V16.9703ZM98.4735 16.9703V23.8921H96.818V16.9703H98.4735ZM93.1421 16.9703H94.7777L94.5782 20.3923C94.5509 20.9002 94.4954 21.348 94.4135 21.7364C94.3493 22.077 94.2432 22.4096 94.0973 22.7276C93.982 22.9763 93.8165 23.2021 93.6098 23.3927C93.4176 23.5631 93.1876 23.692 92.936 23.7704C92.6794 23.8513 92.3914 23.8921 92.0702 23.8921H91.5554L91.5479 22.6251L91.8095 22.6058C91.9783 22.5935 92.1257 22.5526 92.249 22.4848C92.3723 22.4124 92.4783 22.3098 92.5652 22.1773C92.6562 22.0455 92.7299 21.8752 92.7845 21.6655C92.8441 21.4574 92.8905 21.2093 92.9219 20.9233C92.9592 20.6382 92.9865 20.3052 93.0047 19.926L93.1421 16.9703ZM101.462 19.1707H103.654C104.296 19.1707 104.841 19.2709 105.29 19.4713C105.738 19.6717 106.079 19.9514 106.314 20.3098C106.551 20.6636 106.67 21.069 106.67 21.5253C106.67 21.8621 106.604 22.1757 106.472 22.4655C106.339 22.7507 106.142 23.0004 105.881 23.2139C105.624 23.4274 105.308 23.5939 104.932 23.7133C104.561 23.832 104.135 23.8921 103.654 23.8921H100.363V16.9703H102.026V22.6705H103.654C103.984 22.6705 104.248 22.6166 104.445 22.5102C104.642 22.4039 104.783 22.2651 104.87 22.094C104.962 21.9245 105.008 21.7426 105.008 21.5507C105.008 21.3542 104.962 21.1692 104.87 20.9942C104.778 20.8144 104.63 20.6649 104.445 20.5657C104.248 20.4547 103.984 20.3992 103.654 20.3992H101.462V19.1707ZM109.151 16.9703L110.567 19.267L112.009 16.9703H113.83L111.576 20.3669L113.92 23.8921H112.099L110.587 21.499L109.076 23.8921H107.248L109.584 20.3669L107.337 16.9703H109.151ZM114.455 20.5079V20.3607C114.455 19.8613 114.533 19.3988 114.689 18.9726C114.844 18.541 115.069 18.1688 115.362 17.8528C115.66 17.5329 116.031 17.2792 116.447 17.1106C116.878 16.9318 117.364 16.8416 117.904 16.8416C118.45 16.8416 118.935 16.9318 119.361 17.1113C119.792 17.2855 120.156 17.5329 120.454 17.8528C120.751 18.1688 120.978 18.5418 121.133 18.9726C121.293 19.4201 121.372 19.8891 121.367 20.3607V20.5071C121.372 20.9789 121.293 21.4483 121.133 21.896C120.987 22.3068 120.756 22.6872 120.454 23.0158C120.156 23.3318 119.794 23.5785 119.368 23.758C118.941 23.933 118.459 24.0201 117.918 24.0201C117.373 24.0201 116.885 23.933 116.455 23.758C116.04 23.5864 115.669 23.3332 115.369 23.0158C115.071 22.696 114.844 22.3222 114.689 21.896C114.529 21.4484 114.451 20.9794 114.455 20.5079ZM116.111 20.3607V20.5071C116.111 20.8193 116.145 21.1137 116.214 21.3904C116.283 21.6678 116.39 21.9106 116.537 22.1202C116.683 22.3283 116.871 22.4933 117.101 22.6127C117.33 22.7322 117.602 22.7915 117.918 22.7915C118.225 22.7915 118.49 22.7322 118.715 22.6127C118.944 22.4933 119.132 22.3291 119.278 22.1195C119.425 21.9114 119.532 21.6678 119.601 21.3904C119.675 21.1129 119.711 20.8193 119.711 20.5079V20.3607C119.711 20.0539 119.675 19.7634 119.601 19.4905C119.54 19.2288 119.428 18.9794 119.272 18.7545C119.132 18.547 118.938 18.3756 118.708 18.2559C118.484 18.1325 118.216 18.0709 117.904 18.0709C117.593 18.0709 117.322 18.1325 117.094 18.2559C116.869 18.3753 116.683 18.541 116.537 18.7545C116.385 18.9808 116.275 19.2297 116.214 19.4905C116.145 19.7634 116.111 20.0532 116.111 20.3607ZM125.833 20.5842H124.404V19.8042H125.558C125.851 19.8042 126.086 19.768 126.259 19.6956C126.438 19.6231 126.564 19.5229 126.637 19.395C126.715 19.2624 126.753 19.109 126.753 18.9341C126.753 18.7799 126.715 18.6358 126.637 18.4986C126.554 18.3488 126.422 18.2277 126.259 18.1533C126.081 18.0639 125.838 18.0192 125.531 18.0192C125.279 18.0192 125.053 18.0578 124.851 18.1348C124.654 18.2111 124.498 18.3175 124.384 18.4539C124.269 18.5887 124.208 18.7562 124.212 18.9279H122.556C122.556 18.4963 122.686 18.1264 122.948 17.8142C123.213 17.5029 123.568 17.2639 124.012 17.0975C124.478 16.9276 124.976 16.843 125.476 16.8485C125.929 16.8485 126.337 16.8932 126.699 16.9826C127.061 17.0674 127.368 17.1961 127.619 17.3664C127.876 17.5329 128.07 17.7418 128.204 17.9938C128.341 18.2404 128.41 18.5287 128.41 18.857C128.41 19.0921 128.35 19.3133 128.231 19.5229C128.104 19.7405 127.928 19.9302 127.716 20.0794C127.469 20.2471 127.192 20.3726 126.898 20.4501C126.552 20.5437 126.193 20.5884 125.833 20.5842ZM124.404 20.1372H125.833C126.273 20.1372 126.662 20.1773 127.001 20.2582C127.34 20.3353 127.624 20.4509 127.854 20.6035C128.082 20.7576 128.254 20.9472 128.368 21.1738C128.488 21.395 128.547 21.6509 128.547 21.9407C128.547 22.2644 128.472 22.5572 128.32 22.817C128.168 23.0784 127.952 23.3023 127.688 23.4698C127.418 23.6494 127.095 23.7858 126.72 23.879C126.314 23.9764 125.896 24.0238 125.476 24.0201C124.981 24.0201 124.5 23.943 124.033 23.7896C123.591 23.6491 123.196 23.4046 122.886 23.0798C122.588 22.7561 122.439 22.3438 122.439 21.8451H124.095C124.095 22.0201 124.152 22.1842 124.267 22.3376C124.381 22.4917 124.546 22.6166 124.761 22.7152C124.976 22.8085 125.235 22.8555 125.538 22.8555C125.85 22.8555 126.104 22.8108 126.301 22.7214C126.498 22.6274 126.644 22.5056 126.74 22.3569C126.836 22.2027 126.884 22.0409 126.884 21.8705C126.884 21.6401 126.836 21.4543 126.74 21.3141C126.636 21.1674 126.481 21.0588 126.301 21.0066C126.104 20.9387 125.856 20.904 125.558 20.904H124.404V20.1372ZM134.621 13.9375H135.961C135.961 14.3167 135.903 14.6312 135.789 14.8778C135.684 15.1152 135.513 15.3226 135.294 15.4789C135.079 15.6331 134.811 15.7564 134.49 15.8504C134.129 15.9548 133.762 16.0403 133.391 16.1063C133.006 16.1834 132.658 16.3044 132.346 16.4709C132.04 16.6327 131.781 16.8608 131.57 17.1553C131.364 17.4458 131.215 17.8181 131.124 18.2751C131.032 18.7314 131.005 19.2878 131.041 19.9445V20.38L129.729 20.4886V20.0539C129.729 19.2393 129.809 18.5287 129.969 17.9229C130.13 17.3179 130.357 16.8077 130.65 16.3946C130.948 15.9761 131.3 15.6439 131.707 15.3965C132.127 15.1463 132.593 14.9724 133.081 14.8839C133.426 14.8161 133.711 14.7475 133.941 14.6797C134.17 14.6073 134.34 14.5155 134.449 14.4046C134.564 14.2889 134.621 14.1333 134.621 13.9375ZM133.46 17.3595C133.955 17.3595 134.394 17.4412 134.779 17.6031C135.154 17.7541 135.487 17.9817 135.755 18.269C136.02 18.5541 136.222 18.8917 136.359 19.2794C136.502 19.6678 136.572 20.0902 136.572 20.5464V20.6867C136.572 21.1646 136.497 21.6062 136.345 22.0116C136.202 22.4039 135.976 22.7651 135.679 23.0736C135.378 23.3776 135.01 23.6175 134.6 23.7773C134.179 23.943 133.696 24.0262 133.151 24.0262C132.61 24.0262 132.127 23.9391 131.701 23.7642C131.288 23.5983 130.92 23.3493 130.622 23.0351C130.324 22.7108 130.097 22.3347 129.956 21.9283C129.801 21.4821 129.724 21.0155 129.729 20.5464V20.4054C129.725 20.313 129.752 20.2216 129.804 20.1433C129.864 20.0586 129.935 19.9661 130.017 19.8682C130.1 19.7695 130.173 19.657 130.237 19.5291C130.451 19.1191 130.724 18.738 131.048 18.3961C131.36 18.0724 131.715 17.8181 132.113 17.6354C132.533 17.4484 132.994 17.3535 133.46 17.3595ZM133.137 18.5819C132.725 18.5819 132.388 18.6744 132.127 18.857C131.87 19.0366 131.68 19.2755 131.557 19.5738C131.435 19.8854 131.375 20.2149 131.378 20.5464V20.6867C131.378 20.9726 131.412 21.2439 131.481 21.499C131.549 21.7549 131.653 21.9815 131.79 22.1773C131.932 22.37 132.115 22.521 132.34 22.632C132.569 22.743 132.839 22.7985 133.151 22.7985C133.466 22.7985 133.735 22.743 133.955 22.632C134.179 22.521 134.359 22.37 134.497 22.1773C134.639 21.9815 134.743 21.7557 134.806 21.499C134.875 21.2439 134.91 20.9726 134.91 20.6867V20.5464C134.91 20.2821 134.875 20.0324 134.806 19.7981C134.748 19.5741 134.643 19.363 134.497 19.1769C134.354 18.9926 134.166 18.8435 133.947 18.7422C133.723 18.635 133.453 18.5819 133.137 18.5819ZM142.062 22.5041V19.2023C142.062 18.9557 142.014 18.7422 141.917 18.5626C141.822 18.3839 141.668 18.2382 141.478 18.1464C141.286 18.0493 141.042 18 140.749 18C140.48 18 140.245 18.0424 140.048 18.1279C139.852 18.2127 139.698 18.3283 139.588 18.4732C139.479 18.6174 139.421 18.79 139.423 18.9665H137.775C137.775 18.6928 137.846 18.4285 137.987 18.1726C138.13 17.9167 138.336 17.6886 138.606 17.4882C138.876 17.2878 139.199 17.1298 139.575 17.015C139.951 16.8994 140.372 16.8416 140.839 16.8416C141.398 16.8416 141.893 16.9294 142.323 17.1036C142.758 17.2793 143.099 17.5429 143.347 17.8975C143.598 18.2474 143.724 18.6867 143.724 19.2154V22.2929C143.724 22.6089 143.747 22.8917 143.793 23.1438C143.843 23.3904 143.915 23.6062 144.007 23.7896V23.8921H142.309C142.22 23.6886 142.158 23.4759 142.123 23.2586C142.084 23.0085 142.063 22.7569 142.062 22.5041ZM142.302 19.6832L142.316 20.6358H141.128C140.855 20.6323 140.582 20.6602 140.317 20.7191C140.108 20.7604 139.91 20.8386 139.733 20.9495C139.585 21.0439 139.464 21.1713 139.382 21.3202C139.302 21.4738 139.262 21.6428 139.265 21.8135C139.265 21.9962 139.312 22.1649 139.403 22.3183C139.495 22.4678 139.627 22.585 139.802 22.6705C139.98 22.7553 140.196 22.7985 140.447 22.7985C140.786 22.7985 141.081 22.7345 141.334 22.6058C141.59 22.474 141.792 22.3145 141.938 22.1264C142.085 21.9345 142.162 21.7534 142.171 21.5823L142.708 22.2675C142.652 22.4424 142.559 22.6297 142.426 22.8301C142.293 23.0305 142.119 23.2231 141.904 23.4058C141.415 23.8124 140.78 24.0318 140.125 24.0201C139.639 24.0201 139.206 23.9307 138.826 23.7511C138.464 23.583 138.156 23.3294 137.933 23.0158C137.718 22.7045 137.61 22.353 137.61 21.9599C137.61 21.5931 137.683 21.2694 137.829 20.9873C137.981 20.7021 138.201 20.4632 138.489 20.2705C138.782 20.0794 139.14 19.9345 139.561 19.8358C139.982 19.7341 140.463 19.6825 141.004 19.6825L142.302 19.6832ZM150.533 19.8613V21.0775H146.686V19.8613H150.533ZM147.167 16.9703V23.8921H145.511V16.9703H147.167ZM151.729 16.9703V23.8921H150.073V16.9703H151.729ZM155.281 16.9703V23.8921H153.626V16.9703H155.281ZM160.132 16.9703L156.786 21.1345H154.896L154.677 19.7395H156.057L158.064 16.9703H160.132ZM158.195 23.8921L155.955 20.8725L157.26 19.9961L160.372 23.8921H158.195Z" fill="black"/>
</g>
<defs>
<clipPath id="clip0_314_883">
<rect width="162.353" height="38.5361" fill="white"/>
</clipPath>
</defs>
</svg>
