<svg xmlns="http://www.w3.org/2000/svg" width="149" height="23" viewBox="0 0 149 23" fill="none">
  <g clip-path="url(#clip0_314_848)">
    <path d="M66.5783 6.56058L69.6837 4.42297H59.2903V17.23H69.6837V15.091H62.2599V11.8211H68.6037V9.68346H62.2599V6.56058H66.5783ZM51.44 9.41208H47.8401V6.56058H53.5999L56.7039 4.42297H44.8721V17.23H51.0583C54.5223 17.23 56.5232 15.7621 56.5232 13.206C56.5232 10.7529 54.7247 9.41208 51.44 9.41208ZM50.9456 15.091H47.8416V11.5484H50.9456C52.8352 11.5484 53.7127 12.1366 53.7127 13.3304C53.7127 14.5255 52.7672 15.091 50.9456 15.091ZM78.0949 4.42297H72.4494V17.23H75.4189V13.6031H78.1181C81.7179 13.6031 83.966 11.8425 83.966 9.0137C83.966 6.18359 81.715 4.42297 78.0949 4.42297ZM78.0284 11.4655H75.3972V6.56058H78.0284C79.9397 6.56058 80.9748 7.44157 80.9748 9.0137C80.9748 10.5845 79.9397 11.4655 78.0284 11.4655ZM39.7889 14.4627C39.0029 14.8617 38.1208 15.0709 37.2242 15.0709C34.5467 15.0709 32.6123 13.2889 32.6123 10.8372C32.6123 8.38404 34.5467 6.60336 37.2242 6.60336C38.1935 6.59012 39.1411 6.86936 39.9233 7.39879L42.0601 5.93226L41.9257 5.8066C40.6881 4.7799 39.0241 4.25586 37.1345 4.25586C35.0874 4.25586 33.2209 4.90557 31.8706 6.07932C31.1977 6.68554 30.6667 7.41327 30.3108 8.21728C29.9549 9.02128 29.7817 9.88438 29.8018 10.7529C29.7885 11.6332 29.9645 12.5071 30.3197 13.3239C30.6748 14.1407 31.202 14.884 31.8706 15.5108C33.2824 16.7506 35.1647 17.4276 37.1114 17.3957C39.2482 17.3957 41.1161 16.7046 42.3753 15.4479L40.464 14.1271L39.7889 14.4627ZM119.664 4.44435V17.2513H122.634V12.0109H128.956V17.2513H131.925V4.44435H128.956V9.70485H122.635V4.44435H119.664ZM114.559 17.2513H117.685L111.882 4.44435H108.867L102.951 17.2513H105.944L107.135 14.6712H113.434L114.559 17.2513ZM108.035 12.535L110.33 7.39879L112.489 12.535H108.036H108.035ZM138.583 12.0737H140.426L144.97 17.2286H148.794L142.722 10.6059L148.029 4.42297H144.633L140.224 9.91473H138.584V4.42297H135.615V17.23H138.583V12.0724V12.0737ZM93.1435 9.43213V6.58197H100.904V4.44302H90.1755V17.25H96.3603C99.8257 17.25 101.827 15.7835 101.827 13.2261C101.827 10.7743 100.027 9.43213 96.7434 9.43213H93.1435ZM93.1435 15.1124V11.5697H96.249C98.1371 11.5697 99.0146 12.158 99.0146 13.3518C99.0146 14.5469 98.0923 15.1338 96.249 15.1338H93.145L93.1435 15.1124ZM20.5115 4.33874C21.0508 4.98845 21.5004 5.70233 21.8835 6.45631L11.4902 13.6031L7.12695 11.0457V7.98566L11.4685 10.5217L20.5115 4.33874Z" fill="#21A038"/>
    <path d="M2.69764 10.8364C2.69764 10.6894 2.69764 10.5637 2.72077 10.4167L0.0895449 10.291C0.0895449 10.4581 0.0664132 10.648 0.0664132 10.8151C0.063062 13.6342 1.26811 16.3396 3.41762 18.3388L5.28405 16.6009C4.46147 15.8464 3.80923 14.9483 3.36523 13.9587C2.92122 12.9691 2.6943 11.9078 2.69764 10.8364Z" fill="url(#paint0_linear_314_848)"/>
    <path d="M11.4707 2.66271C11.6283 2.66271 11.7627 2.66271 11.9203 2.6841L12.0562 0.23099C11.8755 0.23099 11.6731 0.210938 11.4924 0.210938C9.98995 0.211351 8.50258 0.487607 7.11651 1.02368C5.73045 1.55976 4.4733 2.34498 3.41797 3.33381L5.28441 5.07305C6.09009 4.31032 7.05251 3.70419 8.11512 3.29026C9.17773 2.87634 10.3191 2.66298 11.4721 2.66271H11.4707Z" fill="url(#paint1_linear_314_848)"/>
    <path d="M11.4703 19.0092C11.3127 19.0092 11.1782 19.0092 11.0207 18.9878L10.8848 21.4423C11.064 21.4423 11.2664 21.4623 11.4457 21.4623C12.9484 21.4621 14.436 21.1859 15.8223 20.6498C17.2087 20.1138 18.4661 19.3285 19.5216 18.3395L17.6551 16.6016C16.854 17.3694 15.8926 17.9788 14.8292 18.3928C13.7658 18.8069 12.6226 19.0171 11.4688 19.0106L11.4703 19.0092Z" fill="url(#paint2_linear_314_848)"/>
    <path d="M16.4194 4.08708L18.6459 2.55773C16.62 1.02824 14.086 0.191152 11.4707 0.1875V2.63928C13.2401 2.65027 14.9647 3.15571 16.4194 4.08708Z" fill="url(#paint3_linear_314_848)"/>
    <path d="M22.8975 10.8393C22.8975 10.1896 22.8296 9.55996 22.7168 8.93164L20.2663 10.6294V10.8393C20.268 11.9804 20.0105 13.1092 19.5104 14.1524C19.0103 15.1956 18.2788 16.1301 17.3633 16.8952L19.1415 18.72C20.3263 17.7205 21.2723 16.5033 21.9191 15.1463C22.5659 13.7892 22.8991 12.3223 22.8975 10.8393Z" fill="#21A038"/>
    <path d="M11.4712 19.0117C10.2426 19.0118 9.02802 18.771 7.90756 18.305C6.78709 17.839 5.78628 17.1586 4.97119 16.3086L3.01367 17.9636C4.07638 19.0659 5.37945 19.9477 6.83715 20.5509C8.29486 21.1542 9.87417 21.4652 11.4712 21.4635V19.0117Z" fill="url(#paint4_linear_314_848)"/>
    <path d="M5.59926 4.78183L3.82246 2.95703C2.63532 3.95507 1.68769 5.17219 1.04074 6.52983C0.393784 7.88748 0.0618808 9.35548 0.0664529 10.8391H2.69768C2.69785 9.69816 2.95608 8.5699 3.45578 7.52674C3.95548 6.48358 4.68561 5.54859 5.59926 4.78183Z" fill="url(#paint5_linear_314_848)"/>
  </g>
  <defs>
    <linearGradient id="paint0_linear_314_848" x1="3.13714" y1="18.0407" x2="0.803436" y2="10.6907" gradientUnits="userSpaceOnUse">
      <stop offset="0.144" stop-color="#F2E913"/>
      <stop offset="0.304" stop-color="#E7E518"/>
      <stop offset="0.582" stop-color="#CADB26"/>
      <stop offset="0.891" stop-color="#A3CD39"/>
    </linearGradient>
    <linearGradient id="paint1_linear_314_848" x1="4.1683" y1="3.05708" x2="10.8453" y2="0.284453" gradientUnits="userSpaceOnUse">
      <stop offset="0.059" stop-color="#0FA8E0"/>
      <stop offset="0.538" stop-color="#0099F9"/>
      <stop offset="0.923" stop-color="#0291EB"/>
    </linearGradient>
    <linearGradient id="paint2_linear_314_848" x1="10.7315" y1="19.3755" x2="18.7963" y2="17.3893" gradientUnits="userSpaceOnUse">
      <stop offset="0.123" stop-color="#A3CD39"/>
      <stop offset="0.285" stop-color="#86C339"/>
      <stop offset="0.869" stop-color="#21A038"/>
    </linearGradient>
    <linearGradient id="paint3_linear_314_848" x1="10.93" y1="1.75027" x2="17.592" y2="3.99161" gradientUnits="userSpaceOnUse">
      <stop offset="0.057" stop-color="#0291EB"/>
      <stop offset="0.79" stop-color="#0C8ACB"/>
    </linearGradient>
    <linearGradient id="paint4_linear_314_848" x1="3.68304" y1="18.3526" x2="10.7967" y2="21.2483" gradientUnits="userSpaceOnUse">
      <stop offset="0.132" stop-color="#F2E913"/>
      <stop offset="0.298" stop-color="#EBE716"/>
      <stop offset="0.531" stop-color="#D9E01F"/>
      <stop offset="0.802" stop-color="#BBD62D"/>
      <stop offset="0.983" stop-color="#A3CD39"/>
    </linearGradient>
    <linearGradient id="paint5_linear_314_848" x1="2.08325" y1="11.1345" x2="4.61328" y2="3.96128" gradientUnits="userSpaceOnUse">
      <stop offset="0.07" stop-color="#A3CD39"/>
      <stop offset="0.26" stop-color="#81C55F"/>
      <stop offset="0.922" stop-color="#0FA8E0"/>
    </linearGradient>
    <clipPath id="clip0_314_848">
      <rect width="148.91" height="22.7264" fill="white"/>
    </clipPath>
  </defs>
</svg>