<svg width="154" height="34" viewBox="0 0 154 34" fill="none" xmlns="http://www.w3.org/2000/svg">
<g id="logo-sovcom">
<g id="Clip path group">
<mask id="mask0_314_920" style="mask-type:luminance" maskUnits="userSpaceOnUse" x="0" y="7" width="153" height="20">
<g id="clip0_1710_19679">
<path id="Vector" d="M0.791016 7.34766H152.352V26.2451H0.791016V7.34766Z" fill="white"/>
</g>
</mask>
<g mask="url(#mask0_314_920)">
<g id="Group">
<path id="Vector_2" d="M30.3511 10.8477C32.4492 10.8477 34.1631 11.74 34.8838 12.4067L33.6768 13.8377C32.7344 13.0816 31.5546 12.6574 30.3304 12.6345C27.6928 12.6345 26.0484 14.3899 26.0484 16.7951C26.0484 19.2003 27.5962 20.9526 30.35 20.9526C31.6801 20.9287 32.9561 20.4385 33.9406 19.573L35.0836 21.0513C34.3617 21.783 32.5632 22.7394 30.3467 22.7394C26.4663 22.7394 24.0642 20.2145 24.0642 16.7951C24.0642 13.3768 26.5184 10.8477 30.3511 10.8477ZM42.3223 10.8477C45.913 10.8477 48.5245 13.3736 48.5245 16.7951C48.5245 20.2177 45.913 22.7394 42.3223 22.7394C38.7328 22.7394 36.1212 20.2145 36.1212 16.7951C36.1212 13.3768 38.7295 10.8477 42.3223 10.8477ZM42.3223 20.9494C44.757 20.9494 46.5664 19.1783 46.5664 16.792C46.5664 14.4056 44.7667 12.6314 42.3223 12.6314C39.8779 12.6314 38.0794 14.4025 38.0794 16.792C38.0794 19.1814 39.8877 20.9526 42.3234 20.9526L42.3223 20.9494ZM60.8844 19.1815C60.8844 20.8549 59.7751 22.4812 56.903 22.4812H50.6357V11.0933H56.534C58.9198 11.0933 60.2972 12.5232 60.2972 14.1337C60.2972 15.0429 59.8597 15.8702 58.8188 16.5358C59.876 16.8896 60.8844 17.6224 60.8844 19.1815ZM52.5678 12.8928V15.9174L56.2984 15.8985C57.6237 15.8985 58.313 15.1846 58.313 14.3384C58.313 13.5594 57.7247 12.8928 56.5502 12.8928H52.5678ZM57.0202 20.6932C58.3814 20.6932 58.9035 19.9615 58.9035 19.1657C58.9035 18.3048 58.2793 17.6067 57.0528 17.6067H52.5678V20.6932H57.0202ZM68.6105 16.6156L73.8326 22.4812H71.2471L66.9064 17.509H64.6737V22.4812H62.7416V11.0933H64.6737V15.804H66.9064L71.1505 11.0933H73.7219L68.6105 16.6156Z" fill="#003790"/>
<path id="Vector_3" d="M79.7851 10.8477C83.3757 10.8477 85.9862 13.3736 85.9862 16.7951C85.9862 20.2177 83.3757 22.7394 79.7851 22.7394C76.1945 22.7394 73.584 20.2145 73.584 16.7951C73.584 13.3768 76.189 10.8477 79.7851 10.8477ZM79.7851 20.9494C82.2197 20.9494 84.0281 19.1783 84.0281 16.792C84.0281 14.4056 82.2295 12.6314 79.784 12.6314C77.3407 12.6314 75.5421 14.4025 75.5421 16.792C75.5421 19.1814 77.3537 20.9526 79.7851 20.9526V20.9494ZM98.9995 11.0944H100.853V22.4591H98.9213V14.0329L95.0572 19.0208H93.8816L90.0175 14.0329V22.4812H88.0854V11.0933H89.9491L94.4689 16.9274L98.9995 11.0944ZM109.718 15.7537C112.304 15.7537 113.717 17.2151 113.717 19.0996C113.717 20.9841 112.304 22.4801 109.852 22.4801H103.465V11.0944H112.62V12.8938H105.4V15.7547L109.718 15.7537ZM109.767 20.6943C111.112 20.6943 111.725 19.9772 111.725 19.1153C111.725 18.2544 111.122 17.5374 109.767 17.5374H105.4V20.6943H109.767ZM124.449 22.4812L123.172 19.6392H117.623L116.347 22.4812H114.236L119.341 11.1154H121.475L126.583 22.4812H124.449ZM118.368 17.9311H122.415L120.401 13.3978L118.368 17.9311ZM136.727 11.0944H138.659V22.4591H136.727V17.6067H129.926V22.4812H127.993V11.0933H129.926V15.8282H136.727V11.0944ZM147.143 16.6156L152.349 22.4812H149.779L145.429 17.509H143.196V22.4812H141.264V11.0933H143.196V15.804H145.429L149.672 11.1059H152.244L147.143 16.6156Z" fill="#003790"/>
<path id="Vector_4" d="M0.791021 16.7918C0.789736 18.0332 1.04149 19.2628 1.53189 20.4101C2.02229 21.5574 2.74172 22.5999 3.64901 23.478C4.55631 24.3562 5.63369 25.0527 6.81953 25.5278C8.00537 26.0029 9.27641 26.2472 10.5599 26.2468H10.9507V22.651H10.5599C9.75492 22.6658 8.95493 22.5251 8.20674 22.2374C7.45856 21.9496 6.7772 21.5204 6.20249 20.975C5.62778 20.4295 5.17126 19.7787 4.85962 19.0607C4.54797 18.3426 4.38746 17.5716 4.38746 16.7928C4.38746 16.014 4.54797 15.2431 4.85962 14.525C5.17126 13.8069 5.62778 13.1561 6.20249 12.6107C6.7772 12.0652 7.45856 11.636 8.20674 11.3483C8.95493 11.0605 9.75492 10.9198 10.5599 10.9346H10.9507V7.35352H10.5599C7.97095 7.35351 5.48783 8.34756 3.65611 10.1173C1.82439 11.887 0.793897 14.2876 0.791021 16.7918Z" fill="#FC5055"/>
<path id="Vector_5" d="M12.5135 7.53516V12.4485H10.5554C9.95707 12.4358 9.36218 12.5388 8.8056 12.7514C8.24902 12.9641 7.74196 13.2821 7.31418 13.6869C6.8864 14.0917 6.54651 14.575 6.31447 15.1085C6.08242 15.6421 5.96289 16.2151 5.96289 16.7939C5.96289 17.3727 6.08242 17.9457 6.31447 18.4792C6.54651 19.0128 6.8864 19.4961 7.31418 19.9009C7.74196 20.3056 8.24902 20.6237 8.8056 20.8363C9.36218 21.049 9.95707 21.152 10.5554 21.1392H12.5135V26.0515C14.7195 25.6158 16.7022 24.4564 18.1261 22.7695C19.55 21.0825 20.3278 18.9716 20.3278 16.7939C20.3278 14.6161 19.55 12.5052 18.1261 10.8183C16.7022 9.13136 14.7195 7.97195 12.5135 7.53621V7.53516Z" fill="#003790"/>
</g>
</g>
</g>
</g>
</svg>
