<svg viewBox="0 0 153 39" fill="none" xmlns="http://www.w3.org/2000/svg">
<g id="tinkoff 2" clip-path="url(#clip0_314_857)">
<path id="Vector" d="M17.1038 33.5854C17.1038 33.5854 17.6275 33.3804 17.6748 33.2335L17.6054 33.0673C17.5562 32.9592 17.563 32.8413 17.6579 32.7768L18.2238 32.4039L19.1694 32.5766C19.1694 32.5766 18.9982 32.3732 19.0152 32.1004L18.1138 31.918L17.2631 32.412C16.8988 32.6718 16.8717 33.0962 16.992 33.348L17.1038 33.5854Z" fill="white"/>
<path id="Vector_2" d="M23.7852 35.9325C23.9545 35.9261 24.1409 35.9229 24.346 35.9229C24.346 35.9229 24.8324 34.5687 24.8593 34.5252C24.5867 34.4106 24.0206 34.1247 23.802 33.9941C23.9461 34.1991 24.2968 34.4347 24.2274 34.6155L23.7852 35.9325Z" fill="white"/>
<path id="Vector_3" d="M28.4129 27.9023H14.9706V32.7187C14.9706 34.6879 16.467 35.9211 18.6748 35.9211C20.52 35.9211 21.0062 35.9888 21.6927 36.6377C22.1654 36.189 22.5569 36.021 23.36 35.9582L23.3786 35.884L23.8023 34.6363C23.7785 34.6088 23.0855 33.8583 23.0855 33.8583C22.811 33.9455 22.5806 33.9601 22.1926 33.9601C21.7943 33.9601 21.3453 33.9164 20.859 33.8293C20.8097 33.818 20.764 33.8147 20.7183 33.8147C20.659 33.8147 20.654 33.8196 20.6386 33.847L20.554 33.9794L20.3997 34.2214L20.11 34.1586L18.8205 33.8695L18.6441 34.1472L18.6713 34.1763L18.8289 34.3409L18.7595 34.5556C18.6645 34.8364 18.3562 35.1641 18.263 35.2545L17.941 35.5838L17.6479 35.2303L17.4277 34.9672C17.1954 34.7202 17.1413 34.3409 17.2717 33.944C17.2682 33.9471 17.2632 33.9487 17.2582 33.9487L16.8939 34.0923L16.7294 33.7533L16.6142 33.513C16.4161 33.09 16.4888 32.4719 17.0227 32.0989L18.0615 31.5405L19.0493 31.7262C19.073 31.6356 19.1085 31.3129 19.1374 31.2307C19.1188 31.2291 19.1002 31.2242 19.0813 31.2242L18.5121 31.4259L17.963 31.0643C17.963 31.0643 17.7479 30.8673 17.9426 30.6706L18.4748 29.9039L17.1277 28.2929L19.1983 29.1033L19.3356 28.9403L19.6151 28.6222L19.9321 28.9096C20.0218 28.9918 20.0727 29.0935 20.0981 29.1952C20.669 29.4067 21.6909 30.0313 21.7806 31.0465L21.4605 31.1692V31.1773C21.5334 31.2597 21.5943 31.2936 21.6129 31.2968L23.0906 31.4356C23.1279 31.4291 23.1754 31.413 23.2279 31.3984C23.4108 31.3388 23.6871 31.2532 24.0141 31.2532C24.2802 31.2532 24.5376 31.3112 24.7849 31.421C24.8765 31.3888 24.9885 31.3646 25.1172 31.3565L25.1882 31.3549C25.9797 31.3549 26.3726 31.9182 26.688 32.367C26.7405 32.4443 26.793 32.5186 26.8473 32.5912C27.1234 32.9625 27.4842 33.5064 27.4996 33.5291L27.6622 33.7713L27.4622 33.9924C27.3081 34.1617 27.0777 34.3604 26.6812 34.3604C26.5998 34.3604 26.5101 34.3522 26.4135 34.3344C26.3288 34.3199 26.2525 34.2956 26.1779 34.2667C26.1661 34.3409 26.1508 34.4297 26.1355 34.5055L25.8763 35.7936C27.4267 35.4305 28.4112 34.3151 28.4112 32.7204L28.4129 27.9023Z" fill="#FFDD2D"/>
<path id="Vector_4" d="M14.9724 27.5152H25.4255C24.9037 27.002 24.9105 26.3515 25.0444 25.9286C24.8919 25.8591 24.7665 25.7752 24.6547 25.6849C24.2462 25.9721 22.9991 26.8373 22.6737 27.0535L22.6044 27.0988L18.5019 26.3919H18.4189C18.3206 26.3919 18.1767 26.3885 18.019 26.3708C17.9749 26.5468 17.8157 26.6679 17.6327 26.6679C17.6123 26.6679 17.5886 26.6662 17.5666 26.6613C17.4598 26.6436 17.3667 26.5919 17.3041 26.5064C17.2396 26.4225 17.2142 26.3224 17.2328 26.2192L17.248 26.1351C16.8244 25.8512 16.4347 25.2168 16.6076 24.5485L16.6244 24.4776L16.6838 24.4371C16.6922 24.4308 16.7633 24.3856 16.8685 24.3274L16.5702 24.2838C16.4584 24.2645 16.3839 24.1659 16.4009 24.0612C16.4195 23.9546 16.5245 23.8786 16.6347 23.8997L17.3446 24.0063L17.4091 21.6238L18.4664 20.5585L19.1256 21.8805L18.4291 24.1725L19.0561 24.2661C19.1661 24.2823 19.2425 24.3807 19.2256 24.4888C19.2086 24.5841 19.1239 24.6503 19.0239 24.6503C19.0136 24.6503 19.0018 24.6503 18.9916 24.6486L18.4816 24.5696C18.4885 24.5841 18.4985 24.592 18.5053 24.6081C18.5596 24.7148 18.68 24.7923 18.7511 24.8246L21.8791 24.8714C22.0112 24.7487 22.3401 24.442 22.6773 24.1175C21.9079 23.84 21.6282 23.2072 21.5808 22.7876C21.1505 22.6132 20.8539 22.3519 20.6895 22.0112C20.4895 21.5901 20.5608 21.1687 20.6133 20.9637C20.1964 20.8184 19.7576 20.5538 19.3102 20.1309H14.5996C14.8012 20.6472 14.9724 21.2075 14.9724 21.7643V27.5152Z" fill="#FFDD2D"/>
<g id="Group">
<path id="Vector_5" d="M19.2791 29.9907C19.2027 29.9842 19.1383 30.0406 19.1331 30.1117C19.1281 30.1858 19.1857 30.2488 19.2638 30.2504C19.3385 30.2569 19.4046 30.202 19.4114 30.1295C19.4114 30.0584 19.3572 29.9923 19.2791 29.9907Z" fill="black"/>
<path id="Vector_6" d="M28.3984 38.7232L27.624 38.4406L27.8375 37.6788L28.073 36.8477C28.073 36.8477 26.7005 37.5562 24.7671 38.089C24.2181 38.2391 23.803 38.3067 23.803 38.3067V38.8716C23.803 38.8716 22.7693 39.0428 21.7238 39.0428H21.7119H21.6967H21.6763H21.6645C20.619 39.0428 19.5853 38.8716 19.5853 38.8716V38.3067C19.5853 38.3067 19.1685 38.2391 18.6213 38.089C16.6878 37.5562 15.3169 36.8477 15.3169 36.8477L15.5491 37.6788L15.7677 38.4406L14.9916 38.7232L14.1309 39.0298C15.1187 39.4834 16.486 40.1453 17.7385 40.4713L17.4436 41.2396C17.4436 41.2396 19.0313 41.9288 21.6763 41.9353V41.9368H21.6849H21.6967H21.707H21.7136V41.9353C24.3622 41.9288 25.9481 41.2396 25.9481 41.2396L25.6515 40.4713C26.9038 40.1453 28.2747 39.4834 29.2575 39.0298L28.3984 38.7232ZM15.0492 39.0815L16.3235 38.6781L15.9473 37.5078C16.5082 37.8113 17.7672 38.2664 18.4958 38.4779L17.8808 40.0871C16.7555 39.7918 15.8184 39.4479 15.0492 39.0815ZM21.6967 41.5317C20.2174 41.5317 18.528 41.2073 18.0316 41.0394L18.7872 39.0912C19.4142 39.2656 20.719 39.4511 21.6662 39.4446H21.6679H21.6967H21.7221H21.7256C22.6728 39.4511 23.9741 39.2656 24.6045 39.0912L25.3584 41.0394C24.8621 41.2089 23.1743 41.5317 21.6967 41.5317ZM25.5093 40.0871L24.896 38.4779C25.6261 38.2664 26.8817 37.8113 27.4444 37.5078L27.0699 38.6781L28.3425 39.0815C27.5714 39.4479 26.6395 39.7918 25.5093 40.0871Z" fill="black"/>
<path id="Vector_7" d="M21.6949 8.31538C23.2708 8.31538 24.5313 8.81259 25.2278 9.34364C25.2278 9.34364 25.4346 8.15723 26.1412 7.10976L24.8721 7.2469L24.2078 5.90241L22.9318 6.52869L21.6949 5.36328L20.4613 6.52869L19.1838 5.90241L18.5212 7.2469L17.252 7.10976C17.9585 8.15723 18.1653 9.34364 18.1653 9.34364C18.8634 8.81259 20.1207 8.31538 21.6949 8.31538ZM18.4634 7.71819L18.8159 7.75375L18.9684 7.44868L19.4124 6.54482L20.2359 6.94988L20.5545 7.10487L20.8087 6.86603L21.6966 6.02671L22.5862 6.86603L22.8404 7.10487L23.159 6.94988L23.9774 6.54482L24.4264 7.44868L24.5756 7.75375L24.928 7.71819L25.2635 7.67945C25.1092 8.01042 24.9957 8.32345 24.9143 8.58341C24.0264 8.11211 22.8708 7.84408 21.6932 7.84408C20.5207 7.84408 19.3667 8.11211 18.4753 8.58341C18.3924 8.32345 18.2805 8.00872 18.1262 7.67945L18.4634 7.71819Z" fill="black"/>
<path id="Vector_8" d="M40.1821 24.0567C42.2205 24.0567 42.9017 22.0811 42.9305 21.9972L43.1575 21.3014L42.3933 21.324H42.39C42.1205 21.324 39.8719 21.2675 38.2774 19.3371L38.1266 19.158C37.0845 17.8957 36.0967 16.6965 34.331 16.1493C34.3818 16.1058 34.4547 16.0509 34.5547 15.9895C35.4916 15.402 36.0373 14.6885 36.1746 13.8606C36.3745 12.6145 35.5409 11.6218 35.5036 11.5815L34.9359 10.9133L34.5818 11.7058C34.5581 11.7558 33.9616 13.0245 32.7077 13.0245H32.6145C32.528 13.0196 32.4466 13.0164 32.3653 13.0099C32.4096 12.4434 32.3009 11.5669 31.4673 10.7453C30.4658 9.75593 29.2356 9.60742 28.5919 9.60742C28.2478 9.60742 28.019 9.64776 27.9953 9.65105L27.138 9.8124L27.6666 10.4758C28.0819 10.9875 28.4579 11.9318 28.0121 12.4257C27.8699 12.5822 27.5768 12.7097 27.2955 12.8372C26.7178 13.0906 25.9297 13.4424 25.9297 14.3399C25.9297 14.921 26.4026 15.5279 27.2599 16.0444C29.7983 17.5648 31.3639 19.1515 32.0401 20.9028C33.0856 23.5967 31.7215 25.1333 30.3963 25.9419L29.8016 26.3067L30.3218 26.7618C30.3913 26.82 31.0285 27.3542 31.9689 27.4317C32.1467 27.443 32.3179 27.4527 32.4773 27.4527C33.0804 27.4527 33.5939 27.3624 34.0107 27.2412C33.8954 27.4333 33.7548 27.6286 33.5769 27.8255C32.8196 28.6615 31.8876 29.0425 30.5472 29.0619L30.049 29.07L30.01 29.5461C30.0049 29.6413 29.9677 30.5242 30.8453 31.2749C30.9793 31.3909 31.142 31.4863 31.3114 31.5654C30.7167 32.0754 30.1117 32.9631 29.9948 34.4853C29.8966 35.7555 29.578 36.2252 29.5746 36.23L29.024 37.0306L30.0186 37.0436C31.6623 37.0436 32.9211 36.611 33.7938 35.7555C34.309 35.2486 34.6038 34.6772 34.7784 34.1705C35.0648 34.4029 35.4342 34.6062 35.9153 34.7143C36.0983 34.7548 36.2983 34.7773 36.5135 34.7773C36.9779 34.7773 37.3658 34.6837 37.4099 34.6741L38.0452 34.5126L37.764 33.9477C37.7437 33.9025 37.2133 32.7694 37.7843 31.1521C38.03 30.4532 38.1554 29.827 38.2163 29.3395C38.6163 29.538 39.1519 29.7027 39.8449 29.7043C41.4172 29.7043 42.1103 28.5858 42.1425 28.5389L42.4527 28.0257L41.8783 27.7997C40.004 27.0589 39.589 25.0686 39.5059 23.9905C39.6754 24.0212 39.8686 24.0502 40.0871 24.0567H40.1821ZM41.668 28.2758C41.668 28.2758 41.119 29.1846 39.8601 29.1846H39.8449C38.3333 29.1764 37.7233 28.2984 37.7233 28.2984C37.7233 28.2984 37.8114 29.4413 37.2658 30.9826C36.61 32.8405 37.2708 34.1689 37.2708 34.1689C37.2708 34.1689 36.9184 34.2592 36.5118 34.2592C36.3559 34.2592 36.1932 34.2447 36.0407 34.2059C34.7783 33.9202 34.4632 32.8259 34.4632 32.8259C34.4632 32.8259 34.5801 36.5238 30.0541 36.5238H30.0186C30.0186 36.5238 30.4167 36.0072 30.5353 34.5207C30.7505 31.7768 32.7009 31.4007 32.7009 31.4007C32.7009 31.4007 31.6604 31.2764 31.2097 30.8907C30.5048 30.2822 30.554 29.5784 30.554 29.5784C32.1467 29.5575 33.1888 29.041 33.9836 28.1645C34.8444 27.2154 34.9867 26.1938 34.9867 26.1938C34.9867 26.1938 34.1309 26.9329 32.4756 26.9329C32.3299 26.9329 32.1739 26.9264 32.0146 26.912C31.2318 26.8522 30.6896 26.3776 30.6896 26.3776C32.4127 25.3252 33.6227 23.4885 32.5501 20.7219C31.691 18.5058 29.6271 16.8498 27.5497 15.6022C26.8583 15.1905 26.4737 14.7338 26.4737 14.3399C26.4737 13.4135 27.8564 13.3844 28.4241 12.7613C29.078 12.0382 28.6679 10.8649 28.1003 10.1595C28.1003 10.1595 28.2918 10.1223 28.5934 10.1223C29.1915 10.1223 30.227 10.266 31.0775 11.1053C32.2078 12.219 31.7384 13.4312 31.7384 13.4312L32.0417 13.4877C32.223 13.5248 32.4027 13.5313 32.5891 13.5394C32.6297 13.5394 32.6704 13.541 32.7111 13.541C34.3531 13.541 35.0867 11.9059 35.0867 11.9059C35.0867 11.9059 36.8321 13.951 34.2632 15.5521C33.8209 15.8265 33.626 16.0798 33.6769 16.351L33.7176 16.5287L33.9005 16.5593C35.7628 17.0402 36.705 18.2638 37.8555 19.655C39.6025 21.7711 42.0748 21.8389 42.3798 21.8389H42.412C42.412 21.8389 41.8477 23.5352 40.1854 23.5352C40.1583 23.5352 40.1346 23.5352 40.1058 23.5338C39.3416 23.5078 38.9501 23.2286 38.9501 23.2286C38.9501 23.2286 38.6502 27.0814 41.668 28.2758Z" fill="black"/>
<path id="Vector_9" d="M36.5993 16.3612C37.36 16.7468 37.8024 17.2634 38.1904 17.7217C38.5716 18.1688 38.9343 18.5998 39.5001 18.779C39.7018 18.8452 39.9153 18.8759 40.1322 18.8759C40.9828 18.8759 41.837 18.3802 42.1605 17.6943L42.4859 17.0067L41.698 16.9615C41.6606 16.9599 40.6474 16.8727 39.5189 15.7736C39.0545 15.3233 38.4937 15.0859 37.8887 15.0859C37.15 15.0859 36.6026 15.4378 36.5417 15.4734L35.8164 15.9593L36.5993 16.3612ZM37.8904 15.6058C38.27 15.6058 38.7123 15.7284 39.1309 16.14C40.444 17.4103 41.6657 17.4813 41.6657 17.4813C41.4438 17.9493 40.7999 18.361 40.1339 18.361C39.9798 18.361 39.8255 18.3383 39.6714 18.2883C38.7682 17.9978 38.4445 16.7066 36.8567 15.9027C36.8567 15.9027 37.3009 15.6058 37.8904 15.6058Z" fill="black"/>
<path id="Vector_10" d="M36.9568 23.2208V23.2467C36.4994 19.7312 33.8187 17.1923 30.8364 15.6476C30.5602 15.5071 30.3061 15.3877 30.0586 15.2731C30.9669 15.4071 32.4292 15.4232 33.5576 14.4902C33.5576 14.4902 31.831 15.7008 28.293 14.6017C29.2724 15.2069 31.1753 16.0608 32.9121 17.444C37.2552 21.0789 34.1473 24.6249 34.1473 24.6249C35.708 23.074 35.7724 21.4115 35.3132 20.0541C36.1351 21.3566 36.6603 22.9383 36.5789 24.8882C36.4587 27.682 34.8472 30.0984 33.151 32.0401C32.336 32.9827 32.1531 34.14 32.1531 34.14C32.1531 34.14 32.4817 33.1183 33.4255 32.0674C35.2437 30.0403 36.7975 27.9339 37.0009 24.8994C37.189 25.4498 37.9634 26.9816 39.1919 27.5578C39.1952 27.5594 37.6515 26.6734 36.9568 23.2208Z" fill="black"/>
<path id="Vector_11" d="M13.8126 36.228C13.8109 36.2232 13.4957 35.7534 13.3941 34.4832C13.2755 32.9611 12.6722 32.0733 12.0758 31.5633C12.2486 31.4858 12.4078 31.3906 12.5418 31.2729C13.4178 30.5221 13.3805 29.6394 13.3754 29.5442L13.3416 29.068L12.8399 29.0599C11.503 29.0389 10.5693 28.6579 9.8119 27.8234C9.63568 27.6266 9.49338 27.4313 9.37814 27.2392C9.7949 27.3602 10.3049 27.4507 10.9099 27.4507C11.0726 27.4507 11.2404 27.4409 11.4183 27.4296C12.3587 27.3522 12.9958 26.8195 13.0669 26.7598L13.5872 26.3047L12.9924 25.9398C11.6623 25.1296 10.3033 23.593 11.3471 20.9008C12.0232 19.1494 13.5872 17.5628 16.1289 16.0423C16.9863 15.5258 17.4557 14.919 17.4557 14.3379C17.4557 13.4405 16.6695 13.087 16.0916 12.8352C15.8103 12.7077 15.5172 12.5802 15.375 12.4236C14.9275 11.9313 15.3054 10.9855 15.7189 10.4738L16.2509 9.81044L15.3901 9.64899C15.3647 9.6458 15.1393 9.60547 14.7937 9.60547C14.1497 9.60547 12.923 9.75397 11.9198 10.7434C11.0844 11.5666 10.9744 12.443 11.0167 13.0079C10.9354 13.0144 10.854 13.0176 10.7693 13.0224H10.6778C9.42053 13.0224 8.82579 11.7538 8.80209 11.7037L8.44781 10.9112L7.8751 11.5794C7.84294 11.6199 7.0059 12.6141 7.20921 13.8585C7.34475 14.6865 7.89035 15.3999 8.82738 15.9875C8.92906 16.0488 9.00024 16.1037 9.05108 16.1473C7.28717 16.6944 6.30095 17.8953 5.25881 19.1575L5.10799 19.3367C3.51525 21.2671 1.26154 21.3237 0.992127 21.3237L0.224609 21.3011L0.458373 21.9966C0.485502 22.0806 1.16498 24.0563 3.20509 24.0563L3.30342 24.0531C3.51858 24.0466 3.71182 24.0192 3.88467 23.9869C3.79986 25.0634 3.3847 27.0536 1.50893 27.7961L0.936195 28.0221L1.24638 28.5354C1.27683 28.5821 1.97159 29.7007 3.54737 29.7007C4.23538 29.699 4.77079 29.5344 5.17244 29.3359C5.23345 29.8233 5.3588 30.4496 5.60452 31.1485C6.1756 32.7658 5.64351 33.8989 5.62313 33.9441L5.34187 34.509L5.97904 34.6704C6.02135 34.6801 6.4128 34.7736 6.87535 34.7736C7.09227 34.7736 7.29227 34.7511 7.47191 34.7108C7.95484 34.6026 8.32753 34.3993 8.61046 34.1668C8.78333 34.6735 9.07989 35.245 9.59339 35.7518C10.4676 36.6072 11.7249 37.0398 13.3686 37.0398L14.365 37.027L13.8126 36.228ZM13.3313 36.5234C8.80535 36.5234 8.92068 32.8255 8.92068 32.8255C8.92068 32.8255 8.60551 33.9198 7.34309 34.2056C7.19227 34.2442 7.03127 34.2589 6.87368 34.2589C6.46706 34.2589 6.11625 34.1684 6.11625 34.1684C6.11625 34.1684 6.77369 32.8401 6.11791 30.9823C5.57574 29.4407 5.66388 28.2981 5.66388 28.2981C5.66388 28.2981 5.05551 29.1761 3.54239 29.1842H3.5271C2.26814 29.1842 1.71911 28.2755 1.71911 28.2755C4.73525 27.0827 4.43869 23.2315 4.43869 23.2315C4.43869 23.2315 4.04735 23.5091 3.28138 23.5365C3.25426 23.5382 3.22889 23.5382 3.20176 23.5382C1.53772 23.5382 0.975183 21.8418 0.975183 21.8418H1.00906C1.31581 21.8418 3.78468 21.774 5.53166 19.6579C6.68222 18.2666 7.62602 17.0446 9.48485 16.5622L9.6712 16.5315L9.71199 16.3539C9.76282 16.0827 9.5696 15.8293 9.12738 15.5549C6.55852 13.9521 8.30384 11.9087 8.30384 11.9087C8.30384 11.9087 9.03416 13.5422 10.6795 13.5422C10.7201 13.5422 10.7575 13.5405 10.7998 13.5405C10.9844 13.5308 11.1675 13.5244 11.3471 13.4873L11.6504 13.4308C11.6504 13.4308 11.181 12.2186 12.3129 11.1049C13.1637 10.264 14.1989 10.122 14.7954 10.122C15.0986 10.122 15.2868 10.159 15.2868 10.159C14.7209 10.866 14.3108 12.0379 14.9647 12.761C15.5308 13.3824 16.9117 13.413 16.9117 14.3395C16.9117 14.7317 16.5272 15.1902 15.8358 15.6017C13.7566 16.8494 11.6928 18.5054 10.8354 20.7216C9.7645 23.4881 10.9726 25.3233 12.6993 26.3773C12.6993 26.3773 12.1571 26.8518 11.3726 26.9115C11.2133 26.9261 11.0591 26.9325 10.9099 26.9325C9.25611 26.9325 8.40041 26.1932 8.40041 26.1932C8.40041 26.1932 8.5427 27.215 9.39849 28.1641C10.1983 29.0404 11.2404 29.557 12.8333 29.578C12.8333 29.578 12.884 30.2818 12.1791 30.8902C11.7268 31.2743 10.6862 31.4003 10.6862 31.4003C10.6862 31.4003 12.6383 31.7764 12.8519 34.5202C12.9687 36.0068 13.3636 36.5234 13.3636 36.5234H13.3313Z" fill="black"/>
<path id="Vector_12" d="M3.25067 18.88C3.46927 18.88 3.68275 18.8493 3.8843 18.7831C4.4537 18.6039 4.8146 18.173 5.19586 17.7259C5.58566 17.2674 6.02451 16.7511 6.78526 16.3652L7.56819 15.965L6.84119 15.4791C6.78017 15.442 6.23457 15.0918 5.4975 15.0918C4.8909 15.0918 4.32835 15.3274 3.8657 15.7793C2.73718 16.8769 1.72559 16.9656 1.68827 16.9673L0.900391 17.0108L1.22407 17.7C1.5493 18.3828 2.40165 18.88 3.25067 18.88ZM4.25373 16.1441C4.67396 15.7325 5.11625 15.6099 5.4975 15.6099C6.08376 15.6099 6.5277 15.9068 6.5277 15.9068C4.94173 16.7123 4.61638 18.002 3.70979 18.2925C3.56072 18.3425 3.40482 18.3651 3.25067 18.3651C2.58469 18.3651 1.94076 17.9551 1.72051 17.4854C1.72051 17.4838 2.94049 17.4127 4.25373 16.1441Z" fill="black"/>
<path id="Vector_13" d="M6.80797 24.89C6.72326 22.9402 7.2486 21.3585 8.07204 20.0559C7.61282 21.4134 7.67555 23.0758 9.23789 24.627C9.23789 24.627 6.13015 21.0809 10.4748 17.446C12.2134 16.0627 14.1146 15.2088 15.0924 14.6035C11.5559 15.7027 9.82919 14.4922 9.82919 14.4922C10.9577 15.4252 12.4201 15.409 13.3284 15.2735C13.0827 15.388 12.825 15.5074 12.5522 15.6479C9.56662 17.1925 6.8876 19.7315 6.42837 23.247V23.2195C5.73538 26.6721 4.19336 27.5582 4.19336 27.5582C5.42021 26.9818 6.19294 25.4517 6.38097 24.8998C6.58606 27.9343 8.1398 30.0406 9.958 32.0679C10.9018 33.1186 11.234 34.1404 11.234 34.1404C11.234 34.1404 11.0493 32.983 10.2309 32.0404C8.53805 30.1019 6.92657 27.684 6.80797 24.89Z" fill="black"/>
<path id="Vector_14" d="M20.6719 17.7773V18.4746C20.9244 18.1825 21.4125 18.2423 21.4125 18.2423V19.2479C21.4125 19.2479 21.3955 19.7417 21.2108 19.9563H21.7395H22.2664C22.0852 19.7434 22.0664 19.2479 22.0664 19.2479V18.2423C22.0664 18.2423 22.5544 18.1825 22.8053 18.4746V17.7773H21.7395H20.6719Z" fill="black"/>
<path id="Vector_15" d="M20.2178 13.6417C20.555 13.8969 20.7498 13.9388 20.7566 13.9437L20.8888 14.0017V13.3448L19.6484 12.8477C19.6484 12.8493 19.6602 13.2285 20.2178 13.6417Z" fill="black"/>
<path id="Vector_16" d="M23.1694 13.6417C23.7302 13.2285 23.7403 12.8477 23.7403 12.8477L22.5 13.3448V14.0017L22.6304 13.9437C22.6389 13.9388 22.8322 13.8969 23.1694 13.6417Z" fill="black"/>
<path id="Vector_17" d="M25.4024 10.9678C25.4024 9.97197 23.6419 9.07617 21.6984 9.07617H21.6966H21.6916H21.6866C19.7429 9.07617 17.9824 9.97197 17.9824 10.9678L18.0214 11.2132L18.7973 15.4566L18.018 15.8875L16.0015 17.0093H16.0083C16.0083 17.0093 15.5543 17.2305 15.344 17.3676C14.5765 17.8762 14.4138 18.6169 14.8594 18.9236C14.9696 18.3199 15.4711 17.6872 16.4098 17.6872C17.086 17.6872 17.6011 18.0197 18.018 18.5185C18.1247 18.6444 18.2265 18.7784 18.3213 18.9236C18.4381 19.106 18.5551 19.2659 18.6721 19.4209H13.4785C13.8598 20.152 14.2224 20.9268 14.2224 21.7677V32.7175C14.2224 35.3678 16.3625 36.6332 18.6771 36.6332C20.4664 36.6332 20.7071 36.5558 21.6951 37.4919C22.6778 36.5542 22.9185 36.6332 24.7095 36.6332C27.0258 36.6332 29.1626 35.3678 29.1626 32.7175V21.7677C29.1626 20.9268 29.5253 20.152 29.9082 19.4209H24.7129C24.8281 19.2674 24.945 19.106 25.0619 18.9236C25.1585 18.7784 25.2585 18.6444 25.3635 18.5185C25.7837 18.0182 26.2972 17.6872 26.9733 17.6872C27.912 17.6872 28.4119 18.3184 28.5237 18.9236C28.9695 18.6169 28.8084 17.8762 28.0357 17.3676C27.829 17.2305 27.3748 17.0093 27.3748 17.0093H27.3816L25.3653 15.8875L24.5891 15.4566L25.3653 11.2132L25.4024 10.9678ZM18.7466 11.4618L21.4747 12.343V16.425L19.4668 15.4163L18.7466 11.4618ZM19.3109 20.1326C19.7583 20.557 20.1971 20.8202 20.6139 20.9654C20.5597 21.1704 20.4886 21.5933 20.6902 22.0146C20.8545 22.3535 21.1528 22.615 21.5814 22.7894C21.6289 23.2091 21.9068 23.8401 22.6778 24.1194C22.3406 24.4438 22.0118 24.7488 21.878 24.8731L18.7516 24.8263C18.6805 24.7923 18.5601 24.7166 18.5061 24.6084C18.4992 24.5938 18.489 24.5858 18.484 24.5696L18.9939 24.6488C19.0059 24.6503 19.0159 24.6503 19.0262 24.6503C19.1245 24.6503 19.2109 24.5858 19.2279 24.489C19.2448 24.3808 19.1686 24.2823 19.0584 24.2662L18.4315 24.1726L19.1279 21.8821L18.4687 20.5603L17.4114 21.6256L17.3469 24.0079L16.637 23.9014C16.5268 23.8805 16.4218 23.958 16.4032 24.0628C16.3862 24.1678 16.4607 24.2662 16.5725 24.2856L16.8708 24.3292C16.7641 24.3873 16.6946 24.4325 16.6861 24.4389L16.625 24.4792L16.6081 24.5504C16.4353 25.2186 16.8267 25.8529 17.2488 26.137L17.2335 26.2208C17.2165 26.3242 17.2403 26.4242 17.3046 26.5081C17.3656 26.5938 17.4605 26.6454 17.5655 26.6631C17.5876 26.6664 17.6112 26.6679 17.6317 26.6679C17.8146 26.6679 17.9739 26.5469 18.0197 26.3711C18.1772 26.3887 18.3213 26.3919 18.4195 26.3919H18.5026L22.6049 27.0972L22.6744 27.0538C23.0014 26.8358 24.2469 25.9708 24.6552 25.6849C24.767 25.777 24.8924 25.861 25.0449 25.9303C24.9127 26.3531 24.9043 27.0037 25.428 27.517H14.973V21.7693C14.973 21.2124 14.8019 20.6523 14.6003 20.1358H19.3109V20.1326ZM24.3807 25.3913C23.9656 25.6818 22.8981 26.4242 22.5117 26.6825L18.7839 26.045C18.7924 26.0127 18.8008 25.982 18.8094 25.9497C18.8584 25.7656 18.9076 25.5139 18.911 25.2186L22.0441 25.267L22.1034 25.2087C22.1509 25.1637 23.1439 24.25 23.6504 23.7239C23.7708 23.8674 23.9215 24.0047 24.118 24.1258C24.0503 24.4744 24.0791 24.9715 24.3807 25.3913ZM18.14 24.7762C18.2281 24.9522 18.3873 25.07 18.4976 25.1362C18.494 25.3007 18.4772 25.5575 18.4315 25.7834C18.4212 25.8335 18.4077 25.8802 18.3924 25.9271C18.384 25.9562 18.3755 25.9804 18.3687 25.9997C18.2043 25.9997 17.8807 25.9804 17.6164 25.8884C17.3233 25.7851 16.8861 25.2734 16.9877 24.7102C17.1149 24.6358 17.408 24.4792 17.6825 24.4792C17.8943 24.4776 18.0383 24.5729 18.14 24.7762ZM17.752 24.0677L17.8146 21.7805L18.3535 21.2366L18.6924 21.9113L18.0247 24.1064L17.752 24.0677ZM24.3469 35.9247C24.1435 35.9247 23.9554 35.9279 23.786 35.9344L24.2299 34.6189C24.2994 34.4364 23.9487 34.2025 23.8046 33.9975C24.0232 34.1283 24.5891 34.4139 24.862 34.5286C24.8332 34.5705 24.3469 35.9247 24.3469 35.9247ZM25.7396 34.4301L25.4499 35.8699C25.2653 35.8941 25.0688 35.9068 24.867 35.915L25.172 34.5301C25.2635 34.1185 24.1029 33.991 23.5302 33.1823C23.2505 33.4826 22.7235 33.5714 22.1949 33.5714C21.7119 33.5714 21.229 33.4971 20.9358 33.4422C20.8613 33.431 20.7901 33.4229 20.7207 33.4229C20.5512 33.4229 20.397 33.4729 20.2903 33.644L20.2055 33.7796L18.6247 33.4245L18.2315 34.0443C18.1756 34.1444 18.1722 34.23 18.262 34.3235L18.3687 34.435C18.2958 34.6544 17.9672 34.9853 17.9672 34.9853L17.7317 34.706C17.5452 34.5075 17.5757 34.146 17.7707 33.8102L18.3976 32.8014L19.7363 32.9854L19.5277 32.5335C19.2482 31.9363 19.6735 31.176 19.7192 30.7387C19.704 30.871 19.5769 30.9 19.4277 30.9C19.2923 30.9 19.1414 30.8758 19.0414 30.8758C19.0025 30.8758 18.9686 30.8791 18.95 30.892L18.5873 31.1019L18.301 30.8613C18.267 30.8145 18.2552 30.7064 18.3399 30.6257L19.0025 29.9187L18.2197 29.0487L19.3159 29.5733L19.6497 29.1876C19.7413 29.2731 19.7024 29.4974 19.7024 29.4974C20.0446 29.5055 21.0036 30.0108 21.0545 31.1891C21.0579 31.2245 21.0579 31.2649 21.0579 31.3035C21.0579 31.3035 21.0665 31.3181 21.0833 31.3422C21.1511 31.4311 21.3374 31.6587 21.5746 31.6797L23.0896 31.8218H23.0963C23.2625 31.8218 23.5929 31.6361 24.0164 31.6361C24.2469 31.6361 24.5044 31.6926 24.7789 31.8572C24.7789 31.8572 24.9161 31.7539 25.1399 31.7425C25.1567 31.741 25.1756 31.741 25.1924 31.741C25.8719 31.741 26.1532 32.3254 26.5175 32.8112C26.792 33.1808 27.158 33.7295 27.158 33.7295C27.0224 33.8828 26.8969 33.9668 26.6869 33.9668C26.6294 33.9668 26.5633 33.962 26.492 33.9491C25.7634 33.8215 25.6585 32.3948 25.2433 32.2817C25.2213 32.2753 25.1975 32.2736 25.1772 32.2736C25.0433 32.2736 24.9841 32.3867 24.9841 32.3867C25.1737 32.8724 25.0636 33.0694 25.267 33.4439C25.4194 33.7215 25.6905 33.9506 25.8025 34.0588C25.8025 34.062 25.7719 34.2719 25.7396 34.4301ZM17.6046 33.0677L17.6739 33.2341C17.6282 33.3793 17.1031 33.5859 17.1031 33.5859L16.9894 33.3502C16.8691 33.0984 16.8945 32.6739 17.2606 32.414L18.1111 31.9202L19.0126 32.1025C18.9957 32.3752 19.1668 32.5788 19.1668 32.5788L18.2213 32.4061L17.6553 32.7789C17.5605 32.8418 17.5537 32.9597 17.6046 33.0677ZM25.8821 35.7907L26.1414 34.5027C26.1548 34.4268 26.1718 34.3381 26.1836 34.2637C26.2565 34.2929 26.3345 34.3171 26.4192 34.3317C26.5158 34.3494 26.6055 34.3574 26.6869 34.3574C27.0835 34.3574 27.3139 34.1589 27.4681 33.9894L27.6681 33.7683L27.5054 33.5263C27.4902 33.5019 27.1309 32.9597 26.853 32.5884C26.7987 32.5158 26.7462 32.4432 26.6937 32.364C26.3786 31.9152 25.9837 31.3521 25.1924 31.3521L25.1213 31.3537C24.9908 31.3617 24.8789 31.3858 24.7891 31.4181C24.54 31.3068 24.2841 31.2503 24.018 31.2503C23.6911 31.2503 23.4149 31.336 23.2318 31.3956C23.1793 31.4102 23.1319 31.4263 23.0946 31.4328L21.6153 31.2938C21.5967 31.2907 21.5357 31.2569 21.4628 31.1729V31.1664L21.783 31.0437C21.6933 30.0285 20.6698 29.4039 20.0988 29.1924C20.0735 29.0906 20.0226 28.9889 19.9328 28.9068L19.6142 28.6194L19.3345 28.939L19.1973 29.1021L17.1267 28.2916L18.4738 29.9026L17.9418 30.6693C17.7468 30.8662 17.9621 31.0631 17.9621 31.0631L18.511 31.423L19.0805 31.2213C19.1007 31.2213 19.1177 31.2261 19.1363 31.2277C19.1093 31.31 19.0737 31.6328 19.0498 31.7233L18.062 31.5376L17.0233 32.0961C16.4895 32.4689 16.4166 33.0872 16.615 33.5101L16.7302 33.7505L16.8945 34.0895L17.2571 33.9458C17.2622 33.9441 17.2674 33.9426 17.2707 33.9394C17.1403 34.3365 17.1928 34.7141 17.4266 34.9627L17.6468 35.2274L17.94 35.581L18.262 35.2516C18.3569 35.1612 18.6636 34.8336 18.7585 34.5528L18.828 34.3379L18.6704 34.1734L18.6449 34.1444L18.8212 33.8667L20.1107 34.1556L20.4004 34.2186L20.5546 33.9764L20.6393 33.8441C20.6546 33.8167 20.6597 33.8118 20.719 33.8118C20.7647 33.8118 20.8104 33.8167 20.8597 33.8264C21.3459 33.9136 21.7949 33.9571 22.1931 33.9571C22.5795 33.9571 22.8099 33.9426 23.0861 33.8555C23.0861 33.8555 23.7792 34.6043 23.8029 34.6335L23.3793 35.8795L23.3607 35.9554C22.5574 36.0167 22.1661 36.1845 21.6933 36.6349C21.007 35.986 20.5207 35.9183 18.6755 35.9183C16.4675 35.9183 14.9714 34.6851 14.9714 32.7159V27.9012H28.4119L28.4153 32.7159C28.4169 34.3138 27.4325 35.4275 25.8821 35.7907ZM28.7881 20.1326C28.5832 20.6491 28.4119 21.2092 28.4119 21.766L28.4137 25.359C27.6256 25.2331 27.5325 24.4243 27.5291 24.3889L27.5138 24.2243L27.3444 24.2097C27.0021 24.1791 26.7751 24.0401 26.5836 23.8627C26.1972 23.4947 26.1954 22.8975 26.1972 22.8926C26.1922 22.9233 25.7719 23.4833 26.26 24.095C26.4649 24.3534 26.7615 24.5116 27.1462 24.5746C27.2359 25.0233 27.5867 25.6559 28.4137 25.7528V27.5121H26.0888C25.0161 26.9441 25.4703 25.9432 25.4923 25.9013L25.5839 25.7108L25.3788 25.6365C24.218 25.2266 24.5366 24.1225 24.5536 24.0758L24.6009 23.9143L24.4434 23.8434C23.4843 23.4204 23.6149 22.2793 23.6268 22.2326C23.3318 22.46 23.225 22.9249 23.4284 23.3801C23.3182 23.4995 23.171 23.6448 23.0099 23.8029C22.017 23.5625 21.9866 22.6926 21.9866 22.6522L21.9847 22.5182L21.8543 22.4698C21.4662 22.3325 21.2001 22.1275 21.0697 21.8515C20.9224 21.5466 20.9747 21.227 21.0156 21.0736C21.129 21.0978 21.2426 21.1156 21.351 21.1237C21.4628 21.1349 21.578 21.1414 21.6933 21.1414H21.7001H21.7085C21.8237 21.1414 21.9373 21.1349 22.0491 21.1237C22.6676 21.0655 23.3607 20.8121 24.0826 20.1309H28.7881V20.1326ZM25.1653 16.5008L26.0836 17.0093H26.0972L26.3277 17.1369C25.8092 17.274 25.4128 17.521 25.0806 17.8455C25.0688 17.8551 25.057 17.8681 25.0449 17.8793C24.9688 17.9567 24.8924 18.0408 24.8213 18.1263C24.8077 18.1424 24.7941 18.1603 24.7789 18.178C24.7077 18.265 24.6418 18.3539 24.5773 18.4475C24.5671 18.4637 24.5552 18.4799 24.5434 18.4943C24.4671 18.6025 24.3944 18.7187 24.3215 18.838C23.6674 19.9115 22.6235 20.5523 21.6951 20.5538C20.7682 20.5523 19.7243 19.9115 19.0702 18.838C18.9991 18.7218 18.928 18.609 18.8516 18.4991C18.8364 18.4782 18.8228 18.4572 18.8094 18.4394C18.7449 18.3506 18.6805 18.2635 18.6144 18.1812C18.5976 18.1586 18.5822 18.1407 18.5653 18.1215C18.494 18.0391 18.4212 17.9567 18.3483 17.8809C18.3332 17.8697 18.3229 17.8551 18.3077 17.8422C17.9739 17.5178 17.5791 17.2725 17.0588 17.1369L17.2928 17.0093H17.3028L18.2213 16.5008L19.1652 15.986L21.6866 17.2934L21.6916 17.2886L21.6984 17.2934L24.2198 15.986L25.1653 16.5008ZM23.9215 15.4178L21.9119 16.4266V12.343L24.6384 11.4618L23.9215 15.4178ZM21.6933 11.8943L18.7042 10.7694C18.9584 10.1964 20.131 9.70883 21.6933 9.70722C23.2573 9.70883 24.4298 10.1964 24.6823 10.7694L21.6933 11.8943Z" fill="black"/>
<path id="Vector_18" d="M58.7076 28.9769V22.5139H62.6874V20.1621H51.8301V22.5139H55.8098V28.9769H58.7076ZM66.6484 25.2917V20.1621H63.8471V28.9769H66.32L71.1497 23.8472V28.9769H73.951V20.1621H71.4781L66.6484 25.2917ZM83.3751 25.6991V28.9769H86.1766V20.1621H83.3751V23.3843H78.8737V20.1621H76.0724V28.9769H78.8737V25.6991H83.3751ZM93.9775 28.9769C94.6148 28.9769 95.1943 28.9215 95.7354 28.7732C97.1852 28.3844 98.1308 27.2547 98.1308 25.7177C98.1308 24.2548 97.32 23.2362 96.026 22.7732C95.4063 22.551 94.6735 22.5324 93.9775 22.5324H91.0988V20.1621H88.2981V28.9769H93.9775ZM93.4942 24.6066C93.8811 24.6066 94.248 24.6066 94.5762 24.7177C95.0403 24.8658 95.3108 25.2362 95.3108 25.6806C95.3108 26.1436 95.0403 26.5325 94.5956 26.7177C94.2865 26.8473 93.9775 26.8473 93.4942 26.8473H91.0988V24.6066H93.4942ZM103.154 25.6436L106.496 28.9769H110.224L105.569 24.3843L110.051 20.1621H106.535L103.154 23.4769H102.381V20.1621H99.5806V28.9769H102.381V25.6436H103.154ZM115.988 19.9214C112.221 19.9214 109.961 21.9584 109.961 24.588C109.961 27.2177 112.221 29.2548 115.988 29.2548C119.737 29.2548 121.997 27.2177 121.997 24.588C121.997 21.9584 119.737 19.9214 115.988 19.9214ZM115.988 27.1067C114.114 27.1067 112.917 26.0325 112.917 24.588C112.917 23.1437 114.114 22.0881 115.988 22.0881C117.843 22.0881 119.06 23.1437 119.06 24.588C119.06 26.0325 117.843 27.1067 115.988 27.1067ZM131.326 19.6621H128.525V20.551C125.009 20.625 122.903 22.051 122.903 24.5696C122.903 27.088 125.009 28.4029 128.525 28.477V29.3658H131.326V28.477C134.861 28.4029 136.967 27.088 136.967 24.5696C136.967 22.051 134.861 20.625 131.326 20.551V19.6621ZM128.525 26.5881C126.592 26.5139 125.743 25.7548 125.743 24.5696C125.743 23.3843 126.592 22.5324 128.525 22.4585V26.5881ZM131.326 22.4585C133.278 22.5324 134.108 23.3843 134.108 24.5696C134.108 25.7548 133.278 26.5139 131.326 26.5881V22.4585ZM146.286 19.6621H143.485V20.551C139.97 20.625 137.864 22.051 137.864 24.5696C137.864 27.088 139.97 28.4029 143.485 28.477V29.3658H146.286V28.477C149.823 28.4029 151.928 27.088 151.928 24.5696C151.928 22.051 149.823 20.625 146.286 20.551V19.6621ZM143.485 26.5881C141.554 26.5139 140.703 25.7548 140.703 24.5696C140.703 23.3843 141.554 22.5324 143.485 22.4585V26.5881ZM146.286 22.4585C148.239 22.5324 149.069 23.3843 149.069 24.5696C149.069 25.7548 148.239 26.5139 146.286 26.5881V22.4585Z" fill="black"/>
</g>
</g>
<defs>
<clipPath id="clip0_314_857">
<rect width="152.012" height="38.5361" fill="white"/>
</clipPath>
</defs>
</svg>
