<svg width="143" height="28" viewBox="0 0 143 28" fill="none" xmlns="http://www.w3.org/2000/svg">
<g id="Vector2" clip-path="url(#clip0_314_946)">
<path id="Vector" d="M59.6164 9.625C57.7561 9.625 56.3646 10.3297 55.6763 11.4953H55.5275V9.98312H52.1268V26.0005H55.5275V20.9229H55.6763C56.3609 22.0885 57.7561 22.7932 59.6164 22.7932C63.1064 22.7932 65.8745 19.8754 65.8745 16.2072C65.8745 12.5429 63.1064 9.625 59.6164 9.625ZM58.9282 19.624C57.0306 19.624 55.5275 18.1118 55.5275 16.2072C55.5275 14.2836 57.0306 12.7904 58.9282 12.7904C60.8815 12.7904 62.366 14.2836 62.366 16.2072C62.366 18.1308 60.8628 19.624 58.9282 19.624Z" fill="#3B175C"/>
<path id="Vector_2" d="M135.675 10.565C133.729 10.565 132.207 11.3193 131.28 12.6296H131.128C131.381 10.2603 132.691 9.10992 135.511 8.69857L140.448 7.96717V4.76367L135.184 5.52938C130.321 6.2226 127.988 8.85849 127.988 13.6086C127.988 17.0443 128.203 18.13 128.802 19.4289C129.744 21.5126 132.077 22.7924 134.898 22.7924C138.696 22.7924 141.627 20.0346 141.627 16.4235C141.624 12.9495 139.201 10.565 135.675 10.565ZM134.86 19.608C132.926 19.608 131.496 18.2557 131.496 16.4235C131.496 14.5723 132.906 13.22 134.86 13.22C136.775 13.22 138.19 14.5723 138.19 16.4235C138.19 18.2557 136.757 19.608 134.86 19.608Z" fill="#3B175C"/>
<path id="Vector_3" d="M48.5605 6.22251L44.7321 14.1227L39.5158 6.22251H35.4492L43.0206 17.6576L42.8123 18.0918C42.4848 18.7851 42.0532 19.1583 41.0561 19.1583H38.3773V22.4495H41.4356C43.7684 22.4495 44.7097 21.8438 45.6846 19.8517L52.3779 6.21875H48.5605V6.22251Z" fill="#3B175C"/>
<path id="Vector_4" d="M85.5182 9.99609L84.9379 17.7363C84.8486 18.9477 84.4504 19.3895 83.5091 19.3895H82.6758V22.5396H84.7035C86.9842 22.5396 87.9962 21.4731 88.1599 19.2486L88.6064 13.2339H92.7883V22.433H96.2261V9.99609H85.5182Z" fill="#3B175C"/>
<path id="Vector_5" d="M105.089 12.8266C106.48 12.8266 107.585 13.6265 108.11 14.6969L111.15 13.5237C110.301 11.1582 107.894 9.62695 105.018 9.62695C101.163 9.62695 98.2539 12.4723 98.2539 16.2129C98.2539 19.9497 101.167 22.7989 105.018 22.7989C107.894 22.7989 110.301 21.2676 111.15 18.9021L108.11 17.7289C107.585 18.7955 106.48 19.5992 105.089 19.5992C103.154 19.5992 101.759 18.1936 101.759 16.2168C101.759 14.2322 103.154 12.8266 105.089 12.8266Z" fill="#3B175C"/>
<path id="Vector_6" d="M121.889 9.97852L116.609 17.8863V9.97852H113.209V22.4344H116.97L122.217 14.5838V22.4344H125.617V9.97852H121.889Z" fill="#3B175C"/>
<path id="Vector_7" d="M77.5539 11.4894H77.4052C76.7205 10.3239 75.3254 9.61914 73.465 9.61914C69.9751 9.61914 67.207 12.537 67.207 16.2052C67.207 19.8695 69.9751 22.7911 73.465 22.7911C75.3254 22.7911 76.7168 22.0865 77.4052 20.9209H77.5539V22.4331H80.9546V9.97726H77.5539V11.4894ZM74.1571 19.6219C72.2224 19.6219 70.7192 18.1288 70.7192 16.2052C70.7192 14.2816 72.2038 12.7883 74.1571 12.7883C76.0546 12.7883 77.5577 14.2816 77.5577 16.2052C77.5539 18.1097 76.0546 19.6219 74.1571 19.6219Z" fill="#3B175C"/>
<path id="Vector_8" d="M25.864 14.6979C25.864 10.1879 23.4642 6.22254 19.8589 3.96381L19.9073 7.02632C22.0503 8.91187 23.4084 11.6544 23.4084 14.6979C23.4084 16.0882 23.1181 17.4138 22.6085 18.6252C21.057 17.1168 19.9519 15.3417 19.2637 13.2466C18.4339 10.7098 18.2405 7.93291 18.2107 4.53895L18.2145 3.08002C17.4704 2.75244 16.6927 2.49348 15.8965 2.31055L15.9003 4.53508C15.9783 16.252 17.9614 21.082 20.9118 24.7121C23.9293 22.3809 25.864 18.7623 25.864 14.6979C25.864 14.7017 25.864 14.7017 25.864 14.6979Z" fill="#3B175C"/>
<path id="Vector_9" d="M9.96748 4.53703L9.9712 2.3125C9.17499 2.49532 8.39738 2.7544 7.65327 3.08197L7.65699 4.54079C7.62351 7.93099 7.43375 10.7116 6.60406 13.2486C5.91947 15.3436 4.81074 17.1149 3.25924 18.627C2.74953 17.4158 2.45931 16.0902 2.45931 14.6999C2.45931 11.6525 3.81361 8.91371 5.96039 7.02816L6.00876 3.96565C2.39979 6.22062 0 10.186 0 14.696V14.6999C0 18.7641 1.93843 22.3829 4.95211 24.7141C7.90999 21.0877 9.88935 16.254 9.96748 4.53703Z" fill="#3B175C"/>
<path id="Vector_10" d="M14.093 0.049524C13.6726 0.0152392 13.2931 0 12.9359 0C12.5787 0 12.1992 0.0152392 11.775 0.049524V2.68159C11.775 14.2157 11.3397 19.2285 9.6543 27.0144C11.7899 27.5668 14.0595 27.5668 16.1989 27.0183C14.5246 19.2895 14.093 14.2767 14.093 2.68159V0.049524Z" fill="#3B175C"/>
</g>
<defs>
<clipPath id="clip0_314_946">
<rect width="142.706" height="27.6669" fill="white"/>
</clipPath>
</defs>
</svg>
