<svg width="90" height="33" viewBox="0 0 90 33" fill="none" xmlns="http://www.w3.org/2000/svg">
<g id="vtb 1" clip-path="url(#clip0_314_879)">
<g id="Group">
<path id="Vector" d="M26.0002 4.22835H4.63114L6.16978 0.00976562H27.5399L26.0002 4.22835ZM25.2314 6.33866H3.85109L2.31144 10.5583H23.6816L25.2314 6.33866ZM22.9209 12.6492H1.54263L0.00195312 16.8688H21.3537L22.922 12.6502L22.9209 12.6492Z" fill="#009FDF"/>
<path id="Vector_2" d="M76.921 27.4291H80.7691C81.3161 27.4942 81.8708 27.4241 82.3843 27.2251C82.8978 27.026 83.3542 26.7042 83.7135 26.2878C84.2416 25.599 84.5074 24.7458 84.4638 23.88C84.5 23.3293 84.3985 22.7782 84.1685 22.2762C83.9385 21.7742 83.5872 21.3369 83.146 21.0034C82.4318 20.5373 81.5823 20.3212 80.7313 20.3889H76.921V27.4291ZM71.8685 31.6772V6.3392H88.4101L86.9563 10.5884H76.921V16.1979H81.0104C84.3105 16.1979 86.0229 16.9845 87.2058 17.9913C88.0521 18.738 88.7177 19.6662 89.1528 20.706C89.5878 21.7458 89.7809 22.8703 89.7177 23.9951C89.7828 25.2064 89.5431 26.4147 89.0205 27.5102C88.4979 28.6057 87.7089 29.5537 86.7253 30.268C85.1376 31.3603 83.4742 31.668 80.0862 31.668L71.8685 31.6772ZM57.2244 31.6772V10.5782H49.8737V6.3392H70.2818L68.8281 10.5884H62.3239V31.6864L57.2244 31.6772ZM36.8542 16.4862H39.7413C40.3315 16.5263 40.9245 16.481 41.5017 16.3517C42.102 16.1605 42.6193 15.7717 42.9689 15.2491C43.3185 14.7264 43.4796 14.101 43.4258 13.4751C43.506 12.8531 43.3544 12.2234 42.9998 11.7054C42.6451 11.1874 42.1121 10.8171 41.5017 10.6648C40.8715 10.5187 40.224 10.4604 39.5777 10.4916H36.8542V16.4862ZM36.8542 20.8689V27.5147H40.3761C41.3465 27.6251 42.3221 27.3571 43.0986 26.7667C43.4567 26.4363 43.7373 26.0312 43.9203 25.5803C44.1034 25.1294 44.1845 24.6438 44.1578 24.1581C44.1728 23.3821 43.9361 22.622 43.4831 21.9908C42.7337 21.0319 41.8095 20.8495 40.232 20.8495L36.8542 20.8689ZM44.9941 18.193V18.2796C45.852 18.6086 46.6538 19.0678 47.371 19.641C48.0959 20.2406 48.6687 21.002 49.0432 21.8634C49.4176 22.7249 49.5831 23.6622 49.5261 24.5994C49.5261 28.0619 47.6788 30.5645 44.6485 31.3124C43.4401 31.6071 42.1954 31.7269 40.9527 31.668H31.8027V6.33818H39.9427C41.2357 6.29097 42.5294 6.41015 43.7918 6.69279C46.7362 7.47944 48.6704 9.50314 48.6704 12.6966C48.6946 13.458 48.5629 14.2163 48.2834 14.9253C48.0039 15.6342 47.5825 16.2791 47.0449 16.8205C46.4734 17.3985 45.7927 17.8581 45.0421 18.1726L44.9941 18.193Z" fill="#0A2973"/>
</g>
</g>
<defs>
<clipPath id="clip0_314_879">
<rect width="89.9666" height="32.6074" fill="white"/>
</clipPath>
</defs>
</svg>
