<svg width="112" height="35" viewBox="0 0 112 35" fill="none" xmlns="http://www.w3.org/2000/svg">
<g id="bank-zenit 1" clip-path="url(#clip0_314_1021)">
<path id="Vector" d="M29.9258 5.45227C29.7887 4.54145 29.2968 3.93325 28.466 3.64461C28.0708 3.50727 27.6142 3.4238 27.0682 3.39022C26.7357 3.36993 26.4029 3.39587 26.0812 3.42147C26.0379 3.42547 25.9944 3.42846 25.9511 3.43212V1.43558L27.5022 1.44223L29.2176 1.69828L29.2834 0.0761719H23.9831L24.1941 2.10065L24.2141 6.6311L23.9707 8.78094L24.2777 8.77795C24.2784 8.77728 25.0042 8.7703 25.3475 8.77961C25.5333 8.78427 25.7191 8.79524 25.9043 8.80455C26.1627 8.81952 26.4271 8.83381 26.6925 8.83381C26.7535 8.83381 26.815 8.83315 26.8751 8.83149C27.8735 8.80322 28.6346 8.54584 29.2026 8.04438C30.0843 7.26425 30.0375 6.19083 29.9258 5.45227ZM28.2006 5.89687C28.2 6.08641 28.1876 6.25135 28.1631 6.40165C28.0944 6.81632 27.8879 7.10297 27.5477 7.25228C27.0985 7.4528 26.6104 7.506 25.9447 7.4252V4.83874C26.549 4.75428 27.136 4.732 27.6861 5.02363C28.0333 5.20785 28.2013 5.4935 28.2006 5.89687Z" fill="#191646"/>
<path id="Vector_2" d="M35.1945 1.07608L34.9396 0L33.1947 0.0229449L32.9933 0.968675L30.8834 6.68096L29.9629 8.73038L31.795 8.75964L32.1138 7.19905L32.5523 6.00991L35.1814 6.00459L35.785 7.52095L36.1061 8.73902L38.4721 8.74135L37.6655 7.29017L35.1945 1.07608ZM34.6809 4.68509C34.4051 4.68908 34.1238 4.69606 33.8422 4.70304C33.5657 4.71003 33.2889 4.71734 33.0175 4.72067C33.1766 4.306 33.3455 3.88933 33.5135 3.47532C33.6395 3.1644 33.7652 2.85548 33.8851 2.54921L34.6809 4.68509Z" fill="#191646"/>
<path id="Vector_3" d="M52.1376 8.75089L54.5475 8.72496L50.7137 4.18984L54.3076 0.0507812L52.1933 0.0670755L51.5611 0.99252C51.5611 0.99252 49.9396 2.85372 49.0617 3.86895L49.0627 1.61503L49.3109 0.0743912H47.0957L47.2303 1.59408L47.2621 6.95088L47.0938 8.7356H49.3045L49.0608 6.96418L49.0617 4.83396L52.1376 8.75089Z" fill="#191646"/>
<path id="Vector_4" d="M45.5903 6.14684C45.5855 5.56491 45.6145 1.65363 45.6126 1.65429L45.8082 0.0957031H43.6201L43.7986 1.60209C43.7986 1.60209 43.804 2.748 43.805 3.42704H40.7116C40.695 2.44274 40.6995 1.43316 40.9391 0.450851L41.0243 0.0986959H38.7481L38.7859 0.415934C38.7996 0.528664 38.9291 1.7361 38.9453 2.29343C38.9784 3.46229 38.9689 4.65443 38.959 5.80799L38.9571 6.06537C38.9533 6.56052 38.847 8.06823 38.7971 8.33725L38.7344 8.67411H40.9286L40.8942 8.35953C40.8723 8.15835 40.8478 7.95883 40.8236 7.75897C40.7685 7.30905 40.7167 6.88407 40.6925 6.45145C40.6696 6.01616 40.6743 5.56724 40.681 5.13195C40.682 5.0282 40.6833 4.92578 40.6842 4.82136H43.8326C43.8326 5.03751 43.8358 5.25399 43.839 5.46947C43.8524 6.4581 43.8648 7.39219 43.622 8.31863L43.5291 8.67511H45.8273L45.7659 8.34025C45.6202 7.54515 45.5957 6.75006 45.5903 6.14684Z" fill="#191646"/>
<path id="Vector_5" d="M73.1615 13.0326L73.2267 12.6895H68.5361L68.5733 13.0117C68.7426 14.4818 68.8628 15.8615 68.9398 17.2286C68.9958 18.2099 68.9828 19.2204 68.9694 20.1984C68.9647 20.5459 68.9599 20.8931 68.9583 21.2429H60.1837C60.1357 18.5514 60.1112 15.7757 60.7717 13.0539L60.858 12.6961H56.0263L56.0655 13.0207C56.0693 13.0493 56.4317 16.3261 56.4766 17.8817C56.5634 20.8791 56.5383 23.9318 56.5141 26.8844L56.5087 27.5854C56.4976 28.8716 56.2195 32.7952 56.089 33.4978L56.0254 33.84H60.6814L60.6464 33.5198C60.5904 33.009 60.5287 32.5019 60.4669 31.9961C60.3301 30.8804 60.1891 29.7259 60.1284 28.5959C60.0666 27.4637 60.0819 26.3018 60.0959 25.1791C60.1013 24.7695 60.1064 24.3594 60.108 23.9498H69.0264C69.0216 24.6517 69.0318 25.3574 69.041 26.0424C69.0754 28.6139 69.1094 31.0424 68.4696 33.4822L68.3741 33.847H73.2232L73.1602 33.5045C72.7803 31.4255 72.7164 29.3588 72.7036 27.7905C72.6906 26.2273 72.7043 19.3029 72.7657 17.3898C72.8262 15.5522 72.9553 14.127 73.1615 13.0326Z" fill="#191646"/>
<path id="Vector_6" d="M44.5437 31.2606V23.7659C46.7853 23.8317 51.0591 24.1856 51.1037 24.1886L51.4002 24.2128L51.4126 20.7744L44.543 21.1814V15.2753C46.5934 15.2493 50.4234 15.2287 52.4165 15.8738L52.728 15.9743L52.7713 15.6371C52.9097 14.55 52.8136 13.0343 52.8088 12.9702L52.7913 12.7031H40.3917L40.4416 13.034C40.8559 15.8107 40.8301 18.6276 40.805 21.3507C40.799 21.9812 40.7926 22.613 40.7926 23.2471C40.8263 27.2765 40.4057 33.4553 40.4012 33.5165L40.3809 33.8234L52.708 33.8859L52.7169 33.6056C52.7366 32.9199 52.7945 31.0823 52.8231 30.8156L52.8664 30.4223L52.4948 30.5001C50.0428 31.0218 47.7223 31.2453 44.5437 31.2606Z" fill="#191646"/>
<path id="Vector_7" d="M34.0111 21.9928C34.0101 21.9922 34.0085 21.9915 34.0069 21.9905C34.0667 21.9536 34.1224 21.9164 34.1771 21.8774C35.2902 21.0847 36.5782 19.9198 36.6545 17.9346C36.7611 15.1862 35.3277 13.2485 32.7205 12.616C30.469 12.0713 28.1511 12.1574 25.6336 12.8794L25.6008 12.8894C24.3819 13.2399 24.1734 13.3536 24.2113 13.6552C24.28 14.2105 24.385 14.8354 24.4869 15.4406C24.561 15.8838 24.6361 16.3308 24.6994 16.7617C24.7226 16.9213 24.8292 17.0507 24.9775 17.0999C25.1239 17.1468 25.282 17.1049 25.3876 16.9885L25.5448 16.8149C26.724 15.5154 28.2653 14.9009 30.232 14.9444C31.4812 14.969 32.5191 15.7944 32.7574 16.9499C33.0842 18.5444 32.5328 19.9275 31.3526 20.4748C30.7879 20.7355 30.1302 20.9354 29.3417 21.0824C28.5777 21.225 27.0651 21.3294 27.0492 21.3308L26.7806 21.3494L26.8936 24.0419L27.1653 24.0319C27.1787 24.0316 28.523 23.9861 29.6478 23.9857H29.6497C30.1575 23.9857 31.7841 24.1021 32.6136 24.6209C33.3473 25.0811 33.8742 25.8306 34.0219 26.6277C34.2456 27.8265 34.4409 30.6896 31.4538 31.372C28.8698 31.9612 26.7657 31.368 25.1986 29.6062C25.0647 29.4556 24.9294 29.305 24.7719 29.131L24.6071 28.9475C24.5079 28.8381 24.3621 28.8002 24.2253 28.8464C24.0888 28.8929 23.9927 29.014 23.9752 29.163L23.8976 29.8214C23.8222 30.4678 23.7525 31.077 23.6596 31.6756C23.5803 32.1943 23.7464 32.5299 24.2174 32.7999C25.9616 33.7955 27.8812 34.2973 29.9377 34.2973C30.3309 34.2973 30.7287 34.2797 31.1315 34.2428C32.786 34.0925 34.3035 33.4606 35.5196 32.4165C37.2922 30.8971 38.0969 29.0519 37.9098 26.9363C37.6966 24.5221 36.3857 22.8584 34.0111 21.9928Z" fill="#191646"/>
<path id="Vector_8" d="M93.0952 24.6223C93.0971 24.173 93.0983 23.7261 93.0983 23.2825C93.098 22.8688 93.0964 22.4535 93.0949 22.0375C93.0828 19.0423 93.0704 15.9468 93.5817 13.0381L93.6418 12.6992H88.8092L88.871 13.0394C89.0336 13.9409 89.1739 14.8999 89.2881 15.8906C89.3228 16.1952 89.2852 16.3485 89.1312 16.5194C87.596 18.2373 86.0938 19.9851 84.641 21.6757C83.3148 23.2193 81.9447 24.8128 80.5511 26.3817C80.5829 25.0582 80.5571 23.7371 80.5326 22.4525C80.4706 19.2126 80.4117 16.1516 81.1779 13.0723L81.2676 12.7115H76.3145L76.4239 13.083C76.8866 14.6565 76.8885 16.2045 76.8897 17.8422L76.8942 19.4174C76.9031 22.1698 76.9123 25.0157 76.8869 27.8133C76.883 28.2346 76.8935 28.6599 76.904 29.0726C76.9231 29.8444 76.9425 30.6435 76.8659 31.4163C76.82 31.8822 76.7173 32.3401 76.6078 32.8259C76.5582 33.0487 76.5082 33.2722 76.463 33.4993L76.394 33.8445H81.1604L81.1101 33.5126C81.0074 32.8266 80.937 32.1425 80.8696 31.4801C80.8304 31.0944 80.7913 30.7106 80.7458 30.3259C80.7274 30.1693 80.797 29.9295 80.8919 29.8224C82.2521 28.2821 83.5932 26.7226 84.8898 25.2135C86.3602 23.502 87.8801 21.7335 89.4294 19.9937C89.43 20.1709 89.43 20.3469 89.4306 20.5194C89.4326 21.3381 89.4348 22.1153 89.4262 22.8918C89.4157 23.8285 89.4268 24.7789 89.4373 25.6983C89.4529 27.112 89.4695 28.5741 89.4093 30.0067C89.3756 30.8004 89.247 31.5772 89.1115 32.3999C89.0501 32.77 88.9893 33.1402 88.9371 33.5126L88.891 33.8421H93.6434L93.581 33.5016C93.0758 30.7106 93.0859 27.6161 93.0952 24.6223Z" fill="#191646"/>
<path id="Vector_9" d="M105.295 15.5123C105.295 15.4721 105.299 15.4072 105.305 15.3357L111.409 16.1568L111.019 12.6602H95.7578L95.4199 16.1554L101.955 15.3324V15.7042C101.955 18.3478 101.951 28.1932 101.95 28.674L101.32 33.8373H105.948L105.369 28.7652C105.369 28.677 105.31 19.8788 105.295 15.5123Z" fill="#191646"/>
<path id="Vector_10" d="M0 33.705L16.116 33.6861L16.1078 17.0117C12.7538 23.6624 6.46328 27.99 0.00827279 29.6441C0.0264093 30.9037 0 33.705 0 33.705Z" fill="#008FB4"/>
<path id="Vector_11" d="M5.15234 25.3077C11.2344 22.0974 14.1671 16.2262 14.1671 16.2262C14.1671 16.2262 14.1461 14.2985 14.1461 14.2576C10.7947 13.0272 7.75668 11.2252 5.15839 8.52734C5.17207 13.103 5.15234 25.3077 5.15234 25.3077Z" fill="#008FB4"/>
<path id="Vector_12" d="M6.0174 0.0800781C6.0174 0.0800781 6.01581 5.17849 6.00977 6.45011C7.60705 8.00138 8.41015 8.72731 10.0711 9.83664L10.0841 3.00173C8.18583 1.91135 7.45369 1.33174 6.0174 0.0800781Z" fill="#008FB4"/>
</g>
<defs>
<clipPath id="clip0_314_1021">
<rect width="111.683" height="34.5836" fill="white"/>
</clipPath>
</defs>
</svg>
